G04 EAGLE Gerber RS-274X export*
G75*
%MOMM*%
%FSLAX34Y34*%
%LPD*%
%INSoldermask Bottom*%
%IPPOS*%
%AMOC8*
5,1,8,0,0,1.08239X$1,22.5*%
G01*
%ADD10C,0.838200*%
%ADD11R,1.473200X0.838200*%
%ADD12C,2.082800*%
%ADD13R,1.473200X0.863600*%
%ADD14C,3.505200*%
%ADD15R,0.553200X2.153200*%
%ADD16C,0.863600*%
%ADD17C,1.203200*%
%ADD18C,1.270000*%
%ADD19C,1.703200*%

G36*
X454750Y1297470D02*
X454750Y1297470D01*
X454816Y1297472D01*
X454860Y1297489D01*
X454906Y1297498D01*
X454963Y1297531D01*
X455024Y1297556D01*
X455059Y1297588D01*
X455099Y1297612D01*
X455141Y1297663D01*
X455189Y1297707D01*
X455211Y1297750D01*
X455241Y1297786D01*
X455262Y1297848D01*
X455292Y1297907D01*
X455300Y1297961D01*
X455313Y1297999D01*
X455312Y1298038D01*
X455320Y1298092D01*
X455320Y1301902D01*
X455308Y1301967D01*
X455306Y1302033D01*
X455288Y1302077D01*
X455280Y1302123D01*
X455246Y1302180D01*
X455222Y1302241D01*
X455190Y1302276D01*
X455166Y1302316D01*
X455115Y1302358D01*
X455070Y1302406D01*
X455028Y1302428D01*
X454992Y1302458D01*
X454929Y1302479D01*
X454871Y1302509D01*
X454816Y1302517D01*
X454779Y1302530D01*
X454740Y1302529D01*
X454685Y1302537D01*
X441477Y1302537D01*
X441413Y1302525D01*
X441347Y1302523D01*
X441303Y1302505D01*
X441257Y1302497D01*
X441200Y1302463D01*
X441139Y1302439D01*
X441104Y1302407D01*
X441063Y1302383D01*
X441022Y1302332D01*
X440973Y1302287D01*
X440952Y1302245D01*
X440922Y1302209D01*
X440901Y1302146D01*
X440871Y1302088D01*
X440863Y1302033D01*
X440850Y1301996D01*
X440850Y1301992D01*
X440851Y1301956D01*
X440843Y1301902D01*
X440843Y1298092D01*
X440855Y1298028D01*
X440857Y1297962D01*
X440874Y1297918D01*
X440883Y1297872D01*
X440916Y1297815D01*
X440941Y1297754D01*
X440973Y1297719D01*
X440997Y1297678D01*
X441048Y1297637D01*
X441092Y1297588D01*
X441135Y1297567D01*
X441171Y1297537D01*
X441233Y1297516D01*
X441292Y1297486D01*
X441346Y1297478D01*
X441384Y1297465D01*
X441423Y1297466D01*
X441477Y1297458D01*
X454685Y1297458D01*
X454750Y1297470D01*
G37*
G36*
X69686Y1297470D02*
X69686Y1297470D01*
X69752Y1297472D01*
X69796Y1297489D01*
X69842Y1297498D01*
X69899Y1297531D01*
X69960Y1297556D01*
X69995Y1297588D01*
X70035Y1297612D01*
X70077Y1297663D01*
X70125Y1297707D01*
X70147Y1297750D01*
X70177Y1297786D01*
X70198Y1297848D01*
X70228Y1297907D01*
X70236Y1297961D01*
X70249Y1297999D01*
X70248Y1298038D01*
X70256Y1298092D01*
X70256Y1301902D01*
X70244Y1301967D01*
X70242Y1302033D01*
X70224Y1302077D01*
X70216Y1302123D01*
X70182Y1302180D01*
X70158Y1302241D01*
X70126Y1302276D01*
X70102Y1302316D01*
X70051Y1302358D01*
X70006Y1302406D01*
X69964Y1302428D01*
X69928Y1302458D01*
X69865Y1302479D01*
X69807Y1302509D01*
X69752Y1302517D01*
X69715Y1302530D01*
X69676Y1302529D01*
X69621Y1302537D01*
X56413Y1302537D01*
X56349Y1302525D01*
X56283Y1302523D01*
X56239Y1302505D01*
X56193Y1302497D01*
X56136Y1302463D01*
X56075Y1302439D01*
X56040Y1302407D01*
X55999Y1302383D01*
X55958Y1302332D01*
X55909Y1302287D01*
X55888Y1302245D01*
X55858Y1302209D01*
X55837Y1302146D01*
X55807Y1302088D01*
X55799Y1302033D01*
X55786Y1301996D01*
X55786Y1301992D01*
X55787Y1301956D01*
X55779Y1301902D01*
X55779Y1298092D01*
X55791Y1298028D01*
X55793Y1297962D01*
X55810Y1297918D01*
X55819Y1297872D01*
X55852Y1297815D01*
X55877Y1297754D01*
X55909Y1297719D01*
X55933Y1297678D01*
X55984Y1297637D01*
X56028Y1297588D01*
X56071Y1297567D01*
X56107Y1297537D01*
X56169Y1297516D01*
X56228Y1297486D01*
X56282Y1297478D01*
X56320Y1297465D01*
X56359Y1297466D01*
X56413Y1297458D01*
X69621Y1297458D01*
X69686Y1297470D01*
G37*
G36*
X708750Y73672D02*
X708750Y73672D01*
X708816Y73674D01*
X708860Y73692D01*
X708906Y73700D01*
X708963Y73734D01*
X709024Y73759D01*
X709059Y73790D01*
X709099Y73815D01*
X709141Y73866D01*
X709189Y73910D01*
X709211Y73952D01*
X709241Y73989D01*
X709262Y74051D01*
X709292Y74110D01*
X709300Y74164D01*
X709313Y74201D01*
X709312Y74241D01*
X709320Y74295D01*
X709320Y78105D01*
X709308Y78170D01*
X709306Y78236D01*
X709288Y78279D01*
X709280Y78326D01*
X709246Y78383D01*
X709222Y78443D01*
X709190Y78478D01*
X709166Y78519D01*
X709115Y78561D01*
X709070Y78609D01*
X709028Y78631D01*
X708992Y78660D01*
X708929Y78681D01*
X708871Y78712D01*
X708816Y78720D01*
X708779Y78732D01*
X708740Y78731D01*
X708685Y78739D01*
X695477Y78739D01*
X695413Y78728D01*
X695347Y78726D01*
X695303Y78708D01*
X695257Y78700D01*
X695200Y78666D01*
X695139Y78641D01*
X695104Y78610D01*
X695063Y78585D01*
X695022Y78534D01*
X694973Y78490D01*
X694952Y78448D01*
X694922Y78411D01*
X694901Y78349D01*
X694871Y78290D01*
X694863Y78236D01*
X694850Y78199D01*
X694850Y78195D01*
X694850Y78194D01*
X694851Y78159D01*
X694843Y78105D01*
X694843Y74295D01*
X694855Y74230D01*
X694857Y74164D01*
X694874Y74121D01*
X694883Y74074D01*
X694916Y74017D01*
X694941Y73957D01*
X694973Y73922D01*
X694997Y73881D01*
X695048Y73840D01*
X695092Y73791D01*
X695135Y73769D01*
X695171Y73740D01*
X695233Y73719D01*
X695292Y73688D01*
X695346Y73680D01*
X695384Y73668D01*
X695423Y73669D01*
X695477Y73661D01*
X708685Y73661D01*
X708750Y73672D01*
G37*
G36*
X323661Y73672D02*
X323661Y73672D01*
X323727Y73674D01*
X323770Y73692D01*
X323817Y73700D01*
X323874Y73734D01*
X323934Y73759D01*
X323969Y73790D01*
X324010Y73815D01*
X324052Y73866D01*
X324100Y73910D01*
X324122Y73952D01*
X324151Y73989D01*
X324172Y74051D01*
X324203Y74110D01*
X324211Y74164D01*
X324223Y74201D01*
X324222Y74241D01*
X324230Y74295D01*
X324230Y78105D01*
X324219Y78170D01*
X324217Y78236D01*
X324199Y78279D01*
X324191Y78326D01*
X324157Y78383D01*
X324132Y78443D01*
X324101Y78478D01*
X324076Y78519D01*
X324025Y78561D01*
X323981Y78609D01*
X323939Y78631D01*
X323902Y78660D01*
X323840Y78681D01*
X323781Y78712D01*
X323727Y78720D01*
X323690Y78732D01*
X323650Y78731D01*
X323596Y78739D01*
X310388Y78739D01*
X310323Y78728D01*
X310257Y78726D01*
X310214Y78708D01*
X310167Y78700D01*
X310110Y78666D01*
X310050Y78641D01*
X310015Y78610D01*
X309974Y78585D01*
X309933Y78534D01*
X309884Y78490D01*
X309862Y78448D01*
X309833Y78411D01*
X309812Y78349D01*
X309781Y78290D01*
X309773Y78236D01*
X309761Y78199D01*
X309761Y78195D01*
X309761Y78194D01*
X309762Y78159D01*
X309754Y78105D01*
X309754Y74295D01*
X309765Y74230D01*
X309767Y74164D01*
X309785Y74121D01*
X309793Y74074D01*
X309827Y74017D01*
X309852Y73957D01*
X309883Y73922D01*
X309908Y73881D01*
X309959Y73840D01*
X310003Y73791D01*
X310045Y73769D01*
X310082Y73740D01*
X310144Y73719D01*
X310203Y73688D01*
X310257Y73680D01*
X310294Y73668D01*
X310334Y73669D01*
X310388Y73661D01*
X323596Y73661D01*
X323661Y73672D01*
G37*
G36*
X424016Y1297470D02*
X424016Y1297470D01*
X424082Y1297472D01*
X424126Y1297489D01*
X424172Y1297498D01*
X424229Y1297531D01*
X424290Y1297556D01*
X424325Y1297588D01*
X424365Y1297612D01*
X424407Y1297663D01*
X424455Y1297707D01*
X424477Y1297750D01*
X424507Y1297786D01*
X424528Y1297848D01*
X424558Y1297907D01*
X424566Y1297961D01*
X424579Y1297999D01*
X424578Y1298038D01*
X424586Y1298092D01*
X424586Y1301902D01*
X424574Y1301967D01*
X424572Y1302033D01*
X424554Y1302077D01*
X424546Y1302123D01*
X424512Y1302180D01*
X424488Y1302241D01*
X424456Y1302276D01*
X424432Y1302316D01*
X424381Y1302358D01*
X424336Y1302406D01*
X424294Y1302428D01*
X424258Y1302458D01*
X424195Y1302479D01*
X424137Y1302509D01*
X424082Y1302517D01*
X424045Y1302530D01*
X424006Y1302529D01*
X423951Y1302537D01*
X421411Y1302537D01*
X421347Y1302525D01*
X421281Y1302523D01*
X421237Y1302505D01*
X421191Y1302497D01*
X421134Y1302463D01*
X421073Y1302439D01*
X421038Y1302407D01*
X420997Y1302383D01*
X420956Y1302332D01*
X420907Y1302287D01*
X420886Y1302245D01*
X420856Y1302209D01*
X420835Y1302146D01*
X420805Y1302088D01*
X420797Y1302033D01*
X420784Y1301996D01*
X420784Y1301992D01*
X420785Y1301956D01*
X420777Y1301902D01*
X420777Y1298092D01*
X420789Y1298028D01*
X420791Y1297962D01*
X420808Y1297918D01*
X420817Y1297872D01*
X420850Y1297815D01*
X420875Y1297754D01*
X420907Y1297719D01*
X420931Y1297678D01*
X420982Y1297637D01*
X421026Y1297588D01*
X421069Y1297567D01*
X421105Y1297537D01*
X421167Y1297516D01*
X421226Y1297486D01*
X421280Y1297478D01*
X421318Y1297465D01*
X421357Y1297466D01*
X421411Y1297458D01*
X423951Y1297458D01*
X424016Y1297470D01*
G37*
G36*
X38952Y1297470D02*
X38952Y1297470D01*
X39018Y1297472D01*
X39062Y1297489D01*
X39108Y1297498D01*
X39165Y1297531D01*
X39226Y1297556D01*
X39261Y1297588D01*
X39301Y1297612D01*
X39343Y1297663D01*
X39391Y1297707D01*
X39413Y1297750D01*
X39443Y1297786D01*
X39464Y1297848D01*
X39494Y1297907D01*
X39502Y1297961D01*
X39515Y1297999D01*
X39514Y1298038D01*
X39522Y1298092D01*
X39522Y1301902D01*
X39510Y1301967D01*
X39508Y1302033D01*
X39490Y1302077D01*
X39482Y1302123D01*
X39448Y1302180D01*
X39424Y1302241D01*
X39392Y1302276D01*
X39368Y1302316D01*
X39317Y1302358D01*
X39272Y1302406D01*
X39230Y1302428D01*
X39194Y1302458D01*
X39131Y1302479D01*
X39073Y1302509D01*
X39018Y1302517D01*
X38981Y1302530D01*
X38942Y1302529D01*
X38887Y1302537D01*
X36347Y1302537D01*
X36283Y1302525D01*
X36217Y1302523D01*
X36173Y1302505D01*
X36127Y1302497D01*
X36070Y1302463D01*
X36009Y1302439D01*
X35974Y1302407D01*
X35933Y1302383D01*
X35892Y1302332D01*
X35843Y1302287D01*
X35822Y1302245D01*
X35792Y1302209D01*
X35771Y1302146D01*
X35741Y1302088D01*
X35733Y1302033D01*
X35720Y1301996D01*
X35720Y1301992D01*
X35721Y1301956D01*
X35713Y1301902D01*
X35713Y1298092D01*
X35725Y1298028D01*
X35727Y1297962D01*
X35744Y1297918D01*
X35753Y1297872D01*
X35786Y1297815D01*
X35811Y1297754D01*
X35843Y1297719D01*
X35867Y1297678D01*
X35918Y1297637D01*
X35962Y1297588D01*
X36005Y1297567D01*
X36041Y1297537D01*
X36103Y1297516D01*
X36162Y1297486D01*
X36216Y1297478D01*
X36254Y1297465D01*
X36293Y1297466D01*
X36347Y1297458D01*
X38887Y1297458D01*
X38952Y1297470D01*
G37*
G36*
X728816Y73672D02*
X728816Y73672D01*
X728882Y73674D01*
X728926Y73692D01*
X728972Y73700D01*
X729029Y73734D01*
X729090Y73759D01*
X729125Y73790D01*
X729165Y73815D01*
X729207Y73866D01*
X729255Y73910D01*
X729277Y73952D01*
X729307Y73989D01*
X729328Y74051D01*
X729358Y74110D01*
X729366Y74164D01*
X729379Y74201D01*
X729378Y74241D01*
X729386Y74295D01*
X729386Y78105D01*
X729374Y78170D01*
X729372Y78236D01*
X729354Y78279D01*
X729346Y78326D01*
X729312Y78383D01*
X729288Y78443D01*
X729256Y78478D01*
X729232Y78519D01*
X729181Y78561D01*
X729136Y78609D01*
X729094Y78631D01*
X729058Y78660D01*
X728995Y78681D01*
X728937Y78712D01*
X728882Y78720D01*
X728845Y78732D01*
X728806Y78731D01*
X728751Y78739D01*
X726211Y78739D01*
X726147Y78728D01*
X726081Y78726D01*
X726037Y78708D01*
X725991Y78700D01*
X725934Y78666D01*
X725873Y78641D01*
X725838Y78610D01*
X725797Y78585D01*
X725756Y78534D01*
X725707Y78490D01*
X725686Y78448D01*
X725656Y78411D01*
X725635Y78349D01*
X725605Y78290D01*
X725597Y78236D01*
X725584Y78199D01*
X725584Y78195D01*
X725584Y78194D01*
X725585Y78159D01*
X725577Y78105D01*
X725577Y74295D01*
X725589Y74230D01*
X725591Y74164D01*
X725608Y74121D01*
X725617Y74074D01*
X725650Y74017D01*
X725675Y73957D01*
X725707Y73922D01*
X725731Y73881D01*
X725782Y73840D01*
X725826Y73791D01*
X725869Y73769D01*
X725905Y73740D01*
X725967Y73719D01*
X726026Y73688D01*
X726080Y73680D01*
X726118Y73668D01*
X726157Y73669D01*
X726211Y73661D01*
X728751Y73661D01*
X728816Y73672D01*
G37*
G36*
X343727Y73672D02*
X343727Y73672D01*
X343793Y73674D01*
X343836Y73692D01*
X343883Y73700D01*
X343940Y73734D01*
X344000Y73759D01*
X344035Y73790D01*
X344076Y73815D01*
X344118Y73866D01*
X344166Y73910D01*
X344188Y73952D01*
X344217Y73989D01*
X344238Y74051D01*
X344269Y74110D01*
X344277Y74164D01*
X344289Y74201D01*
X344288Y74241D01*
X344296Y74295D01*
X344296Y78105D01*
X344285Y78170D01*
X344283Y78236D01*
X344265Y78279D01*
X344257Y78326D01*
X344223Y78383D01*
X344198Y78443D01*
X344167Y78478D01*
X344142Y78519D01*
X344091Y78561D01*
X344047Y78609D01*
X344005Y78631D01*
X343968Y78660D01*
X343906Y78681D01*
X343847Y78712D01*
X343793Y78720D01*
X343756Y78732D01*
X343716Y78731D01*
X343662Y78739D01*
X341122Y78739D01*
X341057Y78728D01*
X340991Y78726D01*
X340948Y78708D01*
X340901Y78700D01*
X340844Y78666D01*
X340784Y78641D01*
X340749Y78610D01*
X340708Y78585D01*
X340667Y78534D01*
X340618Y78490D01*
X340596Y78448D01*
X340567Y78411D01*
X340546Y78349D01*
X340515Y78290D01*
X340507Y78236D01*
X340495Y78199D01*
X340495Y78195D01*
X340495Y78194D01*
X340496Y78159D01*
X340488Y78105D01*
X340488Y74295D01*
X340499Y74230D01*
X340501Y74164D01*
X340519Y74121D01*
X340527Y74074D01*
X340561Y74017D01*
X340586Y73957D01*
X340617Y73922D01*
X340642Y73881D01*
X340693Y73840D01*
X340737Y73791D01*
X340779Y73769D01*
X340816Y73740D01*
X340878Y73719D01*
X340937Y73688D01*
X340991Y73680D01*
X341028Y73668D01*
X341068Y73669D01*
X341122Y73661D01*
X343662Y73661D01*
X343727Y73672D01*
G37*
D10*
X369992Y50000D03*
X9992Y640000D03*
D11*
X316992Y71120D03*
X316992Y81280D03*
D12*
X316992Y63500D03*
X316992Y88900D03*
D13*
X342392Y70993D03*
X342392Y81407D03*
D14*
X342392Y571500D03*
D15*
X279992Y15250D03*
X274992Y15250D03*
X269992Y15250D03*
X264992Y15250D03*
X259992Y15250D03*
X254992Y15250D03*
X249992Y15250D03*
X244992Y15250D03*
X239992Y15250D03*
X234992Y15250D03*
X229992Y15250D03*
X204992Y15250D03*
X199992Y15250D03*
X194992Y15250D03*
X189992Y15250D03*
X184992Y15250D03*
X179992Y15250D03*
X174992Y15250D03*
X169992Y15250D03*
X164992Y15250D03*
X159992Y15250D03*
X154992Y15250D03*
X149992Y15250D03*
X144992Y15250D03*
X139992Y15250D03*
X134992Y15250D03*
X129992Y15250D03*
X124992Y15250D03*
X119992Y15250D03*
X114992Y15250D03*
X109992Y15250D03*
X104992Y15250D03*
X99992Y15250D03*
D16*
X369992Y461000D03*
X369992Y419000D03*
X356992Y440000D03*
X9992Y419000D03*
X9992Y461000D03*
X22992Y440000D03*
D10*
X755081Y50000D03*
X395081Y640000D03*
D11*
X702081Y71120D03*
X702081Y81280D03*
D12*
X702081Y63500D03*
X702081Y88900D03*
D13*
X727481Y70993D03*
X727481Y81407D03*
D14*
X727481Y571500D03*
D15*
X665081Y15250D03*
X660081Y15250D03*
X655081Y15250D03*
X650081Y15250D03*
X645081Y15250D03*
X640081Y15250D03*
X635081Y15250D03*
X630081Y15250D03*
X625081Y15250D03*
X620081Y15250D03*
X615081Y15250D03*
X590081Y15250D03*
X585081Y15250D03*
X580081Y15250D03*
X575081Y15250D03*
X570081Y15250D03*
X565081Y15250D03*
X560081Y15250D03*
X555081Y15250D03*
X550081Y15250D03*
X545081Y15250D03*
X540081Y15250D03*
X535081Y15250D03*
X530081Y15250D03*
X525081Y15250D03*
X520081Y15250D03*
X515081Y15250D03*
X510081Y15250D03*
X505081Y15250D03*
X500081Y15250D03*
X495081Y15250D03*
X490081Y15250D03*
X485081Y15250D03*
D16*
X755081Y461000D03*
X755081Y419000D03*
X742081Y440000D03*
X395081Y419000D03*
X395081Y461000D03*
X408081Y440000D03*
D10*
X10017Y1326197D03*
X370017Y736197D03*
D11*
X63017Y1305077D03*
X63017Y1294917D03*
D12*
X63017Y1312697D03*
X63017Y1287297D03*
D13*
X37617Y1305204D03*
X37617Y1294790D03*
D14*
X37617Y804697D03*
D15*
X100017Y1360947D03*
X105017Y1360947D03*
X110017Y1360947D03*
X115017Y1360947D03*
X120017Y1360947D03*
X125017Y1360947D03*
X130017Y1360947D03*
X135017Y1360947D03*
X140017Y1360947D03*
X145017Y1360947D03*
X150017Y1360947D03*
X175017Y1360947D03*
X180017Y1360947D03*
X185017Y1360947D03*
X190017Y1360947D03*
X195017Y1360947D03*
X200017Y1360947D03*
X205017Y1360947D03*
X210017Y1360947D03*
X215017Y1360947D03*
X220017Y1360947D03*
X225017Y1360947D03*
X230017Y1360947D03*
X235017Y1360947D03*
X240017Y1360947D03*
X245017Y1360947D03*
X250017Y1360947D03*
X255017Y1360947D03*
X260017Y1360947D03*
X265017Y1360947D03*
X270017Y1360947D03*
X275017Y1360947D03*
X280017Y1360947D03*
D16*
X10017Y915197D03*
X10017Y957197D03*
X23017Y936197D03*
X370017Y957197D03*
X370017Y915197D03*
X357017Y936197D03*
D10*
X395081Y1326197D03*
X755081Y736197D03*
D11*
X448081Y1305077D03*
X448081Y1294917D03*
D12*
X448081Y1312697D03*
X448081Y1287297D03*
D13*
X422681Y1305204D03*
X422681Y1294790D03*
D14*
X422681Y804697D03*
D15*
X485081Y1360947D03*
X490081Y1360947D03*
X495081Y1360947D03*
X500081Y1360947D03*
X505081Y1360947D03*
X510081Y1360947D03*
X515081Y1360947D03*
X520081Y1360947D03*
X525081Y1360947D03*
X530081Y1360947D03*
X535081Y1360947D03*
X560081Y1360947D03*
X565081Y1360947D03*
X570081Y1360947D03*
X575081Y1360947D03*
X580081Y1360947D03*
X585081Y1360947D03*
X590081Y1360947D03*
X595081Y1360947D03*
X600081Y1360947D03*
X605081Y1360947D03*
X610081Y1360947D03*
X615081Y1360947D03*
X620081Y1360947D03*
X625081Y1360947D03*
X630081Y1360947D03*
X635081Y1360947D03*
X640081Y1360947D03*
X645081Y1360947D03*
X650081Y1360947D03*
X655081Y1360947D03*
X660081Y1360947D03*
X665081Y1360947D03*
D16*
X395081Y915197D03*
X395081Y957197D03*
X408081Y936197D03*
X755081Y957197D03*
X755081Y915197D03*
X742081Y936197D03*
D17*
X-26238Y1312697D03*
X791337Y1312697D03*
D18*
X-35293Y63500D02*
X-35290Y63722D01*
X-35282Y63944D01*
X-35268Y64166D01*
X-35249Y64388D01*
X-35225Y64608D01*
X-35195Y64829D01*
X-35160Y65048D01*
X-35119Y65267D01*
X-35073Y65484D01*
X-35022Y65700D01*
X-34965Y65915D01*
X-34903Y66129D01*
X-34836Y66340D01*
X-34764Y66551D01*
X-34686Y66759D01*
X-34604Y66965D01*
X-34516Y67169D01*
X-34424Y67372D01*
X-34326Y67571D01*
X-34224Y67768D01*
X-34117Y67963D01*
X-34005Y68155D01*
X-33888Y68344D01*
X-33767Y68531D01*
X-33641Y68714D01*
X-33511Y68894D01*
X-33376Y69071D01*
X-33238Y69244D01*
X-33095Y69414D01*
X-32947Y69581D01*
X-32796Y69744D01*
X-32641Y69903D01*
X-32482Y70058D01*
X-32319Y70209D01*
X-32152Y70357D01*
X-31982Y70500D01*
X-31809Y70638D01*
X-31632Y70773D01*
X-31452Y70903D01*
X-31269Y71029D01*
X-31082Y71150D01*
X-30893Y71267D01*
X-30701Y71379D01*
X-30506Y71486D01*
X-30309Y71588D01*
X-30110Y71686D01*
X-29907Y71778D01*
X-29703Y71866D01*
X-29497Y71948D01*
X-29289Y72026D01*
X-29078Y72098D01*
X-28867Y72165D01*
X-28653Y72227D01*
X-28438Y72284D01*
X-28222Y72335D01*
X-28005Y72381D01*
X-27786Y72422D01*
X-27567Y72457D01*
X-27346Y72487D01*
X-27126Y72511D01*
X-26904Y72530D01*
X-26682Y72544D01*
X-26460Y72552D01*
X-26238Y72555D01*
X-26016Y72552D01*
X-25794Y72544D01*
X-25572Y72530D01*
X-25350Y72511D01*
X-25130Y72487D01*
X-24909Y72457D01*
X-24690Y72422D01*
X-24471Y72381D01*
X-24254Y72335D01*
X-24038Y72284D01*
X-23823Y72227D01*
X-23609Y72165D01*
X-23398Y72098D01*
X-23187Y72026D01*
X-22979Y71948D01*
X-22773Y71866D01*
X-22569Y71778D01*
X-22366Y71686D01*
X-22167Y71588D01*
X-21970Y71486D01*
X-21775Y71379D01*
X-21583Y71267D01*
X-21394Y71150D01*
X-21207Y71029D01*
X-21024Y70903D01*
X-20844Y70773D01*
X-20667Y70638D01*
X-20494Y70500D01*
X-20324Y70357D01*
X-20157Y70209D01*
X-19994Y70058D01*
X-19835Y69903D01*
X-19680Y69744D01*
X-19529Y69581D01*
X-19381Y69414D01*
X-19238Y69244D01*
X-19100Y69071D01*
X-18965Y68894D01*
X-18835Y68714D01*
X-18709Y68531D01*
X-18588Y68344D01*
X-18471Y68155D01*
X-18359Y67963D01*
X-18252Y67768D01*
X-18150Y67571D01*
X-18052Y67372D01*
X-17960Y67169D01*
X-17872Y66965D01*
X-17790Y66759D01*
X-17712Y66551D01*
X-17640Y66340D01*
X-17573Y66129D01*
X-17511Y65915D01*
X-17454Y65700D01*
X-17403Y65484D01*
X-17357Y65267D01*
X-17316Y65048D01*
X-17281Y64829D01*
X-17251Y64608D01*
X-17227Y64388D01*
X-17208Y64166D01*
X-17194Y63944D01*
X-17186Y63722D01*
X-17183Y63500D01*
X-17186Y63278D01*
X-17194Y63056D01*
X-17208Y62834D01*
X-17227Y62612D01*
X-17251Y62392D01*
X-17281Y62171D01*
X-17316Y61952D01*
X-17357Y61733D01*
X-17403Y61516D01*
X-17454Y61300D01*
X-17511Y61085D01*
X-17573Y60871D01*
X-17640Y60660D01*
X-17712Y60449D01*
X-17790Y60241D01*
X-17872Y60035D01*
X-17960Y59831D01*
X-18052Y59628D01*
X-18150Y59429D01*
X-18252Y59232D01*
X-18359Y59037D01*
X-18471Y58845D01*
X-18588Y58656D01*
X-18709Y58469D01*
X-18835Y58286D01*
X-18965Y58106D01*
X-19100Y57929D01*
X-19238Y57756D01*
X-19381Y57586D01*
X-19529Y57419D01*
X-19680Y57256D01*
X-19835Y57097D01*
X-19994Y56942D01*
X-20157Y56791D01*
X-20324Y56643D01*
X-20494Y56500D01*
X-20667Y56362D01*
X-20844Y56227D01*
X-21024Y56097D01*
X-21207Y55971D01*
X-21394Y55850D01*
X-21583Y55733D01*
X-21775Y55621D01*
X-21970Y55514D01*
X-22167Y55412D01*
X-22366Y55314D01*
X-22569Y55222D01*
X-22773Y55134D01*
X-22979Y55052D01*
X-23187Y54974D01*
X-23398Y54902D01*
X-23609Y54835D01*
X-23823Y54773D01*
X-24038Y54716D01*
X-24254Y54665D01*
X-24471Y54619D01*
X-24690Y54578D01*
X-24909Y54543D01*
X-25130Y54513D01*
X-25350Y54489D01*
X-25572Y54470D01*
X-25794Y54456D01*
X-26016Y54448D01*
X-26238Y54445D01*
X-26460Y54448D01*
X-26682Y54456D01*
X-26904Y54470D01*
X-27126Y54489D01*
X-27346Y54513D01*
X-27567Y54543D01*
X-27786Y54578D01*
X-28005Y54619D01*
X-28222Y54665D01*
X-28438Y54716D01*
X-28653Y54773D01*
X-28867Y54835D01*
X-29078Y54902D01*
X-29289Y54974D01*
X-29497Y55052D01*
X-29703Y55134D01*
X-29907Y55222D01*
X-30110Y55314D01*
X-30309Y55412D01*
X-30506Y55514D01*
X-30701Y55621D01*
X-30893Y55733D01*
X-31082Y55850D01*
X-31269Y55971D01*
X-31452Y56097D01*
X-31632Y56227D01*
X-31809Y56362D01*
X-31982Y56500D01*
X-32152Y56643D01*
X-32319Y56791D01*
X-32482Y56942D01*
X-32641Y57097D01*
X-32796Y57256D01*
X-32947Y57419D01*
X-33095Y57586D01*
X-33238Y57756D01*
X-33376Y57929D01*
X-33511Y58106D01*
X-33641Y58286D01*
X-33767Y58469D01*
X-33888Y58656D01*
X-34005Y58845D01*
X-34117Y59037D01*
X-34224Y59232D01*
X-34326Y59429D01*
X-34424Y59628D01*
X-34516Y59831D01*
X-34604Y60035D01*
X-34686Y60241D01*
X-34764Y60449D01*
X-34836Y60660D01*
X-34903Y60871D01*
X-34965Y61085D01*
X-35022Y61300D01*
X-35073Y61516D01*
X-35119Y61733D01*
X-35160Y61952D01*
X-35195Y62171D01*
X-35225Y62392D01*
X-35249Y62612D01*
X-35268Y62834D01*
X-35282Y63056D01*
X-35290Y63278D01*
X-35293Y63500D01*
D19*
X-26238Y63500D03*
M02*
