G04 EAGLE Gerber RS-274X export*
G75*
%MOMM*%
%FSLAX34Y34*%
%LPD*%
%INSoldermask Top*%
%IPPOS*%
%AMOC8*
5,1,8,0,0,1.08239X$1,22.5*%
G01*
%ADD10R,1.303200X1.203200*%
%ADD11C,0.838200*%
%ADD12C,2.082800*%
%ADD13R,1.203200X1.303200*%
%ADD14C,0.505344*%
%ADD15R,0.553200X1.653200*%
%ADD16C,0.863600*%
%ADD17R,1.103200X1.003200*%
%ADD18R,1.403200X0.803200*%
%ADD19R,0.457200X1.346200*%
%ADD20R,1.346200X0.457200*%
%ADD21C,3.453200*%
%ADD22C,2.753200*%
%ADD23C,1.703200*%
%ADD24R,0.953200X0.903200*%
%ADD25R,0.753200X1.403200*%
%ADD26R,1.803200X2.003200*%
%ADD27R,0.833200X1.033200*%
%ADD28R,4.203200X1.453200*%
%ADD29R,1.603200X3.203200*%
%ADD30R,1.403200X1.003200*%
%ADD31R,2.003200X1.003200*%
%ADD32R,1.003200X1.403200*%
%ADD33R,2.003200X2.903200*%
%ADD34C,1.203200*%
%ADD35C,1.270000*%

G36*
X3949Y946829D02*
X3949Y946829D01*
X3958Y946832D01*
X3984Y946834D01*
X7818Y947668D01*
X7827Y947672D01*
X7852Y947678D01*
X11528Y949049D01*
X11536Y949055D01*
X11561Y949064D01*
X15004Y950944D01*
X15011Y950951D01*
X15034Y950963D01*
X18175Y953315D01*
X18181Y953323D01*
X18202Y953338D01*
X20977Y956113D01*
X20981Y956121D01*
X21000Y956139D01*
X23351Y959280D01*
X23355Y959290D01*
X23371Y959310D01*
X25251Y962754D01*
X25253Y962763D01*
X25266Y962786D01*
X26637Y966463D01*
X26638Y966472D01*
X26647Y966497D01*
X27481Y970331D01*
X27480Y970340D01*
X27486Y970366D01*
X27766Y974280D01*
X27764Y974289D01*
X27766Y974315D01*
X27486Y978229D01*
X27485Y978233D01*
X27485Y978236D01*
X27482Y978242D01*
X27481Y978264D01*
X26647Y982098D01*
X26642Y982107D01*
X26637Y982132D01*
X25266Y985808D01*
X25260Y985816D01*
X25251Y985841D01*
X23371Y989284D01*
X23364Y989291D01*
X23351Y989314D01*
X21000Y992455D01*
X20992Y992461D01*
X20977Y992482D01*
X18202Y995257D01*
X18194Y995261D01*
X18175Y995280D01*
X15034Y997631D01*
X15025Y997635D01*
X15004Y997651D01*
X11561Y999531D01*
X11551Y999533D01*
X11528Y999546D01*
X7852Y1000917D01*
X7843Y1000918D01*
X7818Y1000927D01*
X3984Y1001761D01*
X3974Y1001760D01*
X3949Y1001766D01*
X35Y1002046D01*
X10Y1002041D01*
X-16Y1002044D01*
X-57Y1002026D01*
X-101Y1002017D01*
X-120Y1001998D01*
X-144Y1001988D01*
X-169Y1001950D01*
X-201Y1001918D01*
X-206Y1001893D01*
X-221Y1001871D01*
X-232Y1001797D01*
X-232Y991797D01*
X-230Y991790D01*
X-231Y991783D01*
X-210Y991724D01*
X-193Y991663D01*
X-187Y991658D01*
X-185Y991652D01*
X-135Y991613D01*
X-87Y991571D01*
X-80Y991570D01*
X-75Y991566D01*
X-2Y991549D01*
X2716Y991335D01*
X5348Y990703D01*
X7849Y989667D01*
X10157Y988253D01*
X12215Y986495D01*
X13973Y984437D01*
X15387Y982129D01*
X16423Y979628D01*
X17055Y976996D01*
X17267Y974297D01*
X17055Y971599D01*
X16423Y968967D01*
X15387Y966466D01*
X13973Y964158D01*
X12215Y962100D01*
X10157Y960342D01*
X7849Y958928D01*
X5348Y957892D01*
X2716Y957260D01*
X-2Y957046D01*
X-9Y957043D01*
X-16Y957044D01*
X-74Y957019D01*
X-133Y956996D01*
X-137Y956991D01*
X-144Y956988D01*
X-179Y956935D01*
X-216Y956884D01*
X-217Y956877D01*
X-221Y956871D01*
X-232Y956797D01*
X-232Y946797D01*
X-225Y946772D01*
X-227Y946746D01*
X-205Y946707D01*
X-193Y946663D01*
X-173Y946646D01*
X-161Y946623D01*
X-121Y946601D01*
X-87Y946571D01*
X-62Y946567D01*
X-39Y946555D01*
X35Y946549D01*
X3949Y946829D01*
G37*
G36*
X774102Y946829D02*
X774102Y946829D01*
X774111Y946832D01*
X774137Y946834D01*
X777971Y947668D01*
X777980Y947672D01*
X778006Y947678D01*
X781682Y949049D01*
X781690Y949055D01*
X781714Y949064D01*
X785158Y950944D01*
X785165Y950951D01*
X785188Y950963D01*
X788329Y953315D01*
X788335Y953323D01*
X788356Y953338D01*
X791130Y956113D01*
X791135Y956121D01*
X791153Y956139D01*
X793505Y959280D01*
X793508Y959290D01*
X793524Y959310D01*
X795404Y962754D01*
X795407Y962763D01*
X795419Y962786D01*
X796790Y966463D01*
X796791Y966472D01*
X796800Y966497D01*
X797634Y970331D01*
X797634Y970340D01*
X797640Y970366D01*
X797919Y974280D01*
X797917Y974289D01*
X797919Y974315D01*
X797640Y978229D01*
X797638Y978233D01*
X797638Y978236D01*
X797636Y978242D01*
X797634Y978264D01*
X796800Y982098D01*
X796796Y982107D01*
X796790Y982132D01*
X795419Y985808D01*
X795413Y985816D01*
X795404Y985841D01*
X793524Y989284D01*
X793517Y989291D01*
X793505Y989314D01*
X791153Y992455D01*
X791146Y992461D01*
X791130Y992482D01*
X788356Y995257D01*
X788347Y995261D01*
X788329Y995280D01*
X785188Y997631D01*
X785179Y997635D01*
X785158Y997651D01*
X781714Y999531D01*
X781705Y999533D01*
X781682Y999546D01*
X778006Y1000917D01*
X777996Y1000918D01*
X777971Y1000927D01*
X774137Y1001761D01*
X774128Y1001760D01*
X774102Y1001766D01*
X770189Y1002046D01*
X770163Y1002041D01*
X770137Y1002044D01*
X770096Y1002026D01*
X770052Y1002017D01*
X770034Y1001998D01*
X770010Y1001988D01*
X769985Y1001950D01*
X769953Y1001918D01*
X769947Y1001893D01*
X769933Y1001871D01*
X769922Y1001797D01*
X769922Y991797D01*
X769924Y991790D01*
X769922Y991783D01*
X769943Y991724D01*
X769961Y991663D01*
X769966Y991658D01*
X769969Y991652D01*
X770018Y991613D01*
X770066Y991571D01*
X770073Y991570D01*
X770079Y991566D01*
X770151Y991549D01*
X772869Y991335D01*
X775501Y990703D01*
X778002Y989667D01*
X780310Y988253D01*
X782368Y986495D01*
X784126Y984437D01*
X785541Y982129D01*
X786577Y979628D01*
X787208Y976996D01*
X787421Y974297D01*
X787208Y971599D01*
X786577Y968967D01*
X785541Y966466D01*
X784126Y964158D01*
X782368Y962100D01*
X780310Y960342D01*
X778002Y958928D01*
X775501Y957892D01*
X772869Y957260D01*
X770151Y957046D01*
X770145Y957043D01*
X770137Y957044D01*
X770080Y957019D01*
X770021Y956996D01*
X770016Y956991D01*
X770010Y956988D01*
X769975Y956935D01*
X769937Y956884D01*
X769937Y956877D01*
X769933Y956871D01*
X769922Y956797D01*
X769922Y946797D01*
X769929Y946772D01*
X769927Y946746D01*
X769948Y946707D01*
X769961Y946663D01*
X769980Y946646D01*
X769993Y946623D01*
X770032Y946601D01*
X770066Y946571D01*
X770092Y946567D01*
X770115Y946555D01*
X770189Y946549D01*
X774102Y946829D01*
G37*
G36*
X389013Y946829D02*
X389013Y946829D01*
X389022Y946832D01*
X389048Y946834D01*
X392882Y947668D01*
X392891Y947672D01*
X392916Y947678D01*
X396592Y949049D01*
X396600Y949055D01*
X396625Y949064D01*
X400068Y950944D01*
X400075Y950951D01*
X400098Y950963D01*
X403239Y953315D01*
X403245Y953323D01*
X403266Y953338D01*
X406041Y956113D01*
X406045Y956121D01*
X406064Y956139D01*
X408415Y959280D01*
X408419Y959290D01*
X408435Y959310D01*
X410315Y962754D01*
X410317Y962763D01*
X410330Y962786D01*
X411701Y966463D01*
X411702Y966472D01*
X411711Y966497D01*
X412545Y970331D01*
X412544Y970340D01*
X412550Y970366D01*
X412830Y974280D01*
X412828Y974289D01*
X412830Y974315D01*
X412550Y978229D01*
X412549Y978233D01*
X412549Y978236D01*
X412546Y978242D01*
X412545Y978264D01*
X411711Y982098D01*
X411706Y982107D01*
X411701Y982132D01*
X410330Y985808D01*
X410324Y985816D01*
X410315Y985841D01*
X408435Y989284D01*
X408428Y989291D01*
X408415Y989314D01*
X406064Y992455D01*
X406056Y992461D01*
X406041Y992482D01*
X403266Y995257D01*
X403258Y995261D01*
X403239Y995280D01*
X400098Y997631D01*
X400089Y997635D01*
X400068Y997651D01*
X396625Y999531D01*
X396615Y999533D01*
X396592Y999546D01*
X392916Y1000917D01*
X392907Y1000918D01*
X392882Y1000927D01*
X389048Y1001761D01*
X389038Y1001760D01*
X389013Y1001766D01*
X385099Y1002046D01*
X385074Y1002041D01*
X385048Y1002044D01*
X385007Y1002026D01*
X384963Y1002017D01*
X384944Y1001998D01*
X384920Y1001988D01*
X384895Y1001950D01*
X384863Y1001918D01*
X384858Y1001893D01*
X384843Y1001871D01*
X384832Y1001797D01*
X384832Y991797D01*
X384834Y991790D01*
X384833Y991783D01*
X384854Y991724D01*
X384871Y991663D01*
X384877Y991658D01*
X384879Y991652D01*
X384929Y991613D01*
X384977Y991571D01*
X384984Y991570D01*
X384989Y991566D01*
X385062Y991549D01*
X387780Y991335D01*
X390412Y990703D01*
X392913Y989667D01*
X395221Y988253D01*
X397279Y986495D01*
X399037Y984437D01*
X400451Y982129D01*
X401487Y979628D01*
X402119Y976996D01*
X402331Y974297D01*
X402119Y971599D01*
X401487Y968967D01*
X400451Y966466D01*
X399037Y964158D01*
X397279Y962100D01*
X395221Y960342D01*
X392913Y958928D01*
X390412Y957892D01*
X387780Y957260D01*
X385062Y957046D01*
X385055Y957043D01*
X385048Y957044D01*
X384990Y957019D01*
X384931Y956996D01*
X384927Y956991D01*
X384920Y956988D01*
X384885Y956935D01*
X384848Y956884D01*
X384847Y956877D01*
X384843Y956871D01*
X384832Y956797D01*
X384832Y946797D01*
X384839Y946772D01*
X384837Y946746D01*
X384859Y946707D01*
X384871Y946663D01*
X384891Y946646D01*
X384903Y946623D01*
X384943Y946601D01*
X384977Y946571D01*
X385002Y946567D01*
X385025Y946555D01*
X385099Y946549D01*
X389013Y946829D01*
G37*
G36*
X774077Y412531D02*
X774077Y412531D01*
X774086Y412535D01*
X774112Y412536D01*
X777946Y413370D01*
X777955Y413375D01*
X777980Y413380D01*
X781656Y414752D01*
X781664Y414757D01*
X781689Y414766D01*
X785132Y416647D01*
X785139Y416654D01*
X785162Y416666D01*
X788303Y419017D01*
X788309Y419025D01*
X788330Y419041D01*
X791105Y421815D01*
X791109Y421824D01*
X791128Y421842D01*
X793479Y424983D01*
X793483Y424992D01*
X793499Y425013D01*
X795379Y428457D01*
X795381Y428466D01*
X795394Y428489D01*
X796765Y432165D01*
X796766Y432175D01*
X796775Y432199D01*
X797609Y436033D01*
X797608Y436043D01*
X797614Y436069D01*
X797894Y439982D01*
X797892Y439992D01*
X797894Y440018D01*
X797614Y443931D01*
X797613Y443936D01*
X797613Y443939D01*
X797610Y443945D01*
X797609Y443967D01*
X796775Y447801D01*
X796770Y447809D01*
X796765Y447835D01*
X795394Y451511D01*
X795388Y451519D01*
X795379Y451543D01*
X793499Y454987D01*
X793492Y454994D01*
X793479Y455017D01*
X791128Y458158D01*
X791120Y458164D01*
X791105Y458185D01*
X788330Y460959D01*
X788322Y460964D01*
X788303Y460983D01*
X785162Y463334D01*
X785153Y463337D01*
X785132Y463353D01*
X781689Y465234D01*
X781679Y465236D01*
X781656Y465248D01*
X777980Y466620D01*
X777971Y466620D01*
X777946Y466630D01*
X774112Y467464D01*
X774102Y467463D01*
X774077Y467469D01*
X770163Y467749D01*
X770138Y467743D01*
X770112Y467747D01*
X770071Y467729D01*
X770027Y467719D01*
X770008Y467701D01*
X769984Y467690D01*
X769959Y467652D01*
X769927Y467621D01*
X769922Y467595D01*
X769907Y467574D01*
X769896Y467500D01*
X769896Y457500D01*
X769898Y457493D01*
X769897Y457486D01*
X769918Y457427D01*
X769935Y457366D01*
X769941Y457361D01*
X769943Y457354D01*
X769993Y457316D01*
X770041Y457274D01*
X770048Y457273D01*
X770053Y457268D01*
X770126Y457252D01*
X772844Y457038D01*
X775476Y456406D01*
X777977Y455370D01*
X780285Y453956D01*
X782343Y452198D01*
X784101Y450139D01*
X785515Y447831D01*
X786551Y445331D01*
X787183Y442698D01*
X787395Y440000D01*
X787183Y437302D01*
X786551Y434669D01*
X785515Y432169D01*
X784101Y429861D01*
X782343Y427802D01*
X780285Y426044D01*
X777977Y424630D01*
X775476Y423594D01*
X772844Y422962D01*
X770126Y422748D01*
X770119Y422746D01*
X770112Y422747D01*
X770054Y422721D01*
X769995Y422699D01*
X769991Y422693D01*
X769984Y422690D01*
X769949Y422637D01*
X769912Y422587D01*
X769911Y422580D01*
X769907Y422574D01*
X769896Y422500D01*
X769896Y412500D01*
X769903Y412475D01*
X769901Y412449D01*
X769923Y412409D01*
X769935Y412366D01*
X769955Y412349D01*
X769967Y412326D01*
X770007Y412304D01*
X770041Y412274D01*
X770066Y412270D01*
X770089Y412257D01*
X770163Y412251D01*
X774077Y412531D01*
G37*
G36*
X389013Y412531D02*
X389013Y412531D01*
X389022Y412535D01*
X389048Y412536D01*
X392882Y413370D01*
X392891Y413375D01*
X392916Y413380D01*
X396592Y414752D01*
X396600Y414757D01*
X396625Y414766D01*
X400068Y416647D01*
X400075Y416654D01*
X400098Y416666D01*
X403239Y419017D01*
X403245Y419025D01*
X403266Y419041D01*
X406041Y421815D01*
X406045Y421824D01*
X406064Y421842D01*
X408415Y424983D01*
X408419Y424992D01*
X408435Y425013D01*
X410315Y428457D01*
X410317Y428466D01*
X410330Y428489D01*
X411701Y432165D01*
X411702Y432175D01*
X411711Y432199D01*
X412545Y436033D01*
X412544Y436043D01*
X412550Y436069D01*
X412830Y439982D01*
X412828Y439992D01*
X412830Y440018D01*
X412550Y443931D01*
X412549Y443936D01*
X412549Y443939D01*
X412546Y443945D01*
X412545Y443967D01*
X411711Y447801D01*
X411706Y447809D01*
X411701Y447835D01*
X410330Y451511D01*
X410324Y451519D01*
X410315Y451543D01*
X408435Y454987D01*
X408428Y454994D01*
X408415Y455017D01*
X406064Y458158D01*
X406056Y458164D01*
X406041Y458185D01*
X403266Y460959D01*
X403258Y460964D01*
X403239Y460983D01*
X400098Y463334D01*
X400089Y463337D01*
X400068Y463353D01*
X396625Y465234D01*
X396615Y465236D01*
X396592Y465248D01*
X392916Y466620D01*
X392907Y466620D01*
X392882Y466630D01*
X389048Y467464D01*
X389038Y467463D01*
X389013Y467469D01*
X385099Y467749D01*
X385074Y467743D01*
X385048Y467747D01*
X385007Y467729D01*
X384963Y467719D01*
X384944Y467701D01*
X384920Y467690D01*
X384895Y467652D01*
X384863Y467621D01*
X384858Y467595D01*
X384843Y467574D01*
X384832Y467500D01*
X384832Y457500D01*
X384834Y457493D01*
X384833Y457486D01*
X384854Y457427D01*
X384871Y457366D01*
X384877Y457361D01*
X384879Y457354D01*
X384929Y457316D01*
X384977Y457274D01*
X384984Y457273D01*
X384989Y457268D01*
X385062Y457252D01*
X387780Y457038D01*
X390412Y456406D01*
X392913Y455370D01*
X395221Y453956D01*
X397279Y452198D01*
X399037Y450139D01*
X400451Y447831D01*
X401487Y445331D01*
X402119Y442698D01*
X402331Y440000D01*
X402119Y437302D01*
X401487Y434669D01*
X400451Y432169D01*
X399037Y429861D01*
X397279Y427802D01*
X395221Y426044D01*
X392913Y424630D01*
X390412Y423594D01*
X387780Y422962D01*
X385062Y422748D01*
X385055Y422746D01*
X385048Y422747D01*
X384990Y422721D01*
X384931Y422699D01*
X384927Y422693D01*
X384920Y422690D01*
X384885Y422637D01*
X384848Y422587D01*
X384847Y422580D01*
X384843Y422574D01*
X384832Y422500D01*
X384832Y412500D01*
X384839Y412475D01*
X384837Y412449D01*
X384859Y412409D01*
X384871Y412366D01*
X384891Y412349D01*
X384903Y412326D01*
X384943Y412304D01*
X384977Y412274D01*
X385002Y412270D01*
X385025Y412257D01*
X385099Y412251D01*
X389013Y412531D01*
G37*
G36*
X3923Y412531D02*
X3923Y412531D01*
X3933Y412535D01*
X3959Y412536D01*
X7793Y413370D01*
X7801Y413375D01*
X7827Y413380D01*
X11503Y414752D01*
X11511Y414757D01*
X11535Y414766D01*
X14979Y416647D01*
X14986Y416654D01*
X15009Y416666D01*
X18150Y419017D01*
X18156Y419025D01*
X18177Y419041D01*
X20951Y421815D01*
X20956Y421824D01*
X20975Y421842D01*
X23326Y424983D01*
X23329Y424992D01*
X23345Y425013D01*
X25226Y428457D01*
X25228Y428466D01*
X25240Y428489D01*
X26612Y432165D01*
X26612Y432175D01*
X26622Y432199D01*
X27456Y436033D01*
X27455Y436043D01*
X27461Y436069D01*
X27741Y439982D01*
X27739Y439992D01*
X27741Y440018D01*
X27461Y443931D01*
X27459Y443936D01*
X27460Y443939D01*
X27457Y443945D01*
X27456Y443967D01*
X26622Y447801D01*
X26617Y447809D01*
X26612Y447835D01*
X25240Y451511D01*
X25235Y451519D01*
X25226Y451543D01*
X23345Y454987D01*
X23338Y454994D01*
X23326Y455017D01*
X20975Y458158D01*
X20967Y458164D01*
X20951Y458185D01*
X18177Y460959D01*
X18168Y460964D01*
X18150Y460983D01*
X15009Y463334D01*
X15000Y463337D01*
X14979Y463353D01*
X11535Y465234D01*
X11526Y465236D01*
X11503Y465248D01*
X7827Y466620D01*
X7817Y466620D01*
X7793Y466630D01*
X3959Y467464D01*
X3949Y467463D01*
X3923Y467469D01*
X10Y467749D01*
X-16Y467743D01*
X-41Y467747D01*
X-83Y467729D01*
X-127Y467719D01*
X-145Y467701D01*
X-169Y467690D01*
X-194Y467652D01*
X-226Y467621D01*
X-232Y467595D01*
X-246Y467574D01*
X-257Y467500D01*
X-257Y457500D01*
X-255Y457493D01*
X-257Y457486D01*
X-236Y457427D01*
X-218Y457366D01*
X-213Y457361D01*
X-210Y457354D01*
X-160Y457316D01*
X-113Y457274D01*
X-106Y457273D01*
X-100Y457268D01*
X-28Y457252D01*
X2690Y457038D01*
X5323Y456406D01*
X7823Y455370D01*
X10131Y453956D01*
X12190Y452198D01*
X13948Y450139D01*
X15362Y447831D01*
X16398Y445331D01*
X17030Y442698D01*
X17242Y440000D01*
X17030Y437302D01*
X16398Y434669D01*
X15362Y432169D01*
X13948Y429861D01*
X12190Y427802D01*
X10131Y426044D01*
X7823Y424630D01*
X5323Y423594D01*
X2690Y422962D01*
X-28Y422748D01*
X-34Y422746D01*
X-41Y422747D01*
X-99Y422721D01*
X-158Y422699D01*
X-163Y422693D01*
X-169Y422690D01*
X-204Y422637D01*
X-242Y422587D01*
X-242Y422580D01*
X-246Y422574D01*
X-257Y422500D01*
X-257Y412500D01*
X-250Y412475D01*
X-252Y412449D01*
X-231Y412409D01*
X-218Y412366D01*
X-198Y412349D01*
X-186Y412326D01*
X-147Y412304D01*
X-113Y412274D01*
X-87Y412270D01*
X-64Y412257D01*
X10Y412251D01*
X3923Y412531D01*
G37*
G36*
X380025Y946554D02*
X380025Y946554D01*
X380051Y946550D01*
X380092Y946569D01*
X380136Y946578D01*
X380155Y946597D01*
X380179Y946607D01*
X380203Y946645D01*
X380236Y946677D01*
X380241Y946702D01*
X380256Y946724D01*
X380267Y946797D01*
X380267Y956797D01*
X380265Y956804D01*
X380266Y956811D01*
X380245Y956871D01*
X380227Y956932D01*
X380222Y956936D01*
X380220Y956943D01*
X380170Y956982D01*
X380122Y957024D01*
X380115Y957025D01*
X380109Y957029D01*
X380037Y957046D01*
X377319Y957260D01*
X374687Y957892D01*
X372186Y958928D01*
X369878Y960342D01*
X367820Y962100D01*
X366062Y964158D01*
X364648Y966466D01*
X363612Y968967D01*
X362980Y971599D01*
X362767Y974297D01*
X362980Y976996D01*
X363612Y979628D01*
X364648Y982129D01*
X366062Y984437D01*
X367820Y986495D01*
X369878Y988253D01*
X372186Y989667D01*
X374687Y990703D01*
X377319Y991335D01*
X380037Y991549D01*
X380044Y991552D01*
X380051Y991550D01*
X380109Y991576D01*
X380168Y991599D01*
X380172Y991604D01*
X380179Y991607D01*
X380213Y991660D01*
X380251Y991711D01*
X380252Y991718D01*
X380256Y991724D01*
X380267Y991797D01*
X380267Y1001797D01*
X380259Y1001822D01*
X380261Y1001848D01*
X380240Y1001888D01*
X380227Y1001932D01*
X380208Y1001949D01*
X380196Y1001972D01*
X380156Y1001994D01*
X380122Y1002024D01*
X380096Y1002027D01*
X380074Y1002040D01*
X380000Y1002046D01*
X376086Y1001766D01*
X376077Y1001763D01*
X376051Y1001761D01*
X372217Y1000927D01*
X372208Y1000922D01*
X372183Y1000917D01*
X368506Y999546D01*
X368499Y999540D01*
X368474Y999531D01*
X365030Y997651D01*
X365024Y997644D01*
X365000Y997631D01*
X361859Y995280D01*
X361854Y995272D01*
X361833Y995257D01*
X359058Y992482D01*
X359053Y992474D01*
X359035Y992455D01*
X356683Y989314D01*
X356680Y989305D01*
X356664Y989284D01*
X354784Y985841D01*
X354782Y985831D01*
X354769Y985808D01*
X353398Y982132D01*
X353397Y982123D01*
X353388Y982098D01*
X352554Y978264D01*
X352554Y978254D01*
X352549Y978229D01*
X352269Y974315D01*
X352271Y974306D01*
X352269Y974280D01*
X352549Y970366D01*
X352552Y970357D01*
X352554Y970331D01*
X353388Y966497D01*
X353392Y966488D01*
X353398Y966463D01*
X354769Y962786D01*
X354775Y962779D01*
X354784Y962754D01*
X356664Y959310D01*
X356671Y959304D01*
X356683Y959280D01*
X359035Y956139D01*
X359043Y956134D01*
X359058Y956113D01*
X361833Y953338D01*
X361841Y953333D01*
X361859Y953315D01*
X365000Y950963D01*
X365010Y950960D01*
X365030Y950944D01*
X368474Y949064D01*
X368483Y949062D01*
X368506Y949049D01*
X372183Y947678D01*
X372192Y947677D01*
X372217Y947668D01*
X376051Y946834D01*
X376060Y946834D01*
X376086Y946829D01*
X380000Y946549D01*
X380025Y946554D01*
G37*
G36*
X765089Y946554D02*
X765089Y946554D01*
X765115Y946550D01*
X765156Y946569D01*
X765200Y946578D01*
X765219Y946597D01*
X765243Y946607D01*
X765267Y946645D01*
X765300Y946677D01*
X765305Y946702D01*
X765320Y946724D01*
X765331Y946797D01*
X765331Y956797D01*
X765329Y956804D01*
X765330Y956811D01*
X765309Y956871D01*
X765291Y956932D01*
X765286Y956936D01*
X765284Y956943D01*
X765234Y956982D01*
X765186Y957024D01*
X765179Y957025D01*
X765173Y957029D01*
X765101Y957046D01*
X762383Y957260D01*
X759751Y957892D01*
X757250Y958928D01*
X754942Y960342D01*
X752884Y962100D01*
X751126Y964158D01*
X749712Y966466D01*
X748676Y968967D01*
X748044Y971599D01*
X747831Y974297D01*
X748044Y976996D01*
X748676Y979628D01*
X749712Y982129D01*
X751126Y984437D01*
X752884Y986495D01*
X754942Y988253D01*
X757250Y989667D01*
X759751Y990703D01*
X762383Y991335D01*
X765101Y991549D01*
X765108Y991552D01*
X765115Y991550D01*
X765173Y991576D01*
X765232Y991599D01*
X765236Y991604D01*
X765243Y991607D01*
X765277Y991660D01*
X765315Y991711D01*
X765316Y991718D01*
X765320Y991724D01*
X765331Y991797D01*
X765331Y1001797D01*
X765323Y1001822D01*
X765325Y1001848D01*
X765304Y1001888D01*
X765291Y1001932D01*
X765272Y1001949D01*
X765260Y1001972D01*
X765220Y1001994D01*
X765186Y1002024D01*
X765160Y1002027D01*
X765138Y1002040D01*
X765064Y1002046D01*
X761150Y1001766D01*
X761141Y1001763D01*
X761115Y1001761D01*
X757281Y1000927D01*
X757272Y1000922D01*
X757247Y1000917D01*
X753570Y999546D01*
X753563Y999540D01*
X753538Y999531D01*
X750094Y997651D01*
X750088Y997644D01*
X750064Y997631D01*
X746923Y995280D01*
X746918Y995272D01*
X746897Y995257D01*
X744122Y992482D01*
X744117Y992474D01*
X744099Y992455D01*
X741747Y989314D01*
X741744Y989305D01*
X741728Y989284D01*
X739848Y985841D01*
X739846Y985831D01*
X739833Y985808D01*
X738462Y982132D01*
X738461Y982123D01*
X738452Y982098D01*
X737618Y978264D01*
X737618Y978254D01*
X737613Y978229D01*
X737333Y974315D01*
X737335Y974306D01*
X737333Y974280D01*
X737613Y970366D01*
X737616Y970357D01*
X737618Y970331D01*
X738452Y966497D01*
X738456Y966488D01*
X738462Y966463D01*
X739833Y962786D01*
X739839Y962779D01*
X739848Y962754D01*
X741728Y959310D01*
X741735Y959304D01*
X741747Y959280D01*
X744099Y956139D01*
X744107Y956134D01*
X744122Y956113D01*
X746897Y953338D01*
X746905Y953333D01*
X746923Y953315D01*
X750064Y950963D01*
X750074Y950960D01*
X750094Y950944D01*
X753538Y949064D01*
X753547Y949062D01*
X753570Y949049D01*
X757247Y947678D01*
X757256Y947677D01*
X757281Y947668D01*
X761115Y946834D01*
X761124Y946834D01*
X761150Y946829D01*
X765064Y946549D01*
X765089Y946554D01*
G37*
G36*
X1150179Y946554D02*
X1150179Y946554D01*
X1150204Y946550D01*
X1150246Y946569D01*
X1150290Y946578D01*
X1150308Y946597D01*
X1150332Y946607D01*
X1150357Y946645D01*
X1150389Y946677D01*
X1150395Y946702D01*
X1150409Y946724D01*
X1150420Y946797D01*
X1150420Y956797D01*
X1150418Y956804D01*
X1150420Y956811D01*
X1150399Y956871D01*
X1150381Y956932D01*
X1150375Y956936D01*
X1150373Y956943D01*
X1150323Y956982D01*
X1150276Y957024D01*
X1150268Y957025D01*
X1150263Y957029D01*
X1150190Y957046D01*
X1147472Y957260D01*
X1144840Y957892D01*
X1142339Y958928D01*
X1140032Y960342D01*
X1137973Y962100D01*
X1136215Y964158D01*
X1134801Y966466D01*
X1133765Y968967D01*
X1133133Y971599D01*
X1132921Y974297D01*
X1133133Y976996D01*
X1133765Y979628D01*
X1134801Y982129D01*
X1136215Y984437D01*
X1137973Y986495D01*
X1140032Y988253D01*
X1142339Y989667D01*
X1144840Y990703D01*
X1147472Y991335D01*
X1150190Y991549D01*
X1150197Y991552D01*
X1150204Y991550D01*
X1150262Y991576D01*
X1150321Y991599D01*
X1150325Y991604D01*
X1150332Y991607D01*
X1150367Y991660D01*
X1150405Y991711D01*
X1150405Y991718D01*
X1150409Y991724D01*
X1150420Y991797D01*
X1150420Y1001797D01*
X1150413Y1001822D01*
X1150415Y1001848D01*
X1150394Y1001888D01*
X1150381Y1001932D01*
X1150361Y1001949D01*
X1150349Y1001972D01*
X1150310Y1001994D01*
X1150276Y1002024D01*
X1150250Y1002027D01*
X1150227Y1002040D01*
X1150153Y1002046D01*
X1146239Y1001766D01*
X1146230Y1001763D01*
X1146204Y1001761D01*
X1142370Y1000927D01*
X1142362Y1000922D01*
X1142336Y1000917D01*
X1138660Y999546D01*
X1138652Y999540D01*
X1138627Y999531D01*
X1135184Y997651D01*
X1135177Y997644D01*
X1135154Y997631D01*
X1132013Y995280D01*
X1132007Y995272D01*
X1131986Y995257D01*
X1129211Y992482D01*
X1129207Y992474D01*
X1129188Y992455D01*
X1126837Y989314D01*
X1126833Y989305D01*
X1126818Y989284D01*
X1124937Y985841D01*
X1124935Y985831D01*
X1124922Y985808D01*
X1123551Y982132D01*
X1123551Y982123D01*
X1123541Y982098D01*
X1122707Y978264D01*
X1122708Y978254D01*
X1122702Y978229D01*
X1122422Y974315D01*
X1122424Y974306D01*
X1122422Y974280D01*
X1122702Y970366D01*
X1122705Y970357D01*
X1122707Y970331D01*
X1123541Y966497D01*
X1123546Y966488D01*
X1123551Y966463D01*
X1124922Y962786D01*
X1124928Y962779D01*
X1124937Y962754D01*
X1126818Y959310D01*
X1126824Y959304D01*
X1126837Y959280D01*
X1129188Y956139D01*
X1129196Y956134D01*
X1129211Y956113D01*
X1131986Y953338D01*
X1131994Y953333D01*
X1132013Y953315D01*
X1135154Y950963D01*
X1135163Y950960D01*
X1135184Y950944D01*
X1138627Y949064D01*
X1138637Y949062D01*
X1138660Y949049D01*
X1142336Y947678D01*
X1142346Y947677D01*
X1142370Y947668D01*
X1146204Y946834D01*
X1146214Y946834D01*
X1146239Y946829D01*
X1150153Y946549D01*
X1150179Y946554D01*
G37*
G36*
X1150153Y412257D02*
X1150153Y412257D01*
X1150179Y412253D01*
X1150220Y412271D01*
X1150264Y412281D01*
X1150283Y412299D01*
X1150307Y412310D01*
X1150331Y412348D01*
X1150364Y412379D01*
X1150369Y412405D01*
X1150384Y412427D01*
X1150395Y412500D01*
X1150395Y422500D01*
X1150393Y422507D01*
X1150394Y422514D01*
X1150373Y422573D01*
X1150355Y422634D01*
X1150350Y422639D01*
X1150348Y422646D01*
X1150298Y422685D01*
X1150250Y422726D01*
X1150243Y422727D01*
X1150237Y422732D01*
X1150165Y422748D01*
X1147447Y422962D01*
X1144815Y423594D01*
X1142314Y424630D01*
X1140006Y426044D01*
X1137948Y427802D01*
X1136190Y429861D01*
X1134776Y432169D01*
X1133740Y434669D01*
X1133108Y437302D01*
X1132895Y440000D01*
X1133108Y442698D01*
X1133740Y445331D01*
X1134776Y447831D01*
X1136190Y450139D01*
X1137948Y452198D01*
X1140006Y453956D01*
X1142314Y455370D01*
X1144815Y456406D01*
X1147447Y457038D01*
X1150165Y457252D01*
X1150172Y457254D01*
X1150179Y457253D01*
X1150237Y457279D01*
X1150296Y457301D01*
X1150300Y457307D01*
X1150307Y457310D01*
X1150341Y457363D01*
X1150379Y457413D01*
X1150380Y457421D01*
X1150384Y457427D01*
X1150395Y457500D01*
X1150395Y467500D01*
X1150387Y467525D01*
X1150389Y467551D01*
X1150368Y467591D01*
X1150355Y467634D01*
X1150336Y467651D01*
X1150324Y467674D01*
X1150284Y467696D01*
X1150250Y467726D01*
X1150224Y467730D01*
X1150202Y467743D01*
X1150128Y467749D01*
X1146214Y467469D01*
X1146205Y467465D01*
X1146179Y467464D01*
X1142345Y466630D01*
X1142336Y466625D01*
X1142311Y466620D01*
X1138634Y465248D01*
X1138627Y465243D01*
X1138602Y465234D01*
X1135158Y463353D01*
X1135152Y463346D01*
X1135128Y463334D01*
X1131987Y460983D01*
X1131982Y460975D01*
X1131961Y460959D01*
X1129186Y458185D01*
X1129181Y458176D01*
X1129163Y458158D01*
X1126811Y455017D01*
X1126808Y455008D01*
X1126792Y454987D01*
X1124912Y451543D01*
X1124910Y451534D01*
X1124897Y451511D01*
X1123526Y447835D01*
X1123525Y447825D01*
X1123516Y447801D01*
X1122682Y443967D01*
X1122682Y443957D01*
X1122677Y443931D01*
X1122397Y440018D01*
X1122399Y440008D01*
X1122397Y439982D01*
X1122677Y436069D01*
X1122680Y436059D01*
X1122682Y436033D01*
X1123516Y432199D01*
X1123520Y432191D01*
X1123526Y432165D01*
X1124897Y428489D01*
X1124903Y428481D01*
X1124912Y428457D01*
X1126792Y425013D01*
X1126799Y425006D01*
X1126811Y424983D01*
X1129163Y421842D01*
X1129171Y421836D01*
X1129186Y421815D01*
X1131961Y419041D01*
X1131969Y419036D01*
X1131987Y419017D01*
X1135128Y416666D01*
X1135138Y416663D01*
X1135158Y416647D01*
X1138602Y414766D01*
X1138611Y414764D01*
X1138634Y414752D01*
X1142311Y413380D01*
X1142320Y413380D01*
X1142345Y413370D01*
X1146179Y412536D01*
X1146188Y412537D01*
X1146214Y412531D01*
X1150128Y412251D01*
X1150153Y412257D01*
G37*
G36*
X765089Y412257D02*
X765089Y412257D01*
X765115Y412253D01*
X765156Y412271D01*
X765200Y412281D01*
X765219Y412299D01*
X765243Y412310D01*
X765267Y412348D01*
X765300Y412379D01*
X765305Y412405D01*
X765320Y412427D01*
X765331Y412500D01*
X765331Y422500D01*
X765329Y422507D01*
X765330Y422514D01*
X765309Y422573D01*
X765291Y422634D01*
X765286Y422639D01*
X765284Y422646D01*
X765234Y422685D01*
X765186Y422726D01*
X765179Y422727D01*
X765173Y422732D01*
X765101Y422748D01*
X762383Y422962D01*
X759751Y423594D01*
X757250Y424630D01*
X754942Y426044D01*
X752884Y427802D01*
X751126Y429861D01*
X749712Y432169D01*
X748676Y434669D01*
X748044Y437302D01*
X747831Y440000D01*
X748044Y442698D01*
X748676Y445331D01*
X749712Y447831D01*
X751126Y450139D01*
X752884Y452198D01*
X754942Y453956D01*
X757250Y455370D01*
X759751Y456406D01*
X762383Y457038D01*
X765101Y457252D01*
X765108Y457254D01*
X765115Y457253D01*
X765173Y457279D01*
X765232Y457301D01*
X765236Y457307D01*
X765243Y457310D01*
X765277Y457363D01*
X765315Y457413D01*
X765316Y457421D01*
X765320Y457427D01*
X765331Y457500D01*
X765331Y467500D01*
X765323Y467525D01*
X765325Y467551D01*
X765304Y467591D01*
X765291Y467634D01*
X765272Y467651D01*
X765260Y467674D01*
X765220Y467696D01*
X765186Y467726D01*
X765160Y467730D01*
X765138Y467743D01*
X765064Y467749D01*
X761150Y467469D01*
X761141Y467465D01*
X761115Y467464D01*
X757281Y466630D01*
X757272Y466625D01*
X757247Y466620D01*
X753570Y465248D01*
X753563Y465243D01*
X753538Y465234D01*
X750094Y463353D01*
X750088Y463346D01*
X750064Y463334D01*
X746923Y460983D01*
X746918Y460975D01*
X746897Y460959D01*
X744122Y458185D01*
X744117Y458176D01*
X744099Y458158D01*
X741747Y455017D01*
X741744Y455008D01*
X741728Y454987D01*
X739848Y451543D01*
X739846Y451534D01*
X739833Y451511D01*
X738462Y447835D01*
X738461Y447825D01*
X738452Y447801D01*
X737618Y443967D01*
X737618Y443957D01*
X737613Y443931D01*
X737333Y440018D01*
X737335Y440008D01*
X737333Y439982D01*
X737613Y436069D01*
X737616Y436059D01*
X737618Y436033D01*
X738452Y432199D01*
X738456Y432191D01*
X738462Y432165D01*
X739833Y428489D01*
X739839Y428481D01*
X739848Y428457D01*
X741728Y425013D01*
X741735Y425006D01*
X741747Y424983D01*
X744099Y421842D01*
X744107Y421836D01*
X744122Y421815D01*
X746897Y419041D01*
X746905Y419036D01*
X746923Y419017D01*
X750064Y416666D01*
X750074Y416663D01*
X750094Y416647D01*
X753538Y414766D01*
X753547Y414764D01*
X753570Y414752D01*
X757247Y413380D01*
X757256Y413380D01*
X757281Y413370D01*
X761115Y412536D01*
X761124Y412537D01*
X761150Y412531D01*
X765064Y412251D01*
X765089Y412257D01*
G37*
G36*
X380000Y412257D02*
X380000Y412257D01*
X380025Y412253D01*
X380067Y412271D01*
X380111Y412281D01*
X380129Y412299D01*
X380153Y412310D01*
X380178Y412348D01*
X380210Y412379D01*
X380216Y412405D01*
X380230Y412427D01*
X380241Y412500D01*
X380241Y422500D01*
X380239Y422507D01*
X380241Y422514D01*
X380220Y422573D01*
X380202Y422634D01*
X380197Y422639D01*
X380194Y422646D01*
X380144Y422685D01*
X380097Y422726D01*
X380090Y422727D01*
X380084Y422732D01*
X380012Y422748D01*
X377294Y422962D01*
X374661Y423594D01*
X372161Y424630D01*
X369853Y426044D01*
X367794Y427802D01*
X366036Y429861D01*
X364622Y432169D01*
X363586Y434669D01*
X362954Y437302D01*
X362742Y440000D01*
X362954Y442698D01*
X363586Y445331D01*
X364622Y447831D01*
X366036Y450139D01*
X367794Y452198D01*
X369853Y453956D01*
X372161Y455370D01*
X374661Y456406D01*
X377294Y457038D01*
X380012Y457252D01*
X380018Y457254D01*
X380025Y457253D01*
X380083Y457279D01*
X380142Y457301D01*
X380147Y457307D01*
X380153Y457310D01*
X380188Y457363D01*
X380226Y457413D01*
X380226Y457421D01*
X380230Y457427D01*
X380241Y457500D01*
X380241Y467500D01*
X380234Y467525D01*
X380236Y467551D01*
X380215Y467591D01*
X380202Y467634D01*
X380182Y467651D01*
X380170Y467674D01*
X380131Y467696D01*
X380097Y467726D01*
X380071Y467730D01*
X380048Y467743D01*
X379974Y467749D01*
X376061Y467469D01*
X376051Y467465D01*
X376025Y467464D01*
X372191Y466630D01*
X372183Y466625D01*
X372157Y466620D01*
X368481Y465248D01*
X368473Y465243D01*
X368449Y465234D01*
X365005Y463353D01*
X364998Y463346D01*
X364975Y463334D01*
X361834Y460983D01*
X361828Y460975D01*
X361807Y460959D01*
X359033Y458185D01*
X359028Y458176D01*
X359009Y458158D01*
X356658Y455017D01*
X356655Y455008D01*
X356639Y454987D01*
X354758Y451543D01*
X354756Y451534D01*
X354744Y451511D01*
X353372Y447835D01*
X353372Y447825D01*
X353362Y447801D01*
X352528Y443967D01*
X352529Y443957D01*
X352523Y443931D01*
X352243Y440018D01*
X352245Y440008D01*
X352243Y439982D01*
X352523Y436069D01*
X352527Y436059D01*
X352528Y436033D01*
X353362Y432199D01*
X353367Y432191D01*
X353372Y432165D01*
X354744Y428489D01*
X354749Y428481D01*
X354758Y428457D01*
X356639Y425013D01*
X356646Y425006D01*
X356658Y424983D01*
X359009Y421842D01*
X359017Y421836D01*
X359033Y421815D01*
X361807Y419041D01*
X361816Y419036D01*
X361834Y419017D01*
X364975Y416666D01*
X364984Y416663D01*
X365005Y416647D01*
X368449Y414766D01*
X368458Y414764D01*
X368481Y414752D01*
X372157Y413380D01*
X372167Y413380D01*
X372191Y413370D01*
X376025Y412536D01*
X376035Y412537D01*
X376061Y412531D01*
X379974Y412251D01*
X380000Y412257D01*
G37*
D10*
X350992Y100000D03*
X367992Y100000D03*
D11*
X9992Y50000D03*
X369992Y640000D03*
D10*
X350992Y200000D03*
X367992Y200000D03*
D12*
X309492Y57300D03*
X309492Y82700D03*
D13*
X339492Y61500D03*
X339492Y78500D03*
D14*
X356002Y65280D02*
X362982Y65280D01*
X356002Y65280D02*
X356002Y72260D01*
X362982Y72260D01*
X362982Y65280D01*
X362982Y70080D02*
X356002Y70080D01*
X356002Y47740D02*
X362982Y47740D01*
X356002Y47740D02*
X356002Y54720D01*
X362982Y54720D01*
X362982Y47740D01*
X362982Y52540D02*
X356002Y52540D01*
D15*
X282492Y12750D03*
X277492Y12750D03*
X272492Y12750D03*
X267492Y12750D03*
X262492Y12750D03*
X257492Y12750D03*
X252492Y12750D03*
X247492Y12750D03*
X242492Y12750D03*
X237492Y12750D03*
X232492Y12750D03*
X227492Y12750D03*
X202492Y12750D03*
X197492Y12750D03*
X192492Y12750D03*
X187492Y12750D03*
X182492Y12750D03*
X177492Y12750D03*
X172492Y12750D03*
X167492Y12750D03*
X162492Y12750D03*
X157492Y12750D03*
X152492Y12750D03*
X147492Y12750D03*
X142492Y12750D03*
X137492Y12750D03*
X132492Y12750D03*
X127492Y12750D03*
X122492Y12750D03*
X117492Y12750D03*
X112492Y12750D03*
X107492Y12750D03*
X102492Y12750D03*
X97492Y12750D03*
D16*
X369992Y461000D03*
X369992Y419000D03*
X356992Y440000D03*
X9992Y419000D03*
X9992Y461000D03*
X22992Y440000D03*
D10*
X87992Y90000D03*
X70992Y90000D03*
D17*
X49492Y50500D03*
X49492Y69500D03*
X28492Y60000D03*
D10*
X30992Y90000D03*
X47992Y90000D03*
X350992Y120000D03*
X367992Y120000D03*
D18*
X161492Y89050D03*
X161492Y76350D03*
X161492Y63650D03*
X161492Y50950D03*
X217492Y50950D03*
X217492Y63650D03*
X217492Y76350D03*
X217492Y89050D03*
D10*
X177992Y110000D03*
X160992Y110000D03*
D19*
X346992Y362500D03*
X341992Y362500D03*
X336992Y362500D03*
X331992Y362500D03*
X326992Y362500D03*
X321992Y362500D03*
X316992Y362500D03*
X311992Y362500D03*
X306992Y362500D03*
X301992Y362500D03*
X296992Y362500D03*
X291992Y362500D03*
D20*
X276992Y347500D03*
X276992Y342500D03*
X276992Y337500D03*
X276992Y332500D03*
X276992Y327500D03*
X276992Y322500D03*
X276992Y317500D03*
X276992Y312500D03*
X276992Y307500D03*
X276992Y302500D03*
X276992Y297500D03*
X276992Y292500D03*
D19*
X291992Y277500D03*
X296992Y277500D03*
X301992Y277500D03*
X306992Y277500D03*
X311992Y277500D03*
X316992Y277500D03*
X321992Y277500D03*
X326992Y277500D03*
X331992Y277500D03*
X336992Y277500D03*
X341992Y277500D03*
X346992Y277500D03*
D20*
X361992Y292500D03*
X361992Y297500D03*
X361992Y302500D03*
X361992Y307500D03*
X361992Y312500D03*
X361992Y317500D03*
X361992Y322500D03*
X361992Y327500D03*
X361992Y332500D03*
X361992Y337500D03*
X361992Y342500D03*
X361992Y347500D03*
D21*
X246642Y590000D03*
X132342Y590000D03*
D22*
X268242Y559500D03*
X110742Y559500D03*
D23*
X233942Y526500D03*
X221242Y501100D03*
X208542Y526500D03*
X195842Y501100D03*
X183142Y526500D03*
X170442Y501100D03*
X157742Y526500D03*
X145042Y501100D03*
X246642Y501100D03*
X132342Y526500D03*
X230392Y630600D03*
X148592Y630600D03*
X255792Y630600D03*
X123192Y630600D03*
D24*
X305242Y235000D03*
X291742Y235000D03*
X291742Y245000D03*
X305242Y245000D03*
D13*
X322492Y258500D03*
X322492Y241500D03*
X274492Y258500D03*
X274492Y241500D03*
D10*
X306992Y260000D03*
X289992Y260000D03*
D13*
X339492Y618500D03*
X339492Y601500D03*
X359492Y618500D03*
X359492Y601500D03*
D25*
X349992Y136999D03*
X359492Y136999D03*
X368992Y136999D03*
X368992Y163001D03*
X349992Y163001D03*
D10*
X350992Y180000D03*
X367992Y180000D03*
X257992Y360000D03*
X240992Y360000D03*
D13*
X309492Y381500D03*
X309492Y398500D03*
D10*
X257992Y300000D03*
X240992Y300000D03*
D13*
X269492Y381500D03*
X269492Y398500D03*
X249492Y381500D03*
X249492Y398500D03*
D10*
X257992Y340000D03*
X240992Y340000D03*
X257992Y240000D03*
X240992Y240000D03*
X240992Y220000D03*
X257992Y220000D03*
D13*
X289492Y398500D03*
X289492Y381500D03*
D10*
X257992Y280000D03*
X240992Y280000D03*
D13*
X329492Y381500D03*
X329492Y398500D03*
X349492Y381500D03*
X349492Y398500D03*
X369492Y381500D03*
X369492Y398500D03*
D10*
X257992Y320000D03*
X240992Y320000D03*
D13*
X159492Y451500D03*
X159492Y468500D03*
D26*
X75492Y420000D03*
X103492Y420000D03*
D13*
X319492Y451500D03*
X319492Y468500D03*
X339492Y451500D03*
X339492Y468500D03*
X99492Y451500D03*
X99492Y468500D03*
X119492Y451500D03*
X119492Y468500D03*
X199492Y468500D03*
X199492Y451500D03*
X219492Y468500D03*
X219492Y451500D03*
X179492Y451500D03*
X179492Y468500D03*
X139492Y451500D03*
X139492Y468500D03*
X299492Y468500D03*
X299492Y451500D03*
X279492Y468500D03*
X279492Y451500D03*
X259492Y468500D03*
X259492Y451500D03*
X239492Y468500D03*
X239492Y451500D03*
D27*
X237992Y200000D03*
X260992Y200000D03*
D10*
X350892Y220500D03*
X367892Y220500D03*
D28*
X170492Y212100D03*
X170492Y186700D03*
X170492Y347900D03*
X170492Y373300D03*
X28492Y373300D03*
X28492Y347900D03*
X28492Y212100D03*
X28492Y186700D03*
D29*
X299492Y194000D03*
X299492Y146000D03*
D30*
X211492Y179000D03*
X211492Y161000D03*
X229492Y179000D03*
X229492Y161000D03*
D31*
X249492Y178000D03*
X249492Y162000D03*
D32*
X280492Y220000D03*
X298492Y220000D03*
D12*
X82192Y500000D03*
X56792Y500000D03*
X82192Y530000D03*
X56792Y530000D03*
D10*
X200992Y110000D03*
X217992Y110000D03*
D17*
X89492Y50500D03*
X89492Y69500D03*
X68492Y60000D03*
D33*
X147492Y150000D03*
X191492Y150000D03*
D13*
X119492Y61500D03*
X119492Y78500D03*
X139492Y61500D03*
X139492Y78500D03*
D10*
X367992Y240000D03*
X350992Y240000D03*
X240992Y260000D03*
X257992Y260000D03*
X736081Y100000D03*
X753081Y100000D03*
D11*
X395081Y50000D03*
X755081Y640000D03*
D10*
X736081Y200000D03*
X753081Y200000D03*
D12*
X694581Y57300D03*
X694581Y82700D03*
D13*
X724581Y61500D03*
X724581Y78500D03*
D14*
X741091Y65280D02*
X748071Y65280D01*
X741091Y65280D02*
X741091Y72260D01*
X748071Y72260D01*
X748071Y65280D01*
X748071Y70080D02*
X741091Y70080D01*
X741091Y47740D02*
X748071Y47740D01*
X741091Y47740D02*
X741091Y54720D01*
X748071Y54720D01*
X748071Y47740D01*
X748071Y52540D02*
X741091Y52540D01*
D15*
X667581Y12750D03*
X662581Y12750D03*
X657581Y12750D03*
X652581Y12750D03*
X647581Y12750D03*
X642581Y12750D03*
X637581Y12750D03*
X632581Y12750D03*
X627581Y12750D03*
X622581Y12750D03*
X617581Y12750D03*
X612581Y12750D03*
X587581Y12750D03*
X582581Y12750D03*
X577581Y12750D03*
X572581Y12750D03*
X567581Y12750D03*
X562581Y12750D03*
X557581Y12750D03*
X552581Y12750D03*
X547581Y12750D03*
X542581Y12750D03*
X537581Y12750D03*
X532581Y12750D03*
X527581Y12750D03*
X522581Y12750D03*
X517581Y12750D03*
X512581Y12750D03*
X507581Y12750D03*
X502581Y12750D03*
X497581Y12750D03*
X492581Y12750D03*
X487581Y12750D03*
X482581Y12750D03*
D16*
X755081Y461000D03*
X755081Y419000D03*
X742081Y440000D03*
X395081Y419000D03*
X395081Y461000D03*
X408081Y440000D03*
D10*
X473081Y90000D03*
X456081Y90000D03*
D17*
X434581Y50500D03*
X434581Y69500D03*
X413581Y60000D03*
D10*
X416081Y90000D03*
X433081Y90000D03*
X736081Y120000D03*
X753081Y120000D03*
D18*
X546581Y89050D03*
X546581Y76350D03*
X546581Y63650D03*
X546581Y50950D03*
X602581Y50950D03*
X602581Y63650D03*
X602581Y76350D03*
X602581Y89050D03*
D10*
X563081Y110000D03*
X546081Y110000D03*
D19*
X732081Y362500D03*
X727081Y362500D03*
X722081Y362500D03*
X717081Y362500D03*
X712081Y362500D03*
X707081Y362500D03*
X702081Y362500D03*
X697081Y362500D03*
X692081Y362500D03*
X687081Y362500D03*
X682081Y362500D03*
X677081Y362500D03*
D20*
X662081Y347500D03*
X662081Y342500D03*
X662081Y337500D03*
X662081Y332500D03*
X662081Y327500D03*
X662081Y322500D03*
X662081Y317500D03*
X662081Y312500D03*
X662081Y307500D03*
X662081Y302500D03*
X662081Y297500D03*
X662081Y292500D03*
D19*
X677081Y277500D03*
X682081Y277500D03*
X687081Y277500D03*
X692081Y277500D03*
X697081Y277500D03*
X702081Y277500D03*
X707081Y277500D03*
X712081Y277500D03*
X717081Y277500D03*
X722081Y277500D03*
X727081Y277500D03*
X732081Y277500D03*
D20*
X747081Y292500D03*
X747081Y297500D03*
X747081Y302500D03*
X747081Y307500D03*
X747081Y312500D03*
X747081Y317500D03*
X747081Y322500D03*
X747081Y327500D03*
X747081Y332500D03*
X747081Y337500D03*
X747081Y342500D03*
X747081Y347500D03*
D21*
X631731Y590000D03*
X517431Y590000D03*
D22*
X653331Y559500D03*
X495831Y559500D03*
D23*
X619031Y526500D03*
X606331Y501100D03*
X593631Y526500D03*
X580931Y501100D03*
X568231Y526500D03*
X555531Y501100D03*
X542831Y526500D03*
X530131Y501100D03*
X631731Y501100D03*
X517431Y526500D03*
X615481Y630600D03*
X533681Y630600D03*
X640881Y630600D03*
X508281Y630600D03*
D24*
X690331Y235000D03*
X676831Y235000D03*
X676831Y245000D03*
X690331Y245000D03*
D13*
X707581Y258500D03*
X707581Y241500D03*
X659581Y258500D03*
X659581Y241500D03*
D10*
X692081Y260000D03*
X675081Y260000D03*
D13*
X724581Y618500D03*
X724581Y601500D03*
X744581Y618500D03*
X744581Y601500D03*
D25*
X735081Y136999D03*
X744581Y136999D03*
X754081Y136999D03*
X754081Y163001D03*
X735081Y163001D03*
D10*
X736081Y180000D03*
X753081Y180000D03*
X643081Y360000D03*
X626081Y360000D03*
D13*
X694581Y381500D03*
X694581Y398500D03*
D10*
X643081Y300000D03*
X626081Y300000D03*
D13*
X654581Y381500D03*
X654581Y398500D03*
X634581Y381500D03*
X634581Y398500D03*
D10*
X643081Y340000D03*
X626081Y340000D03*
X643081Y240000D03*
X626081Y240000D03*
X626081Y220000D03*
X643081Y220000D03*
D13*
X674581Y398500D03*
X674581Y381500D03*
D10*
X643081Y280000D03*
X626081Y280000D03*
D13*
X714581Y381500D03*
X714581Y398500D03*
X734581Y381500D03*
X734581Y398500D03*
X754581Y381500D03*
X754581Y398500D03*
D10*
X643081Y320000D03*
X626081Y320000D03*
D13*
X544581Y451500D03*
X544581Y468500D03*
D26*
X460581Y420000D03*
X488581Y420000D03*
D13*
X704581Y451500D03*
X704581Y468500D03*
X724581Y451500D03*
X724581Y468500D03*
X484581Y451500D03*
X484581Y468500D03*
X504581Y451500D03*
X504581Y468500D03*
X584581Y468500D03*
X584581Y451500D03*
X604581Y468500D03*
X604581Y451500D03*
X564581Y451500D03*
X564581Y468500D03*
X524581Y451500D03*
X524581Y468500D03*
X684581Y468500D03*
X684581Y451500D03*
X664581Y468500D03*
X664581Y451500D03*
X644581Y468500D03*
X644581Y451500D03*
X624581Y468500D03*
X624581Y451500D03*
D27*
X623081Y200000D03*
X646081Y200000D03*
D10*
X735981Y220500D03*
X752981Y220500D03*
D28*
X555581Y212100D03*
X555581Y186700D03*
X555581Y347900D03*
X555581Y373300D03*
X413581Y373300D03*
X413581Y347900D03*
X413581Y212100D03*
X413581Y186700D03*
D29*
X684581Y194000D03*
X684581Y146000D03*
D30*
X596581Y179000D03*
X596581Y161000D03*
X614581Y179000D03*
X614581Y161000D03*
D31*
X634581Y178000D03*
X634581Y162000D03*
D32*
X665581Y220000D03*
X683581Y220000D03*
D12*
X467281Y500000D03*
X441881Y500000D03*
X467281Y530000D03*
X441881Y530000D03*
D10*
X586081Y110000D03*
X603081Y110000D03*
D17*
X474581Y50500D03*
X474581Y69500D03*
X453581Y60000D03*
D33*
X532581Y150000D03*
X576581Y150000D03*
D13*
X504581Y61500D03*
X504581Y78500D03*
X524581Y61500D03*
X524581Y78500D03*
D10*
X753081Y240000D03*
X736081Y240000D03*
X626081Y260000D03*
X643081Y260000D03*
X1121145Y100000D03*
X1138145Y100000D03*
D11*
X780145Y50000D03*
X1140145Y640000D03*
D10*
X1121145Y200000D03*
X1138145Y200000D03*
D12*
X1079645Y57300D03*
X1079645Y82700D03*
D13*
X1109645Y61500D03*
X1109645Y78500D03*
D14*
X1126155Y65280D02*
X1133135Y65280D01*
X1126155Y65280D02*
X1126155Y72260D01*
X1133135Y72260D01*
X1133135Y65280D01*
X1133135Y70080D02*
X1126155Y70080D01*
X1126155Y47740D02*
X1133135Y47740D01*
X1126155Y47740D02*
X1126155Y54720D01*
X1133135Y54720D01*
X1133135Y47740D01*
X1133135Y52540D02*
X1126155Y52540D01*
D15*
X1052645Y12750D03*
X1047645Y12750D03*
X1042645Y12750D03*
X1037645Y12750D03*
X1032645Y12750D03*
X1027645Y12750D03*
X1022645Y12750D03*
X1017645Y12750D03*
X1012645Y12750D03*
X1007645Y12750D03*
X1002645Y12750D03*
X997645Y12750D03*
X972645Y12750D03*
X967645Y12750D03*
X962645Y12750D03*
X957645Y12750D03*
X952645Y12750D03*
X947645Y12750D03*
X942645Y12750D03*
X937645Y12750D03*
X932645Y12750D03*
X927645Y12750D03*
X922645Y12750D03*
X917645Y12750D03*
X912645Y12750D03*
X907645Y12750D03*
X902645Y12750D03*
X897645Y12750D03*
X892645Y12750D03*
X887645Y12750D03*
X882645Y12750D03*
X877645Y12750D03*
X872645Y12750D03*
X867645Y12750D03*
D16*
X1140145Y461000D03*
X1140145Y419000D03*
X1127145Y440000D03*
X780145Y419000D03*
X780145Y461000D03*
X793145Y440000D03*
D10*
X858145Y90000D03*
X841145Y90000D03*
D17*
X819645Y50500D03*
X819645Y69500D03*
X798645Y60000D03*
D10*
X801145Y90000D03*
X818145Y90000D03*
X1121145Y120000D03*
X1138145Y120000D03*
D18*
X931645Y89050D03*
X931645Y76350D03*
X931645Y63650D03*
X931645Y50950D03*
X987645Y50950D03*
X987645Y63650D03*
X987645Y76350D03*
X987645Y89050D03*
D10*
X948145Y110000D03*
X931145Y110000D03*
D19*
X1117145Y362500D03*
X1112145Y362500D03*
X1107145Y362500D03*
X1102145Y362500D03*
X1097145Y362500D03*
X1092145Y362500D03*
X1087145Y362500D03*
X1082145Y362500D03*
X1077145Y362500D03*
X1072145Y362500D03*
X1067145Y362500D03*
X1062145Y362500D03*
D20*
X1047145Y347500D03*
X1047145Y342500D03*
X1047145Y337500D03*
X1047145Y332500D03*
X1047145Y327500D03*
X1047145Y322500D03*
X1047145Y317500D03*
X1047145Y312500D03*
X1047145Y307500D03*
X1047145Y302500D03*
X1047145Y297500D03*
X1047145Y292500D03*
D19*
X1062145Y277500D03*
X1067145Y277500D03*
X1072145Y277500D03*
X1077145Y277500D03*
X1082145Y277500D03*
X1087145Y277500D03*
X1092145Y277500D03*
X1097145Y277500D03*
X1102145Y277500D03*
X1107145Y277500D03*
X1112145Y277500D03*
X1117145Y277500D03*
D20*
X1132145Y292500D03*
X1132145Y297500D03*
X1132145Y302500D03*
X1132145Y307500D03*
X1132145Y312500D03*
X1132145Y317500D03*
X1132145Y322500D03*
X1132145Y327500D03*
X1132145Y332500D03*
X1132145Y337500D03*
X1132145Y342500D03*
X1132145Y347500D03*
D21*
X1016795Y590000D03*
X902495Y590000D03*
D22*
X1038395Y559500D03*
X880895Y559500D03*
D23*
X1004095Y526500D03*
X991395Y501100D03*
X978695Y526500D03*
X965995Y501100D03*
X953295Y526500D03*
X940595Y501100D03*
X927895Y526500D03*
X915195Y501100D03*
X1016795Y501100D03*
X902495Y526500D03*
X1000545Y630600D03*
X918745Y630600D03*
X1025945Y630600D03*
X893345Y630600D03*
D24*
X1075395Y235000D03*
X1061895Y235000D03*
X1061895Y245000D03*
X1075395Y245000D03*
D13*
X1092645Y258500D03*
X1092645Y241500D03*
X1044645Y258500D03*
X1044645Y241500D03*
D10*
X1077145Y260000D03*
X1060145Y260000D03*
D13*
X1109645Y618500D03*
X1109645Y601500D03*
X1129645Y618500D03*
X1129645Y601500D03*
D25*
X1120145Y136999D03*
X1129645Y136999D03*
X1139145Y136999D03*
X1139145Y163001D03*
X1120145Y163001D03*
D10*
X1121145Y180000D03*
X1138145Y180000D03*
X1028145Y360000D03*
X1011145Y360000D03*
D13*
X1079645Y381500D03*
X1079645Y398500D03*
D10*
X1028145Y300000D03*
X1011145Y300000D03*
D13*
X1039645Y381500D03*
X1039645Y398500D03*
X1019645Y381500D03*
X1019645Y398500D03*
D10*
X1028145Y340000D03*
X1011145Y340000D03*
X1028145Y240000D03*
X1011145Y240000D03*
X1011145Y220000D03*
X1028145Y220000D03*
D13*
X1059645Y398500D03*
X1059645Y381500D03*
D10*
X1028145Y280000D03*
X1011145Y280000D03*
D13*
X1099645Y381500D03*
X1099645Y398500D03*
X1119645Y381500D03*
X1119645Y398500D03*
X1139645Y381500D03*
X1139645Y398500D03*
D10*
X1028145Y320000D03*
X1011145Y320000D03*
D13*
X929645Y451500D03*
X929645Y468500D03*
D26*
X845645Y420000D03*
X873645Y420000D03*
D13*
X1089645Y451500D03*
X1089645Y468500D03*
X1109645Y451500D03*
X1109645Y468500D03*
X869645Y451500D03*
X869645Y468500D03*
X889645Y451500D03*
X889645Y468500D03*
X969645Y468500D03*
X969645Y451500D03*
X989645Y468500D03*
X989645Y451500D03*
X949645Y451500D03*
X949645Y468500D03*
X909645Y451500D03*
X909645Y468500D03*
X1069645Y468500D03*
X1069645Y451500D03*
X1049645Y468500D03*
X1049645Y451500D03*
X1029645Y468500D03*
X1029645Y451500D03*
X1009645Y468500D03*
X1009645Y451500D03*
D27*
X1008145Y200000D03*
X1031145Y200000D03*
D10*
X1121045Y220500D03*
X1138045Y220500D03*
D28*
X940645Y212100D03*
X940645Y186700D03*
X940645Y347900D03*
X940645Y373300D03*
X798645Y373300D03*
X798645Y347900D03*
X798645Y212100D03*
X798645Y186700D03*
D29*
X1069645Y194000D03*
X1069645Y146000D03*
D30*
X981645Y179000D03*
X981645Y161000D03*
X999645Y179000D03*
X999645Y161000D03*
D31*
X1019645Y178000D03*
X1019645Y162000D03*
D32*
X1050645Y220000D03*
X1068645Y220000D03*
D12*
X852345Y500000D03*
X826945Y500000D03*
X852345Y530000D03*
X826945Y530000D03*
D10*
X971145Y110000D03*
X988145Y110000D03*
D17*
X859645Y50500D03*
X859645Y69500D03*
X838645Y60000D03*
D33*
X917645Y150000D03*
X961645Y150000D03*
D13*
X889645Y61500D03*
X889645Y78500D03*
X909645Y61500D03*
X909645Y78500D03*
D10*
X1138145Y240000D03*
X1121145Y240000D03*
X1011145Y260000D03*
X1028145Y260000D03*
X29017Y1314297D03*
X12017Y1314297D03*
D11*
X370017Y1364297D03*
X10017Y774297D03*
D10*
X29017Y1214297D03*
X12017Y1214297D03*
D12*
X70517Y1356997D03*
X70517Y1331597D03*
D13*
X40517Y1352797D03*
X40517Y1335797D03*
D14*
X24007Y1349017D02*
X17027Y1349017D01*
X24007Y1349017D02*
X24007Y1342037D01*
X17027Y1342037D01*
X17027Y1349017D01*
X17027Y1346837D02*
X24007Y1346837D01*
X24007Y1366557D02*
X17027Y1366557D01*
X24007Y1366557D02*
X24007Y1359577D01*
X17027Y1359577D01*
X17027Y1366557D01*
X17027Y1364377D02*
X24007Y1364377D01*
D15*
X97517Y1401547D03*
X102517Y1401547D03*
X107517Y1401547D03*
X112517Y1401547D03*
X117517Y1401547D03*
X122517Y1401547D03*
X127517Y1401547D03*
X132517Y1401547D03*
X137517Y1401547D03*
X142517Y1401547D03*
X147517Y1401547D03*
X152517Y1401547D03*
X177517Y1401547D03*
X182517Y1401547D03*
X187517Y1401547D03*
X192517Y1401547D03*
X197517Y1401547D03*
X202517Y1401547D03*
X207517Y1401547D03*
X212517Y1401547D03*
X217517Y1401547D03*
X222517Y1401547D03*
X227517Y1401547D03*
X232517Y1401547D03*
X237517Y1401547D03*
X242517Y1401547D03*
X247517Y1401547D03*
X252517Y1401547D03*
X257517Y1401547D03*
X262517Y1401547D03*
X267517Y1401547D03*
X272517Y1401547D03*
X277517Y1401547D03*
X282517Y1401547D03*
D16*
X10017Y953297D03*
X10017Y995297D03*
X23017Y974297D03*
X370017Y995297D03*
X370017Y953297D03*
X357017Y974297D03*
D10*
X292017Y1324297D03*
X309017Y1324297D03*
D17*
X330517Y1363797D03*
X330517Y1344797D03*
X351517Y1354297D03*
D10*
X349017Y1324297D03*
X332017Y1324297D03*
X29017Y1294297D03*
X12017Y1294297D03*
D18*
X218517Y1325247D03*
X218517Y1337947D03*
X218517Y1350647D03*
X218517Y1363347D03*
X162517Y1363347D03*
X162517Y1350647D03*
X162517Y1337947D03*
X162517Y1325247D03*
D10*
X202017Y1304297D03*
X219017Y1304297D03*
D19*
X33017Y1051797D03*
X38017Y1051797D03*
X43017Y1051797D03*
X48017Y1051797D03*
X53017Y1051797D03*
X58017Y1051797D03*
X63017Y1051797D03*
X68017Y1051797D03*
X73017Y1051797D03*
X78017Y1051797D03*
X83017Y1051797D03*
X88017Y1051797D03*
D20*
X103017Y1066797D03*
X103017Y1071797D03*
X103017Y1076797D03*
X103017Y1081797D03*
X103017Y1086797D03*
X103017Y1091797D03*
X103017Y1096797D03*
X103017Y1101797D03*
X103017Y1106797D03*
X103017Y1111797D03*
X103017Y1116797D03*
X103017Y1121797D03*
D19*
X88017Y1136797D03*
X83017Y1136797D03*
X78017Y1136797D03*
X73017Y1136797D03*
X68017Y1136797D03*
X63017Y1136797D03*
X58017Y1136797D03*
X53017Y1136797D03*
X48017Y1136797D03*
X43017Y1136797D03*
X38017Y1136797D03*
X33017Y1136797D03*
D20*
X18017Y1121797D03*
X18017Y1116797D03*
X18017Y1111797D03*
X18017Y1106797D03*
X18017Y1101797D03*
X18017Y1096797D03*
X18017Y1091797D03*
X18017Y1086797D03*
X18017Y1081797D03*
X18017Y1076797D03*
X18017Y1071797D03*
X18017Y1066797D03*
D21*
X133367Y824297D03*
X247667Y824297D03*
D22*
X111767Y854797D03*
X269267Y854797D03*
D23*
X146067Y887797D03*
X158767Y913197D03*
X171467Y887797D03*
X184167Y913197D03*
X196867Y887797D03*
X209567Y913197D03*
X222267Y887797D03*
X234967Y913197D03*
X133367Y913197D03*
X247667Y887797D03*
X149617Y783697D03*
X231417Y783697D03*
X124217Y783697D03*
X256817Y783697D03*
D24*
X74767Y1179297D03*
X88267Y1179297D03*
X88267Y1169297D03*
X74767Y1169297D03*
D13*
X57517Y1155797D03*
X57517Y1172797D03*
X105517Y1155797D03*
X105517Y1172797D03*
D10*
X73017Y1154297D03*
X90017Y1154297D03*
D13*
X40517Y795797D03*
X40517Y812797D03*
X20517Y795797D03*
X20517Y812797D03*
D25*
X30017Y1277298D03*
X20517Y1277298D03*
X11017Y1277298D03*
X11017Y1251296D03*
X30017Y1251296D03*
D10*
X29017Y1234297D03*
X12017Y1234297D03*
X122017Y1054297D03*
X139017Y1054297D03*
D13*
X70517Y1032797D03*
X70517Y1015797D03*
D10*
X122017Y1114297D03*
X139017Y1114297D03*
D13*
X110517Y1032797D03*
X110517Y1015797D03*
X130517Y1032797D03*
X130517Y1015797D03*
D10*
X122017Y1074297D03*
X139017Y1074297D03*
X122017Y1174297D03*
X139017Y1174297D03*
X139017Y1194297D03*
X122017Y1194297D03*
D13*
X90517Y1015797D03*
X90517Y1032797D03*
D10*
X122017Y1134297D03*
X139017Y1134297D03*
D13*
X50517Y1032797D03*
X50517Y1015797D03*
X30517Y1032797D03*
X30517Y1015797D03*
X10517Y1032797D03*
X10517Y1015797D03*
D10*
X122017Y1094297D03*
X139017Y1094297D03*
D13*
X220517Y962797D03*
X220517Y945797D03*
D26*
X304517Y994297D03*
X276517Y994297D03*
D13*
X60517Y962797D03*
X60517Y945797D03*
X40517Y962797D03*
X40517Y945797D03*
X280517Y962797D03*
X280517Y945797D03*
X260517Y962797D03*
X260517Y945797D03*
X180517Y945797D03*
X180517Y962797D03*
X160517Y945797D03*
X160517Y962797D03*
X200517Y962797D03*
X200517Y945797D03*
X240517Y962797D03*
X240517Y945797D03*
X80517Y945797D03*
X80517Y962797D03*
X100517Y945797D03*
X100517Y962797D03*
X120517Y945797D03*
X120517Y962797D03*
X140517Y945797D03*
X140517Y962797D03*
D27*
X142017Y1214297D03*
X119017Y1214297D03*
D10*
X29117Y1193797D03*
X12117Y1193797D03*
D28*
X209517Y1202197D03*
X209517Y1227597D03*
X209517Y1066397D03*
X209517Y1040997D03*
X351517Y1040997D03*
X351517Y1066397D03*
X351517Y1202197D03*
X351517Y1227597D03*
D29*
X80517Y1220297D03*
X80517Y1268297D03*
D30*
X168517Y1235297D03*
X168517Y1253297D03*
X150517Y1235297D03*
X150517Y1253297D03*
D31*
X130517Y1236297D03*
X130517Y1252297D03*
D32*
X99517Y1194297D03*
X81517Y1194297D03*
D12*
X297817Y914297D03*
X323217Y914297D03*
X297817Y884297D03*
X323217Y884297D03*
D10*
X179017Y1304297D03*
X162017Y1304297D03*
D17*
X290517Y1363797D03*
X290517Y1344797D03*
X311517Y1354297D03*
D33*
X232517Y1264297D03*
X188517Y1264297D03*
D13*
X260517Y1352797D03*
X260517Y1335797D03*
X240517Y1352797D03*
X240517Y1335797D03*
D10*
X12017Y1174297D03*
X29017Y1174297D03*
X139017Y1154297D03*
X122017Y1154297D03*
X414081Y1314297D03*
X397081Y1314297D03*
D11*
X755081Y1364297D03*
X395081Y774297D03*
D10*
X414081Y1214297D03*
X397081Y1214297D03*
D12*
X455581Y1356997D03*
X455581Y1331597D03*
D13*
X425581Y1352797D03*
X425581Y1335797D03*
D14*
X409071Y1349017D02*
X402091Y1349017D01*
X409071Y1349017D02*
X409071Y1342037D01*
X402091Y1342037D01*
X402091Y1349017D01*
X402091Y1346837D02*
X409071Y1346837D01*
X409071Y1366557D02*
X402091Y1366557D01*
X409071Y1366557D02*
X409071Y1359577D01*
X402091Y1359577D01*
X402091Y1366557D01*
X402091Y1364377D02*
X409071Y1364377D01*
D15*
X482581Y1401547D03*
X487581Y1401547D03*
X492581Y1401547D03*
X497581Y1401547D03*
X502581Y1401547D03*
X507581Y1401547D03*
X512581Y1401547D03*
X517581Y1401547D03*
X522581Y1401547D03*
X527581Y1401547D03*
X532581Y1401547D03*
X537581Y1401547D03*
X562581Y1401547D03*
X567581Y1401547D03*
X572581Y1401547D03*
X577581Y1401547D03*
X582581Y1401547D03*
X587581Y1401547D03*
X592581Y1401547D03*
X597581Y1401547D03*
X602581Y1401547D03*
X607581Y1401547D03*
X612581Y1401547D03*
X617581Y1401547D03*
X622581Y1401547D03*
X627581Y1401547D03*
X632581Y1401547D03*
X637581Y1401547D03*
X642581Y1401547D03*
X647581Y1401547D03*
X652581Y1401547D03*
X657581Y1401547D03*
X662581Y1401547D03*
X667581Y1401547D03*
D16*
X395081Y953297D03*
X395081Y995297D03*
X408081Y974297D03*
X755081Y995297D03*
X755081Y953297D03*
X742081Y974297D03*
D10*
X677081Y1324297D03*
X694081Y1324297D03*
D17*
X715581Y1363797D03*
X715581Y1344797D03*
X736581Y1354297D03*
D10*
X734081Y1324297D03*
X717081Y1324297D03*
X414081Y1294297D03*
X397081Y1294297D03*
D18*
X603581Y1325247D03*
X603581Y1337947D03*
X603581Y1350647D03*
X603581Y1363347D03*
X547581Y1363347D03*
X547581Y1350647D03*
X547581Y1337947D03*
X547581Y1325247D03*
D10*
X587081Y1304297D03*
X604081Y1304297D03*
D19*
X418081Y1051797D03*
X423081Y1051797D03*
X428081Y1051797D03*
X433081Y1051797D03*
X438081Y1051797D03*
X443081Y1051797D03*
X448081Y1051797D03*
X453081Y1051797D03*
X458081Y1051797D03*
X463081Y1051797D03*
X468081Y1051797D03*
X473081Y1051797D03*
D20*
X488081Y1066797D03*
X488081Y1071797D03*
X488081Y1076797D03*
X488081Y1081797D03*
X488081Y1086797D03*
X488081Y1091797D03*
X488081Y1096797D03*
X488081Y1101797D03*
X488081Y1106797D03*
X488081Y1111797D03*
X488081Y1116797D03*
X488081Y1121797D03*
D19*
X473081Y1136797D03*
X468081Y1136797D03*
X463081Y1136797D03*
X458081Y1136797D03*
X453081Y1136797D03*
X448081Y1136797D03*
X443081Y1136797D03*
X438081Y1136797D03*
X433081Y1136797D03*
X428081Y1136797D03*
X423081Y1136797D03*
X418081Y1136797D03*
D20*
X403081Y1121797D03*
X403081Y1116797D03*
X403081Y1111797D03*
X403081Y1106797D03*
X403081Y1101797D03*
X403081Y1096797D03*
X403081Y1091797D03*
X403081Y1086797D03*
X403081Y1081797D03*
X403081Y1076797D03*
X403081Y1071797D03*
X403081Y1066797D03*
D21*
X518431Y824297D03*
X632731Y824297D03*
D22*
X496831Y854797D03*
X654331Y854797D03*
D23*
X531131Y887797D03*
X543831Y913197D03*
X556531Y887797D03*
X569231Y913197D03*
X581931Y887797D03*
X594631Y913197D03*
X607331Y887797D03*
X620031Y913197D03*
X518431Y913197D03*
X632731Y887797D03*
X534681Y783697D03*
X616481Y783697D03*
X509281Y783697D03*
X641881Y783697D03*
D24*
X459831Y1179297D03*
X473331Y1179297D03*
X473331Y1169297D03*
X459831Y1169297D03*
D13*
X442581Y1155797D03*
X442581Y1172797D03*
X490581Y1155797D03*
X490581Y1172797D03*
D10*
X458081Y1154297D03*
X475081Y1154297D03*
D13*
X425581Y795797D03*
X425581Y812797D03*
X405581Y795797D03*
X405581Y812797D03*
D25*
X415081Y1277298D03*
X405581Y1277298D03*
X396081Y1277298D03*
X396081Y1251296D03*
X415081Y1251296D03*
D10*
X414081Y1234297D03*
X397081Y1234297D03*
X507081Y1054297D03*
X524081Y1054297D03*
D13*
X455581Y1032797D03*
X455581Y1015797D03*
D10*
X507081Y1114297D03*
X524081Y1114297D03*
D13*
X495581Y1032797D03*
X495581Y1015797D03*
X515581Y1032797D03*
X515581Y1015797D03*
D10*
X507081Y1074297D03*
X524081Y1074297D03*
X507081Y1174297D03*
X524081Y1174297D03*
X524081Y1194297D03*
X507081Y1194297D03*
D13*
X475581Y1015797D03*
X475581Y1032797D03*
D10*
X507081Y1134297D03*
X524081Y1134297D03*
D13*
X435581Y1032797D03*
X435581Y1015797D03*
X415581Y1032797D03*
X415581Y1015797D03*
X395581Y1032797D03*
X395581Y1015797D03*
D10*
X507081Y1094297D03*
X524081Y1094297D03*
D13*
X605581Y962797D03*
X605581Y945797D03*
D26*
X689581Y994297D03*
X661581Y994297D03*
D13*
X445581Y962797D03*
X445581Y945797D03*
X425581Y962797D03*
X425581Y945797D03*
X665581Y962797D03*
X665581Y945797D03*
X645581Y962797D03*
X645581Y945797D03*
X565581Y945797D03*
X565581Y962797D03*
X545581Y945797D03*
X545581Y962797D03*
X585581Y962797D03*
X585581Y945797D03*
X625581Y962797D03*
X625581Y945797D03*
X465581Y945797D03*
X465581Y962797D03*
X485581Y945797D03*
X485581Y962797D03*
X505581Y945797D03*
X505581Y962797D03*
X525581Y945797D03*
X525581Y962797D03*
D27*
X527081Y1214297D03*
X504081Y1214297D03*
D10*
X414181Y1193797D03*
X397181Y1193797D03*
D28*
X594581Y1202197D03*
X594581Y1227597D03*
X594581Y1066397D03*
X594581Y1040997D03*
X736581Y1040997D03*
X736581Y1066397D03*
X736581Y1202197D03*
X736581Y1227597D03*
D29*
X465581Y1220297D03*
X465581Y1268297D03*
D30*
X553581Y1235297D03*
X553581Y1253297D03*
X535581Y1235297D03*
X535581Y1253297D03*
D31*
X515581Y1236297D03*
X515581Y1252297D03*
D32*
X484581Y1194297D03*
X466581Y1194297D03*
D12*
X682881Y914297D03*
X708281Y914297D03*
X682881Y884297D03*
X708281Y884297D03*
D10*
X564081Y1304297D03*
X547081Y1304297D03*
D17*
X675581Y1363797D03*
X675581Y1344797D03*
X696581Y1354297D03*
D33*
X617581Y1264297D03*
X573581Y1264297D03*
D13*
X645581Y1352797D03*
X645581Y1335797D03*
X625581Y1352797D03*
X625581Y1335797D03*
D10*
X397081Y1174297D03*
X414081Y1174297D03*
X524081Y1154297D03*
X507081Y1154297D03*
X799171Y1314297D03*
X782171Y1314297D03*
D11*
X1140171Y1364297D03*
X780171Y774297D03*
D10*
X799171Y1214297D03*
X782171Y1214297D03*
D12*
X840671Y1356997D03*
X840671Y1331597D03*
D13*
X810671Y1352797D03*
X810671Y1335797D03*
D14*
X794161Y1349017D02*
X787181Y1349017D01*
X794161Y1349017D02*
X794161Y1342037D01*
X787181Y1342037D01*
X787181Y1349017D01*
X787181Y1346837D02*
X794161Y1346837D01*
X794161Y1366557D02*
X787181Y1366557D01*
X794161Y1366557D02*
X794161Y1359577D01*
X787181Y1359577D01*
X787181Y1366557D01*
X787181Y1364377D02*
X794161Y1364377D01*
D15*
X867671Y1401547D03*
X872671Y1401547D03*
X877671Y1401547D03*
X882671Y1401547D03*
X887671Y1401547D03*
X892671Y1401547D03*
X897671Y1401547D03*
X902671Y1401547D03*
X907671Y1401547D03*
X912671Y1401547D03*
X917671Y1401547D03*
X922671Y1401547D03*
X947671Y1401547D03*
X952671Y1401547D03*
X957671Y1401547D03*
X962671Y1401547D03*
X967671Y1401547D03*
X972671Y1401547D03*
X977671Y1401547D03*
X982671Y1401547D03*
X987671Y1401547D03*
X992671Y1401547D03*
X997671Y1401547D03*
X1002671Y1401547D03*
X1007671Y1401547D03*
X1012671Y1401547D03*
X1017671Y1401547D03*
X1022671Y1401547D03*
X1027671Y1401547D03*
X1032671Y1401547D03*
X1037671Y1401547D03*
X1042671Y1401547D03*
X1047671Y1401547D03*
X1052671Y1401547D03*
D16*
X780171Y953297D03*
X780171Y995297D03*
X793171Y974297D03*
X1140171Y995297D03*
X1140171Y953297D03*
X1127171Y974297D03*
D10*
X1062171Y1324297D03*
X1079171Y1324297D03*
D17*
X1100671Y1363797D03*
X1100671Y1344797D03*
X1121671Y1354297D03*
D10*
X1119171Y1324297D03*
X1102171Y1324297D03*
X799171Y1294297D03*
X782171Y1294297D03*
D18*
X988671Y1325247D03*
X988671Y1337947D03*
X988671Y1350647D03*
X988671Y1363347D03*
X932671Y1363347D03*
X932671Y1350647D03*
X932671Y1337947D03*
X932671Y1325247D03*
D10*
X972171Y1304297D03*
X989171Y1304297D03*
D19*
X803171Y1051797D03*
X808171Y1051797D03*
X813171Y1051797D03*
X818171Y1051797D03*
X823171Y1051797D03*
X828171Y1051797D03*
X833171Y1051797D03*
X838171Y1051797D03*
X843171Y1051797D03*
X848171Y1051797D03*
X853171Y1051797D03*
X858171Y1051797D03*
D20*
X873171Y1066797D03*
X873171Y1071797D03*
X873171Y1076797D03*
X873171Y1081797D03*
X873171Y1086797D03*
X873171Y1091797D03*
X873171Y1096797D03*
X873171Y1101797D03*
X873171Y1106797D03*
X873171Y1111797D03*
X873171Y1116797D03*
X873171Y1121797D03*
D19*
X858171Y1136797D03*
X853171Y1136797D03*
X848171Y1136797D03*
X843171Y1136797D03*
X838171Y1136797D03*
X833171Y1136797D03*
X828171Y1136797D03*
X823171Y1136797D03*
X818171Y1136797D03*
X813171Y1136797D03*
X808171Y1136797D03*
X803171Y1136797D03*
D20*
X788171Y1121797D03*
X788171Y1116797D03*
X788171Y1111797D03*
X788171Y1106797D03*
X788171Y1101797D03*
X788171Y1096797D03*
X788171Y1091797D03*
X788171Y1086797D03*
X788171Y1081797D03*
X788171Y1076797D03*
X788171Y1071797D03*
X788171Y1066797D03*
D21*
X903521Y824297D03*
X1017821Y824297D03*
D22*
X881921Y854797D03*
X1039421Y854797D03*
D23*
X916221Y887797D03*
X928921Y913197D03*
X941621Y887797D03*
X954321Y913197D03*
X967021Y887797D03*
X979721Y913197D03*
X992421Y887797D03*
X1005121Y913197D03*
X903521Y913197D03*
X1017821Y887797D03*
X919771Y783697D03*
X1001571Y783697D03*
X894371Y783697D03*
X1026971Y783697D03*
D24*
X844921Y1179297D03*
X858421Y1179297D03*
X858421Y1169297D03*
X844921Y1169297D03*
D13*
X827671Y1155797D03*
X827671Y1172797D03*
X875671Y1155797D03*
X875671Y1172797D03*
D10*
X843171Y1154297D03*
X860171Y1154297D03*
D13*
X810671Y795797D03*
X810671Y812797D03*
X790671Y795797D03*
X790671Y812797D03*
D25*
X800171Y1277298D03*
X790671Y1277298D03*
X781171Y1277298D03*
X781171Y1251296D03*
X800171Y1251296D03*
D10*
X799171Y1234297D03*
X782171Y1234297D03*
X892171Y1054297D03*
X909171Y1054297D03*
D13*
X840671Y1032797D03*
X840671Y1015797D03*
D10*
X892171Y1114297D03*
X909171Y1114297D03*
D13*
X880671Y1032797D03*
X880671Y1015797D03*
X900671Y1032797D03*
X900671Y1015797D03*
D10*
X892171Y1074297D03*
X909171Y1074297D03*
X892171Y1174297D03*
X909171Y1174297D03*
X909171Y1194297D03*
X892171Y1194297D03*
D13*
X860671Y1015797D03*
X860671Y1032797D03*
D10*
X892171Y1134297D03*
X909171Y1134297D03*
D13*
X820671Y1032797D03*
X820671Y1015797D03*
X800671Y1032797D03*
X800671Y1015797D03*
X780671Y1032797D03*
X780671Y1015797D03*
D10*
X892171Y1094297D03*
X909171Y1094297D03*
D13*
X990671Y962797D03*
X990671Y945797D03*
D26*
X1074671Y994297D03*
X1046671Y994297D03*
D13*
X830671Y962797D03*
X830671Y945797D03*
X810671Y962797D03*
X810671Y945797D03*
X1050671Y962797D03*
X1050671Y945797D03*
X1030671Y962797D03*
X1030671Y945797D03*
X950671Y945797D03*
X950671Y962797D03*
X930671Y945797D03*
X930671Y962797D03*
X970671Y962797D03*
X970671Y945797D03*
X1010671Y962797D03*
X1010671Y945797D03*
X850671Y945797D03*
X850671Y962797D03*
X870671Y945797D03*
X870671Y962797D03*
X890671Y945797D03*
X890671Y962797D03*
X910671Y945797D03*
X910671Y962797D03*
D27*
X912171Y1214297D03*
X889171Y1214297D03*
D10*
X799271Y1193797D03*
X782271Y1193797D03*
D28*
X979671Y1202197D03*
X979671Y1227597D03*
X979671Y1066397D03*
X979671Y1040997D03*
X1121671Y1040997D03*
X1121671Y1066397D03*
X1121671Y1202197D03*
X1121671Y1227597D03*
D29*
X850671Y1220297D03*
X850671Y1268297D03*
D30*
X938671Y1235297D03*
X938671Y1253297D03*
X920671Y1235297D03*
X920671Y1253297D03*
D31*
X900671Y1236297D03*
X900671Y1252297D03*
D32*
X869671Y1194297D03*
X851671Y1194297D03*
D12*
X1067971Y914297D03*
X1093371Y914297D03*
X1067971Y884297D03*
X1093371Y884297D03*
D10*
X949171Y1304297D03*
X932171Y1304297D03*
D17*
X1060671Y1363797D03*
X1060671Y1344797D03*
X1081671Y1354297D03*
D33*
X1002671Y1264297D03*
X958671Y1264297D03*
D13*
X1030671Y1352797D03*
X1030671Y1335797D03*
X1010671Y1352797D03*
X1010671Y1335797D03*
D10*
X782171Y1174297D03*
X799171Y1174297D03*
X909171Y1154297D03*
X892171Y1154297D03*
D34*
X-26238Y1350797D03*
X1176401Y1350797D03*
D35*
X-35293Y63500D02*
X-35290Y63722D01*
X-35282Y63944D01*
X-35268Y64166D01*
X-35249Y64388D01*
X-35225Y64608D01*
X-35195Y64829D01*
X-35160Y65048D01*
X-35119Y65267D01*
X-35073Y65484D01*
X-35022Y65700D01*
X-34965Y65915D01*
X-34903Y66129D01*
X-34836Y66340D01*
X-34764Y66551D01*
X-34686Y66759D01*
X-34604Y66965D01*
X-34516Y67169D01*
X-34424Y67372D01*
X-34326Y67571D01*
X-34224Y67768D01*
X-34117Y67963D01*
X-34005Y68155D01*
X-33888Y68344D01*
X-33767Y68531D01*
X-33641Y68714D01*
X-33511Y68894D01*
X-33376Y69071D01*
X-33238Y69244D01*
X-33095Y69414D01*
X-32947Y69581D01*
X-32796Y69744D01*
X-32641Y69903D01*
X-32482Y70058D01*
X-32319Y70209D01*
X-32152Y70357D01*
X-31982Y70500D01*
X-31809Y70638D01*
X-31632Y70773D01*
X-31452Y70903D01*
X-31269Y71029D01*
X-31082Y71150D01*
X-30893Y71267D01*
X-30701Y71379D01*
X-30506Y71486D01*
X-30309Y71588D01*
X-30110Y71686D01*
X-29907Y71778D01*
X-29703Y71866D01*
X-29497Y71948D01*
X-29289Y72026D01*
X-29078Y72098D01*
X-28867Y72165D01*
X-28653Y72227D01*
X-28438Y72284D01*
X-28222Y72335D01*
X-28005Y72381D01*
X-27786Y72422D01*
X-27567Y72457D01*
X-27346Y72487D01*
X-27126Y72511D01*
X-26904Y72530D01*
X-26682Y72544D01*
X-26460Y72552D01*
X-26238Y72555D01*
X-26016Y72552D01*
X-25794Y72544D01*
X-25572Y72530D01*
X-25350Y72511D01*
X-25130Y72487D01*
X-24909Y72457D01*
X-24690Y72422D01*
X-24471Y72381D01*
X-24254Y72335D01*
X-24038Y72284D01*
X-23823Y72227D01*
X-23609Y72165D01*
X-23398Y72098D01*
X-23187Y72026D01*
X-22979Y71948D01*
X-22773Y71866D01*
X-22569Y71778D01*
X-22366Y71686D01*
X-22167Y71588D01*
X-21970Y71486D01*
X-21775Y71379D01*
X-21583Y71267D01*
X-21394Y71150D01*
X-21207Y71029D01*
X-21024Y70903D01*
X-20844Y70773D01*
X-20667Y70638D01*
X-20494Y70500D01*
X-20324Y70357D01*
X-20157Y70209D01*
X-19994Y70058D01*
X-19835Y69903D01*
X-19680Y69744D01*
X-19529Y69581D01*
X-19381Y69414D01*
X-19238Y69244D01*
X-19100Y69071D01*
X-18965Y68894D01*
X-18835Y68714D01*
X-18709Y68531D01*
X-18588Y68344D01*
X-18471Y68155D01*
X-18359Y67963D01*
X-18252Y67768D01*
X-18150Y67571D01*
X-18052Y67372D01*
X-17960Y67169D01*
X-17872Y66965D01*
X-17790Y66759D01*
X-17712Y66551D01*
X-17640Y66340D01*
X-17573Y66129D01*
X-17511Y65915D01*
X-17454Y65700D01*
X-17403Y65484D01*
X-17357Y65267D01*
X-17316Y65048D01*
X-17281Y64829D01*
X-17251Y64608D01*
X-17227Y64388D01*
X-17208Y64166D01*
X-17194Y63944D01*
X-17186Y63722D01*
X-17183Y63500D01*
X-17186Y63278D01*
X-17194Y63056D01*
X-17208Y62834D01*
X-17227Y62612D01*
X-17251Y62392D01*
X-17281Y62171D01*
X-17316Y61952D01*
X-17357Y61733D01*
X-17403Y61516D01*
X-17454Y61300D01*
X-17511Y61085D01*
X-17573Y60871D01*
X-17640Y60660D01*
X-17712Y60449D01*
X-17790Y60241D01*
X-17872Y60035D01*
X-17960Y59831D01*
X-18052Y59628D01*
X-18150Y59429D01*
X-18252Y59232D01*
X-18359Y59037D01*
X-18471Y58845D01*
X-18588Y58656D01*
X-18709Y58469D01*
X-18835Y58286D01*
X-18965Y58106D01*
X-19100Y57929D01*
X-19238Y57756D01*
X-19381Y57586D01*
X-19529Y57419D01*
X-19680Y57256D01*
X-19835Y57097D01*
X-19994Y56942D01*
X-20157Y56791D01*
X-20324Y56643D01*
X-20494Y56500D01*
X-20667Y56362D01*
X-20844Y56227D01*
X-21024Y56097D01*
X-21207Y55971D01*
X-21394Y55850D01*
X-21583Y55733D01*
X-21775Y55621D01*
X-21970Y55514D01*
X-22167Y55412D01*
X-22366Y55314D01*
X-22569Y55222D01*
X-22773Y55134D01*
X-22979Y55052D01*
X-23187Y54974D01*
X-23398Y54902D01*
X-23609Y54835D01*
X-23823Y54773D01*
X-24038Y54716D01*
X-24254Y54665D01*
X-24471Y54619D01*
X-24690Y54578D01*
X-24909Y54543D01*
X-25130Y54513D01*
X-25350Y54489D01*
X-25572Y54470D01*
X-25794Y54456D01*
X-26016Y54448D01*
X-26238Y54445D01*
X-26460Y54448D01*
X-26682Y54456D01*
X-26904Y54470D01*
X-27126Y54489D01*
X-27346Y54513D01*
X-27567Y54543D01*
X-27786Y54578D01*
X-28005Y54619D01*
X-28222Y54665D01*
X-28438Y54716D01*
X-28653Y54773D01*
X-28867Y54835D01*
X-29078Y54902D01*
X-29289Y54974D01*
X-29497Y55052D01*
X-29703Y55134D01*
X-29907Y55222D01*
X-30110Y55314D01*
X-30309Y55412D01*
X-30506Y55514D01*
X-30701Y55621D01*
X-30893Y55733D01*
X-31082Y55850D01*
X-31269Y55971D01*
X-31452Y56097D01*
X-31632Y56227D01*
X-31809Y56362D01*
X-31982Y56500D01*
X-32152Y56643D01*
X-32319Y56791D01*
X-32482Y56942D01*
X-32641Y57097D01*
X-32796Y57256D01*
X-32947Y57419D01*
X-33095Y57586D01*
X-33238Y57756D01*
X-33376Y57929D01*
X-33511Y58106D01*
X-33641Y58286D01*
X-33767Y58469D01*
X-33888Y58656D01*
X-34005Y58845D01*
X-34117Y59037D01*
X-34224Y59232D01*
X-34326Y59429D01*
X-34424Y59628D01*
X-34516Y59831D01*
X-34604Y60035D01*
X-34686Y60241D01*
X-34764Y60449D01*
X-34836Y60660D01*
X-34903Y60871D01*
X-34965Y61085D01*
X-35022Y61300D01*
X-35073Y61516D01*
X-35119Y61733D01*
X-35160Y61952D01*
X-35195Y62171D01*
X-35225Y62392D01*
X-35249Y62612D01*
X-35268Y62834D01*
X-35282Y63056D01*
X-35290Y63278D01*
X-35293Y63500D01*
D23*
X-26238Y63500D03*
M02*
