G04 EAGLE Gerber RS-274X export*
G75*
%MOMM*%
%FSLAX34Y34*%
%LPD*%
%INSolderpaste Top*%
%IPPOS*%
%AMOC8*
5,1,8,0,0,1.08239X$1,22.5*%
G01*
%ADD10R,1.100000X1.000000*%
%ADD11R,1.000000X1.100000*%
%ADD12C,0.300000*%
%ADD13R,0.900000X0.800000*%
%ADD14R,1.200000X0.600000*%
%ADD15R,0.254000X1.143000*%
%ADD16R,1.143000X0.254000*%
%ADD17R,0.750000X0.700000*%
%ADD18R,0.550000X1.200000*%
%ADD19R,1.600000X1.800000*%
%ADD20R,0.630000X0.830000*%
%ADD21R,4.000000X1.250000*%
%ADD22R,1.400000X3.000000*%
%ADD23R,1.200000X0.800000*%
%ADD24R,1.800000X0.800000*%
%ADD25R,0.800000X1.200000*%
%ADD26R,0.550000X1.350000*%


D10*
X350992Y100000D03*
X367992Y100000D03*
X350992Y200000D03*
X367992Y200000D03*
D11*
X359492Y551500D03*
X359492Y568500D03*
D12*
X342992Y565270D02*
X335992Y565270D01*
X335992Y572270D01*
X342992Y572270D01*
X342992Y565270D01*
X342992Y568120D02*
X335992Y568120D01*
X335992Y570970D02*
X342992Y570970D01*
X342992Y547730D02*
X335992Y547730D01*
X335992Y554730D01*
X342992Y554730D01*
X342992Y547730D01*
X342992Y550580D02*
X335992Y550580D01*
X335992Y553430D02*
X342992Y553430D01*
D10*
X70992Y90000D03*
X87992Y90000D03*
D13*
X49492Y50500D03*
X49492Y69500D03*
X28492Y60000D03*
D10*
X30992Y90000D03*
X47992Y90000D03*
X350992Y120000D03*
X367992Y120000D03*
D14*
X161492Y89050D03*
X161492Y76350D03*
X161492Y63650D03*
X161492Y50950D03*
X217492Y50950D03*
X217492Y63650D03*
X217492Y76350D03*
X217492Y89050D03*
D10*
X177992Y110000D03*
X160992Y110000D03*
D15*
X346992Y362500D03*
X341992Y362500D03*
X336992Y362500D03*
X331992Y362500D03*
X326992Y362500D03*
X321992Y362500D03*
X316992Y362500D03*
X311992Y362500D03*
X306992Y362500D03*
X301992Y362500D03*
X296992Y362500D03*
X291992Y362500D03*
D16*
X276992Y347500D03*
X276992Y342500D03*
X276992Y337500D03*
X276992Y332500D03*
X276992Y327500D03*
X276992Y322500D03*
X276992Y317500D03*
X276992Y312500D03*
X276992Y307500D03*
X276992Y302500D03*
X276992Y297500D03*
X276992Y292500D03*
D15*
X291992Y277500D03*
X296992Y277500D03*
X301992Y277500D03*
X306992Y277500D03*
X311992Y277500D03*
X316992Y277500D03*
X321992Y277500D03*
X326992Y277500D03*
X331992Y277500D03*
X336992Y277500D03*
X341992Y277500D03*
X346992Y277500D03*
D16*
X361992Y292500D03*
X361992Y297500D03*
X361992Y302500D03*
X361992Y307500D03*
X361992Y312500D03*
X361992Y317500D03*
X361992Y322500D03*
X361992Y327500D03*
X361992Y332500D03*
X361992Y337500D03*
X361992Y342500D03*
X361992Y347500D03*
D17*
X305242Y235000D03*
X291742Y235000D03*
X291742Y245000D03*
X305242Y245000D03*
D11*
X322492Y258500D03*
X322492Y241500D03*
X274492Y258500D03*
X274492Y241500D03*
D10*
X306992Y260000D03*
X289992Y260000D03*
D11*
X339492Y618500D03*
X339492Y601500D03*
X359492Y618500D03*
X359492Y601500D03*
D18*
X349992Y136999D03*
X359492Y136999D03*
X368992Y136999D03*
X368992Y163001D03*
X349992Y163001D03*
D10*
X350992Y180000D03*
X367992Y180000D03*
X257992Y360000D03*
X240992Y360000D03*
D11*
X309492Y381500D03*
X309492Y398500D03*
D10*
X257992Y300000D03*
X240992Y300000D03*
D11*
X269492Y381500D03*
X269492Y398500D03*
X249492Y381500D03*
X249492Y398500D03*
D10*
X257992Y340000D03*
X240992Y340000D03*
X257992Y240000D03*
X240992Y240000D03*
X240992Y220000D03*
X257992Y220000D03*
D11*
X289492Y398500D03*
X289492Y381500D03*
D10*
X257992Y280000D03*
X240992Y280000D03*
D11*
X329492Y381500D03*
X329492Y398500D03*
X349492Y381500D03*
X349492Y398500D03*
X369492Y381500D03*
X369492Y398500D03*
D10*
X257992Y320000D03*
X240992Y320000D03*
D11*
X159492Y451500D03*
X159492Y468500D03*
D19*
X75492Y420000D03*
X103492Y420000D03*
D11*
X319492Y451500D03*
X319492Y468500D03*
X339492Y451500D03*
X339492Y468500D03*
X99492Y451500D03*
X99492Y468500D03*
X119492Y451500D03*
X119492Y468500D03*
X199492Y468500D03*
X199492Y451500D03*
X219492Y468500D03*
X219492Y451500D03*
X179492Y451500D03*
X179492Y468500D03*
X139492Y451500D03*
X139492Y468500D03*
X299492Y468500D03*
X299492Y451500D03*
X279492Y468500D03*
X279492Y451500D03*
X259492Y468500D03*
X259492Y451500D03*
X239492Y468500D03*
X239492Y451500D03*
D20*
X237992Y200000D03*
X260992Y200000D03*
D10*
X350892Y220500D03*
X367892Y220500D03*
D21*
X170492Y212100D03*
X170492Y186700D03*
X170492Y347900D03*
X170492Y373300D03*
X28492Y373300D03*
X28492Y347900D03*
X28492Y212100D03*
X28492Y186700D03*
D22*
X299492Y194000D03*
X299492Y146000D03*
D23*
X211492Y179000D03*
X211492Y161000D03*
X229492Y179000D03*
X229492Y161000D03*
D24*
X249492Y178000D03*
X249492Y162000D03*
D25*
X280492Y220000D03*
X298492Y220000D03*
D10*
X200992Y110000D03*
X217992Y110000D03*
D13*
X89492Y50500D03*
X89492Y69500D03*
X68492Y60000D03*
D19*
X155492Y150000D03*
X183492Y150000D03*
D11*
X119492Y61500D03*
X119492Y78500D03*
X139492Y61500D03*
X139492Y78500D03*
D10*
X367992Y240000D03*
X350992Y240000D03*
X240992Y260000D03*
X257992Y260000D03*
X300992Y80000D03*
X317992Y80000D03*
D12*
X314762Y63500D02*
X314762Y56500D01*
X314762Y63500D02*
X321762Y63500D01*
X321762Y56500D01*
X314762Y56500D01*
X314762Y59350D02*
X321762Y59350D01*
X321762Y62200D02*
X314762Y62200D01*
X297222Y63500D02*
X297222Y56500D01*
X297222Y63500D02*
X304222Y63500D01*
X304222Y56500D01*
X297222Y56500D01*
X297222Y59350D02*
X304222Y59350D01*
X304222Y62200D02*
X297222Y62200D01*
D26*
X298992Y523751D03*
X289492Y523751D03*
X279992Y523751D03*
X279992Y496249D03*
X289492Y496249D03*
X298992Y496249D03*
D10*
X736081Y100000D03*
X753081Y100000D03*
X736081Y200000D03*
X753081Y200000D03*
D11*
X744581Y551500D03*
X744581Y568500D03*
D12*
X728081Y565270D02*
X721081Y565270D01*
X721081Y572270D01*
X728081Y572270D01*
X728081Y565270D01*
X728081Y568120D02*
X721081Y568120D01*
X721081Y570970D02*
X728081Y570970D01*
X728081Y547730D02*
X721081Y547730D01*
X721081Y554730D01*
X728081Y554730D01*
X728081Y547730D01*
X728081Y550580D02*
X721081Y550580D01*
X721081Y553430D02*
X728081Y553430D01*
D10*
X456081Y90000D03*
X473081Y90000D03*
D13*
X434581Y50500D03*
X434581Y69500D03*
X413581Y60000D03*
D10*
X416081Y90000D03*
X433081Y90000D03*
X736081Y120000D03*
X753081Y120000D03*
D14*
X546581Y89050D03*
X546581Y76350D03*
X546581Y63650D03*
X546581Y50950D03*
X602581Y50950D03*
X602581Y63650D03*
X602581Y76350D03*
X602581Y89050D03*
D10*
X563081Y110000D03*
X546081Y110000D03*
D15*
X732081Y362500D03*
X727081Y362500D03*
X722081Y362500D03*
X717081Y362500D03*
X712081Y362500D03*
X707081Y362500D03*
X702081Y362500D03*
X697081Y362500D03*
X692081Y362500D03*
X687081Y362500D03*
X682081Y362500D03*
X677081Y362500D03*
D16*
X662081Y347500D03*
X662081Y342500D03*
X662081Y337500D03*
X662081Y332500D03*
X662081Y327500D03*
X662081Y322500D03*
X662081Y317500D03*
X662081Y312500D03*
X662081Y307500D03*
X662081Y302500D03*
X662081Y297500D03*
X662081Y292500D03*
D15*
X677081Y277500D03*
X682081Y277500D03*
X687081Y277500D03*
X692081Y277500D03*
X697081Y277500D03*
X702081Y277500D03*
X707081Y277500D03*
X712081Y277500D03*
X717081Y277500D03*
X722081Y277500D03*
X727081Y277500D03*
X732081Y277500D03*
D16*
X747081Y292500D03*
X747081Y297500D03*
X747081Y302500D03*
X747081Y307500D03*
X747081Y312500D03*
X747081Y317500D03*
X747081Y322500D03*
X747081Y327500D03*
X747081Y332500D03*
X747081Y337500D03*
X747081Y342500D03*
X747081Y347500D03*
D17*
X690331Y235000D03*
X676831Y235000D03*
X676831Y245000D03*
X690331Y245000D03*
D11*
X707581Y258500D03*
X707581Y241500D03*
X659581Y258500D03*
X659581Y241500D03*
D10*
X692081Y260000D03*
X675081Y260000D03*
D11*
X724581Y618500D03*
X724581Y601500D03*
X744581Y618500D03*
X744581Y601500D03*
D18*
X735081Y136999D03*
X744581Y136999D03*
X754081Y136999D03*
X754081Y163001D03*
X735081Y163001D03*
D10*
X736081Y180000D03*
X753081Y180000D03*
X643081Y360000D03*
X626081Y360000D03*
D11*
X694581Y381500D03*
X694581Y398500D03*
D10*
X643081Y300000D03*
X626081Y300000D03*
D11*
X654581Y381500D03*
X654581Y398500D03*
X634581Y381500D03*
X634581Y398500D03*
D10*
X643081Y340000D03*
X626081Y340000D03*
X643081Y240000D03*
X626081Y240000D03*
X626081Y220000D03*
X643081Y220000D03*
D11*
X674581Y398500D03*
X674581Y381500D03*
D10*
X643081Y280000D03*
X626081Y280000D03*
D11*
X714581Y381500D03*
X714581Y398500D03*
X734581Y381500D03*
X734581Y398500D03*
X754581Y381500D03*
X754581Y398500D03*
D10*
X643081Y320000D03*
X626081Y320000D03*
D11*
X544581Y451500D03*
X544581Y468500D03*
D19*
X460581Y420000D03*
X488581Y420000D03*
D11*
X704581Y451500D03*
X704581Y468500D03*
X724581Y451500D03*
X724581Y468500D03*
X484581Y451500D03*
X484581Y468500D03*
X504581Y451500D03*
X504581Y468500D03*
X584581Y468500D03*
X584581Y451500D03*
X604581Y468500D03*
X604581Y451500D03*
X564581Y451500D03*
X564581Y468500D03*
X524581Y451500D03*
X524581Y468500D03*
X684581Y468500D03*
X684581Y451500D03*
X664581Y468500D03*
X664581Y451500D03*
X644581Y468500D03*
X644581Y451500D03*
X624581Y468500D03*
X624581Y451500D03*
D20*
X623081Y200000D03*
X646081Y200000D03*
D10*
X735981Y220500D03*
X752981Y220500D03*
D21*
X555581Y212100D03*
X555581Y186700D03*
X555581Y347900D03*
X555581Y373300D03*
X413581Y373300D03*
X413581Y347900D03*
X413581Y212100D03*
X413581Y186700D03*
D22*
X684581Y194000D03*
X684581Y146000D03*
D23*
X596581Y179000D03*
X596581Y161000D03*
X614581Y179000D03*
X614581Y161000D03*
D24*
X634581Y178000D03*
X634581Y162000D03*
D25*
X665581Y220000D03*
X683581Y220000D03*
D10*
X586081Y110000D03*
X603081Y110000D03*
D13*
X474581Y50500D03*
X474581Y69500D03*
X453581Y60000D03*
D19*
X540581Y150000D03*
X568581Y150000D03*
D11*
X504581Y61500D03*
X504581Y78500D03*
X524581Y61500D03*
X524581Y78500D03*
D10*
X753081Y240000D03*
X736081Y240000D03*
X626081Y260000D03*
X643081Y260000D03*
X686081Y80000D03*
X703081Y80000D03*
D12*
X699851Y63500D02*
X699851Y56500D01*
X699851Y63500D02*
X706851Y63500D01*
X706851Y56500D01*
X699851Y56500D01*
X699851Y59350D02*
X706851Y59350D01*
X706851Y62200D02*
X699851Y62200D01*
X682311Y63500D02*
X682311Y56500D01*
X682311Y63500D02*
X689311Y63500D01*
X689311Y56500D01*
X682311Y56500D01*
X682311Y59350D02*
X689311Y59350D01*
X689311Y62200D02*
X682311Y62200D01*
D26*
X684081Y523751D03*
X674581Y523751D03*
X665081Y523751D03*
X665081Y496249D03*
X674581Y496249D03*
X684081Y496249D03*
D10*
X1121145Y100000D03*
X1138145Y100000D03*
X1121145Y200000D03*
X1138145Y200000D03*
D11*
X1129645Y551500D03*
X1129645Y568500D03*
D12*
X1113145Y565270D02*
X1106145Y565270D01*
X1106145Y572270D01*
X1113145Y572270D01*
X1113145Y565270D01*
X1113145Y568120D02*
X1106145Y568120D01*
X1106145Y570970D02*
X1113145Y570970D01*
X1113145Y547730D02*
X1106145Y547730D01*
X1106145Y554730D01*
X1113145Y554730D01*
X1113145Y547730D01*
X1113145Y550580D02*
X1106145Y550580D01*
X1106145Y553430D02*
X1113145Y553430D01*
D10*
X841145Y90000D03*
X858145Y90000D03*
D13*
X819645Y50500D03*
X819645Y69500D03*
X798645Y60000D03*
D10*
X801145Y90000D03*
X818145Y90000D03*
X1121145Y120000D03*
X1138145Y120000D03*
D14*
X931645Y89050D03*
X931645Y76350D03*
X931645Y63650D03*
X931645Y50950D03*
X987645Y50950D03*
X987645Y63650D03*
X987645Y76350D03*
X987645Y89050D03*
D10*
X948145Y110000D03*
X931145Y110000D03*
D15*
X1117145Y362500D03*
X1112145Y362500D03*
X1107145Y362500D03*
X1102145Y362500D03*
X1097145Y362500D03*
X1092145Y362500D03*
X1087145Y362500D03*
X1082145Y362500D03*
X1077145Y362500D03*
X1072145Y362500D03*
X1067145Y362500D03*
X1062145Y362500D03*
D16*
X1047145Y347500D03*
X1047145Y342500D03*
X1047145Y337500D03*
X1047145Y332500D03*
X1047145Y327500D03*
X1047145Y322500D03*
X1047145Y317500D03*
X1047145Y312500D03*
X1047145Y307500D03*
X1047145Y302500D03*
X1047145Y297500D03*
X1047145Y292500D03*
D15*
X1062145Y277500D03*
X1067145Y277500D03*
X1072145Y277500D03*
X1077145Y277500D03*
X1082145Y277500D03*
X1087145Y277500D03*
X1092145Y277500D03*
X1097145Y277500D03*
X1102145Y277500D03*
X1107145Y277500D03*
X1112145Y277500D03*
X1117145Y277500D03*
D16*
X1132145Y292500D03*
X1132145Y297500D03*
X1132145Y302500D03*
X1132145Y307500D03*
X1132145Y312500D03*
X1132145Y317500D03*
X1132145Y322500D03*
X1132145Y327500D03*
X1132145Y332500D03*
X1132145Y337500D03*
X1132145Y342500D03*
X1132145Y347500D03*
D17*
X1075395Y235000D03*
X1061895Y235000D03*
X1061895Y245000D03*
X1075395Y245000D03*
D11*
X1092645Y258500D03*
X1092645Y241500D03*
X1044645Y258500D03*
X1044645Y241500D03*
D10*
X1077145Y260000D03*
X1060145Y260000D03*
D11*
X1109645Y618500D03*
X1109645Y601500D03*
X1129645Y618500D03*
X1129645Y601500D03*
D18*
X1120145Y136999D03*
X1129645Y136999D03*
X1139145Y136999D03*
X1139145Y163001D03*
X1120145Y163001D03*
D10*
X1121145Y180000D03*
X1138145Y180000D03*
X1028145Y360000D03*
X1011145Y360000D03*
D11*
X1079645Y381500D03*
X1079645Y398500D03*
D10*
X1028145Y300000D03*
X1011145Y300000D03*
D11*
X1039645Y381500D03*
X1039645Y398500D03*
X1019645Y381500D03*
X1019645Y398500D03*
D10*
X1028145Y340000D03*
X1011145Y340000D03*
X1028145Y240000D03*
X1011145Y240000D03*
X1011145Y220000D03*
X1028145Y220000D03*
D11*
X1059645Y398500D03*
X1059645Y381500D03*
D10*
X1028145Y280000D03*
X1011145Y280000D03*
D11*
X1099645Y381500D03*
X1099645Y398500D03*
X1119645Y381500D03*
X1119645Y398500D03*
X1139645Y381500D03*
X1139645Y398500D03*
D10*
X1028145Y320000D03*
X1011145Y320000D03*
D11*
X929645Y451500D03*
X929645Y468500D03*
D19*
X845645Y420000D03*
X873645Y420000D03*
D11*
X1089645Y451500D03*
X1089645Y468500D03*
X1109645Y451500D03*
X1109645Y468500D03*
X869645Y451500D03*
X869645Y468500D03*
X889645Y451500D03*
X889645Y468500D03*
X969645Y468500D03*
X969645Y451500D03*
X989645Y468500D03*
X989645Y451500D03*
X949645Y451500D03*
X949645Y468500D03*
X909645Y451500D03*
X909645Y468500D03*
X1069645Y468500D03*
X1069645Y451500D03*
X1049645Y468500D03*
X1049645Y451500D03*
X1029645Y468500D03*
X1029645Y451500D03*
X1009645Y468500D03*
X1009645Y451500D03*
D20*
X1008145Y200000D03*
X1031145Y200000D03*
D10*
X1121045Y220500D03*
X1138045Y220500D03*
D21*
X940645Y212100D03*
X940645Y186700D03*
X940645Y347900D03*
X940645Y373300D03*
X798645Y373300D03*
X798645Y347900D03*
X798645Y212100D03*
X798645Y186700D03*
D22*
X1069645Y194000D03*
X1069645Y146000D03*
D23*
X981645Y179000D03*
X981645Y161000D03*
X999645Y179000D03*
X999645Y161000D03*
D24*
X1019645Y178000D03*
X1019645Y162000D03*
D25*
X1050645Y220000D03*
X1068645Y220000D03*
D10*
X971145Y110000D03*
X988145Y110000D03*
D13*
X859645Y50500D03*
X859645Y69500D03*
X838645Y60000D03*
D19*
X925645Y150000D03*
X953645Y150000D03*
D11*
X889645Y61500D03*
X889645Y78500D03*
X909645Y61500D03*
X909645Y78500D03*
D10*
X1138145Y240000D03*
X1121145Y240000D03*
X1011145Y260000D03*
X1028145Y260000D03*
X1071145Y80000D03*
X1088145Y80000D03*
D12*
X1084915Y63500D02*
X1084915Y56500D01*
X1084915Y63500D02*
X1091915Y63500D01*
X1091915Y56500D01*
X1084915Y56500D01*
X1084915Y59350D02*
X1091915Y59350D01*
X1091915Y62200D02*
X1084915Y62200D01*
X1067375Y63500D02*
X1067375Y56500D01*
X1067375Y63500D02*
X1074375Y63500D01*
X1074375Y56500D01*
X1067375Y56500D01*
X1067375Y59350D02*
X1074375Y59350D01*
X1074375Y62200D02*
X1067375Y62200D01*
D26*
X1069145Y523751D03*
X1059645Y523751D03*
X1050145Y523751D03*
X1050145Y496249D03*
X1059645Y496249D03*
X1069145Y496249D03*
D10*
X29017Y1301597D03*
X12017Y1301597D03*
X29017Y1201597D03*
X12017Y1201597D03*
D11*
X20517Y850097D03*
X20517Y833097D03*
D12*
X37017Y836327D02*
X44017Y836327D01*
X44017Y829327D01*
X37017Y829327D01*
X37017Y836327D01*
X37017Y832177D02*
X44017Y832177D01*
X44017Y835027D02*
X37017Y835027D01*
X37017Y853867D02*
X44017Y853867D01*
X44017Y846867D01*
X37017Y846867D01*
X37017Y853867D01*
X37017Y849717D02*
X44017Y849717D01*
X44017Y852567D02*
X37017Y852567D01*
D10*
X309017Y1311597D03*
X292017Y1311597D03*
D13*
X330517Y1351097D03*
X330517Y1332097D03*
X351517Y1341597D03*
D10*
X349017Y1311597D03*
X332017Y1311597D03*
X29017Y1281597D03*
X12017Y1281597D03*
D14*
X218517Y1312547D03*
X218517Y1325247D03*
X218517Y1337947D03*
X218517Y1350647D03*
X162517Y1350647D03*
X162517Y1337947D03*
X162517Y1325247D03*
X162517Y1312547D03*
D10*
X202017Y1291597D03*
X219017Y1291597D03*
D15*
X33017Y1039097D03*
X38017Y1039097D03*
X43017Y1039097D03*
X48017Y1039097D03*
X53017Y1039097D03*
X58017Y1039097D03*
X63017Y1039097D03*
X68017Y1039097D03*
X73017Y1039097D03*
X78017Y1039097D03*
X83017Y1039097D03*
X88017Y1039097D03*
D16*
X103017Y1054097D03*
X103017Y1059097D03*
X103017Y1064097D03*
X103017Y1069097D03*
X103017Y1074097D03*
X103017Y1079097D03*
X103017Y1084097D03*
X103017Y1089097D03*
X103017Y1094097D03*
X103017Y1099097D03*
X103017Y1104097D03*
X103017Y1109097D03*
D15*
X88017Y1124097D03*
X83017Y1124097D03*
X78017Y1124097D03*
X73017Y1124097D03*
X68017Y1124097D03*
X63017Y1124097D03*
X58017Y1124097D03*
X53017Y1124097D03*
X48017Y1124097D03*
X43017Y1124097D03*
X38017Y1124097D03*
X33017Y1124097D03*
D16*
X18017Y1109097D03*
X18017Y1104097D03*
X18017Y1099097D03*
X18017Y1094097D03*
X18017Y1089097D03*
X18017Y1084097D03*
X18017Y1079097D03*
X18017Y1074097D03*
X18017Y1069097D03*
X18017Y1064097D03*
X18017Y1059097D03*
X18017Y1054097D03*
D17*
X74767Y1166597D03*
X88267Y1166597D03*
X88267Y1156597D03*
X74767Y1156597D03*
D11*
X57517Y1143097D03*
X57517Y1160097D03*
X105517Y1143097D03*
X105517Y1160097D03*
D10*
X73017Y1141597D03*
X90017Y1141597D03*
D11*
X40517Y783097D03*
X40517Y800097D03*
X20517Y783097D03*
X20517Y800097D03*
D18*
X30017Y1264598D03*
X20517Y1264598D03*
X11017Y1264598D03*
X11017Y1238596D03*
X30017Y1238596D03*
D10*
X29017Y1221597D03*
X12017Y1221597D03*
X122017Y1041597D03*
X139017Y1041597D03*
D11*
X70517Y1020097D03*
X70517Y1003097D03*
D10*
X122017Y1101597D03*
X139017Y1101597D03*
D11*
X110517Y1020097D03*
X110517Y1003097D03*
X130517Y1020097D03*
X130517Y1003097D03*
D10*
X122017Y1061597D03*
X139017Y1061597D03*
X122017Y1161597D03*
X139017Y1161597D03*
X139017Y1181597D03*
X122017Y1181597D03*
D11*
X90517Y1003097D03*
X90517Y1020097D03*
D10*
X122017Y1121597D03*
X139017Y1121597D03*
D11*
X50517Y1020097D03*
X50517Y1003097D03*
X30517Y1020097D03*
X30517Y1003097D03*
X10517Y1020097D03*
X10517Y1003097D03*
D10*
X122017Y1081597D03*
X139017Y1081597D03*
D11*
X220517Y950097D03*
X220517Y933097D03*
D19*
X304517Y981597D03*
X276517Y981597D03*
D11*
X60517Y950097D03*
X60517Y933097D03*
X40517Y950097D03*
X40517Y933097D03*
X280517Y950097D03*
X280517Y933097D03*
X260517Y950097D03*
X260517Y933097D03*
X180517Y933097D03*
X180517Y950097D03*
X160517Y933097D03*
X160517Y950097D03*
X200517Y950097D03*
X200517Y933097D03*
X240517Y950097D03*
X240517Y933097D03*
X80517Y933097D03*
X80517Y950097D03*
X100517Y933097D03*
X100517Y950097D03*
X120517Y933097D03*
X120517Y950097D03*
X140517Y933097D03*
X140517Y950097D03*
D20*
X142017Y1201597D03*
X119017Y1201597D03*
D10*
X29117Y1181097D03*
X12117Y1181097D03*
D21*
X209517Y1189497D03*
X209517Y1214897D03*
X209517Y1053697D03*
X209517Y1028297D03*
X351517Y1028297D03*
X351517Y1053697D03*
X351517Y1189497D03*
X351517Y1214897D03*
D22*
X80517Y1207597D03*
X80517Y1255597D03*
D23*
X168517Y1222597D03*
X168517Y1240597D03*
X150517Y1222597D03*
X150517Y1240597D03*
D24*
X130517Y1223597D03*
X130517Y1239597D03*
D25*
X99517Y1181597D03*
X81517Y1181597D03*
D10*
X179017Y1291597D03*
X162017Y1291597D03*
D13*
X290517Y1351097D03*
X290517Y1332097D03*
X311517Y1341597D03*
D19*
X224517Y1251597D03*
X196517Y1251597D03*
D11*
X260517Y1340097D03*
X260517Y1323097D03*
X240517Y1340097D03*
X240517Y1323097D03*
D10*
X12017Y1161597D03*
X29017Y1161597D03*
X139017Y1141597D03*
X122017Y1141597D03*
X79017Y1321597D03*
X62017Y1321597D03*
D12*
X65247Y1338097D02*
X65247Y1345097D01*
X65247Y1338097D02*
X58247Y1338097D01*
X58247Y1345097D01*
X65247Y1345097D01*
X65247Y1340947D02*
X58247Y1340947D01*
X58247Y1343797D02*
X65247Y1343797D01*
X82787Y1345097D02*
X82787Y1338097D01*
X75787Y1338097D01*
X75787Y1345097D01*
X82787Y1345097D01*
X82787Y1340947D02*
X75787Y1340947D01*
X75787Y1343797D02*
X82787Y1343797D01*
D26*
X81017Y877846D03*
X90517Y877846D03*
X100017Y877846D03*
X100017Y905348D03*
X90517Y905348D03*
X81017Y905348D03*
D10*
X414081Y1301597D03*
X397081Y1301597D03*
X414081Y1201597D03*
X397081Y1201597D03*
D11*
X405581Y850097D03*
X405581Y833097D03*
D12*
X422081Y836327D02*
X429081Y836327D01*
X429081Y829327D01*
X422081Y829327D01*
X422081Y836327D01*
X422081Y832177D02*
X429081Y832177D01*
X429081Y835027D02*
X422081Y835027D01*
X422081Y853867D02*
X429081Y853867D01*
X429081Y846867D01*
X422081Y846867D01*
X422081Y853867D01*
X422081Y849717D02*
X429081Y849717D01*
X429081Y852567D02*
X422081Y852567D01*
D10*
X694081Y1311597D03*
X677081Y1311597D03*
D13*
X715581Y1351097D03*
X715581Y1332097D03*
X736581Y1341597D03*
D10*
X734081Y1311597D03*
X717081Y1311597D03*
X414081Y1281597D03*
X397081Y1281597D03*
D14*
X603581Y1312547D03*
X603581Y1325247D03*
X603581Y1337947D03*
X603581Y1350647D03*
X547581Y1350647D03*
X547581Y1337947D03*
X547581Y1325247D03*
X547581Y1312547D03*
D10*
X587081Y1291597D03*
X604081Y1291597D03*
D15*
X418081Y1039097D03*
X423081Y1039097D03*
X428081Y1039097D03*
X433081Y1039097D03*
X438081Y1039097D03*
X443081Y1039097D03*
X448081Y1039097D03*
X453081Y1039097D03*
X458081Y1039097D03*
X463081Y1039097D03*
X468081Y1039097D03*
X473081Y1039097D03*
D16*
X488081Y1054097D03*
X488081Y1059097D03*
X488081Y1064097D03*
X488081Y1069097D03*
X488081Y1074097D03*
X488081Y1079097D03*
X488081Y1084097D03*
X488081Y1089097D03*
X488081Y1094097D03*
X488081Y1099097D03*
X488081Y1104097D03*
X488081Y1109097D03*
D15*
X473081Y1124097D03*
X468081Y1124097D03*
X463081Y1124097D03*
X458081Y1124097D03*
X453081Y1124097D03*
X448081Y1124097D03*
X443081Y1124097D03*
X438081Y1124097D03*
X433081Y1124097D03*
X428081Y1124097D03*
X423081Y1124097D03*
X418081Y1124097D03*
D16*
X403081Y1109097D03*
X403081Y1104097D03*
X403081Y1099097D03*
X403081Y1094097D03*
X403081Y1089097D03*
X403081Y1084097D03*
X403081Y1079097D03*
X403081Y1074097D03*
X403081Y1069097D03*
X403081Y1064097D03*
X403081Y1059097D03*
X403081Y1054097D03*
D17*
X459831Y1166597D03*
X473331Y1166597D03*
X473331Y1156597D03*
X459831Y1156597D03*
D11*
X442581Y1143097D03*
X442581Y1160097D03*
X490581Y1143097D03*
X490581Y1160097D03*
D10*
X458081Y1141597D03*
X475081Y1141597D03*
D11*
X425581Y783097D03*
X425581Y800097D03*
X405581Y783097D03*
X405581Y800097D03*
D18*
X415081Y1264598D03*
X405581Y1264598D03*
X396081Y1264598D03*
X396081Y1238596D03*
X415081Y1238596D03*
D10*
X414081Y1221597D03*
X397081Y1221597D03*
X507081Y1041597D03*
X524081Y1041597D03*
D11*
X455581Y1020097D03*
X455581Y1003097D03*
D10*
X507081Y1101597D03*
X524081Y1101597D03*
D11*
X495581Y1020097D03*
X495581Y1003097D03*
X515581Y1020097D03*
X515581Y1003097D03*
D10*
X507081Y1061597D03*
X524081Y1061597D03*
X507081Y1161597D03*
X524081Y1161597D03*
X524081Y1181597D03*
X507081Y1181597D03*
D11*
X475581Y1003097D03*
X475581Y1020097D03*
D10*
X507081Y1121597D03*
X524081Y1121597D03*
D11*
X435581Y1020097D03*
X435581Y1003097D03*
X415581Y1020097D03*
X415581Y1003097D03*
X395581Y1020097D03*
X395581Y1003097D03*
D10*
X507081Y1081597D03*
X524081Y1081597D03*
D11*
X605581Y950097D03*
X605581Y933097D03*
D19*
X689581Y981597D03*
X661581Y981597D03*
D11*
X445581Y950097D03*
X445581Y933097D03*
X425581Y950097D03*
X425581Y933097D03*
X665581Y950097D03*
X665581Y933097D03*
X645581Y950097D03*
X645581Y933097D03*
X565581Y933097D03*
X565581Y950097D03*
X545581Y933097D03*
X545581Y950097D03*
X585581Y950097D03*
X585581Y933097D03*
X625581Y950097D03*
X625581Y933097D03*
X465581Y933097D03*
X465581Y950097D03*
X485581Y933097D03*
X485581Y950097D03*
X505581Y933097D03*
X505581Y950097D03*
X525581Y933097D03*
X525581Y950097D03*
D20*
X527081Y1201597D03*
X504081Y1201597D03*
D10*
X414181Y1181097D03*
X397181Y1181097D03*
D21*
X594581Y1189497D03*
X594581Y1214897D03*
X594581Y1053697D03*
X594581Y1028297D03*
X736581Y1028297D03*
X736581Y1053697D03*
X736581Y1189497D03*
X736581Y1214897D03*
D22*
X465581Y1207597D03*
X465581Y1255597D03*
D23*
X553581Y1222597D03*
X553581Y1240597D03*
X535581Y1222597D03*
X535581Y1240597D03*
D24*
X515581Y1223597D03*
X515581Y1239597D03*
D25*
X484581Y1181597D03*
X466581Y1181597D03*
D10*
X564081Y1291597D03*
X547081Y1291597D03*
D13*
X675581Y1351097D03*
X675581Y1332097D03*
X696581Y1341597D03*
D19*
X609581Y1251597D03*
X581581Y1251597D03*
D11*
X645581Y1340097D03*
X645581Y1323097D03*
X625581Y1340097D03*
X625581Y1323097D03*
D10*
X397081Y1161597D03*
X414081Y1161597D03*
X524081Y1141597D03*
X507081Y1141597D03*
X464081Y1321597D03*
X447081Y1321597D03*
D12*
X450311Y1338097D02*
X450311Y1345097D01*
X450311Y1338097D02*
X443311Y1338097D01*
X443311Y1345097D01*
X450311Y1345097D01*
X450311Y1340947D02*
X443311Y1340947D01*
X443311Y1343797D02*
X450311Y1343797D01*
X467851Y1345097D02*
X467851Y1338097D01*
X460851Y1338097D01*
X460851Y1345097D01*
X467851Y1345097D01*
X467851Y1340947D02*
X460851Y1340947D01*
X460851Y1343797D02*
X467851Y1343797D01*
D26*
X466081Y877846D03*
X475581Y877846D03*
X485081Y877846D03*
X485081Y905348D03*
X475581Y905348D03*
X466081Y905348D03*
D10*
X799171Y1301597D03*
X782171Y1301597D03*
X799171Y1201597D03*
X782171Y1201597D03*
D11*
X790671Y850097D03*
X790671Y833097D03*
D12*
X807171Y836327D02*
X814171Y836327D01*
X814171Y829327D01*
X807171Y829327D01*
X807171Y836327D01*
X807171Y832177D02*
X814171Y832177D01*
X814171Y835027D02*
X807171Y835027D01*
X807171Y853867D02*
X814171Y853867D01*
X814171Y846867D01*
X807171Y846867D01*
X807171Y853867D01*
X807171Y849717D02*
X814171Y849717D01*
X814171Y852567D02*
X807171Y852567D01*
D10*
X1079171Y1311597D03*
X1062171Y1311597D03*
D13*
X1100671Y1351097D03*
X1100671Y1332097D03*
X1121671Y1341597D03*
D10*
X1119171Y1311597D03*
X1102171Y1311597D03*
X799171Y1281597D03*
X782171Y1281597D03*
D14*
X988671Y1312547D03*
X988671Y1325247D03*
X988671Y1337947D03*
X988671Y1350647D03*
X932671Y1350647D03*
X932671Y1337947D03*
X932671Y1325247D03*
X932671Y1312547D03*
D10*
X972171Y1291597D03*
X989171Y1291597D03*
D15*
X803171Y1039097D03*
X808171Y1039097D03*
X813171Y1039097D03*
X818171Y1039097D03*
X823171Y1039097D03*
X828171Y1039097D03*
X833171Y1039097D03*
X838171Y1039097D03*
X843171Y1039097D03*
X848171Y1039097D03*
X853171Y1039097D03*
X858171Y1039097D03*
D16*
X873171Y1054097D03*
X873171Y1059097D03*
X873171Y1064097D03*
X873171Y1069097D03*
X873171Y1074097D03*
X873171Y1079097D03*
X873171Y1084097D03*
X873171Y1089097D03*
X873171Y1094097D03*
X873171Y1099097D03*
X873171Y1104097D03*
X873171Y1109097D03*
D15*
X858171Y1124097D03*
X853171Y1124097D03*
X848171Y1124097D03*
X843171Y1124097D03*
X838171Y1124097D03*
X833171Y1124097D03*
X828171Y1124097D03*
X823171Y1124097D03*
X818171Y1124097D03*
X813171Y1124097D03*
X808171Y1124097D03*
X803171Y1124097D03*
D16*
X788171Y1109097D03*
X788171Y1104097D03*
X788171Y1099097D03*
X788171Y1094097D03*
X788171Y1089097D03*
X788171Y1084097D03*
X788171Y1079097D03*
X788171Y1074097D03*
X788171Y1069097D03*
X788171Y1064097D03*
X788171Y1059097D03*
X788171Y1054097D03*
D17*
X844921Y1166597D03*
X858421Y1166597D03*
X858421Y1156597D03*
X844921Y1156597D03*
D11*
X827671Y1143097D03*
X827671Y1160097D03*
X875671Y1143097D03*
X875671Y1160097D03*
D10*
X843171Y1141597D03*
X860171Y1141597D03*
D11*
X810671Y783097D03*
X810671Y800097D03*
X790671Y783097D03*
X790671Y800097D03*
D18*
X800171Y1264598D03*
X790671Y1264598D03*
X781171Y1264598D03*
X781171Y1238596D03*
X800171Y1238596D03*
D10*
X799171Y1221597D03*
X782171Y1221597D03*
X892171Y1041597D03*
X909171Y1041597D03*
D11*
X840671Y1020097D03*
X840671Y1003097D03*
D10*
X892171Y1101597D03*
X909171Y1101597D03*
D11*
X880671Y1020097D03*
X880671Y1003097D03*
X900671Y1020097D03*
X900671Y1003097D03*
D10*
X892171Y1061597D03*
X909171Y1061597D03*
X892171Y1161597D03*
X909171Y1161597D03*
X909171Y1181597D03*
X892171Y1181597D03*
D11*
X860671Y1003097D03*
X860671Y1020097D03*
D10*
X892171Y1121597D03*
X909171Y1121597D03*
D11*
X820671Y1020097D03*
X820671Y1003097D03*
X800671Y1020097D03*
X800671Y1003097D03*
X780671Y1020097D03*
X780671Y1003097D03*
D10*
X892171Y1081597D03*
X909171Y1081597D03*
D11*
X990671Y950097D03*
X990671Y933097D03*
D19*
X1074671Y981597D03*
X1046671Y981597D03*
D11*
X830671Y950097D03*
X830671Y933097D03*
X810671Y950097D03*
X810671Y933097D03*
X1050671Y950097D03*
X1050671Y933097D03*
X1030671Y950097D03*
X1030671Y933097D03*
X950671Y933097D03*
X950671Y950097D03*
X930671Y933097D03*
X930671Y950097D03*
X970671Y950097D03*
X970671Y933097D03*
X1010671Y950097D03*
X1010671Y933097D03*
X850671Y933097D03*
X850671Y950097D03*
X870671Y933097D03*
X870671Y950097D03*
X890671Y933097D03*
X890671Y950097D03*
X910671Y933097D03*
X910671Y950097D03*
D20*
X912171Y1201597D03*
X889171Y1201597D03*
D10*
X799271Y1181097D03*
X782271Y1181097D03*
D21*
X979671Y1189497D03*
X979671Y1214897D03*
X979671Y1053697D03*
X979671Y1028297D03*
X1121671Y1028297D03*
X1121671Y1053697D03*
X1121671Y1189497D03*
X1121671Y1214897D03*
D22*
X850671Y1207597D03*
X850671Y1255597D03*
D23*
X938671Y1222597D03*
X938671Y1240597D03*
X920671Y1222597D03*
X920671Y1240597D03*
D24*
X900671Y1223597D03*
X900671Y1239597D03*
D25*
X869671Y1181597D03*
X851671Y1181597D03*
D10*
X949171Y1291597D03*
X932171Y1291597D03*
D13*
X1060671Y1351097D03*
X1060671Y1332097D03*
X1081671Y1341597D03*
D19*
X994671Y1251597D03*
X966671Y1251597D03*
D11*
X1030671Y1340097D03*
X1030671Y1323097D03*
X1010671Y1340097D03*
X1010671Y1323097D03*
D10*
X782171Y1161597D03*
X799171Y1161597D03*
X909171Y1141597D03*
X892171Y1141597D03*
X849171Y1321597D03*
X832171Y1321597D03*
D12*
X835401Y1338097D02*
X835401Y1345097D01*
X835401Y1338097D02*
X828401Y1338097D01*
X828401Y1345097D01*
X835401Y1345097D01*
X835401Y1340947D02*
X828401Y1340947D01*
X828401Y1343797D02*
X835401Y1343797D01*
X852941Y1345097D02*
X852941Y1338097D01*
X845941Y1338097D01*
X845941Y1345097D01*
X852941Y1345097D01*
X852941Y1340947D02*
X845941Y1340947D01*
X845941Y1343797D02*
X852941Y1343797D01*
D26*
X851171Y877846D03*
X860671Y877846D03*
X870171Y877846D03*
X870171Y905348D03*
X860671Y905348D03*
X851171Y905348D03*
M02*
