G04 EAGLE Gerber RS-274X export*
G75*
%MOMM*%
%FSLAX34Y34*%
%LPD*%
%INSoldermask Top*%
%IPPOS*%
%AMOC8*
5,1,8,0,0,1.08239X$1,22.5*%
G01*
%ADD10R,1.303200X1.203200*%
%ADD11C,0.838200*%
%ADD12R,1.803200X1.603200*%
%ADD13C,2.082800*%
%ADD14R,1.203200X1.303200*%
%ADD15C,0.505344*%
%ADD16R,2.703200X1.703200*%
%ADD17R,1.703200X2.703200*%
%ADD18R,2.703200X1.403200*%
%ADD19C,3.505200*%
%ADD20R,1.353200X7.203200*%
%ADD21R,1.103200X2.403200*%
%ADD22R,0.553200X1.653200*%
%ADD23C,0.863600*%
%ADD24R,1.103200X1.003200*%
%ADD25R,0.803200X1.403200*%
%ADD26C,1.203200*%
%ADD27C,1.270000*%
%ADD28C,1.703200*%

G36*
X389013Y908729D02*
X389013Y908729D01*
X389022Y908732D01*
X389048Y908734D01*
X392882Y909568D01*
X392891Y909572D01*
X392916Y909578D01*
X396592Y910949D01*
X396600Y910955D01*
X396625Y910964D01*
X400068Y912844D01*
X400075Y912851D01*
X400098Y912863D01*
X403239Y915215D01*
X403245Y915223D01*
X403266Y915238D01*
X406041Y918013D01*
X406045Y918021D01*
X406064Y918039D01*
X408415Y921180D01*
X408419Y921190D01*
X408435Y921210D01*
X410315Y924654D01*
X410317Y924663D01*
X410330Y924686D01*
X411701Y928363D01*
X411702Y928372D01*
X411711Y928397D01*
X412545Y932231D01*
X412544Y932240D01*
X412550Y932266D01*
X412830Y936180D01*
X412828Y936189D01*
X412830Y936215D01*
X412550Y940129D01*
X412549Y940133D01*
X412549Y940136D01*
X412546Y940142D01*
X412545Y940164D01*
X411711Y943998D01*
X411706Y944007D01*
X411701Y944032D01*
X410330Y947708D01*
X410324Y947716D01*
X410315Y947741D01*
X408435Y951184D01*
X408428Y951191D01*
X408415Y951214D01*
X406064Y954355D01*
X406056Y954361D01*
X406041Y954382D01*
X403266Y957157D01*
X403258Y957161D01*
X403239Y957180D01*
X400098Y959531D01*
X400089Y959535D01*
X400068Y959551D01*
X396625Y961431D01*
X396615Y961433D01*
X396592Y961446D01*
X392916Y962817D01*
X392907Y962818D01*
X392882Y962827D01*
X389048Y963661D01*
X389038Y963660D01*
X389013Y963666D01*
X385099Y963946D01*
X385074Y963941D01*
X385048Y963944D01*
X385007Y963926D01*
X384963Y963917D01*
X384944Y963898D01*
X384920Y963888D01*
X384895Y963850D01*
X384863Y963818D01*
X384858Y963793D01*
X384843Y963771D01*
X384832Y963697D01*
X384832Y953697D01*
X384834Y953690D01*
X384833Y953683D01*
X384854Y953624D01*
X384871Y953563D01*
X384877Y953558D01*
X384879Y953552D01*
X384929Y953513D01*
X384977Y953471D01*
X384984Y953470D01*
X384989Y953466D01*
X385062Y953449D01*
X387780Y953235D01*
X390412Y952603D01*
X392913Y951567D01*
X395221Y950153D01*
X397279Y948395D01*
X399037Y946337D01*
X400451Y944029D01*
X401487Y941528D01*
X402119Y938896D01*
X402331Y936197D01*
X402119Y933499D01*
X401487Y930867D01*
X400451Y928366D01*
X399037Y926058D01*
X397279Y924000D01*
X395221Y922242D01*
X392913Y920828D01*
X390412Y919792D01*
X387780Y919160D01*
X385062Y918946D01*
X385055Y918943D01*
X385048Y918944D01*
X384990Y918919D01*
X384931Y918896D01*
X384927Y918891D01*
X384920Y918888D01*
X384885Y918835D01*
X384848Y918784D01*
X384847Y918777D01*
X384843Y918771D01*
X384832Y918697D01*
X384832Y908697D01*
X384839Y908672D01*
X384837Y908646D01*
X384859Y908607D01*
X384871Y908563D01*
X384891Y908546D01*
X384903Y908523D01*
X384943Y908501D01*
X384977Y908471D01*
X385002Y908467D01*
X385025Y908455D01*
X385099Y908449D01*
X389013Y908729D01*
G37*
G36*
X3949Y908729D02*
X3949Y908729D01*
X3958Y908732D01*
X3984Y908734D01*
X7818Y909568D01*
X7827Y909572D01*
X7852Y909578D01*
X11528Y910949D01*
X11536Y910955D01*
X11561Y910964D01*
X15004Y912844D01*
X15011Y912851D01*
X15034Y912863D01*
X18175Y915215D01*
X18181Y915223D01*
X18202Y915238D01*
X20977Y918013D01*
X20981Y918021D01*
X21000Y918039D01*
X23351Y921180D01*
X23355Y921190D01*
X23371Y921210D01*
X25251Y924654D01*
X25253Y924663D01*
X25266Y924686D01*
X26637Y928363D01*
X26638Y928372D01*
X26647Y928397D01*
X27481Y932231D01*
X27480Y932240D01*
X27486Y932266D01*
X27766Y936180D01*
X27764Y936189D01*
X27766Y936215D01*
X27486Y940129D01*
X27485Y940133D01*
X27485Y940136D01*
X27482Y940142D01*
X27481Y940164D01*
X26647Y943998D01*
X26642Y944007D01*
X26637Y944032D01*
X25266Y947708D01*
X25260Y947716D01*
X25251Y947741D01*
X23371Y951184D01*
X23364Y951191D01*
X23351Y951214D01*
X21000Y954355D01*
X20992Y954361D01*
X20977Y954382D01*
X18202Y957157D01*
X18194Y957161D01*
X18175Y957180D01*
X15034Y959531D01*
X15025Y959535D01*
X15004Y959551D01*
X11561Y961431D01*
X11551Y961433D01*
X11528Y961446D01*
X7852Y962817D01*
X7843Y962818D01*
X7818Y962827D01*
X3984Y963661D01*
X3974Y963660D01*
X3949Y963666D01*
X35Y963946D01*
X10Y963941D01*
X-16Y963944D01*
X-57Y963926D01*
X-101Y963917D01*
X-120Y963898D01*
X-144Y963888D01*
X-169Y963850D01*
X-201Y963818D01*
X-206Y963793D01*
X-221Y963771D01*
X-232Y963697D01*
X-232Y953697D01*
X-230Y953690D01*
X-231Y953683D01*
X-210Y953624D01*
X-193Y953563D01*
X-187Y953558D01*
X-185Y953552D01*
X-135Y953513D01*
X-87Y953471D01*
X-80Y953470D01*
X-75Y953466D01*
X-2Y953449D01*
X2716Y953235D01*
X5348Y952603D01*
X7849Y951567D01*
X10157Y950153D01*
X12215Y948395D01*
X13973Y946337D01*
X15387Y944029D01*
X16423Y941528D01*
X17055Y938896D01*
X17267Y936197D01*
X17055Y933499D01*
X16423Y930867D01*
X15387Y928366D01*
X13973Y926058D01*
X12215Y924000D01*
X10157Y922242D01*
X7849Y920828D01*
X5348Y919792D01*
X2716Y919160D01*
X-2Y918946D01*
X-9Y918943D01*
X-16Y918944D01*
X-74Y918919D01*
X-133Y918896D01*
X-137Y918891D01*
X-144Y918888D01*
X-179Y918835D01*
X-216Y918784D01*
X-217Y918777D01*
X-221Y918771D01*
X-232Y918697D01*
X-232Y908697D01*
X-225Y908672D01*
X-227Y908646D01*
X-205Y908607D01*
X-193Y908563D01*
X-173Y908546D01*
X-161Y908523D01*
X-121Y908501D01*
X-87Y908471D01*
X-62Y908467D01*
X-39Y908455D01*
X35Y908449D01*
X3949Y908729D01*
G37*
G36*
X389013Y412531D02*
X389013Y412531D01*
X389022Y412535D01*
X389048Y412536D01*
X392882Y413370D01*
X392891Y413375D01*
X392916Y413380D01*
X396592Y414752D01*
X396600Y414757D01*
X396625Y414766D01*
X400068Y416647D01*
X400075Y416654D01*
X400098Y416666D01*
X403239Y419017D01*
X403245Y419025D01*
X403266Y419041D01*
X406041Y421815D01*
X406045Y421824D01*
X406064Y421842D01*
X408415Y424983D01*
X408419Y424992D01*
X408435Y425013D01*
X410315Y428457D01*
X410317Y428466D01*
X410330Y428489D01*
X411701Y432165D01*
X411702Y432175D01*
X411711Y432199D01*
X412545Y436033D01*
X412544Y436043D01*
X412550Y436069D01*
X412830Y439982D01*
X412828Y439992D01*
X412830Y440018D01*
X412550Y443931D01*
X412549Y443936D01*
X412549Y443939D01*
X412546Y443945D01*
X412545Y443967D01*
X411711Y447801D01*
X411706Y447809D01*
X411701Y447835D01*
X410330Y451511D01*
X410324Y451519D01*
X410315Y451543D01*
X408435Y454987D01*
X408428Y454994D01*
X408415Y455017D01*
X406064Y458158D01*
X406056Y458164D01*
X406041Y458185D01*
X403266Y460959D01*
X403258Y460964D01*
X403239Y460983D01*
X400098Y463334D01*
X400089Y463337D01*
X400068Y463353D01*
X396625Y465234D01*
X396615Y465236D01*
X396592Y465248D01*
X392916Y466620D01*
X392907Y466620D01*
X392882Y466630D01*
X389048Y467464D01*
X389038Y467463D01*
X389013Y467469D01*
X385099Y467749D01*
X385074Y467743D01*
X385048Y467747D01*
X385007Y467729D01*
X384963Y467719D01*
X384944Y467701D01*
X384920Y467690D01*
X384895Y467652D01*
X384863Y467621D01*
X384858Y467595D01*
X384843Y467574D01*
X384832Y467500D01*
X384832Y457500D01*
X384834Y457493D01*
X384833Y457486D01*
X384854Y457427D01*
X384871Y457366D01*
X384877Y457361D01*
X384879Y457354D01*
X384929Y457316D01*
X384977Y457274D01*
X384984Y457273D01*
X384989Y457268D01*
X385062Y457252D01*
X387780Y457038D01*
X390412Y456406D01*
X392913Y455370D01*
X395221Y453956D01*
X397279Y452198D01*
X399037Y450139D01*
X400451Y447831D01*
X401487Y445331D01*
X402119Y442698D01*
X402331Y440000D01*
X402119Y437302D01*
X401487Y434669D01*
X400451Y432169D01*
X399037Y429861D01*
X397279Y427802D01*
X395221Y426044D01*
X392913Y424630D01*
X390412Y423594D01*
X387780Y422962D01*
X385062Y422748D01*
X385055Y422746D01*
X385048Y422747D01*
X384990Y422721D01*
X384931Y422699D01*
X384927Y422693D01*
X384920Y422690D01*
X384885Y422637D01*
X384848Y422587D01*
X384847Y422580D01*
X384843Y422574D01*
X384832Y422500D01*
X384832Y412500D01*
X384839Y412475D01*
X384837Y412449D01*
X384859Y412409D01*
X384871Y412366D01*
X384891Y412349D01*
X384903Y412326D01*
X384943Y412304D01*
X384977Y412274D01*
X385002Y412270D01*
X385025Y412257D01*
X385099Y412251D01*
X389013Y412531D01*
G37*
G36*
X3923Y412531D02*
X3923Y412531D01*
X3933Y412535D01*
X3959Y412536D01*
X7793Y413370D01*
X7801Y413375D01*
X7827Y413380D01*
X11503Y414752D01*
X11511Y414757D01*
X11535Y414766D01*
X14979Y416647D01*
X14986Y416654D01*
X15009Y416666D01*
X18150Y419017D01*
X18156Y419025D01*
X18177Y419041D01*
X20951Y421815D01*
X20956Y421824D01*
X20975Y421842D01*
X23326Y424983D01*
X23329Y424992D01*
X23345Y425013D01*
X25226Y428457D01*
X25228Y428466D01*
X25240Y428489D01*
X26612Y432165D01*
X26612Y432175D01*
X26622Y432199D01*
X27456Y436033D01*
X27455Y436043D01*
X27461Y436069D01*
X27741Y439982D01*
X27739Y439992D01*
X27741Y440018D01*
X27461Y443931D01*
X27459Y443936D01*
X27460Y443939D01*
X27457Y443945D01*
X27456Y443967D01*
X26622Y447801D01*
X26617Y447809D01*
X26612Y447835D01*
X25240Y451511D01*
X25235Y451519D01*
X25226Y451543D01*
X23345Y454987D01*
X23338Y454994D01*
X23326Y455017D01*
X20975Y458158D01*
X20967Y458164D01*
X20951Y458185D01*
X18177Y460959D01*
X18168Y460964D01*
X18150Y460983D01*
X15009Y463334D01*
X15000Y463337D01*
X14979Y463353D01*
X11535Y465234D01*
X11526Y465236D01*
X11503Y465248D01*
X7827Y466620D01*
X7817Y466620D01*
X7793Y466630D01*
X3959Y467464D01*
X3949Y467463D01*
X3923Y467469D01*
X10Y467749D01*
X-16Y467743D01*
X-41Y467747D01*
X-83Y467729D01*
X-127Y467719D01*
X-145Y467701D01*
X-169Y467690D01*
X-194Y467652D01*
X-226Y467621D01*
X-232Y467595D01*
X-246Y467574D01*
X-257Y467500D01*
X-257Y457500D01*
X-255Y457493D01*
X-257Y457486D01*
X-236Y457427D01*
X-218Y457366D01*
X-213Y457361D01*
X-210Y457354D01*
X-160Y457316D01*
X-113Y457274D01*
X-106Y457273D01*
X-100Y457268D01*
X-28Y457252D01*
X2690Y457038D01*
X5323Y456406D01*
X7823Y455370D01*
X10131Y453956D01*
X12190Y452198D01*
X13948Y450139D01*
X15362Y447831D01*
X16398Y445331D01*
X17030Y442698D01*
X17242Y440000D01*
X17030Y437302D01*
X16398Y434669D01*
X15362Y432169D01*
X13948Y429861D01*
X12190Y427802D01*
X10131Y426044D01*
X7823Y424630D01*
X5323Y423594D01*
X2690Y422962D01*
X-28Y422748D01*
X-34Y422746D01*
X-41Y422747D01*
X-99Y422721D01*
X-158Y422699D01*
X-163Y422693D01*
X-169Y422690D01*
X-204Y422637D01*
X-242Y422587D01*
X-242Y422580D01*
X-246Y422574D01*
X-257Y422500D01*
X-257Y412500D01*
X-250Y412475D01*
X-252Y412449D01*
X-231Y412409D01*
X-218Y412366D01*
X-198Y412349D01*
X-186Y412326D01*
X-147Y412304D01*
X-113Y412274D01*
X-87Y412270D01*
X-64Y412257D01*
X10Y412251D01*
X3923Y412531D01*
G37*
G36*
X765089Y908454D02*
X765089Y908454D01*
X765115Y908450D01*
X765156Y908469D01*
X765200Y908478D01*
X765219Y908497D01*
X765243Y908507D01*
X765267Y908545D01*
X765300Y908577D01*
X765305Y908602D01*
X765320Y908624D01*
X765331Y908697D01*
X765331Y918697D01*
X765329Y918704D01*
X765330Y918711D01*
X765309Y918771D01*
X765291Y918832D01*
X765286Y918836D01*
X765284Y918843D01*
X765234Y918882D01*
X765186Y918924D01*
X765179Y918925D01*
X765173Y918929D01*
X765101Y918946D01*
X762383Y919160D01*
X759751Y919792D01*
X757250Y920828D01*
X754942Y922242D01*
X752884Y924000D01*
X751126Y926058D01*
X749712Y928366D01*
X748676Y930867D01*
X748044Y933499D01*
X747831Y936197D01*
X748044Y938896D01*
X748676Y941528D01*
X749712Y944029D01*
X751126Y946337D01*
X752884Y948395D01*
X754942Y950153D01*
X757250Y951567D01*
X759751Y952603D01*
X762383Y953235D01*
X765101Y953449D01*
X765108Y953452D01*
X765115Y953450D01*
X765173Y953476D01*
X765232Y953499D01*
X765236Y953504D01*
X765243Y953507D01*
X765277Y953560D01*
X765315Y953611D01*
X765316Y953618D01*
X765320Y953624D01*
X765331Y953697D01*
X765331Y963697D01*
X765323Y963722D01*
X765325Y963748D01*
X765304Y963788D01*
X765291Y963832D01*
X765272Y963849D01*
X765260Y963872D01*
X765220Y963894D01*
X765186Y963924D01*
X765160Y963927D01*
X765138Y963940D01*
X765064Y963946D01*
X761150Y963666D01*
X761141Y963663D01*
X761115Y963661D01*
X757281Y962827D01*
X757272Y962822D01*
X757247Y962817D01*
X753570Y961446D01*
X753563Y961440D01*
X753538Y961431D01*
X750094Y959551D01*
X750088Y959544D01*
X750064Y959531D01*
X746923Y957180D01*
X746918Y957172D01*
X746897Y957157D01*
X744122Y954382D01*
X744117Y954374D01*
X744099Y954355D01*
X741747Y951214D01*
X741744Y951205D01*
X741728Y951184D01*
X739848Y947741D01*
X739846Y947731D01*
X739833Y947708D01*
X738462Y944032D01*
X738461Y944023D01*
X738452Y943998D01*
X737618Y940164D01*
X737618Y940154D01*
X737613Y940129D01*
X737333Y936215D01*
X737335Y936206D01*
X737333Y936180D01*
X737613Y932266D01*
X737616Y932257D01*
X737618Y932231D01*
X738452Y928397D01*
X738456Y928388D01*
X738462Y928363D01*
X739833Y924686D01*
X739839Y924679D01*
X739848Y924654D01*
X741728Y921210D01*
X741735Y921204D01*
X741747Y921180D01*
X744099Y918039D01*
X744107Y918034D01*
X744122Y918013D01*
X746897Y915238D01*
X746905Y915233D01*
X746923Y915215D01*
X750064Y912863D01*
X750074Y912860D01*
X750094Y912844D01*
X753538Y910964D01*
X753547Y910962D01*
X753570Y910949D01*
X757247Y909578D01*
X757256Y909577D01*
X757281Y909568D01*
X761115Y908734D01*
X761124Y908734D01*
X761150Y908729D01*
X765064Y908449D01*
X765089Y908454D01*
G37*
G36*
X380025Y908454D02*
X380025Y908454D01*
X380051Y908450D01*
X380092Y908469D01*
X380136Y908478D01*
X380155Y908497D01*
X380179Y908507D01*
X380203Y908545D01*
X380236Y908577D01*
X380241Y908602D01*
X380256Y908624D01*
X380267Y908697D01*
X380267Y918697D01*
X380265Y918704D01*
X380266Y918711D01*
X380245Y918771D01*
X380227Y918832D01*
X380222Y918836D01*
X380220Y918843D01*
X380170Y918882D01*
X380122Y918924D01*
X380115Y918925D01*
X380109Y918929D01*
X380037Y918946D01*
X377319Y919160D01*
X374687Y919792D01*
X372186Y920828D01*
X369878Y922242D01*
X367820Y924000D01*
X366062Y926058D01*
X364648Y928366D01*
X363612Y930867D01*
X362980Y933499D01*
X362767Y936197D01*
X362980Y938896D01*
X363612Y941528D01*
X364648Y944029D01*
X366062Y946337D01*
X367820Y948395D01*
X369878Y950153D01*
X372186Y951567D01*
X374687Y952603D01*
X377319Y953235D01*
X380037Y953449D01*
X380044Y953452D01*
X380051Y953450D01*
X380109Y953476D01*
X380168Y953499D01*
X380172Y953504D01*
X380179Y953507D01*
X380213Y953560D01*
X380251Y953611D01*
X380252Y953618D01*
X380256Y953624D01*
X380267Y953697D01*
X380267Y963697D01*
X380259Y963722D01*
X380261Y963748D01*
X380240Y963788D01*
X380227Y963832D01*
X380208Y963849D01*
X380196Y963872D01*
X380156Y963894D01*
X380122Y963924D01*
X380096Y963927D01*
X380074Y963940D01*
X380000Y963946D01*
X376086Y963666D01*
X376077Y963663D01*
X376051Y963661D01*
X372217Y962827D01*
X372208Y962822D01*
X372183Y962817D01*
X368506Y961446D01*
X368499Y961440D01*
X368474Y961431D01*
X365030Y959551D01*
X365024Y959544D01*
X365000Y959531D01*
X361859Y957180D01*
X361854Y957172D01*
X361833Y957157D01*
X359058Y954382D01*
X359053Y954374D01*
X359035Y954355D01*
X356683Y951214D01*
X356680Y951205D01*
X356664Y951184D01*
X354784Y947741D01*
X354782Y947731D01*
X354769Y947708D01*
X353398Y944032D01*
X353397Y944023D01*
X353388Y943998D01*
X352554Y940164D01*
X352554Y940154D01*
X352549Y940129D01*
X352269Y936215D01*
X352271Y936206D01*
X352269Y936180D01*
X352549Y932266D01*
X352552Y932257D01*
X352554Y932231D01*
X353388Y928397D01*
X353392Y928388D01*
X353398Y928363D01*
X354769Y924686D01*
X354775Y924679D01*
X354784Y924654D01*
X356664Y921210D01*
X356671Y921204D01*
X356683Y921180D01*
X359035Y918039D01*
X359043Y918034D01*
X359058Y918013D01*
X361833Y915238D01*
X361841Y915233D01*
X361859Y915215D01*
X365000Y912863D01*
X365010Y912860D01*
X365030Y912844D01*
X368474Y910964D01*
X368483Y910962D01*
X368506Y910949D01*
X372183Y909578D01*
X372192Y909577D01*
X372217Y909568D01*
X376051Y908734D01*
X376060Y908734D01*
X376086Y908729D01*
X380000Y908449D01*
X380025Y908454D01*
G37*
G36*
X765089Y412257D02*
X765089Y412257D01*
X765115Y412253D01*
X765156Y412271D01*
X765200Y412281D01*
X765219Y412299D01*
X765243Y412310D01*
X765267Y412348D01*
X765300Y412379D01*
X765305Y412405D01*
X765320Y412427D01*
X765331Y412500D01*
X765331Y422500D01*
X765329Y422507D01*
X765330Y422514D01*
X765309Y422573D01*
X765291Y422634D01*
X765286Y422639D01*
X765284Y422646D01*
X765234Y422685D01*
X765186Y422726D01*
X765179Y422727D01*
X765173Y422732D01*
X765101Y422748D01*
X762383Y422962D01*
X759751Y423594D01*
X757250Y424630D01*
X754942Y426044D01*
X752884Y427802D01*
X751126Y429861D01*
X749712Y432169D01*
X748676Y434669D01*
X748044Y437302D01*
X747831Y440000D01*
X748044Y442698D01*
X748676Y445331D01*
X749712Y447831D01*
X751126Y450139D01*
X752884Y452198D01*
X754942Y453956D01*
X757250Y455370D01*
X759751Y456406D01*
X762383Y457038D01*
X765101Y457252D01*
X765108Y457254D01*
X765115Y457253D01*
X765173Y457279D01*
X765232Y457301D01*
X765236Y457307D01*
X765243Y457310D01*
X765277Y457363D01*
X765315Y457413D01*
X765316Y457421D01*
X765320Y457427D01*
X765331Y457500D01*
X765331Y467500D01*
X765323Y467525D01*
X765325Y467551D01*
X765304Y467591D01*
X765291Y467634D01*
X765272Y467651D01*
X765260Y467674D01*
X765220Y467696D01*
X765186Y467726D01*
X765160Y467730D01*
X765138Y467743D01*
X765064Y467749D01*
X761150Y467469D01*
X761141Y467465D01*
X761115Y467464D01*
X757281Y466630D01*
X757272Y466625D01*
X757247Y466620D01*
X753570Y465248D01*
X753563Y465243D01*
X753538Y465234D01*
X750094Y463353D01*
X750088Y463346D01*
X750064Y463334D01*
X746923Y460983D01*
X746918Y460975D01*
X746897Y460959D01*
X744122Y458185D01*
X744117Y458176D01*
X744099Y458158D01*
X741747Y455017D01*
X741744Y455008D01*
X741728Y454987D01*
X739848Y451543D01*
X739846Y451534D01*
X739833Y451511D01*
X738462Y447835D01*
X738461Y447825D01*
X738452Y447801D01*
X737618Y443967D01*
X737618Y443957D01*
X737613Y443931D01*
X737333Y440018D01*
X737335Y440008D01*
X737333Y439982D01*
X737613Y436069D01*
X737616Y436059D01*
X737618Y436033D01*
X738452Y432199D01*
X738456Y432191D01*
X738462Y432165D01*
X739833Y428489D01*
X739839Y428481D01*
X739848Y428457D01*
X741728Y425013D01*
X741735Y425006D01*
X741747Y424983D01*
X744099Y421842D01*
X744107Y421836D01*
X744122Y421815D01*
X746897Y419041D01*
X746905Y419036D01*
X746923Y419017D01*
X750064Y416666D01*
X750074Y416663D01*
X750094Y416647D01*
X753538Y414766D01*
X753547Y414764D01*
X753570Y414752D01*
X757247Y413380D01*
X757256Y413380D01*
X757281Y413370D01*
X761115Y412536D01*
X761124Y412537D01*
X761150Y412531D01*
X765064Y412251D01*
X765089Y412257D01*
G37*
G36*
X380000Y412257D02*
X380000Y412257D01*
X380025Y412253D01*
X380067Y412271D01*
X380111Y412281D01*
X380129Y412299D01*
X380153Y412310D01*
X380178Y412348D01*
X380210Y412379D01*
X380216Y412405D01*
X380230Y412427D01*
X380241Y412500D01*
X380241Y422500D01*
X380239Y422507D01*
X380241Y422514D01*
X380220Y422573D01*
X380202Y422634D01*
X380197Y422639D01*
X380194Y422646D01*
X380144Y422685D01*
X380097Y422726D01*
X380090Y422727D01*
X380084Y422732D01*
X380012Y422748D01*
X377294Y422962D01*
X374661Y423594D01*
X372161Y424630D01*
X369853Y426044D01*
X367794Y427802D01*
X366036Y429861D01*
X364622Y432169D01*
X363586Y434669D01*
X362954Y437302D01*
X362742Y440000D01*
X362954Y442698D01*
X363586Y445331D01*
X364622Y447831D01*
X366036Y450139D01*
X367794Y452198D01*
X369853Y453956D01*
X372161Y455370D01*
X374661Y456406D01*
X377294Y457038D01*
X380012Y457252D01*
X380018Y457254D01*
X380025Y457253D01*
X380083Y457279D01*
X380142Y457301D01*
X380147Y457307D01*
X380153Y457310D01*
X380188Y457363D01*
X380226Y457413D01*
X380226Y457421D01*
X380230Y457427D01*
X380241Y457500D01*
X380241Y467500D01*
X380234Y467525D01*
X380236Y467551D01*
X380215Y467591D01*
X380202Y467634D01*
X380182Y467651D01*
X380170Y467674D01*
X380131Y467696D01*
X380097Y467726D01*
X380071Y467730D01*
X380048Y467743D01*
X379974Y467749D01*
X376061Y467469D01*
X376051Y467465D01*
X376025Y467464D01*
X372191Y466630D01*
X372183Y466625D01*
X372157Y466620D01*
X368481Y465248D01*
X368473Y465243D01*
X368449Y465234D01*
X365005Y463353D01*
X364998Y463346D01*
X364975Y463334D01*
X361834Y460983D01*
X361828Y460975D01*
X361807Y460959D01*
X359033Y458185D01*
X359028Y458176D01*
X359009Y458158D01*
X356658Y455017D01*
X356655Y455008D01*
X356639Y454987D01*
X354758Y451543D01*
X354756Y451534D01*
X354744Y451511D01*
X353372Y447835D01*
X353372Y447825D01*
X353362Y447801D01*
X352528Y443967D01*
X352529Y443957D01*
X352523Y443931D01*
X352243Y440018D01*
X352245Y440008D01*
X352243Y439982D01*
X352523Y436069D01*
X352527Y436059D01*
X352528Y436033D01*
X353362Y432199D01*
X353367Y432191D01*
X353372Y432165D01*
X354744Y428489D01*
X354749Y428481D01*
X354758Y428457D01*
X356639Y425013D01*
X356646Y425006D01*
X356658Y424983D01*
X359009Y421842D01*
X359017Y421836D01*
X359033Y421815D01*
X361807Y419041D01*
X361816Y419036D01*
X361834Y419017D01*
X364975Y416666D01*
X364984Y416663D01*
X365005Y416647D01*
X368449Y414766D01*
X368458Y414764D01*
X368481Y414752D01*
X372157Y413380D01*
X372167Y413380D01*
X372191Y413370D01*
X376025Y412536D01*
X376035Y412537D01*
X376061Y412531D01*
X379974Y412251D01*
X380000Y412257D01*
G37*
D10*
X341512Y203200D03*
X358512Y203200D03*
D11*
X369992Y50000D03*
X9992Y640000D03*
D10*
X341512Y181610D03*
X358512Y181610D03*
D12*
X350012Y256570D03*
X350012Y228570D03*
D13*
X316992Y63500D03*
X316992Y88900D03*
D14*
X339992Y71500D03*
X339992Y88500D03*
D15*
X356502Y85280D02*
X363482Y85280D01*
X356502Y85280D02*
X356502Y92260D01*
X363482Y92260D01*
X363482Y85280D01*
X363482Y90080D02*
X356502Y90080D01*
X356502Y67740D02*
X363482Y67740D01*
X356502Y67740D02*
X356502Y74720D01*
X363482Y74720D01*
X363482Y67740D01*
X363482Y72540D02*
X356502Y72540D01*
D16*
X68992Y177900D03*
X68992Y203300D03*
X68992Y228700D03*
X68992Y254100D03*
X68992Y279500D03*
X68992Y304900D03*
X68992Y330300D03*
X68992Y355700D03*
X68992Y381100D03*
X310992Y177900D03*
X310992Y203300D03*
X310992Y228700D03*
X310992Y254100D03*
X310992Y279500D03*
X310992Y304900D03*
X310992Y330300D03*
X310992Y355700D03*
X310992Y381100D03*
D17*
X259992Y538900D03*
X234592Y538900D03*
X145392Y538900D03*
X119992Y538900D03*
D14*
X50292Y148200D03*
X50292Y131200D03*
D10*
X342782Y304800D03*
X359782Y304800D03*
X358512Y355600D03*
X341512Y355600D03*
X358512Y330200D03*
X341512Y330200D03*
D18*
X349992Y128100D03*
X349992Y161100D03*
D19*
X342392Y571500D03*
D20*
X217492Y614600D03*
D21*
X259992Y568600D03*
D20*
X302492Y614600D03*
D22*
X282492Y12750D03*
X277492Y12750D03*
X272492Y12750D03*
X267492Y12750D03*
X262492Y12750D03*
X257492Y12750D03*
X252492Y12750D03*
X247492Y12750D03*
X242492Y12750D03*
X237492Y12750D03*
X232492Y12750D03*
X227492Y12750D03*
X202492Y12750D03*
X197492Y12750D03*
X192492Y12750D03*
X187492Y12750D03*
X182492Y12750D03*
X177492Y12750D03*
X172492Y12750D03*
X167492Y12750D03*
X162492Y12750D03*
X157492Y12750D03*
X152492Y12750D03*
X147492Y12750D03*
X142492Y12750D03*
X137492Y12750D03*
X132492Y12750D03*
X127492Y12750D03*
X122492Y12750D03*
X117492Y12750D03*
X112492Y12750D03*
X107492Y12750D03*
X102492Y12750D03*
X97492Y12750D03*
D23*
X369992Y461000D03*
X369992Y419000D03*
X356992Y440000D03*
X9992Y419000D03*
X9992Y461000D03*
X22992Y440000D03*
D14*
X126492Y72000D03*
X126492Y55000D03*
D24*
X47592Y92100D03*
X47592Y111100D03*
X26592Y101600D03*
D14*
X12192Y110100D03*
X12192Y93100D03*
D24*
X85692Y92100D03*
X85692Y111100D03*
X64692Y101600D03*
D14*
X101092Y110100D03*
X101092Y93100D03*
D24*
X47592Y54000D03*
X47592Y73000D03*
X26592Y63500D03*
D14*
X12192Y72000D03*
X12192Y55000D03*
D24*
X85692Y54000D03*
X85692Y73000D03*
X64692Y63500D03*
D14*
X101092Y55000D03*
X101092Y72000D03*
D25*
X196342Y73600D03*
X209042Y73600D03*
X221742Y73600D03*
X234442Y73600D03*
X234442Y129600D03*
X221742Y129600D03*
X209042Y129600D03*
X196342Y129600D03*
D14*
X177292Y110100D03*
X177292Y93100D03*
D10*
X726601Y203200D03*
X743601Y203200D03*
D11*
X755081Y50000D03*
X395081Y640000D03*
D10*
X726601Y181610D03*
X743601Y181610D03*
D12*
X735101Y256570D03*
X735101Y228570D03*
D13*
X702081Y63500D03*
X702081Y88900D03*
D14*
X725081Y71500D03*
X725081Y88500D03*
D15*
X741591Y85280D02*
X748571Y85280D01*
X741591Y85280D02*
X741591Y92260D01*
X748571Y92260D01*
X748571Y85280D01*
X748571Y90080D02*
X741591Y90080D01*
X741591Y67740D02*
X748571Y67740D01*
X741591Y67740D02*
X741591Y74720D01*
X748571Y74720D01*
X748571Y67740D01*
X748571Y72540D02*
X741591Y72540D01*
D16*
X454081Y177900D03*
X454081Y203300D03*
X454081Y228700D03*
X454081Y254100D03*
X454081Y279500D03*
X454081Y304900D03*
X454081Y330300D03*
X454081Y355700D03*
X454081Y381100D03*
X696081Y177900D03*
X696081Y203300D03*
X696081Y228700D03*
X696081Y254100D03*
X696081Y279500D03*
X696081Y304900D03*
X696081Y330300D03*
X696081Y355700D03*
X696081Y381100D03*
D17*
X645081Y538900D03*
X619681Y538900D03*
X530481Y538900D03*
X505081Y538900D03*
D14*
X435381Y148200D03*
X435381Y131200D03*
D10*
X727871Y304800D03*
X744871Y304800D03*
X743601Y355600D03*
X726601Y355600D03*
X743601Y330200D03*
X726601Y330200D03*
D18*
X735081Y128100D03*
X735081Y161100D03*
D19*
X727481Y571500D03*
D20*
X602581Y614600D03*
D21*
X645081Y568600D03*
D20*
X687581Y614600D03*
D22*
X667581Y12750D03*
X662581Y12750D03*
X657581Y12750D03*
X652581Y12750D03*
X647581Y12750D03*
X642581Y12750D03*
X637581Y12750D03*
X632581Y12750D03*
X627581Y12750D03*
X622581Y12750D03*
X617581Y12750D03*
X612581Y12750D03*
X587581Y12750D03*
X582581Y12750D03*
X577581Y12750D03*
X572581Y12750D03*
X567581Y12750D03*
X562581Y12750D03*
X557581Y12750D03*
X552581Y12750D03*
X547581Y12750D03*
X542581Y12750D03*
X537581Y12750D03*
X532581Y12750D03*
X527581Y12750D03*
X522581Y12750D03*
X517581Y12750D03*
X512581Y12750D03*
X507581Y12750D03*
X502581Y12750D03*
X497581Y12750D03*
X492581Y12750D03*
X487581Y12750D03*
X482581Y12750D03*
D23*
X755081Y461000D03*
X755081Y419000D03*
X742081Y440000D03*
X395081Y419000D03*
X395081Y461000D03*
X408081Y440000D03*
D14*
X511581Y72000D03*
X511581Y55000D03*
D24*
X432681Y92100D03*
X432681Y111100D03*
X411681Y101600D03*
D14*
X397281Y110100D03*
X397281Y93100D03*
D24*
X470781Y92100D03*
X470781Y111100D03*
X449781Y101600D03*
D14*
X486181Y110100D03*
X486181Y93100D03*
D24*
X432681Y54000D03*
X432681Y73000D03*
X411681Y63500D03*
D14*
X397281Y72000D03*
X397281Y55000D03*
D24*
X470781Y54000D03*
X470781Y73000D03*
X449781Y63500D03*
D14*
X486181Y55000D03*
X486181Y72000D03*
D25*
X581431Y73600D03*
X594131Y73600D03*
X606831Y73600D03*
X619531Y73600D03*
X619531Y129600D03*
X606831Y129600D03*
X594131Y129600D03*
X581431Y129600D03*
D14*
X562381Y110100D03*
X562381Y93100D03*
D10*
X38497Y1172997D03*
X21497Y1172997D03*
D11*
X10017Y1326197D03*
X370017Y736197D03*
D10*
X38497Y1194587D03*
X21497Y1194587D03*
D12*
X29997Y1119627D03*
X29997Y1147627D03*
D13*
X63017Y1312697D03*
X63017Y1287297D03*
D14*
X40017Y1304697D03*
X40017Y1287697D03*
D15*
X23507Y1290917D02*
X16527Y1290917D01*
X23507Y1290917D02*
X23507Y1283937D01*
X16527Y1283937D01*
X16527Y1290917D01*
X16527Y1288737D02*
X23507Y1288737D01*
X23507Y1308457D02*
X16527Y1308457D01*
X23507Y1308457D02*
X23507Y1301477D01*
X16527Y1301477D01*
X16527Y1308457D01*
X16527Y1306277D02*
X23507Y1306277D01*
D16*
X311017Y1198297D03*
X311017Y1172897D03*
X311017Y1147497D03*
X311017Y1122097D03*
X311017Y1096697D03*
X311017Y1071297D03*
X311017Y1045897D03*
X311017Y1020497D03*
X311017Y995097D03*
X69017Y1198297D03*
X69017Y1172897D03*
X69017Y1147497D03*
X69017Y1122097D03*
X69017Y1096697D03*
X69017Y1071297D03*
X69017Y1045897D03*
X69017Y1020497D03*
X69017Y995097D03*
D17*
X120017Y837297D03*
X145417Y837297D03*
X234617Y837297D03*
X260017Y837297D03*
D14*
X329717Y1227997D03*
X329717Y1244997D03*
D10*
X37227Y1071397D03*
X20227Y1071397D03*
X21497Y1020597D03*
X38497Y1020597D03*
X21497Y1045997D03*
X38497Y1045997D03*
D18*
X30017Y1248097D03*
X30017Y1215097D03*
D19*
X37617Y804697D03*
D20*
X162517Y761597D03*
D21*
X120017Y807597D03*
D20*
X77517Y761597D03*
D22*
X97517Y1363447D03*
X102517Y1363447D03*
X107517Y1363447D03*
X112517Y1363447D03*
X117517Y1363447D03*
X122517Y1363447D03*
X127517Y1363447D03*
X132517Y1363447D03*
X137517Y1363447D03*
X142517Y1363447D03*
X147517Y1363447D03*
X152517Y1363447D03*
X177517Y1363447D03*
X182517Y1363447D03*
X187517Y1363447D03*
X192517Y1363447D03*
X197517Y1363447D03*
X202517Y1363447D03*
X207517Y1363447D03*
X212517Y1363447D03*
X217517Y1363447D03*
X222517Y1363447D03*
X227517Y1363447D03*
X232517Y1363447D03*
X237517Y1363447D03*
X242517Y1363447D03*
X247517Y1363447D03*
X252517Y1363447D03*
X257517Y1363447D03*
X262517Y1363447D03*
X267517Y1363447D03*
X272517Y1363447D03*
X277517Y1363447D03*
X282517Y1363447D03*
D23*
X10017Y915197D03*
X10017Y957197D03*
X23017Y936197D03*
X370017Y957197D03*
X370017Y915197D03*
X357017Y936197D03*
D14*
X253517Y1304197D03*
X253517Y1321197D03*
D24*
X332417Y1284097D03*
X332417Y1265097D03*
X353417Y1274597D03*
D14*
X367817Y1266097D03*
X367817Y1283097D03*
D24*
X294317Y1284097D03*
X294317Y1265097D03*
X315317Y1274597D03*
D14*
X278917Y1266097D03*
X278917Y1283097D03*
D24*
X332417Y1322197D03*
X332417Y1303197D03*
X353417Y1312697D03*
D14*
X367817Y1304197D03*
X367817Y1321197D03*
D24*
X294317Y1322197D03*
X294317Y1303197D03*
X315317Y1312697D03*
D14*
X278917Y1321197D03*
X278917Y1304197D03*
D25*
X183667Y1302597D03*
X170967Y1302597D03*
X158267Y1302597D03*
X145567Y1302597D03*
X145567Y1246597D03*
X158267Y1246597D03*
X170967Y1246597D03*
X183667Y1246597D03*
D14*
X202717Y1266097D03*
X202717Y1283097D03*
D10*
X423561Y1172997D03*
X406561Y1172997D03*
D11*
X395081Y1326197D03*
X755081Y736197D03*
D10*
X423561Y1194587D03*
X406561Y1194587D03*
D12*
X415061Y1119627D03*
X415061Y1147627D03*
D13*
X448081Y1312697D03*
X448081Y1287297D03*
D14*
X425081Y1304697D03*
X425081Y1287697D03*
D15*
X408571Y1290917D02*
X401591Y1290917D01*
X408571Y1290917D02*
X408571Y1283937D01*
X401591Y1283937D01*
X401591Y1290917D01*
X401591Y1288737D02*
X408571Y1288737D01*
X408571Y1308457D02*
X401591Y1308457D01*
X408571Y1308457D02*
X408571Y1301477D01*
X401591Y1301477D01*
X401591Y1308457D01*
X401591Y1306277D02*
X408571Y1306277D01*
D16*
X696081Y1198297D03*
X696081Y1172897D03*
X696081Y1147497D03*
X696081Y1122097D03*
X696081Y1096697D03*
X696081Y1071297D03*
X696081Y1045897D03*
X696081Y1020497D03*
X696081Y995097D03*
X454081Y1198297D03*
X454081Y1172897D03*
X454081Y1147497D03*
X454081Y1122097D03*
X454081Y1096697D03*
X454081Y1071297D03*
X454081Y1045897D03*
X454081Y1020497D03*
X454081Y995097D03*
D17*
X505081Y837297D03*
X530481Y837297D03*
X619681Y837297D03*
X645081Y837297D03*
D14*
X714781Y1227997D03*
X714781Y1244997D03*
D10*
X422291Y1071397D03*
X405291Y1071397D03*
X406561Y1020597D03*
X423561Y1020597D03*
X406561Y1045997D03*
X423561Y1045997D03*
D18*
X415081Y1248097D03*
X415081Y1215097D03*
D19*
X422681Y804697D03*
D20*
X547581Y761597D03*
D21*
X505081Y807597D03*
D20*
X462581Y761597D03*
D22*
X482581Y1363447D03*
X487581Y1363447D03*
X492581Y1363447D03*
X497581Y1363447D03*
X502581Y1363447D03*
X507581Y1363447D03*
X512581Y1363447D03*
X517581Y1363447D03*
X522581Y1363447D03*
X527581Y1363447D03*
X532581Y1363447D03*
X537581Y1363447D03*
X562581Y1363447D03*
X567581Y1363447D03*
X572581Y1363447D03*
X577581Y1363447D03*
X582581Y1363447D03*
X587581Y1363447D03*
X592581Y1363447D03*
X597581Y1363447D03*
X602581Y1363447D03*
X607581Y1363447D03*
X612581Y1363447D03*
X617581Y1363447D03*
X622581Y1363447D03*
X627581Y1363447D03*
X632581Y1363447D03*
X637581Y1363447D03*
X642581Y1363447D03*
X647581Y1363447D03*
X652581Y1363447D03*
X657581Y1363447D03*
X662581Y1363447D03*
X667581Y1363447D03*
D23*
X395081Y915197D03*
X395081Y957197D03*
X408081Y936197D03*
X755081Y957197D03*
X755081Y915197D03*
X742081Y936197D03*
D14*
X638581Y1304197D03*
X638581Y1321197D03*
D24*
X717481Y1284097D03*
X717481Y1265097D03*
X738481Y1274597D03*
D14*
X752881Y1266097D03*
X752881Y1283097D03*
D24*
X679381Y1284097D03*
X679381Y1265097D03*
X700381Y1274597D03*
D14*
X663981Y1266097D03*
X663981Y1283097D03*
D24*
X717481Y1322197D03*
X717481Y1303197D03*
X738481Y1312697D03*
D14*
X752881Y1304197D03*
X752881Y1321197D03*
D24*
X679381Y1322197D03*
X679381Y1303197D03*
X700381Y1312697D03*
D14*
X663981Y1321197D03*
X663981Y1304197D03*
D25*
X568731Y1302597D03*
X556031Y1302597D03*
X543331Y1302597D03*
X530631Y1302597D03*
X530631Y1246597D03*
X543331Y1246597D03*
X556031Y1246597D03*
X568731Y1246597D03*
D14*
X587781Y1266097D03*
X587781Y1283097D03*
D26*
X-26238Y1312697D03*
X791337Y1312697D03*
D27*
X-35293Y63500D02*
X-35290Y63722D01*
X-35282Y63944D01*
X-35268Y64166D01*
X-35249Y64388D01*
X-35225Y64608D01*
X-35195Y64829D01*
X-35160Y65048D01*
X-35119Y65267D01*
X-35073Y65484D01*
X-35022Y65700D01*
X-34965Y65915D01*
X-34903Y66129D01*
X-34836Y66340D01*
X-34764Y66551D01*
X-34686Y66759D01*
X-34604Y66965D01*
X-34516Y67169D01*
X-34424Y67372D01*
X-34326Y67571D01*
X-34224Y67768D01*
X-34117Y67963D01*
X-34005Y68155D01*
X-33888Y68344D01*
X-33767Y68531D01*
X-33641Y68714D01*
X-33511Y68894D01*
X-33376Y69071D01*
X-33238Y69244D01*
X-33095Y69414D01*
X-32947Y69581D01*
X-32796Y69744D01*
X-32641Y69903D01*
X-32482Y70058D01*
X-32319Y70209D01*
X-32152Y70357D01*
X-31982Y70500D01*
X-31809Y70638D01*
X-31632Y70773D01*
X-31452Y70903D01*
X-31269Y71029D01*
X-31082Y71150D01*
X-30893Y71267D01*
X-30701Y71379D01*
X-30506Y71486D01*
X-30309Y71588D01*
X-30110Y71686D01*
X-29907Y71778D01*
X-29703Y71866D01*
X-29497Y71948D01*
X-29289Y72026D01*
X-29078Y72098D01*
X-28867Y72165D01*
X-28653Y72227D01*
X-28438Y72284D01*
X-28222Y72335D01*
X-28005Y72381D01*
X-27786Y72422D01*
X-27567Y72457D01*
X-27346Y72487D01*
X-27126Y72511D01*
X-26904Y72530D01*
X-26682Y72544D01*
X-26460Y72552D01*
X-26238Y72555D01*
X-26016Y72552D01*
X-25794Y72544D01*
X-25572Y72530D01*
X-25350Y72511D01*
X-25130Y72487D01*
X-24909Y72457D01*
X-24690Y72422D01*
X-24471Y72381D01*
X-24254Y72335D01*
X-24038Y72284D01*
X-23823Y72227D01*
X-23609Y72165D01*
X-23398Y72098D01*
X-23187Y72026D01*
X-22979Y71948D01*
X-22773Y71866D01*
X-22569Y71778D01*
X-22366Y71686D01*
X-22167Y71588D01*
X-21970Y71486D01*
X-21775Y71379D01*
X-21583Y71267D01*
X-21394Y71150D01*
X-21207Y71029D01*
X-21024Y70903D01*
X-20844Y70773D01*
X-20667Y70638D01*
X-20494Y70500D01*
X-20324Y70357D01*
X-20157Y70209D01*
X-19994Y70058D01*
X-19835Y69903D01*
X-19680Y69744D01*
X-19529Y69581D01*
X-19381Y69414D01*
X-19238Y69244D01*
X-19100Y69071D01*
X-18965Y68894D01*
X-18835Y68714D01*
X-18709Y68531D01*
X-18588Y68344D01*
X-18471Y68155D01*
X-18359Y67963D01*
X-18252Y67768D01*
X-18150Y67571D01*
X-18052Y67372D01*
X-17960Y67169D01*
X-17872Y66965D01*
X-17790Y66759D01*
X-17712Y66551D01*
X-17640Y66340D01*
X-17573Y66129D01*
X-17511Y65915D01*
X-17454Y65700D01*
X-17403Y65484D01*
X-17357Y65267D01*
X-17316Y65048D01*
X-17281Y64829D01*
X-17251Y64608D01*
X-17227Y64388D01*
X-17208Y64166D01*
X-17194Y63944D01*
X-17186Y63722D01*
X-17183Y63500D01*
X-17186Y63278D01*
X-17194Y63056D01*
X-17208Y62834D01*
X-17227Y62612D01*
X-17251Y62392D01*
X-17281Y62171D01*
X-17316Y61952D01*
X-17357Y61733D01*
X-17403Y61516D01*
X-17454Y61300D01*
X-17511Y61085D01*
X-17573Y60871D01*
X-17640Y60660D01*
X-17712Y60449D01*
X-17790Y60241D01*
X-17872Y60035D01*
X-17960Y59831D01*
X-18052Y59628D01*
X-18150Y59429D01*
X-18252Y59232D01*
X-18359Y59037D01*
X-18471Y58845D01*
X-18588Y58656D01*
X-18709Y58469D01*
X-18835Y58286D01*
X-18965Y58106D01*
X-19100Y57929D01*
X-19238Y57756D01*
X-19381Y57586D01*
X-19529Y57419D01*
X-19680Y57256D01*
X-19835Y57097D01*
X-19994Y56942D01*
X-20157Y56791D01*
X-20324Y56643D01*
X-20494Y56500D01*
X-20667Y56362D01*
X-20844Y56227D01*
X-21024Y56097D01*
X-21207Y55971D01*
X-21394Y55850D01*
X-21583Y55733D01*
X-21775Y55621D01*
X-21970Y55514D01*
X-22167Y55412D01*
X-22366Y55314D01*
X-22569Y55222D01*
X-22773Y55134D01*
X-22979Y55052D01*
X-23187Y54974D01*
X-23398Y54902D01*
X-23609Y54835D01*
X-23823Y54773D01*
X-24038Y54716D01*
X-24254Y54665D01*
X-24471Y54619D01*
X-24690Y54578D01*
X-24909Y54543D01*
X-25130Y54513D01*
X-25350Y54489D01*
X-25572Y54470D01*
X-25794Y54456D01*
X-26016Y54448D01*
X-26238Y54445D01*
X-26460Y54448D01*
X-26682Y54456D01*
X-26904Y54470D01*
X-27126Y54489D01*
X-27346Y54513D01*
X-27567Y54543D01*
X-27786Y54578D01*
X-28005Y54619D01*
X-28222Y54665D01*
X-28438Y54716D01*
X-28653Y54773D01*
X-28867Y54835D01*
X-29078Y54902D01*
X-29289Y54974D01*
X-29497Y55052D01*
X-29703Y55134D01*
X-29907Y55222D01*
X-30110Y55314D01*
X-30309Y55412D01*
X-30506Y55514D01*
X-30701Y55621D01*
X-30893Y55733D01*
X-31082Y55850D01*
X-31269Y55971D01*
X-31452Y56097D01*
X-31632Y56227D01*
X-31809Y56362D01*
X-31982Y56500D01*
X-32152Y56643D01*
X-32319Y56791D01*
X-32482Y56942D01*
X-32641Y57097D01*
X-32796Y57256D01*
X-32947Y57419D01*
X-33095Y57586D01*
X-33238Y57756D01*
X-33376Y57929D01*
X-33511Y58106D01*
X-33641Y58286D01*
X-33767Y58469D01*
X-33888Y58656D01*
X-34005Y58845D01*
X-34117Y59037D01*
X-34224Y59232D01*
X-34326Y59429D01*
X-34424Y59628D01*
X-34516Y59831D01*
X-34604Y60035D01*
X-34686Y60241D01*
X-34764Y60449D01*
X-34836Y60660D01*
X-34903Y60871D01*
X-34965Y61085D01*
X-35022Y61300D01*
X-35073Y61516D01*
X-35119Y61733D01*
X-35160Y61952D01*
X-35195Y62171D01*
X-35225Y62392D01*
X-35249Y62612D01*
X-35268Y62834D01*
X-35282Y63056D01*
X-35290Y63278D01*
X-35293Y63500D01*
D28*
X-26238Y63500D03*
M02*
