G04 EAGLE Gerber RS-274X export*
G75*
%MOMM*%
%FSLAX34Y34*%
%LPD*%
%INSolderpaste Top*%
%IPPOS*%
%AMOC8*
5,1,8,0,0,1.08239X$1,22.5*%
G01*
%ADD10R,1.100000X1.000000*%
%ADD11R,1.600000X1.400000*%
%ADD12R,1.000000X1.100000*%
%ADD13C,0.300000*%
%ADD14R,3.000000X2.000000*%
%ADD15R,2.000000X3.000000*%
%ADD16R,2.500000X1.200000*%
%ADD17R,1.100000X2.400000*%
%ADD18R,1.250000X7.000000*%
%ADD19R,0.900000X0.800000*%
%ADD20R,0.600000X1.200000*%


D10*
X341512Y203200D03*
X358512Y203200D03*
X341512Y181610D03*
X358512Y181610D03*
D11*
X350012Y256570D03*
X350012Y228570D03*
D12*
X339992Y71500D03*
X339992Y88500D03*
D13*
X356492Y85270D02*
X363492Y85270D01*
X356492Y85270D02*
X356492Y92270D01*
X363492Y92270D01*
X363492Y85270D01*
X363492Y88120D02*
X356492Y88120D01*
X356492Y90970D02*
X363492Y90970D01*
X363492Y67730D02*
X356492Y67730D01*
X356492Y74730D01*
X363492Y74730D01*
X363492Y67730D01*
X363492Y70580D02*
X356492Y70580D01*
X356492Y73430D02*
X363492Y73430D01*
D14*
X68992Y177900D03*
X68992Y203300D03*
X68992Y228700D03*
X68992Y254100D03*
X68992Y279500D03*
X68992Y304900D03*
X68992Y330300D03*
X68992Y355700D03*
X68992Y381100D03*
X310992Y177900D03*
X310992Y203300D03*
X310992Y228700D03*
X310992Y254100D03*
X310992Y279500D03*
X310992Y304900D03*
X310992Y330300D03*
X310992Y355700D03*
X310992Y381100D03*
D15*
X259992Y538900D03*
X234592Y538900D03*
X145392Y538900D03*
X119992Y538900D03*
D12*
X50292Y148200D03*
X50292Y131200D03*
D10*
X342782Y304800D03*
X359782Y304800D03*
X358512Y355600D03*
X341512Y355600D03*
X358512Y330200D03*
X341512Y330200D03*
D16*
X349992Y128100D03*
X349992Y161100D03*
D17*
X259992Y567700D03*
D18*
X216942Y614600D03*
X303042Y614600D03*
D12*
X126492Y72000D03*
X126492Y55000D03*
D19*
X47592Y92100D03*
X47592Y111100D03*
X26592Y101600D03*
D12*
X12192Y110100D03*
X12192Y93100D03*
D19*
X85692Y92100D03*
X85692Y111100D03*
X64692Y101600D03*
D12*
X101092Y110100D03*
X101092Y93100D03*
D19*
X47592Y54000D03*
X47592Y73000D03*
X26592Y63500D03*
D12*
X12192Y72000D03*
X12192Y55000D03*
D19*
X85692Y54000D03*
X85692Y73000D03*
X64692Y63500D03*
D12*
X101092Y55000D03*
X101092Y72000D03*
D20*
X196342Y73600D03*
X209042Y73600D03*
X221742Y73600D03*
X234442Y73600D03*
X234442Y129600D03*
X221742Y129600D03*
X209042Y129600D03*
X196342Y129600D03*
D12*
X177292Y110100D03*
X177292Y93100D03*
D10*
X726601Y203200D03*
X743601Y203200D03*
X726601Y181610D03*
X743601Y181610D03*
D11*
X735101Y256570D03*
X735101Y228570D03*
D12*
X725081Y71500D03*
X725081Y88500D03*
D13*
X741581Y85270D02*
X748581Y85270D01*
X741581Y85270D02*
X741581Y92270D01*
X748581Y92270D01*
X748581Y85270D01*
X748581Y88120D02*
X741581Y88120D01*
X741581Y90970D02*
X748581Y90970D01*
X748581Y67730D02*
X741581Y67730D01*
X741581Y74730D01*
X748581Y74730D01*
X748581Y67730D01*
X748581Y70580D02*
X741581Y70580D01*
X741581Y73430D02*
X748581Y73430D01*
D14*
X454081Y177900D03*
X454081Y203300D03*
X454081Y228700D03*
X454081Y254100D03*
X454081Y279500D03*
X454081Y304900D03*
X454081Y330300D03*
X454081Y355700D03*
X454081Y381100D03*
X696081Y177900D03*
X696081Y203300D03*
X696081Y228700D03*
X696081Y254100D03*
X696081Y279500D03*
X696081Y304900D03*
X696081Y330300D03*
X696081Y355700D03*
X696081Y381100D03*
D15*
X645081Y538900D03*
X619681Y538900D03*
X530481Y538900D03*
X505081Y538900D03*
D12*
X435381Y148200D03*
X435381Y131200D03*
D10*
X727871Y304800D03*
X744871Y304800D03*
X743601Y355600D03*
X726601Y355600D03*
X743601Y330200D03*
X726601Y330200D03*
D16*
X735081Y128100D03*
X735081Y161100D03*
D17*
X645081Y567700D03*
D18*
X602031Y614600D03*
X688131Y614600D03*
D12*
X511581Y72000D03*
X511581Y55000D03*
D19*
X432681Y92100D03*
X432681Y111100D03*
X411681Y101600D03*
D12*
X397281Y110100D03*
X397281Y93100D03*
D19*
X470781Y92100D03*
X470781Y111100D03*
X449781Y101600D03*
D12*
X486181Y110100D03*
X486181Y93100D03*
D19*
X432681Y54000D03*
X432681Y73000D03*
X411681Y63500D03*
D12*
X397281Y72000D03*
X397281Y55000D03*
D19*
X470781Y54000D03*
X470781Y73000D03*
X449781Y63500D03*
D12*
X486181Y55000D03*
X486181Y72000D03*
D20*
X581431Y73600D03*
X594131Y73600D03*
X606831Y73600D03*
X619531Y73600D03*
X619531Y129600D03*
X606831Y129600D03*
X594131Y129600D03*
X581431Y129600D03*
D12*
X562381Y110100D03*
X562381Y93100D03*
D10*
X38497Y1172997D03*
X21497Y1172997D03*
X38497Y1194587D03*
X21497Y1194587D03*
D11*
X29997Y1119627D03*
X29997Y1147627D03*
D12*
X40017Y1304697D03*
X40017Y1287697D03*
D13*
X23517Y1290927D02*
X16517Y1290927D01*
X23517Y1290927D02*
X23517Y1283927D01*
X16517Y1283927D01*
X16517Y1290927D01*
X16517Y1286777D02*
X23517Y1286777D01*
X23517Y1289627D02*
X16517Y1289627D01*
X16517Y1308467D02*
X23517Y1308467D01*
X23517Y1301467D01*
X16517Y1301467D01*
X16517Y1308467D01*
X16517Y1304317D02*
X23517Y1304317D01*
X23517Y1307167D02*
X16517Y1307167D01*
D14*
X311017Y1198297D03*
X311017Y1172897D03*
X311017Y1147497D03*
X311017Y1122097D03*
X311017Y1096697D03*
X311017Y1071297D03*
X311017Y1045897D03*
X311017Y1020497D03*
X311017Y995097D03*
X69017Y1198297D03*
X69017Y1172897D03*
X69017Y1147497D03*
X69017Y1122097D03*
X69017Y1096697D03*
X69017Y1071297D03*
X69017Y1045897D03*
X69017Y1020497D03*
X69017Y995097D03*
D15*
X120017Y837297D03*
X145417Y837297D03*
X234617Y837297D03*
X260017Y837297D03*
D12*
X329717Y1227997D03*
X329717Y1244997D03*
D10*
X37227Y1071397D03*
X20227Y1071397D03*
X21497Y1020597D03*
X38497Y1020597D03*
X21497Y1045997D03*
X38497Y1045997D03*
D16*
X30017Y1248097D03*
X30017Y1215097D03*
D17*
X120017Y808497D03*
D18*
X163067Y761597D03*
X76967Y761597D03*
D12*
X253517Y1304197D03*
X253517Y1321197D03*
D19*
X332417Y1284097D03*
X332417Y1265097D03*
X353417Y1274597D03*
D12*
X367817Y1266097D03*
X367817Y1283097D03*
D19*
X294317Y1284097D03*
X294317Y1265097D03*
X315317Y1274597D03*
D12*
X278917Y1266097D03*
X278917Y1283097D03*
D19*
X332417Y1322197D03*
X332417Y1303197D03*
X353417Y1312697D03*
D12*
X367817Y1304197D03*
X367817Y1321197D03*
D19*
X294317Y1322197D03*
X294317Y1303197D03*
X315317Y1312697D03*
D12*
X278917Y1321197D03*
X278917Y1304197D03*
D20*
X183667Y1302597D03*
X170967Y1302597D03*
X158267Y1302597D03*
X145567Y1302597D03*
X145567Y1246597D03*
X158267Y1246597D03*
X170967Y1246597D03*
X183667Y1246597D03*
D12*
X202717Y1266097D03*
X202717Y1283097D03*
D10*
X423561Y1172997D03*
X406561Y1172997D03*
X423561Y1194587D03*
X406561Y1194587D03*
D11*
X415061Y1119627D03*
X415061Y1147627D03*
D12*
X425081Y1304697D03*
X425081Y1287697D03*
D13*
X408581Y1290927D02*
X401581Y1290927D01*
X408581Y1290927D02*
X408581Y1283927D01*
X401581Y1283927D01*
X401581Y1290927D01*
X401581Y1286777D02*
X408581Y1286777D01*
X408581Y1289627D02*
X401581Y1289627D01*
X401581Y1308467D02*
X408581Y1308467D01*
X408581Y1301467D01*
X401581Y1301467D01*
X401581Y1308467D01*
X401581Y1304317D02*
X408581Y1304317D01*
X408581Y1307167D02*
X401581Y1307167D01*
D14*
X696081Y1198297D03*
X696081Y1172897D03*
X696081Y1147497D03*
X696081Y1122097D03*
X696081Y1096697D03*
X696081Y1071297D03*
X696081Y1045897D03*
X696081Y1020497D03*
X696081Y995097D03*
X454081Y1198297D03*
X454081Y1172897D03*
X454081Y1147497D03*
X454081Y1122097D03*
X454081Y1096697D03*
X454081Y1071297D03*
X454081Y1045897D03*
X454081Y1020497D03*
X454081Y995097D03*
D15*
X505081Y837297D03*
X530481Y837297D03*
X619681Y837297D03*
X645081Y837297D03*
D12*
X714781Y1227997D03*
X714781Y1244997D03*
D10*
X422291Y1071397D03*
X405291Y1071397D03*
X406561Y1020597D03*
X423561Y1020597D03*
X406561Y1045997D03*
X423561Y1045997D03*
D16*
X415081Y1248097D03*
X415081Y1215097D03*
D17*
X505081Y808497D03*
D18*
X548131Y761597D03*
X462031Y761597D03*
D12*
X638581Y1304197D03*
X638581Y1321197D03*
D19*
X717481Y1284097D03*
X717481Y1265097D03*
X738481Y1274597D03*
D12*
X752881Y1266097D03*
X752881Y1283097D03*
D19*
X679381Y1284097D03*
X679381Y1265097D03*
X700381Y1274597D03*
D12*
X663981Y1266097D03*
X663981Y1283097D03*
D19*
X717481Y1322197D03*
X717481Y1303197D03*
X738481Y1312697D03*
D12*
X752881Y1304197D03*
X752881Y1321197D03*
D19*
X679381Y1322197D03*
X679381Y1303197D03*
X700381Y1312697D03*
D12*
X663981Y1321197D03*
X663981Y1304197D03*
D20*
X568731Y1302597D03*
X556031Y1302597D03*
X543331Y1302597D03*
X530631Y1302597D03*
X530631Y1246597D03*
X543331Y1246597D03*
X556031Y1246597D03*
X568731Y1246597D03*
D12*
X587781Y1266097D03*
X587781Y1283097D03*
M02*
