M48
;GenerationSoftware,Autodesk,EAGLE,9.6.2*%
;CreationDate,2021-11-05T17:25:25Z*%
FMAT,2
ICI,OFF
METRIC,TZ,000.000
T6C0.305
T5C0.381
T4C0.900
T3C1.016
T2C1.700
T1C3.250
%
G90
M71
T1
X90352Y81160
X51843Y81160
X63273Y81160
X101782Y81160
X13337Y81160
X24664Y59000
X13234Y59000
X63173Y59000
X51743Y59000
X101680Y59000
X90250Y59000
X24767Y81160
T2
X11074Y55950
X65333Y55950
X49583Y55950
X26824Y55950
X103840Y55950
X88090Y55950
X11177Y84210
X26927Y84210
X49683Y84210
X65433Y84210
X88192Y84210
X103942Y84210
T3
X30679Y11000
X33219Y11000
X69188Y11000
X71728Y11000
X46728Y53000
X44188Y53000
X107695Y11000
X110235Y11000
X4782Y129160
X7322Y129160
X46728Y50000
X44188Y50000
X85235Y50000
X8219Y50000
X5679Y50000
X8219Y53000
X5679Y53000
X82695Y53000
X29782Y90160
X32322Y90160
X29782Y87160
X32322Y87160
X45828Y129160
X43288Y129160
X85235Y53000
X109337Y87160
X82695Y50000
X68288Y90160
X70828Y90160
X68288Y87160
X70828Y87160
X84337Y129160
X81797Y129160
X106797Y87160
X106797Y90160
X109337Y90160
T4
X53013Y50110
X63173Y50110
X51743Y52650
X61548Y63060
X53368Y63060
X64088Y63060
X50828Y63060
X100410Y52650
X99140Y50110
X97870Y52650
X96600Y50110
X95330Y52650
X94060Y50110
X92790Y52650
X91520Y50110
X12319Y63060
X90250Y52650
X100055Y63060
X91875Y63060
X102595Y63060
X89335Y63060
X24664Y50110
X23394Y52650
X14607Y87510
X15877Y90050
X17147Y87510
X18417Y90050
X19687Y87510
X20957Y90050
X22227Y87510
X23497Y90050
X13337Y90050
X24767Y87510
X14962Y77100
X23142Y77100
X12422Y77100
X25682Y77100
X22124Y50110
X20854Y52650
X19584Y50110
X18314Y52650
X17044Y50110
X15774Y52650
X14504Y50110
X13234Y52650
X53113Y87510
X54383Y90050
X23039Y63060
X56923Y90050
X58193Y87510
X59463Y90050
X60733Y87510
X62003Y90050
X51843Y90050
X63273Y87510
X53468Y77100
X61648Y77100
X50928Y77100
X64188Y77100
X14859Y63060
X25579Y63060
X61903Y52650
X60633Y50110
X59363Y52650
X58093Y50110
X101680Y50110
X56823Y52650
X91622Y87510
X92892Y90050
X94162Y87510
X95432Y90050
X96702Y87510
X97972Y90050
X99242Y87510
X100512Y90050
X90352Y90050
X101782Y87510
X91977Y77100
X100157Y77100
X89437Y77100
X102697Y77100
X55553Y50110
X54283Y52650
X55653Y87510
T5
X5052Y123822
X32949Y16338
X71458Y16338
X109965Y16338
X82067Y123822
X43558Y123822
T6
X37449Y30000
X10949Y47600
X12957Y47600
X28949Y51000
X19049Y48300
X20209Y21971
X23922Y15173
X24949Y20000
X33604Y17399
X29849Y41448
X34949Y48400
X31191Y48006
X19149Y17200
X5395Y21200
X5383Y18669
X32969Y8001
X22936Y7620
X24206Y9525
X22987Y10922
X20249Y4700
X18187Y3100
X63958Y4600
X72455Y25200
X42458Y10000
X55858Y3100
X59158Y3800
X66758Y4700
X75458Y8600
X74458Y15000
X74458Y23000
X65558Y22900
X70258Y28900
X67858Y31700
X67858Y33200
X67904Y34527
X65658Y36000
X74958Y35600
X71158Y33900
X69458Y41000
X65458Y41000
X63458Y41000
X61458Y36200
X61458Y32000
X61458Y30000
X60458Y28000
X60458Y26000
X50458Y42000
X60458Y44000
X53426Y10565
X62458Y7700
X54058Y4000
X48158Y3400
X48458Y10000
X54458Y17000
X52458Y22000
X62258Y13000
X62458Y44000
X66458Y27000
X70217Y13262
X50458Y4000
X52458Y24000
X52458Y26000
X52458Y28000
X52458Y30000
X52458Y32000
X52458Y34000
X52458Y36000
X52458Y38000
X52458Y40000
X52458Y20000
X52458Y18000
X52458Y16000
X52458Y14000
X50458Y14000
X50458Y16000
X50458Y18000
X50458Y20000
X50458Y22000
X50458Y24000
X50458Y26000
X50458Y28000
X50458Y30000
X50458Y32000
X50458Y34000
X50458Y36000
X50458Y38000
X50458Y40000
X54458Y24000
X54458Y26000
X54458Y28000
X54458Y30000
X54458Y32000
X54458Y36000
X54458Y40000
X54458Y20000
X56458Y24000
X56458Y26000
X56458Y28000
X56458Y30000
X56458Y32000
X56458Y36000
X56458Y40000
X58458Y24000
X58458Y26000
X58458Y28000
X58458Y30000
X58458Y32000
X58458Y34000
X58458Y36000
X58458Y38000
X58458Y40000
X58458Y13800
X70395Y22682
X60458Y30000
X60458Y32000
X60458Y34000
X60458Y36000
X60458Y38000
X61458Y40000
X60458Y24000
X48458Y14000
X46458Y12000
X46458Y14000
X44458Y12000
X42458Y12000
X40458Y12000
X48458Y8100
X71458Y53000
X75858Y28500
X63558Y3400
X69400Y29591
X61418Y22003
X73458Y41000
X71458Y41000
X63334Y14348
X72458Y58500
X57508Y11000
X52458Y9000
X67414Y9525
X65758Y3200
X73890Y25800
X64858Y3200
X73052Y25788
X75458Y63000
X55996Y4900
X71858Y26100
X53458Y7000
X66355Y5700
X73858Y26800
X52458Y5000
X55931Y4058
X44558Y7000
X58058Y8800
X57805Y6800
X58605Y7800
X61436Y4478
X61450Y6400
X67720Y29600
X68558Y29600
X67555Y5100
X74658Y28500
X64458Y37100
X64458Y44000
X71358Y33000
X71739Y37363
X73858Y36900
X71358Y31000
X75958Y30000
X49458Y47600
X57458Y44000
X51466Y47600
X67458Y51000
X57558Y48300
X58718Y21971
X62431Y15173
X63458Y20000
X72113Y17399
X68358Y41448
X73458Y48400
X69700Y48006
X57658Y17200
X43904Y21200
X43892Y18669
X71478Y8001
X61445Y7620
X62715Y9525
X61496Y10922
X58758Y4700
X56696Y3100
X102465Y4600
X110961Y25200
X80965Y10000
X94365Y3100
X97665Y3800
X105265Y4700
X113965Y8600
X112965Y15000
X112965Y23000
X104065Y22900
X108765Y28900
X106365Y31700
X106365Y33200
X106411Y34527
X104165Y36000
X113465Y35600
X109665Y33900
X107965Y41000
X103965Y41000
X101965Y41000
X99965Y36200
X99965Y32000
X99965Y30000
X98965Y28000
X98965Y26000
X88965Y42000
X98965Y44000
X91933Y10565
X100965Y7700
X92565Y4000
X86665Y3400
X86965Y10000
X92965Y17000
X90965Y22000
X100765Y13000
X100965Y44000
X104965Y27000
X108724Y13262
X88965Y4000
X90965Y24000
X90965Y26000
X90965Y28000
X90965Y30000
X90965Y32000
X90965Y34000
X90965Y36000
X90965Y38000
X90965Y40000
X90965Y20000
X90965Y18000
X90965Y16000
X90965Y14000
X88965Y14000
X88965Y16000
X88965Y18000
X88965Y20000
X88965Y22000
X88965Y24000
X88965Y26000
X88965Y28000
X88965Y30000
X88965Y32000
X88965Y34000
X88965Y36000
X88965Y38000
X88965Y40000
X92965Y24000
X92965Y26000
X92965Y28000
X92965Y30000
X92965Y32000
X92965Y36000
X92965Y40000
X92965Y20000
X94965Y24000
X94965Y26000
X94965Y28000
X94965Y30000
X94965Y32000
X94965Y36000
X94965Y40000
X96965Y24000
X96965Y26000
X96965Y28000
X96965Y30000
X96965Y32000
X96965Y34000
X96965Y36000
X96965Y38000
X96965Y40000
X96965Y13800
X108902Y22682
X98965Y30000
X98965Y32000
X98965Y34000
X98965Y36000
X98965Y38000
X99965Y40000
X98965Y24000
X86965Y14000
X84965Y12000
X84965Y14000
X82965Y12000
X80965Y12000
X78965Y12000
X86965Y8100
X109965Y53000
X114365Y28500
X102065Y3400
X107907Y29591
X99925Y22003
X111965Y41000
X109965Y41000
X101841Y14348
X110965Y58500
X96015Y11000
X90965Y9000
X105921Y9525
X104265Y3200
X112397Y25800
X103365Y3200
X111558Y25788
X113965Y63000
X94503Y4900
X110365Y26100
X91965Y7000
X104861Y5700
X112365Y26800
X90965Y5000
X94437Y4058
X83065Y7000
X96565Y8800
X96311Y6800
X97111Y7800
X99942Y4478
X99957Y6400
X106226Y29600
X107065Y29600
X106061Y5100
X113165Y28500
X102965Y37100
X102965Y44000
X109865Y33000
X110245Y37363
X112365Y36900
X109865Y31000
X114465Y30000
X87965Y47600
X95965Y44000
X89973Y47600
X105965Y51000
X96065Y48300
X97225Y21971
X100938Y15173
X101965Y20000
X110620Y17399
X106865Y41448
X111965Y48400
X108207Y48006
X96165Y17200
X82411Y21200
X82399Y18669
X109985Y8001
X99952Y7620
X101222Y9525
X100002Y10922
X97265Y4700
X95203Y3100
X12552Y135560
X4055Y114960
X34052Y130160
X20652Y137060
X17352Y136360
X9752Y135460
X1052Y131560
X2052Y125160
X2052Y117160
X10952Y117260
X6252Y111260
X8652Y108460
X8652Y106960
X8606Y105633
X10852Y104160
X1552Y104560
X5352Y106260
X7052Y99160
X11052Y99160
X13052Y99160
X15052Y103960
X15052Y108160
X15052Y110160
X16052Y112160
X16052Y114160
X26052Y98160
X16052Y96160
X23084Y129595
X14052Y132460
X22452Y136160
X28352Y136760
X28052Y130160
X22052Y123160
X24052Y118160
X14252Y127160
X14052Y96160
X10052Y113160
X6293Y126898
X26052Y136160
X24052Y116160
X24052Y114160
X24052Y112160
X24052Y110160
X24052Y108160
X24052Y106160
X24052Y104160
X24052Y102160
X24052Y100160
X24052Y120160
X24052Y122160
X24052Y124160
X24052Y126160
X26052Y126160
X26052Y124160
X26052Y122160
X26052Y120160
X26052Y118160
X26052Y116160
X26052Y114160
X26052Y112160
X26052Y110160
X26052Y108160
X26052Y106160
X26052Y104160
X26052Y102160
X26052Y100160
X22052Y116160
X22052Y114160
X22052Y112160
X22052Y110160
X22052Y108160
X22052Y104160
X22052Y100160
X22052Y120160
X20052Y116160
X20052Y114160
X20052Y112160
X20052Y110160
X20052Y108160
X20052Y104160
X20052Y100160
X18052Y116160
X18052Y114160
X18052Y112160
X18052Y110160
X18052Y108160
X18052Y106160
X18052Y104160
X18052Y102160
X18052Y100160
X18949Y44000
X6115Y117478
X16052Y110160
X16052Y108160
X16052Y106160
X16052Y104160
X16052Y102160
X15052Y100160
X16052Y116160
X28052Y126160
X30052Y128160
X30052Y126160
X32052Y128160
X34052Y128160
X36052Y128160
X28052Y132060
X5052Y87160
X652Y111660
X12952Y136760
X7110Y110569
X15092Y118157
X3052Y99160
X5052Y99160
X13176Y125812
X4052Y81660
X19002Y129160
X24052Y131160
X9096Y130635
X25449Y4600
X10752Y136960
X2620Y114360
X11652Y136960
X3458Y114371
X1052Y77160
X20514Y135260
X4652Y114060
X23052Y133160
X10155Y134460
X2652Y113360
X24052Y135160
X20579Y136102
X31952Y133160
X18452Y131360
X18705Y133360
X17905Y132360
X15074Y135682
X15060Y133760
X8790Y110560
X7952Y110560
X8955Y135060
X1852Y111660
X12052Y103060
X12052Y96160
X5152Y107160
X4771Y102796
X2652Y103260
X5152Y109160
X552Y110160
X27052Y92560
X19052Y96160
X25044Y92560
X9052Y89160
X18952Y91860
X17792Y118189
X14079Y124987
X13052Y120160
X4397Y122761
X8152Y98712
X3052Y91760
X6810Y92154
X18852Y122960
X32606Y118960
X32618Y121491
X5032Y132159
X15065Y132540
X13795Y130635
X15014Y129238
X17752Y135460
X19814Y137060
X51058Y135560
X42561Y114960
X72558Y130160
X59158Y137060
X55858Y136360
X48258Y135460
X39558Y131560
X40558Y125160
X40558Y117160
X49458Y117260
X44758Y111260
X47158Y108460
X47158Y106960
X47112Y105633
X49358Y104160
X40058Y104560
X43858Y106260
X45558Y99160
X49558Y99160
X51558Y99160
X53558Y103960
X53558Y108160
X53558Y110160
X54558Y112160
X54558Y114160
X64558Y98160
X54558Y96160
X61590Y129595
X52558Y132460
X60958Y136160
X66858Y136760
X66558Y130160
X60558Y123160
X62558Y118160
X52758Y127160
X52558Y96160
X48558Y113160
X44799Y126898
X64558Y136160
X62558Y116160
X62558Y114160
X62558Y112160
X62558Y110160
X62558Y108160
X62558Y106160
X62558Y104160
X62558Y102160
X62558Y100160
X62558Y120160
X62558Y122160
X62558Y124160
X62558Y126160
X64558Y126160
X64558Y124160
X64558Y122160
X64558Y120160
X64558Y118160
X64558Y116160
X64558Y114160
X64558Y112160
X64558Y110160
X64558Y108160
X64558Y106160
X64558Y104160
X64558Y102160
X64558Y100160
X60558Y116160
X60558Y114160
X60558Y112160
X60558Y110160
X60558Y108160
X60558Y104160
X60558Y100160
X60558Y120160
X58558Y116160
X58558Y114160
X58558Y112160
X58558Y110160
X58558Y108160
X58558Y104160
X58558Y100160
X56558Y116160
X56558Y114160
X56558Y112160
X56558Y110160
X56558Y108160
X56558Y106160
X56558Y104160
X56558Y102160
X56558Y100160
X56558Y126360
X44621Y117478
X54558Y110160
X54558Y108160
X54558Y106160
X54558Y104160
X54558Y102160
X53558Y100160
X54558Y116160
X66558Y126160
X68558Y128160
X68558Y126160
X70558Y128160
X72558Y128160
X74558Y128160
X66558Y132060
X43558Y87160
X39158Y111660
X51458Y136760
X45616Y110569
X53598Y118157
X41558Y99160
X43558Y99160
X51682Y125812
X42558Y81660
X57508Y129160
X62558Y131160
X47602Y130635
X33946Y25200
X49258Y136960
X41126Y114360
X50158Y136960
X41964Y114371
X39558Y77160
X59020Y135260
X43158Y114060
X61558Y133160
X48661Y134460
X41158Y113360
X62558Y135160
X59085Y136102
X70458Y133160
X56958Y131360
X57211Y133360
X56411Y132360
X53580Y135682
X53566Y133760
X47296Y110560
X46458Y110560
X47461Y135060
X40358Y111660
X50558Y103060
X50558Y96160
X43658Y107160
X43277Y102796
X41158Y103260
X43658Y109160
X39058Y110160
X65558Y92560
X57558Y96160
X63550Y92560
X47558Y89160
X57458Y91860
X56298Y118189
X52585Y124987
X51558Y120160
X42903Y122761
X46658Y98712
X41558Y91760
X45316Y92154
X57358Y122960
X71112Y118960
X71124Y121491
X43538Y132159
X53571Y132540
X52301Y130635
X53520Y129238
X56258Y135460
X58320Y137060
X89567Y135560
X81070Y114960
X111067Y130160
X97667Y137060
X94367Y136360
X86767Y135460
X78067Y131560
X79067Y125160
X79067Y117160
X87967Y117260
X83267Y111260
X85667Y108460
X85667Y106960
X85621Y105633
X87867Y104160
X78567Y104560
X82367Y106260
X84067Y99160
X88067Y99160
X90067Y99160
X92067Y103960
X92067Y108160
X92067Y110160
X93067Y112160
X93067Y114160
X103067Y98160
X93067Y96160
X100099Y129595
X91067Y132460
X99467Y136160
X105367Y136760
X105067Y130160
X99067Y123160
X101067Y118160
X91267Y127160
X91067Y96160
X87067Y113160
X83308Y126898
X103067Y136160
X101067Y116160
X101067Y114160
X101067Y112160
X101067Y110160
X101067Y108160
X101067Y106160
X101067Y104160
X101067Y102160
X101067Y100160
X101067Y120160
X101067Y122160
X3949Y10000
X101067Y126160
X103067Y126160
X103067Y124160
X103067Y122160
X103067Y120160
X103067Y118160
X103067Y116160
X103067Y114160
X103067Y112160
X103067Y110160
X103067Y108160
X103067Y106160
X103067Y104160
X103067Y102160
X103067Y100160
X99067Y116160
X99067Y114160
X99067Y112160
X99067Y110160
X99067Y108160
X99067Y104160
X99067Y100160
X99067Y120160
X97067Y116160
X97067Y114160
X97067Y112160
X97067Y110160
X97067Y108160
X97067Y104160
X97067Y100160
X95067Y116160
X95067Y114160
X95067Y112160
X95067Y110160
X95067Y108160
X95067Y106160
X95067Y104160
X95067Y102160
X95067Y100160
X95067Y126360
X83130Y117478
X93067Y110160
X93067Y108160
X93067Y106160
X93067Y104160
X93067Y102160
X92067Y100160
X93067Y116160
X105067Y126160
X107067Y128160
X107067Y126160
X109067Y128160
X111067Y128160
X113067Y128160
X105067Y132060
X82067Y87160
X77667Y111660
X89967Y136760
X84125Y110569
X92107Y118157
X80067Y99160
X82067Y99160
X90191Y125812
X81067Y81660
X96017Y129160
X101067Y131160
X86111Y130635
X17349Y3100
X87767Y136960
X79635Y114360
X88667Y136960
X80473Y114371
X78067Y77160
X97529Y135260
X81667Y114060
X100067Y133160
X87170Y134460
X79667Y113360
X101067Y135160
X97594Y136102
X108967Y133160
X95467Y131360
X95720Y133360
X94920Y132360
X92089Y135682
X92075Y133760
X85805Y110560
X84967Y110560
X85970Y135060
X78867Y111660
X89067Y103060
X89067Y96160
X82167Y107160
X81786Y102796
X79667Y103260
X82167Y109160
X77567Y110160
X104067Y92560
X96067Y96160
X102059Y92560
X86067Y89160
X95967Y91860
X94807Y118189
X91094Y124987
X90067Y120160
X81412Y122761
X85167Y98712
X80067Y91760
X83825Y92154
X95867Y122960
X109621Y118960
X109633Y121491
X82047Y132159
X92080Y132540
X90810Y130635
X92029Y129238
X94767Y135460
X96829Y137060
X20649Y3800
X28249Y4700
X36949Y8600
X35949Y15000
X35949Y23000
X27049Y22900
X31749Y28900
X29349Y31700
X29349Y33200
X29395Y34527
X27149Y36000
X36449Y35600
X32649Y33900
X30949Y41000
X36999Y46100
X36999Y41900
X35699Y44000
X999Y41900
X999Y46100
X2299Y44000
X26949Y41000
X24949Y41000
X22949Y36200
X22949Y32000
X22949Y30000
X21949Y28000
X21949Y26000
X11949Y42000
X21949Y44000
X14917Y10565
X18052Y126360
X23949Y7700
X15549Y4000
X9649Y3400
X9949Y10000
X15949Y17000
X13949Y22000
X23749Y13000
X23949Y44000
X27949Y27000
X31708Y13262
X11949Y4000
X75508Y46100
X75508Y41900
X74208Y44000
X39508Y41900
X39508Y46100
X40808Y44000
X13949Y24000
X13949Y26000
X13949Y28000
X13949Y30000
X13949Y32000
X13949Y34000
X13949Y36000
X13949Y38000
X13949Y40000
X13949Y20000
X13949Y18000
X13949Y16000
X13949Y14000
X11949Y14000
X11949Y16000
X11949Y18000
X11949Y20000
X11949Y22000
X11949Y24000
X11949Y26000
X11949Y28000
X11949Y30000
X114015Y46100
X114015Y41900
X112715Y44000
X78015Y41900
X78015Y46100
X79315Y44000
X11949Y32000
X11949Y34000
X11949Y36000
X11949Y38000
X11949Y40000
X15949Y24000
X15949Y26000
X15949Y28000
X15949Y30000
X15949Y32000
X15949Y36000
X15949Y40000
X15949Y20000
X17949Y24000
X17949Y26000
X17949Y28000
X17949Y30000
X17949Y32000
X17949Y36000
X17949Y40000
X19949Y24000
X19949Y26000
X1002Y94060
X1002Y98260
X2302Y96160
X37002Y98260
X37002Y94060
X35702Y96160
X19949Y28000
X19949Y30000
X19949Y32000
X19949Y34000
X19949Y36000
X19949Y38000
X19949Y40000
X19949Y13800
X31886Y22682
X21949Y30000
X21949Y32000
X21949Y34000
X21949Y36000
X21949Y38000
X22949Y40000
X21949Y24000
X9949Y14000
X7949Y12000
X7949Y14000
X5949Y12000
X3949Y12000
X1949Y12000
X39508Y94060
X39508Y98260
X40808Y96160
X75508Y98260
X75508Y94060
X74208Y96160
X9949Y8100
X32949Y53000
X37349Y28500
X25049Y3400
X30891Y29591
X22909Y22003
X34949Y41000
X32949Y41000
X24825Y14348
X33949Y58500
X18999Y11000
X13949Y9000
X28905Y9525
X27249Y3200
X35381Y25800
X26349Y3200
X34543Y25788
X36949Y63000
X17487Y4900
X33349Y26100
X14949Y7000
X27846Y5700
X78017Y94060
X78017Y98260
X79317Y96160
X114017Y98260
X114017Y94060
X112717Y96160
X35349Y26800
X13949Y5000
X17422Y4058
X6049Y7000
X19549Y8800
X19296Y6800
X20096Y7800
X22927Y4478
X22941Y6400
X29211Y29600
X30049Y29600
X29046Y5100
X36149Y28500
X25949Y37100
X25949Y44000
X32849Y33000
X33230Y37363
X35349Y36900
X32849Y31000
X101067Y124160
M30