G04 EAGLE Gerber RS-274X export*
G75*
%MOMM*%
%FSLAX34Y34*%
%LPD*%
%INSoldermask Bottom*%
%IPPOS*%
%AMOC8*
5,1,8,0,0,1.08239X$1,22.5*%
G01*
%ADD10C,0.838200*%
%ADD11R,1.473200X0.838200*%
%ADD12C,2.082800*%
%ADD13R,1.473200X0.863600*%
%ADD14R,0.553200X2.153200*%
%ADD15C,0.863600*%
%ADD16C,3.453200*%
%ADD17C,2.753200*%
%ADD18C,1.703200*%
%ADD19R,0.838200X1.473200*%
%ADD20R,0.863600X1.473200*%
%ADD21C,1.203200*%
%ADD22C,1.270000*%

G36*
X77186Y1341770D02*
X77186Y1341770D01*
X77252Y1341772D01*
X77296Y1341789D01*
X77342Y1341798D01*
X77399Y1341831D01*
X77460Y1341856D01*
X77495Y1341888D01*
X77535Y1341912D01*
X77577Y1341963D01*
X77625Y1342007D01*
X77647Y1342050D01*
X77677Y1342086D01*
X77698Y1342148D01*
X77728Y1342207D01*
X77736Y1342261D01*
X77749Y1342299D01*
X77748Y1342338D01*
X77756Y1342392D01*
X77756Y1346202D01*
X77744Y1346267D01*
X77742Y1346333D01*
X77724Y1346377D01*
X77716Y1346423D01*
X77682Y1346480D01*
X77658Y1346541D01*
X77626Y1346576D01*
X77602Y1346616D01*
X77551Y1346658D01*
X77506Y1346706D01*
X77464Y1346728D01*
X77428Y1346758D01*
X77365Y1346779D01*
X77307Y1346809D01*
X77252Y1346817D01*
X77215Y1346830D01*
X77176Y1346829D01*
X77121Y1346837D01*
X63913Y1346837D01*
X63849Y1346825D01*
X63783Y1346823D01*
X63739Y1346805D01*
X63693Y1346797D01*
X63636Y1346763D01*
X63575Y1346739D01*
X63540Y1346707D01*
X63499Y1346683D01*
X63458Y1346632D01*
X63409Y1346587D01*
X63388Y1346545D01*
X63358Y1346509D01*
X63337Y1346446D01*
X63307Y1346388D01*
X63299Y1346333D01*
X63286Y1346296D01*
X63286Y1346292D01*
X63287Y1346256D01*
X63279Y1346202D01*
X63279Y1342392D01*
X63291Y1342328D01*
X63293Y1342262D01*
X63310Y1342218D01*
X63319Y1342172D01*
X63352Y1342115D01*
X63377Y1342054D01*
X63409Y1342019D01*
X63433Y1341978D01*
X63484Y1341937D01*
X63528Y1341888D01*
X63571Y1341867D01*
X63607Y1341837D01*
X63669Y1341816D01*
X63728Y1341786D01*
X63782Y1341778D01*
X63820Y1341765D01*
X63859Y1341766D01*
X63913Y1341758D01*
X77121Y1341758D01*
X77186Y1341770D01*
G37*
G36*
X462250Y1341770D02*
X462250Y1341770D01*
X462316Y1341772D01*
X462360Y1341789D01*
X462406Y1341798D01*
X462463Y1341831D01*
X462524Y1341856D01*
X462559Y1341888D01*
X462599Y1341912D01*
X462641Y1341963D01*
X462689Y1342007D01*
X462711Y1342050D01*
X462741Y1342086D01*
X462762Y1342148D01*
X462792Y1342207D01*
X462800Y1342261D01*
X462813Y1342299D01*
X462812Y1342338D01*
X462820Y1342392D01*
X462820Y1346202D01*
X462808Y1346267D01*
X462806Y1346333D01*
X462788Y1346377D01*
X462780Y1346423D01*
X462746Y1346480D01*
X462722Y1346541D01*
X462690Y1346576D01*
X462666Y1346616D01*
X462615Y1346658D01*
X462570Y1346706D01*
X462528Y1346728D01*
X462492Y1346758D01*
X462429Y1346779D01*
X462371Y1346809D01*
X462316Y1346817D01*
X462279Y1346830D01*
X462240Y1346829D01*
X462185Y1346837D01*
X448977Y1346837D01*
X448913Y1346825D01*
X448847Y1346823D01*
X448803Y1346805D01*
X448757Y1346797D01*
X448700Y1346763D01*
X448639Y1346739D01*
X448604Y1346707D01*
X448563Y1346683D01*
X448522Y1346632D01*
X448473Y1346587D01*
X448452Y1346545D01*
X448422Y1346509D01*
X448401Y1346446D01*
X448371Y1346388D01*
X448363Y1346333D01*
X448350Y1346296D01*
X448350Y1346292D01*
X448351Y1346256D01*
X448343Y1346202D01*
X448343Y1342392D01*
X448355Y1342328D01*
X448357Y1342262D01*
X448374Y1342218D01*
X448383Y1342172D01*
X448416Y1342115D01*
X448441Y1342054D01*
X448473Y1342019D01*
X448497Y1341978D01*
X448548Y1341937D01*
X448592Y1341888D01*
X448635Y1341867D01*
X448671Y1341837D01*
X448733Y1341816D01*
X448792Y1341786D01*
X448846Y1341778D01*
X448884Y1341765D01*
X448923Y1341766D01*
X448977Y1341758D01*
X462185Y1341758D01*
X462250Y1341770D01*
G37*
G36*
X701250Y67472D02*
X701250Y67472D01*
X701316Y67474D01*
X701360Y67492D01*
X701406Y67500D01*
X701463Y67534D01*
X701524Y67559D01*
X701559Y67590D01*
X701599Y67615D01*
X701641Y67666D01*
X701689Y67710D01*
X701711Y67752D01*
X701741Y67789D01*
X701762Y67851D01*
X701792Y67910D01*
X701800Y67964D01*
X701813Y68001D01*
X701812Y68041D01*
X701820Y68095D01*
X701820Y71905D01*
X701808Y71970D01*
X701806Y72036D01*
X701788Y72079D01*
X701780Y72126D01*
X701746Y72183D01*
X701722Y72243D01*
X701690Y72278D01*
X701666Y72319D01*
X701615Y72361D01*
X701570Y72409D01*
X701528Y72431D01*
X701492Y72460D01*
X701429Y72481D01*
X701371Y72512D01*
X701316Y72520D01*
X701279Y72532D01*
X701240Y72531D01*
X701185Y72539D01*
X687977Y72539D01*
X687913Y72528D01*
X687847Y72526D01*
X687803Y72508D01*
X687757Y72500D01*
X687700Y72466D01*
X687639Y72441D01*
X687604Y72410D01*
X687563Y72385D01*
X687522Y72334D01*
X687473Y72290D01*
X687452Y72248D01*
X687422Y72211D01*
X687401Y72149D01*
X687371Y72090D01*
X687363Y72036D01*
X687350Y71999D01*
X687350Y71995D01*
X687350Y71994D01*
X687351Y71959D01*
X687343Y71905D01*
X687343Y68095D01*
X687355Y68030D01*
X687357Y67964D01*
X687374Y67921D01*
X687383Y67874D01*
X687416Y67817D01*
X687441Y67757D01*
X687473Y67722D01*
X687497Y67681D01*
X687548Y67640D01*
X687592Y67591D01*
X687635Y67569D01*
X687671Y67540D01*
X687733Y67519D01*
X687792Y67488D01*
X687846Y67480D01*
X687884Y67468D01*
X687923Y67469D01*
X687977Y67461D01*
X701185Y67461D01*
X701250Y67472D01*
G37*
G36*
X1086314Y67472D02*
X1086314Y67472D01*
X1086380Y67474D01*
X1086424Y67492D01*
X1086470Y67500D01*
X1086527Y67534D01*
X1086588Y67559D01*
X1086623Y67590D01*
X1086663Y67615D01*
X1086705Y67666D01*
X1086753Y67710D01*
X1086775Y67752D01*
X1086805Y67789D01*
X1086826Y67851D01*
X1086856Y67910D01*
X1086864Y67964D01*
X1086877Y68001D01*
X1086876Y68041D01*
X1086884Y68095D01*
X1086884Y71905D01*
X1086872Y71970D01*
X1086870Y72036D01*
X1086852Y72079D01*
X1086844Y72126D01*
X1086810Y72183D01*
X1086786Y72243D01*
X1086754Y72278D01*
X1086730Y72319D01*
X1086679Y72361D01*
X1086634Y72409D01*
X1086592Y72431D01*
X1086556Y72460D01*
X1086493Y72481D01*
X1086435Y72512D01*
X1086380Y72520D01*
X1086343Y72532D01*
X1086304Y72531D01*
X1086249Y72539D01*
X1073041Y72539D01*
X1072977Y72528D01*
X1072911Y72526D01*
X1072867Y72508D01*
X1072821Y72500D01*
X1072764Y72466D01*
X1072703Y72441D01*
X1072668Y72410D01*
X1072627Y72385D01*
X1072586Y72334D01*
X1072537Y72290D01*
X1072516Y72248D01*
X1072486Y72211D01*
X1072465Y72149D01*
X1072435Y72090D01*
X1072427Y72036D01*
X1072414Y71999D01*
X1072414Y71995D01*
X1072414Y71994D01*
X1072415Y71959D01*
X1072407Y71905D01*
X1072407Y68095D01*
X1072419Y68030D01*
X1072421Y67964D01*
X1072438Y67921D01*
X1072447Y67874D01*
X1072480Y67817D01*
X1072505Y67757D01*
X1072537Y67722D01*
X1072561Y67681D01*
X1072612Y67640D01*
X1072656Y67591D01*
X1072699Y67569D01*
X1072735Y67540D01*
X1072797Y67519D01*
X1072856Y67488D01*
X1072910Y67480D01*
X1072948Y67468D01*
X1072987Y67469D01*
X1073041Y67461D01*
X1086249Y67461D01*
X1086314Y67472D01*
G37*
G36*
X316161Y67472D02*
X316161Y67472D01*
X316227Y67474D01*
X316270Y67492D01*
X316317Y67500D01*
X316374Y67534D01*
X316434Y67559D01*
X316469Y67590D01*
X316510Y67615D01*
X316552Y67666D01*
X316600Y67710D01*
X316622Y67752D01*
X316651Y67789D01*
X316672Y67851D01*
X316703Y67910D01*
X316711Y67964D01*
X316723Y68001D01*
X316722Y68041D01*
X316730Y68095D01*
X316730Y71905D01*
X316719Y71970D01*
X316717Y72036D01*
X316699Y72079D01*
X316691Y72126D01*
X316657Y72183D01*
X316632Y72243D01*
X316601Y72278D01*
X316576Y72319D01*
X316525Y72361D01*
X316481Y72409D01*
X316439Y72431D01*
X316402Y72460D01*
X316340Y72481D01*
X316281Y72512D01*
X316227Y72520D01*
X316190Y72532D01*
X316150Y72531D01*
X316096Y72539D01*
X302888Y72539D01*
X302823Y72528D01*
X302757Y72526D01*
X302714Y72508D01*
X302667Y72500D01*
X302610Y72466D01*
X302550Y72441D01*
X302515Y72410D01*
X302474Y72385D01*
X302433Y72334D01*
X302384Y72290D01*
X302362Y72248D01*
X302333Y72211D01*
X302312Y72149D01*
X302281Y72090D01*
X302273Y72036D01*
X302261Y71999D01*
X302261Y71995D01*
X302261Y71994D01*
X302262Y71959D01*
X302254Y71905D01*
X302254Y68095D01*
X302265Y68030D01*
X302267Y67964D01*
X302285Y67921D01*
X302293Y67874D01*
X302327Y67817D01*
X302352Y67757D01*
X302383Y67722D01*
X302408Y67681D01*
X302459Y67640D01*
X302503Y67591D01*
X302545Y67569D01*
X302582Y67540D01*
X302644Y67519D01*
X302703Y67488D01*
X302757Y67480D01*
X302794Y67468D01*
X302834Y67469D01*
X302888Y67461D01*
X316096Y67461D01*
X316161Y67472D01*
G37*
G36*
X847340Y1341770D02*
X847340Y1341770D01*
X847405Y1341772D01*
X847449Y1341789D01*
X847496Y1341798D01*
X847552Y1341831D01*
X847613Y1341856D01*
X847648Y1341888D01*
X847689Y1341912D01*
X847730Y1341963D01*
X847779Y1342007D01*
X847800Y1342050D01*
X847830Y1342086D01*
X847851Y1342148D01*
X847881Y1342207D01*
X847890Y1342261D01*
X847902Y1342299D01*
X847901Y1342338D01*
X847909Y1342392D01*
X847909Y1346202D01*
X847897Y1346267D01*
X847895Y1346333D01*
X847878Y1346377D01*
X847869Y1346423D01*
X847836Y1346480D01*
X847811Y1346541D01*
X847779Y1346576D01*
X847755Y1346616D01*
X847704Y1346658D01*
X847660Y1346706D01*
X847618Y1346728D01*
X847581Y1346758D01*
X847519Y1346779D01*
X847460Y1346809D01*
X847406Y1346817D01*
X847369Y1346830D01*
X847329Y1346829D01*
X847275Y1346837D01*
X834067Y1346837D01*
X834002Y1346825D01*
X833936Y1346823D01*
X833893Y1346805D01*
X833846Y1346797D01*
X833789Y1346763D01*
X833728Y1346739D01*
X833694Y1346707D01*
X833653Y1346683D01*
X833611Y1346632D01*
X833563Y1346587D01*
X833541Y1346545D01*
X833511Y1346509D01*
X833490Y1346446D01*
X833460Y1346388D01*
X833452Y1346333D01*
X833440Y1346296D01*
X833440Y1346292D01*
X833441Y1346256D01*
X833433Y1346202D01*
X833433Y1342392D01*
X833444Y1342328D01*
X833446Y1342262D01*
X833464Y1342218D01*
X833472Y1342172D01*
X833506Y1342115D01*
X833530Y1342054D01*
X833562Y1342019D01*
X833586Y1341978D01*
X833637Y1341937D01*
X833682Y1341888D01*
X833724Y1341867D01*
X833761Y1341837D01*
X833823Y1341816D01*
X833881Y1341786D01*
X833936Y1341778D01*
X833973Y1341765D01*
X834012Y1341766D01*
X834067Y1341758D01*
X847275Y1341758D01*
X847340Y1341770D01*
G37*
G36*
X312487Y877071D02*
X312487Y877071D01*
X312553Y877073D01*
X312597Y877090D01*
X312643Y877099D01*
X312700Y877132D01*
X312761Y877157D01*
X312796Y877189D01*
X312836Y877213D01*
X312878Y877264D01*
X312926Y877308D01*
X312948Y877351D01*
X312978Y877387D01*
X312999Y877449D01*
X313029Y877508D01*
X313037Y877562D01*
X313050Y877600D01*
X313049Y877639D01*
X313057Y877693D01*
X313057Y890901D01*
X313045Y890966D01*
X313043Y891032D01*
X313025Y891076D01*
X313017Y891122D01*
X312983Y891179D01*
X312959Y891240D01*
X312927Y891275D01*
X312903Y891315D01*
X312852Y891357D01*
X312807Y891405D01*
X312765Y891427D01*
X312729Y891457D01*
X312666Y891478D01*
X312608Y891508D01*
X312553Y891516D01*
X312516Y891529D01*
X312477Y891528D01*
X312422Y891536D01*
X308612Y891536D01*
X308548Y891524D01*
X308482Y891522D01*
X308438Y891504D01*
X308392Y891496D01*
X308335Y891462D01*
X308274Y891438D01*
X308239Y891406D01*
X308198Y891382D01*
X308157Y891331D01*
X308108Y891286D01*
X308087Y891244D01*
X308057Y891208D01*
X308036Y891145D01*
X308006Y891087D01*
X307998Y891032D01*
X307985Y890995D01*
X307986Y890956D01*
X307978Y890901D01*
X307978Y877693D01*
X307990Y877629D01*
X307992Y877563D01*
X308009Y877519D01*
X308018Y877473D01*
X308051Y877416D01*
X308076Y877355D01*
X308108Y877320D01*
X308132Y877279D01*
X308183Y877238D01*
X308227Y877189D01*
X308270Y877168D01*
X308306Y877138D01*
X308368Y877117D01*
X308427Y877087D01*
X308481Y877079D01*
X308519Y877066D01*
X308558Y877067D01*
X308612Y877059D01*
X312422Y877059D01*
X312487Y877071D01*
G37*
G36*
X1082641Y877071D02*
X1082641Y877071D01*
X1082706Y877073D01*
X1082750Y877090D01*
X1082797Y877099D01*
X1082853Y877132D01*
X1082914Y877157D01*
X1082949Y877189D01*
X1082990Y877213D01*
X1083031Y877264D01*
X1083080Y877308D01*
X1083101Y877351D01*
X1083131Y877387D01*
X1083152Y877449D01*
X1083182Y877508D01*
X1083191Y877562D01*
X1083203Y877600D01*
X1083202Y877639D01*
X1083210Y877693D01*
X1083210Y890901D01*
X1083198Y890966D01*
X1083196Y891032D01*
X1083179Y891076D01*
X1083170Y891122D01*
X1083137Y891179D01*
X1083112Y891240D01*
X1083080Y891275D01*
X1083056Y891315D01*
X1083005Y891357D01*
X1082961Y891405D01*
X1082919Y891427D01*
X1082882Y891457D01*
X1082820Y891478D01*
X1082761Y891508D01*
X1082707Y891516D01*
X1082670Y891529D01*
X1082630Y891528D01*
X1082576Y891536D01*
X1078766Y891536D01*
X1078701Y891524D01*
X1078635Y891522D01*
X1078592Y891504D01*
X1078545Y891496D01*
X1078488Y891462D01*
X1078427Y891438D01*
X1078393Y891406D01*
X1078352Y891382D01*
X1078310Y891331D01*
X1078262Y891286D01*
X1078240Y891244D01*
X1078210Y891208D01*
X1078189Y891145D01*
X1078159Y891087D01*
X1078151Y891032D01*
X1078139Y890995D01*
X1078140Y890956D01*
X1078132Y890901D01*
X1078132Y877693D01*
X1078143Y877629D01*
X1078145Y877563D01*
X1078163Y877519D01*
X1078171Y877473D01*
X1078205Y877416D01*
X1078229Y877355D01*
X1078261Y877320D01*
X1078285Y877279D01*
X1078336Y877238D01*
X1078381Y877189D01*
X1078423Y877168D01*
X1078460Y877138D01*
X1078522Y877117D01*
X1078580Y877087D01*
X1078635Y877079D01*
X1078672Y877066D01*
X1078711Y877067D01*
X1078766Y877059D01*
X1082576Y877059D01*
X1082641Y877071D01*
G37*
G36*
X697551Y877071D02*
X697551Y877071D01*
X697617Y877073D01*
X697661Y877090D01*
X697707Y877099D01*
X697764Y877132D01*
X697825Y877157D01*
X697860Y877189D01*
X697900Y877213D01*
X697942Y877264D01*
X697990Y877308D01*
X698012Y877351D01*
X698042Y877387D01*
X698063Y877449D01*
X698093Y877508D01*
X698101Y877562D01*
X698114Y877600D01*
X698113Y877639D01*
X698121Y877693D01*
X698121Y890901D01*
X698109Y890966D01*
X698107Y891032D01*
X698089Y891076D01*
X698081Y891122D01*
X698047Y891179D01*
X698023Y891240D01*
X697991Y891275D01*
X697967Y891315D01*
X697916Y891357D01*
X697871Y891405D01*
X697829Y891427D01*
X697793Y891457D01*
X697730Y891478D01*
X697672Y891508D01*
X697617Y891516D01*
X697580Y891529D01*
X697541Y891528D01*
X697486Y891536D01*
X693676Y891536D01*
X693612Y891524D01*
X693546Y891522D01*
X693502Y891504D01*
X693456Y891496D01*
X693399Y891462D01*
X693338Y891438D01*
X693303Y891406D01*
X693262Y891382D01*
X693221Y891331D01*
X693172Y891286D01*
X693151Y891244D01*
X693121Y891208D01*
X693100Y891145D01*
X693070Y891087D01*
X693062Y891032D01*
X693049Y890995D01*
X693050Y890956D01*
X693042Y890901D01*
X693042Y877693D01*
X693054Y877629D01*
X693056Y877563D01*
X693073Y877519D01*
X693082Y877473D01*
X693115Y877416D01*
X693140Y877355D01*
X693172Y877320D01*
X693196Y877279D01*
X693247Y877238D01*
X693291Y877189D01*
X693334Y877168D01*
X693370Y877138D01*
X693432Y877117D01*
X693491Y877087D01*
X693545Y877079D01*
X693583Y877066D01*
X693622Y877067D01*
X693676Y877059D01*
X697486Y877059D01*
X697551Y877071D01*
G37*
G36*
X697551Y907071D02*
X697551Y907071D01*
X697617Y907073D01*
X697661Y907090D01*
X697707Y907099D01*
X697764Y907132D01*
X697825Y907157D01*
X697860Y907189D01*
X697900Y907213D01*
X697942Y907264D01*
X697990Y907308D01*
X698012Y907351D01*
X698042Y907387D01*
X698063Y907449D01*
X698093Y907508D01*
X698101Y907562D01*
X698114Y907600D01*
X698113Y907639D01*
X698121Y907693D01*
X698121Y920901D01*
X698109Y920966D01*
X698107Y921032D01*
X698089Y921076D01*
X698081Y921122D01*
X698047Y921179D01*
X698023Y921240D01*
X697991Y921275D01*
X697967Y921315D01*
X697916Y921357D01*
X697871Y921405D01*
X697829Y921427D01*
X697793Y921457D01*
X697730Y921478D01*
X697672Y921508D01*
X697617Y921516D01*
X697580Y921529D01*
X697541Y921528D01*
X697486Y921536D01*
X693676Y921536D01*
X693612Y921524D01*
X693546Y921522D01*
X693502Y921504D01*
X693456Y921496D01*
X693399Y921462D01*
X693338Y921438D01*
X693303Y921406D01*
X693262Y921382D01*
X693221Y921331D01*
X693172Y921286D01*
X693151Y921244D01*
X693121Y921208D01*
X693100Y921145D01*
X693070Y921087D01*
X693062Y921032D01*
X693049Y920995D01*
X693050Y920956D01*
X693042Y920901D01*
X693042Y907693D01*
X693054Y907629D01*
X693056Y907563D01*
X693073Y907519D01*
X693082Y907473D01*
X693115Y907416D01*
X693140Y907355D01*
X693172Y907320D01*
X693196Y907279D01*
X693247Y907238D01*
X693291Y907189D01*
X693334Y907168D01*
X693370Y907138D01*
X693432Y907117D01*
X693491Y907087D01*
X693545Y907079D01*
X693583Y907066D01*
X693622Y907067D01*
X693676Y907059D01*
X697486Y907059D01*
X697551Y907071D01*
G37*
G36*
X841615Y522773D02*
X841615Y522773D01*
X841681Y522775D01*
X841725Y522793D01*
X841771Y522801D01*
X841828Y522835D01*
X841889Y522860D01*
X841924Y522891D01*
X841964Y522916D01*
X842006Y522967D01*
X842054Y523011D01*
X842076Y523053D01*
X842106Y523090D01*
X842127Y523152D01*
X842157Y523211D01*
X842165Y523265D01*
X842178Y523302D01*
X842177Y523342D01*
X842185Y523396D01*
X842185Y536604D01*
X842173Y536669D01*
X842171Y536735D01*
X842153Y536778D01*
X842145Y536825D01*
X842111Y536882D01*
X842087Y536942D01*
X842055Y536977D01*
X842031Y537018D01*
X841980Y537060D01*
X841935Y537108D01*
X841893Y537130D01*
X841857Y537159D01*
X841794Y537180D01*
X841736Y537211D01*
X841681Y537219D01*
X841644Y537231D01*
X841605Y537230D01*
X841550Y537238D01*
X837740Y537238D01*
X837676Y537227D01*
X837610Y537225D01*
X837566Y537207D01*
X837520Y537199D01*
X837463Y537165D01*
X837402Y537140D01*
X837367Y537109D01*
X837326Y537084D01*
X837285Y537033D01*
X837236Y536989D01*
X837215Y536947D01*
X837185Y536910D01*
X837164Y536848D01*
X837134Y536789D01*
X837126Y536735D01*
X837113Y536698D01*
X837114Y536658D01*
X837106Y536604D01*
X837106Y523396D01*
X837118Y523331D01*
X837120Y523265D01*
X837137Y523222D01*
X837146Y523175D01*
X837179Y523118D01*
X837204Y523058D01*
X837236Y523023D01*
X837260Y522982D01*
X837311Y522941D01*
X837355Y522892D01*
X837398Y522870D01*
X837434Y522841D01*
X837496Y522820D01*
X837555Y522789D01*
X837609Y522781D01*
X837647Y522769D01*
X837686Y522770D01*
X837740Y522762D01*
X841550Y522762D01*
X841615Y522773D01*
G37*
G36*
X71462Y492773D02*
X71462Y492773D01*
X71528Y492775D01*
X71571Y492793D01*
X71618Y492801D01*
X71675Y492835D01*
X71735Y492860D01*
X71770Y492891D01*
X71811Y492916D01*
X71853Y492967D01*
X71901Y493011D01*
X71923Y493053D01*
X71952Y493090D01*
X71973Y493152D01*
X72004Y493211D01*
X72012Y493265D01*
X72024Y493302D01*
X72023Y493342D01*
X72031Y493396D01*
X72031Y506604D01*
X72020Y506669D01*
X72018Y506735D01*
X72000Y506778D01*
X71992Y506825D01*
X71958Y506882D01*
X71933Y506942D01*
X71902Y506977D01*
X71877Y507018D01*
X71826Y507060D01*
X71782Y507108D01*
X71740Y507130D01*
X71703Y507159D01*
X71641Y507180D01*
X71582Y507211D01*
X71528Y507219D01*
X71491Y507231D01*
X71451Y507230D01*
X71397Y507238D01*
X67587Y507238D01*
X67522Y507227D01*
X67456Y507225D01*
X67413Y507207D01*
X67366Y507199D01*
X67309Y507165D01*
X67249Y507140D01*
X67214Y507109D01*
X67173Y507084D01*
X67132Y507033D01*
X67083Y506989D01*
X67061Y506947D01*
X67032Y506910D01*
X67011Y506848D01*
X66980Y506789D01*
X66972Y506735D01*
X66960Y506698D01*
X66961Y506658D01*
X66953Y506604D01*
X66953Y493396D01*
X66964Y493331D01*
X66966Y493265D01*
X66984Y493222D01*
X66992Y493175D01*
X67026Y493118D01*
X67051Y493058D01*
X67082Y493023D01*
X67107Y492982D01*
X67158Y492941D01*
X67202Y492892D01*
X67244Y492870D01*
X67281Y492841D01*
X67343Y492820D01*
X67402Y492789D01*
X67456Y492781D01*
X67493Y492769D01*
X67533Y492770D01*
X67587Y492762D01*
X71397Y492762D01*
X71462Y492773D01*
G37*
G36*
X841615Y492773D02*
X841615Y492773D01*
X841681Y492775D01*
X841725Y492793D01*
X841771Y492801D01*
X841828Y492835D01*
X841889Y492860D01*
X841924Y492891D01*
X841964Y492916D01*
X842006Y492967D01*
X842054Y493011D01*
X842076Y493053D01*
X842106Y493090D01*
X842127Y493152D01*
X842157Y493211D01*
X842165Y493265D01*
X842178Y493302D01*
X842177Y493342D01*
X842185Y493396D01*
X842185Y506604D01*
X842173Y506669D01*
X842171Y506735D01*
X842153Y506778D01*
X842145Y506825D01*
X842111Y506882D01*
X842087Y506942D01*
X842055Y506977D01*
X842031Y507018D01*
X841980Y507060D01*
X841935Y507108D01*
X841893Y507130D01*
X841857Y507159D01*
X841794Y507180D01*
X841736Y507211D01*
X841681Y507219D01*
X841644Y507231D01*
X841605Y507230D01*
X841550Y507238D01*
X837740Y507238D01*
X837676Y507227D01*
X837610Y507225D01*
X837566Y507207D01*
X837520Y507199D01*
X837463Y507165D01*
X837402Y507140D01*
X837367Y507109D01*
X837326Y507084D01*
X837285Y507033D01*
X837236Y506989D01*
X837215Y506947D01*
X837185Y506910D01*
X837164Y506848D01*
X837134Y506789D01*
X837126Y506735D01*
X837113Y506698D01*
X837114Y506658D01*
X837106Y506604D01*
X837106Y493396D01*
X837118Y493331D01*
X837120Y493265D01*
X837137Y493222D01*
X837146Y493175D01*
X837179Y493118D01*
X837204Y493058D01*
X837236Y493023D01*
X837260Y492982D01*
X837311Y492941D01*
X837355Y492892D01*
X837398Y492870D01*
X837434Y492841D01*
X837496Y492820D01*
X837555Y492789D01*
X837609Y492781D01*
X837647Y492769D01*
X837686Y492770D01*
X837740Y492762D01*
X841550Y492762D01*
X841615Y492773D01*
G37*
G36*
X456551Y492773D02*
X456551Y492773D01*
X456617Y492775D01*
X456661Y492793D01*
X456707Y492801D01*
X456764Y492835D01*
X456825Y492860D01*
X456860Y492891D01*
X456900Y492916D01*
X456942Y492967D01*
X456990Y493011D01*
X457012Y493053D01*
X457042Y493090D01*
X457063Y493152D01*
X457093Y493211D01*
X457101Y493265D01*
X457114Y493302D01*
X457113Y493342D01*
X457121Y493396D01*
X457121Y506604D01*
X457109Y506669D01*
X457107Y506735D01*
X457089Y506778D01*
X457081Y506825D01*
X457047Y506882D01*
X457023Y506942D01*
X456991Y506977D01*
X456967Y507018D01*
X456916Y507060D01*
X456871Y507108D01*
X456829Y507130D01*
X456793Y507159D01*
X456730Y507180D01*
X456672Y507211D01*
X456617Y507219D01*
X456580Y507231D01*
X456541Y507230D01*
X456486Y507238D01*
X452676Y507238D01*
X452612Y507227D01*
X452546Y507225D01*
X452502Y507207D01*
X452456Y507199D01*
X452399Y507165D01*
X452338Y507140D01*
X452303Y507109D01*
X452262Y507084D01*
X452221Y507033D01*
X452172Y506989D01*
X452151Y506947D01*
X452121Y506910D01*
X452100Y506848D01*
X452070Y506789D01*
X452062Y506735D01*
X452049Y506698D01*
X452050Y506658D01*
X452042Y506604D01*
X452042Y493396D01*
X452054Y493331D01*
X452056Y493265D01*
X452073Y493222D01*
X452082Y493175D01*
X452115Y493118D01*
X452140Y493058D01*
X452172Y493023D01*
X452196Y492982D01*
X452247Y492941D01*
X452291Y492892D01*
X452334Y492870D01*
X452370Y492841D01*
X452432Y492820D01*
X452491Y492789D01*
X452545Y492781D01*
X452583Y492769D01*
X452622Y492770D01*
X452676Y492762D01*
X456486Y492762D01*
X456551Y492773D01*
G37*
G36*
X456551Y522773D02*
X456551Y522773D01*
X456617Y522775D01*
X456661Y522793D01*
X456707Y522801D01*
X456764Y522835D01*
X456825Y522860D01*
X456860Y522891D01*
X456900Y522916D01*
X456942Y522967D01*
X456990Y523011D01*
X457012Y523053D01*
X457042Y523090D01*
X457063Y523152D01*
X457093Y523211D01*
X457101Y523265D01*
X457114Y523302D01*
X457113Y523342D01*
X457121Y523396D01*
X457121Y536604D01*
X457109Y536669D01*
X457107Y536735D01*
X457089Y536778D01*
X457081Y536825D01*
X457047Y536882D01*
X457023Y536942D01*
X456991Y536977D01*
X456967Y537018D01*
X456916Y537060D01*
X456871Y537108D01*
X456829Y537130D01*
X456793Y537159D01*
X456730Y537180D01*
X456672Y537211D01*
X456617Y537219D01*
X456580Y537231D01*
X456541Y537230D01*
X456486Y537238D01*
X452676Y537238D01*
X452612Y537227D01*
X452546Y537225D01*
X452502Y537207D01*
X452456Y537199D01*
X452399Y537165D01*
X452338Y537140D01*
X452303Y537109D01*
X452262Y537084D01*
X452221Y537033D01*
X452172Y536989D01*
X452151Y536947D01*
X452121Y536910D01*
X452100Y536848D01*
X452070Y536789D01*
X452062Y536735D01*
X452049Y536698D01*
X452050Y536658D01*
X452042Y536604D01*
X452042Y523396D01*
X452054Y523331D01*
X452056Y523265D01*
X452073Y523222D01*
X452082Y523175D01*
X452115Y523118D01*
X452140Y523058D01*
X452172Y523023D01*
X452196Y522982D01*
X452247Y522941D01*
X452291Y522892D01*
X452334Y522870D01*
X452370Y522841D01*
X452432Y522820D01*
X452491Y522789D01*
X452545Y522781D01*
X452583Y522769D01*
X452622Y522770D01*
X452676Y522762D01*
X456486Y522762D01*
X456551Y522773D01*
G37*
G36*
X71462Y522773D02*
X71462Y522773D01*
X71528Y522775D01*
X71571Y522793D01*
X71618Y522801D01*
X71675Y522835D01*
X71735Y522860D01*
X71770Y522891D01*
X71811Y522916D01*
X71853Y522967D01*
X71901Y523011D01*
X71923Y523053D01*
X71952Y523090D01*
X71973Y523152D01*
X72004Y523211D01*
X72012Y523265D01*
X72024Y523302D01*
X72023Y523342D01*
X72031Y523396D01*
X72031Y536604D01*
X72020Y536669D01*
X72018Y536735D01*
X72000Y536778D01*
X71992Y536825D01*
X71958Y536882D01*
X71933Y536942D01*
X71902Y536977D01*
X71877Y537018D01*
X71826Y537060D01*
X71782Y537108D01*
X71740Y537130D01*
X71703Y537159D01*
X71641Y537180D01*
X71582Y537211D01*
X71528Y537219D01*
X71491Y537231D01*
X71451Y537230D01*
X71397Y537238D01*
X67587Y537238D01*
X67522Y537227D01*
X67456Y537225D01*
X67413Y537207D01*
X67366Y537199D01*
X67309Y537165D01*
X67249Y537140D01*
X67214Y537109D01*
X67173Y537084D01*
X67132Y537033D01*
X67083Y536989D01*
X67061Y536947D01*
X67032Y536910D01*
X67011Y536848D01*
X66980Y536789D01*
X66972Y536735D01*
X66960Y536698D01*
X66961Y536658D01*
X66953Y536604D01*
X66953Y523396D01*
X66964Y523331D01*
X66966Y523265D01*
X66984Y523222D01*
X66992Y523175D01*
X67026Y523118D01*
X67051Y523058D01*
X67082Y523023D01*
X67107Y522982D01*
X67158Y522941D01*
X67202Y522892D01*
X67244Y522870D01*
X67281Y522841D01*
X67343Y522820D01*
X67402Y522789D01*
X67456Y522781D01*
X67493Y522769D01*
X67533Y522770D01*
X67587Y522762D01*
X71397Y522762D01*
X71462Y522773D01*
G37*
G36*
X1082641Y907071D02*
X1082641Y907071D01*
X1082706Y907073D01*
X1082750Y907090D01*
X1082797Y907099D01*
X1082853Y907132D01*
X1082914Y907157D01*
X1082949Y907189D01*
X1082990Y907213D01*
X1083031Y907264D01*
X1083080Y907308D01*
X1083101Y907351D01*
X1083131Y907387D01*
X1083152Y907449D01*
X1083182Y907508D01*
X1083191Y907562D01*
X1083203Y907600D01*
X1083202Y907639D01*
X1083210Y907693D01*
X1083210Y920901D01*
X1083198Y920966D01*
X1083196Y921032D01*
X1083179Y921076D01*
X1083170Y921122D01*
X1083137Y921179D01*
X1083112Y921240D01*
X1083080Y921275D01*
X1083056Y921315D01*
X1083005Y921357D01*
X1082961Y921405D01*
X1082919Y921427D01*
X1082882Y921457D01*
X1082820Y921478D01*
X1082761Y921508D01*
X1082707Y921516D01*
X1082670Y921529D01*
X1082630Y921528D01*
X1082576Y921536D01*
X1078766Y921536D01*
X1078701Y921524D01*
X1078635Y921522D01*
X1078592Y921504D01*
X1078545Y921496D01*
X1078488Y921462D01*
X1078427Y921438D01*
X1078393Y921406D01*
X1078352Y921382D01*
X1078310Y921331D01*
X1078262Y921286D01*
X1078240Y921244D01*
X1078210Y921208D01*
X1078189Y921145D01*
X1078159Y921087D01*
X1078151Y921032D01*
X1078139Y920995D01*
X1078140Y920956D01*
X1078132Y920901D01*
X1078132Y907693D01*
X1078143Y907629D01*
X1078145Y907563D01*
X1078163Y907519D01*
X1078171Y907473D01*
X1078205Y907416D01*
X1078229Y907355D01*
X1078261Y907320D01*
X1078285Y907279D01*
X1078336Y907238D01*
X1078381Y907189D01*
X1078423Y907168D01*
X1078460Y907138D01*
X1078522Y907117D01*
X1078580Y907087D01*
X1078635Y907079D01*
X1078672Y907066D01*
X1078711Y907067D01*
X1078766Y907059D01*
X1082576Y907059D01*
X1082641Y907071D01*
G37*
G36*
X312487Y907071D02*
X312487Y907071D01*
X312553Y907073D01*
X312597Y907090D01*
X312643Y907099D01*
X312700Y907132D01*
X312761Y907157D01*
X312796Y907189D01*
X312836Y907213D01*
X312878Y907264D01*
X312926Y907308D01*
X312948Y907351D01*
X312978Y907387D01*
X312999Y907449D01*
X313029Y907508D01*
X313037Y907562D01*
X313050Y907600D01*
X313049Y907639D01*
X313057Y907693D01*
X313057Y920901D01*
X313045Y920966D01*
X313043Y921032D01*
X313025Y921076D01*
X313017Y921122D01*
X312983Y921179D01*
X312959Y921240D01*
X312927Y921275D01*
X312903Y921315D01*
X312852Y921357D01*
X312807Y921405D01*
X312765Y921427D01*
X312729Y921457D01*
X312666Y921478D01*
X312608Y921508D01*
X312553Y921516D01*
X312516Y921529D01*
X312477Y921528D01*
X312422Y921536D01*
X308612Y921536D01*
X308548Y921524D01*
X308482Y921522D01*
X308438Y921504D01*
X308392Y921496D01*
X308335Y921462D01*
X308274Y921438D01*
X308239Y921406D01*
X308198Y921382D01*
X308157Y921331D01*
X308108Y921286D01*
X308087Y921244D01*
X308057Y921208D01*
X308036Y921145D01*
X308006Y921087D01*
X307998Y921032D01*
X307985Y920995D01*
X307986Y920956D01*
X307978Y920901D01*
X307978Y907693D01*
X307990Y907629D01*
X307992Y907563D01*
X308009Y907519D01*
X308018Y907473D01*
X308051Y907416D01*
X308076Y907355D01*
X308108Y907320D01*
X308132Y907279D01*
X308183Y907238D01*
X308227Y907189D01*
X308270Y907168D01*
X308306Y907138D01*
X308368Y907117D01*
X308427Y907087D01*
X308481Y907079D01*
X308519Y907066D01*
X308558Y907067D01*
X308612Y907059D01*
X312422Y907059D01*
X312487Y907071D01*
G37*
G36*
X41852Y1341770D02*
X41852Y1341770D01*
X41918Y1341772D01*
X41962Y1341789D01*
X42008Y1341798D01*
X42065Y1341831D01*
X42126Y1341856D01*
X42161Y1341888D01*
X42201Y1341912D01*
X42243Y1341963D01*
X42291Y1342007D01*
X42313Y1342050D01*
X42343Y1342086D01*
X42364Y1342148D01*
X42394Y1342207D01*
X42402Y1342261D01*
X42415Y1342299D01*
X42414Y1342338D01*
X42422Y1342392D01*
X42422Y1346202D01*
X42410Y1346267D01*
X42408Y1346333D01*
X42390Y1346377D01*
X42382Y1346423D01*
X42348Y1346480D01*
X42324Y1346541D01*
X42292Y1346576D01*
X42268Y1346616D01*
X42217Y1346658D01*
X42172Y1346706D01*
X42130Y1346728D01*
X42094Y1346758D01*
X42031Y1346779D01*
X41973Y1346809D01*
X41918Y1346817D01*
X41881Y1346830D01*
X41842Y1346829D01*
X41787Y1346837D01*
X39247Y1346837D01*
X39183Y1346825D01*
X39117Y1346823D01*
X39073Y1346805D01*
X39027Y1346797D01*
X38970Y1346763D01*
X38909Y1346739D01*
X38874Y1346707D01*
X38833Y1346683D01*
X38792Y1346632D01*
X38743Y1346587D01*
X38722Y1346545D01*
X38692Y1346509D01*
X38671Y1346446D01*
X38641Y1346388D01*
X38633Y1346333D01*
X38620Y1346296D01*
X38620Y1346292D01*
X38621Y1346256D01*
X38613Y1346202D01*
X38613Y1342392D01*
X38625Y1342328D01*
X38627Y1342262D01*
X38644Y1342218D01*
X38653Y1342172D01*
X38686Y1342115D01*
X38711Y1342054D01*
X38743Y1342019D01*
X38767Y1341978D01*
X38818Y1341937D01*
X38862Y1341888D01*
X38905Y1341867D01*
X38941Y1341837D01*
X39003Y1341816D01*
X39062Y1341786D01*
X39116Y1341778D01*
X39154Y1341765D01*
X39193Y1341766D01*
X39247Y1341758D01*
X41787Y1341758D01*
X41852Y1341770D01*
G37*
G36*
X812006Y1341770D02*
X812006Y1341770D01*
X812071Y1341772D01*
X812115Y1341789D01*
X812162Y1341798D01*
X812218Y1341831D01*
X812279Y1341856D01*
X812314Y1341888D01*
X812355Y1341912D01*
X812396Y1341963D01*
X812445Y1342007D01*
X812466Y1342050D01*
X812496Y1342086D01*
X812517Y1342148D01*
X812547Y1342207D01*
X812556Y1342261D01*
X812568Y1342299D01*
X812567Y1342338D01*
X812575Y1342392D01*
X812575Y1346202D01*
X812563Y1346267D01*
X812561Y1346333D01*
X812544Y1346377D01*
X812535Y1346423D01*
X812502Y1346480D01*
X812477Y1346541D01*
X812445Y1346576D01*
X812421Y1346616D01*
X812370Y1346658D01*
X812326Y1346706D01*
X812284Y1346728D01*
X812247Y1346758D01*
X812185Y1346779D01*
X812126Y1346809D01*
X812072Y1346817D01*
X812035Y1346830D01*
X811995Y1346829D01*
X811941Y1346837D01*
X809401Y1346837D01*
X809336Y1346825D01*
X809270Y1346823D01*
X809227Y1346805D01*
X809180Y1346797D01*
X809123Y1346763D01*
X809062Y1346739D01*
X809028Y1346707D01*
X808987Y1346683D01*
X808945Y1346632D01*
X808897Y1346587D01*
X808875Y1346545D01*
X808845Y1346509D01*
X808824Y1346446D01*
X808794Y1346388D01*
X808786Y1346333D01*
X808774Y1346296D01*
X808774Y1346292D01*
X808775Y1346256D01*
X808767Y1346202D01*
X808767Y1342392D01*
X808778Y1342328D01*
X808780Y1342262D01*
X808798Y1342218D01*
X808806Y1342172D01*
X808840Y1342115D01*
X808864Y1342054D01*
X808896Y1342019D01*
X808920Y1341978D01*
X808971Y1341937D01*
X809016Y1341888D01*
X809058Y1341867D01*
X809095Y1341837D01*
X809157Y1341816D01*
X809215Y1341786D01*
X809270Y1341778D01*
X809307Y1341765D01*
X809346Y1341766D01*
X809401Y1341758D01*
X811941Y1341758D01*
X812006Y1341770D01*
G37*
G36*
X426916Y1341770D02*
X426916Y1341770D01*
X426982Y1341772D01*
X427026Y1341789D01*
X427072Y1341798D01*
X427129Y1341831D01*
X427190Y1341856D01*
X427225Y1341888D01*
X427265Y1341912D01*
X427307Y1341963D01*
X427355Y1342007D01*
X427377Y1342050D01*
X427407Y1342086D01*
X427428Y1342148D01*
X427458Y1342207D01*
X427466Y1342261D01*
X427479Y1342299D01*
X427478Y1342338D01*
X427486Y1342392D01*
X427486Y1346202D01*
X427474Y1346267D01*
X427472Y1346333D01*
X427454Y1346377D01*
X427446Y1346423D01*
X427412Y1346480D01*
X427388Y1346541D01*
X427356Y1346576D01*
X427332Y1346616D01*
X427281Y1346658D01*
X427236Y1346706D01*
X427194Y1346728D01*
X427158Y1346758D01*
X427095Y1346779D01*
X427037Y1346809D01*
X426982Y1346817D01*
X426945Y1346830D01*
X426906Y1346829D01*
X426851Y1346837D01*
X424311Y1346837D01*
X424247Y1346825D01*
X424181Y1346823D01*
X424137Y1346805D01*
X424091Y1346797D01*
X424034Y1346763D01*
X423973Y1346739D01*
X423938Y1346707D01*
X423897Y1346683D01*
X423856Y1346632D01*
X423807Y1346587D01*
X423786Y1346545D01*
X423756Y1346509D01*
X423735Y1346446D01*
X423705Y1346388D01*
X423697Y1346333D01*
X423684Y1346296D01*
X423684Y1346292D01*
X423685Y1346256D01*
X423677Y1346202D01*
X423677Y1342392D01*
X423689Y1342328D01*
X423691Y1342262D01*
X423708Y1342218D01*
X423717Y1342172D01*
X423750Y1342115D01*
X423775Y1342054D01*
X423807Y1342019D01*
X423831Y1341978D01*
X423882Y1341937D01*
X423926Y1341888D01*
X423969Y1341867D01*
X424005Y1341837D01*
X424067Y1341816D01*
X424126Y1341786D01*
X424180Y1341778D01*
X424218Y1341765D01*
X424257Y1341766D01*
X424311Y1341758D01*
X426851Y1341758D01*
X426916Y1341770D01*
G37*
G36*
X822006Y811770D02*
X822006Y811770D01*
X822071Y811772D01*
X822115Y811789D01*
X822162Y811798D01*
X822218Y811831D01*
X822279Y811856D01*
X822314Y811888D01*
X822355Y811912D01*
X822396Y811963D01*
X822445Y812007D01*
X822466Y812050D01*
X822496Y812086D01*
X822517Y812148D01*
X822547Y812207D01*
X822556Y812261D01*
X822568Y812299D01*
X822567Y812338D01*
X822575Y812392D01*
X822575Y816202D01*
X822563Y816267D01*
X822561Y816333D01*
X822544Y816377D01*
X822535Y816423D01*
X822502Y816480D01*
X822477Y816541D01*
X822445Y816576D01*
X822421Y816616D01*
X822370Y816658D01*
X822326Y816706D01*
X822284Y816728D01*
X822247Y816758D01*
X822185Y816779D01*
X822126Y816809D01*
X822072Y816817D01*
X822035Y816830D01*
X821995Y816829D01*
X821941Y816837D01*
X819401Y816837D01*
X819336Y816825D01*
X819270Y816823D01*
X819227Y816805D01*
X819180Y816797D01*
X819123Y816763D01*
X819062Y816739D01*
X819028Y816707D01*
X818987Y816683D01*
X818945Y816632D01*
X818897Y816587D01*
X818875Y816545D01*
X818845Y816509D01*
X818824Y816446D01*
X818794Y816388D01*
X818786Y816333D01*
X818774Y816296D01*
X818774Y816292D01*
X818775Y816256D01*
X818767Y816202D01*
X818767Y812392D01*
X818778Y812328D01*
X818780Y812262D01*
X818798Y812218D01*
X818806Y812172D01*
X818840Y812115D01*
X818864Y812054D01*
X818896Y812019D01*
X818920Y811978D01*
X818971Y811937D01*
X819016Y811888D01*
X819058Y811867D01*
X819095Y811837D01*
X819157Y811816D01*
X819215Y811786D01*
X819270Y811778D01*
X819307Y811765D01*
X819346Y811766D01*
X819401Y811758D01*
X821941Y811758D01*
X822006Y811770D01*
G37*
G36*
X466916Y811770D02*
X466916Y811770D01*
X466982Y811772D01*
X467026Y811789D01*
X467072Y811798D01*
X467129Y811831D01*
X467190Y811856D01*
X467225Y811888D01*
X467265Y811912D01*
X467307Y811963D01*
X467355Y812007D01*
X467377Y812050D01*
X467407Y812086D01*
X467428Y812148D01*
X467458Y812207D01*
X467466Y812261D01*
X467479Y812299D01*
X467478Y812338D01*
X467486Y812392D01*
X467486Y816202D01*
X467474Y816267D01*
X467472Y816333D01*
X467454Y816377D01*
X467446Y816423D01*
X467412Y816480D01*
X467388Y816541D01*
X467356Y816576D01*
X467332Y816616D01*
X467281Y816658D01*
X467236Y816706D01*
X467194Y816728D01*
X467158Y816758D01*
X467095Y816779D01*
X467037Y816809D01*
X466982Y816817D01*
X466945Y816830D01*
X466906Y816829D01*
X466851Y816837D01*
X464311Y816837D01*
X464247Y816825D01*
X464181Y816823D01*
X464137Y816805D01*
X464091Y816797D01*
X464034Y816763D01*
X463973Y816739D01*
X463938Y816707D01*
X463897Y816683D01*
X463856Y816632D01*
X463807Y816587D01*
X463786Y816545D01*
X463756Y816509D01*
X463735Y816446D01*
X463705Y816388D01*
X463697Y816333D01*
X463684Y816296D01*
X463684Y816292D01*
X463685Y816256D01*
X463677Y816202D01*
X463677Y812392D01*
X463689Y812328D01*
X463691Y812262D01*
X463708Y812218D01*
X463717Y812172D01*
X463750Y812115D01*
X463775Y812054D01*
X463807Y812019D01*
X463831Y811978D01*
X463882Y811937D01*
X463926Y811888D01*
X463969Y811867D01*
X464005Y811837D01*
X464067Y811816D01*
X464126Y811786D01*
X464180Y811778D01*
X464218Y811765D01*
X464257Y811766D01*
X464311Y811758D01*
X466851Y811758D01*
X466916Y811770D01*
G37*
G36*
X1070980Y597472D02*
X1070980Y597472D01*
X1071046Y597474D01*
X1071090Y597492D01*
X1071136Y597500D01*
X1071193Y597534D01*
X1071254Y597559D01*
X1071289Y597590D01*
X1071329Y597615D01*
X1071371Y597666D01*
X1071419Y597710D01*
X1071441Y597752D01*
X1071471Y597789D01*
X1071492Y597851D01*
X1071522Y597910D01*
X1071530Y597964D01*
X1071543Y598001D01*
X1071542Y598041D01*
X1071550Y598095D01*
X1071550Y601905D01*
X1071538Y601970D01*
X1071536Y602036D01*
X1071518Y602079D01*
X1071510Y602126D01*
X1071476Y602183D01*
X1071452Y602243D01*
X1071420Y602278D01*
X1071396Y602319D01*
X1071345Y602361D01*
X1071300Y602409D01*
X1071258Y602431D01*
X1071222Y602460D01*
X1071159Y602481D01*
X1071101Y602512D01*
X1071046Y602520D01*
X1071009Y602532D01*
X1070970Y602531D01*
X1070915Y602539D01*
X1068375Y602539D01*
X1068311Y602528D01*
X1068245Y602526D01*
X1068201Y602508D01*
X1068155Y602500D01*
X1068098Y602466D01*
X1068037Y602441D01*
X1068002Y602410D01*
X1067961Y602385D01*
X1067920Y602334D01*
X1067871Y602290D01*
X1067850Y602248D01*
X1067820Y602211D01*
X1067799Y602149D01*
X1067769Y602090D01*
X1067761Y602036D01*
X1067748Y601999D01*
X1067748Y601995D01*
X1067748Y601994D01*
X1067749Y601959D01*
X1067741Y601905D01*
X1067741Y598095D01*
X1067753Y598030D01*
X1067755Y597964D01*
X1067772Y597921D01*
X1067781Y597874D01*
X1067814Y597817D01*
X1067839Y597757D01*
X1067871Y597722D01*
X1067895Y597681D01*
X1067946Y597640D01*
X1067990Y597591D01*
X1068033Y597569D01*
X1068069Y597540D01*
X1068131Y597519D01*
X1068190Y597488D01*
X1068244Y597480D01*
X1068282Y597468D01*
X1068321Y597469D01*
X1068375Y597461D01*
X1070915Y597461D01*
X1070980Y597472D01*
G37*
G36*
X300827Y597472D02*
X300827Y597472D01*
X300893Y597474D01*
X300936Y597492D01*
X300983Y597500D01*
X301040Y597534D01*
X301100Y597559D01*
X301135Y597590D01*
X301176Y597615D01*
X301218Y597666D01*
X301266Y597710D01*
X301288Y597752D01*
X301317Y597789D01*
X301338Y597851D01*
X301369Y597910D01*
X301377Y597964D01*
X301389Y598001D01*
X301388Y598041D01*
X301396Y598095D01*
X301396Y601905D01*
X301385Y601970D01*
X301383Y602036D01*
X301365Y602079D01*
X301357Y602126D01*
X301323Y602183D01*
X301298Y602243D01*
X301267Y602278D01*
X301242Y602319D01*
X301191Y602361D01*
X301147Y602409D01*
X301105Y602431D01*
X301068Y602460D01*
X301006Y602481D01*
X300947Y602512D01*
X300893Y602520D01*
X300856Y602532D01*
X300816Y602531D01*
X300762Y602539D01*
X298222Y602539D01*
X298157Y602528D01*
X298091Y602526D01*
X298048Y602508D01*
X298001Y602500D01*
X297944Y602466D01*
X297884Y602441D01*
X297849Y602410D01*
X297808Y602385D01*
X297767Y602334D01*
X297718Y602290D01*
X297696Y602248D01*
X297667Y602211D01*
X297646Y602149D01*
X297615Y602090D01*
X297607Y602036D01*
X297595Y601999D01*
X297595Y601995D01*
X297595Y601994D01*
X297596Y601959D01*
X297588Y601905D01*
X297588Y598095D01*
X297599Y598030D01*
X297601Y597964D01*
X297619Y597921D01*
X297627Y597874D01*
X297661Y597817D01*
X297686Y597757D01*
X297717Y597722D01*
X297742Y597681D01*
X297793Y597640D01*
X297837Y597591D01*
X297879Y597569D01*
X297916Y597540D01*
X297978Y597519D01*
X298037Y597488D01*
X298091Y597480D01*
X298128Y597468D01*
X298168Y597469D01*
X298222Y597461D01*
X300762Y597461D01*
X300827Y597472D01*
G37*
G36*
X1100980Y597472D02*
X1100980Y597472D01*
X1101046Y597474D01*
X1101090Y597492D01*
X1101136Y597500D01*
X1101193Y597534D01*
X1101254Y597559D01*
X1101289Y597590D01*
X1101329Y597615D01*
X1101371Y597666D01*
X1101419Y597710D01*
X1101441Y597752D01*
X1101471Y597789D01*
X1101492Y597851D01*
X1101522Y597910D01*
X1101530Y597964D01*
X1101543Y598001D01*
X1101542Y598041D01*
X1101550Y598095D01*
X1101550Y601905D01*
X1101538Y601970D01*
X1101536Y602036D01*
X1101518Y602079D01*
X1101510Y602126D01*
X1101476Y602183D01*
X1101452Y602243D01*
X1101420Y602278D01*
X1101396Y602319D01*
X1101345Y602361D01*
X1101300Y602409D01*
X1101258Y602431D01*
X1101222Y602460D01*
X1101159Y602481D01*
X1101101Y602512D01*
X1101046Y602520D01*
X1101009Y602532D01*
X1100970Y602531D01*
X1100915Y602539D01*
X1098375Y602539D01*
X1098311Y602528D01*
X1098245Y602526D01*
X1098201Y602508D01*
X1098155Y602500D01*
X1098098Y602466D01*
X1098037Y602441D01*
X1098002Y602410D01*
X1097961Y602385D01*
X1097920Y602334D01*
X1097871Y602290D01*
X1097850Y602248D01*
X1097820Y602211D01*
X1097799Y602149D01*
X1097769Y602090D01*
X1097761Y602036D01*
X1097748Y601999D01*
X1097748Y601995D01*
X1097748Y601994D01*
X1097749Y601959D01*
X1097741Y601905D01*
X1097741Y598095D01*
X1097753Y598030D01*
X1097755Y597964D01*
X1097772Y597921D01*
X1097781Y597874D01*
X1097814Y597817D01*
X1097839Y597757D01*
X1097871Y597722D01*
X1097895Y597681D01*
X1097946Y597640D01*
X1097990Y597591D01*
X1098033Y597569D01*
X1098069Y597540D01*
X1098131Y597519D01*
X1098190Y597488D01*
X1098244Y597480D01*
X1098282Y597468D01*
X1098321Y597469D01*
X1098375Y597461D01*
X1100915Y597461D01*
X1100980Y597472D01*
G37*
G36*
X685916Y597472D02*
X685916Y597472D01*
X685982Y597474D01*
X686026Y597492D01*
X686072Y597500D01*
X686129Y597534D01*
X686190Y597559D01*
X686225Y597590D01*
X686265Y597615D01*
X686307Y597666D01*
X686355Y597710D01*
X686377Y597752D01*
X686407Y597789D01*
X686428Y597851D01*
X686458Y597910D01*
X686466Y597964D01*
X686479Y598001D01*
X686478Y598041D01*
X686486Y598095D01*
X686486Y601905D01*
X686474Y601970D01*
X686472Y602036D01*
X686454Y602079D01*
X686446Y602126D01*
X686412Y602183D01*
X686388Y602243D01*
X686356Y602278D01*
X686332Y602319D01*
X686281Y602361D01*
X686236Y602409D01*
X686194Y602431D01*
X686158Y602460D01*
X686095Y602481D01*
X686037Y602512D01*
X685982Y602520D01*
X685945Y602532D01*
X685906Y602531D01*
X685851Y602539D01*
X683311Y602539D01*
X683247Y602528D01*
X683181Y602526D01*
X683137Y602508D01*
X683091Y602500D01*
X683034Y602466D01*
X682973Y602441D01*
X682938Y602410D01*
X682897Y602385D01*
X682856Y602334D01*
X682807Y602290D01*
X682786Y602248D01*
X682756Y602211D01*
X682735Y602149D01*
X682705Y602090D01*
X682697Y602036D01*
X682684Y601999D01*
X682684Y601995D01*
X682684Y601994D01*
X682685Y601959D01*
X682677Y601905D01*
X682677Y598095D01*
X682689Y598030D01*
X682691Y597964D01*
X682708Y597921D01*
X682717Y597874D01*
X682750Y597817D01*
X682775Y597757D01*
X682807Y597722D01*
X682831Y597681D01*
X682882Y597640D01*
X682926Y597591D01*
X682969Y597569D01*
X683005Y597540D01*
X683067Y597519D01*
X683126Y597488D01*
X683180Y597480D01*
X683218Y597468D01*
X683257Y597469D01*
X683311Y597461D01*
X685851Y597461D01*
X685916Y597472D01*
G37*
G36*
X715916Y597472D02*
X715916Y597472D01*
X715982Y597474D01*
X716026Y597492D01*
X716072Y597500D01*
X716129Y597534D01*
X716190Y597559D01*
X716225Y597590D01*
X716265Y597615D01*
X716307Y597666D01*
X716355Y597710D01*
X716377Y597752D01*
X716407Y597789D01*
X716428Y597851D01*
X716458Y597910D01*
X716466Y597964D01*
X716479Y598001D01*
X716478Y598041D01*
X716486Y598095D01*
X716486Y601905D01*
X716474Y601970D01*
X716472Y602036D01*
X716454Y602079D01*
X716446Y602126D01*
X716412Y602183D01*
X716388Y602243D01*
X716356Y602278D01*
X716332Y602319D01*
X716281Y602361D01*
X716236Y602409D01*
X716194Y602431D01*
X716158Y602460D01*
X716095Y602481D01*
X716037Y602512D01*
X715982Y602520D01*
X715945Y602532D01*
X715906Y602531D01*
X715851Y602539D01*
X713311Y602539D01*
X713247Y602528D01*
X713181Y602526D01*
X713137Y602508D01*
X713091Y602500D01*
X713034Y602466D01*
X712973Y602441D01*
X712938Y602410D01*
X712897Y602385D01*
X712856Y602334D01*
X712807Y602290D01*
X712786Y602248D01*
X712756Y602211D01*
X712735Y602149D01*
X712705Y602090D01*
X712697Y602036D01*
X712684Y601999D01*
X712684Y601995D01*
X712684Y601994D01*
X712685Y601959D01*
X712677Y601905D01*
X712677Y598095D01*
X712689Y598030D01*
X712691Y597964D01*
X712708Y597921D01*
X712717Y597874D01*
X712750Y597817D01*
X712775Y597757D01*
X712807Y597722D01*
X712831Y597681D01*
X712882Y597640D01*
X712926Y597591D01*
X712969Y597569D01*
X713005Y597540D01*
X713067Y597519D01*
X713126Y597488D01*
X713180Y597480D01*
X713218Y597468D01*
X713257Y597469D01*
X713311Y597461D01*
X715851Y597461D01*
X715916Y597472D01*
G37*
G36*
X330827Y597472D02*
X330827Y597472D01*
X330893Y597474D01*
X330936Y597492D01*
X330983Y597500D01*
X331040Y597534D01*
X331100Y597559D01*
X331135Y597590D01*
X331176Y597615D01*
X331218Y597666D01*
X331266Y597710D01*
X331288Y597752D01*
X331317Y597789D01*
X331338Y597851D01*
X331369Y597910D01*
X331377Y597964D01*
X331389Y598001D01*
X331388Y598041D01*
X331396Y598095D01*
X331396Y601905D01*
X331385Y601970D01*
X331383Y602036D01*
X331365Y602079D01*
X331357Y602126D01*
X331323Y602183D01*
X331298Y602243D01*
X331267Y602278D01*
X331242Y602319D01*
X331191Y602361D01*
X331147Y602409D01*
X331105Y602431D01*
X331068Y602460D01*
X331006Y602481D01*
X330947Y602512D01*
X330893Y602520D01*
X330856Y602532D01*
X330816Y602531D01*
X330762Y602539D01*
X328222Y602539D01*
X328157Y602528D01*
X328091Y602526D01*
X328048Y602508D01*
X328001Y602500D01*
X327944Y602466D01*
X327884Y602441D01*
X327849Y602410D01*
X327808Y602385D01*
X327767Y602334D01*
X327718Y602290D01*
X327696Y602248D01*
X327667Y602211D01*
X327646Y602149D01*
X327615Y602090D01*
X327607Y602036D01*
X327595Y601999D01*
X327595Y601995D01*
X327595Y601994D01*
X327596Y601959D01*
X327588Y601905D01*
X327588Y598095D01*
X327599Y598030D01*
X327601Y597964D01*
X327619Y597921D01*
X327627Y597874D01*
X327661Y597817D01*
X327686Y597757D01*
X327717Y597722D01*
X327742Y597681D01*
X327793Y597640D01*
X327837Y597591D01*
X327879Y597569D01*
X327916Y597540D01*
X327978Y597519D01*
X328037Y597488D01*
X328091Y597480D01*
X328128Y597468D01*
X328168Y597469D01*
X328222Y597461D01*
X330762Y597461D01*
X330827Y597472D01*
G37*
G36*
X51852Y811770D02*
X51852Y811770D01*
X51918Y811772D01*
X51962Y811789D01*
X52008Y811798D01*
X52065Y811831D01*
X52126Y811856D01*
X52161Y811888D01*
X52201Y811912D01*
X52243Y811963D01*
X52291Y812007D01*
X52313Y812050D01*
X52343Y812086D01*
X52364Y812148D01*
X52394Y812207D01*
X52402Y812261D01*
X52415Y812299D01*
X52414Y812338D01*
X52422Y812392D01*
X52422Y816202D01*
X52410Y816267D01*
X52408Y816333D01*
X52390Y816377D01*
X52382Y816423D01*
X52348Y816480D01*
X52324Y816541D01*
X52292Y816576D01*
X52268Y816616D01*
X52217Y816658D01*
X52172Y816706D01*
X52130Y816728D01*
X52094Y816758D01*
X52031Y816779D01*
X51973Y816809D01*
X51918Y816817D01*
X51881Y816830D01*
X51842Y816829D01*
X51787Y816837D01*
X49247Y816837D01*
X49183Y816825D01*
X49117Y816823D01*
X49073Y816805D01*
X49027Y816797D01*
X48970Y816763D01*
X48909Y816739D01*
X48874Y816707D01*
X48833Y816683D01*
X48792Y816632D01*
X48743Y816587D01*
X48722Y816545D01*
X48692Y816509D01*
X48671Y816446D01*
X48641Y816388D01*
X48633Y816333D01*
X48620Y816296D01*
X48620Y816292D01*
X48621Y816256D01*
X48613Y816202D01*
X48613Y812392D01*
X48625Y812328D01*
X48627Y812262D01*
X48644Y812218D01*
X48653Y812172D01*
X48686Y812115D01*
X48711Y812054D01*
X48743Y812019D01*
X48767Y811978D01*
X48818Y811937D01*
X48862Y811888D01*
X48905Y811867D01*
X48941Y811837D01*
X49003Y811816D01*
X49062Y811786D01*
X49116Y811778D01*
X49154Y811765D01*
X49193Y811766D01*
X49247Y811758D01*
X51787Y811758D01*
X51852Y811770D01*
G37*
G36*
X852006Y811770D02*
X852006Y811770D01*
X852071Y811772D01*
X852115Y811789D01*
X852162Y811798D01*
X852218Y811831D01*
X852279Y811856D01*
X852314Y811888D01*
X852355Y811912D01*
X852396Y811963D01*
X852445Y812007D01*
X852466Y812050D01*
X852496Y812086D01*
X852517Y812148D01*
X852547Y812207D01*
X852556Y812261D01*
X852568Y812299D01*
X852567Y812338D01*
X852575Y812392D01*
X852575Y816202D01*
X852563Y816267D01*
X852561Y816333D01*
X852544Y816377D01*
X852535Y816423D01*
X852502Y816480D01*
X852477Y816541D01*
X852445Y816576D01*
X852421Y816616D01*
X852370Y816658D01*
X852326Y816706D01*
X852284Y816728D01*
X852247Y816758D01*
X852185Y816779D01*
X852126Y816809D01*
X852072Y816817D01*
X852035Y816830D01*
X851995Y816829D01*
X851941Y816837D01*
X849401Y816837D01*
X849336Y816825D01*
X849270Y816823D01*
X849227Y816805D01*
X849180Y816797D01*
X849123Y816763D01*
X849062Y816739D01*
X849028Y816707D01*
X848987Y816683D01*
X848945Y816632D01*
X848897Y816587D01*
X848875Y816545D01*
X848845Y816509D01*
X848824Y816446D01*
X848794Y816388D01*
X848786Y816333D01*
X848774Y816296D01*
X848774Y816292D01*
X848775Y816256D01*
X848767Y816202D01*
X848767Y812392D01*
X848778Y812328D01*
X848780Y812262D01*
X848798Y812218D01*
X848806Y812172D01*
X848840Y812115D01*
X848864Y812054D01*
X848896Y812019D01*
X848920Y811978D01*
X848971Y811937D01*
X849016Y811888D01*
X849058Y811867D01*
X849095Y811837D01*
X849157Y811816D01*
X849215Y811786D01*
X849270Y811778D01*
X849307Y811765D01*
X849346Y811766D01*
X849401Y811758D01*
X851941Y811758D01*
X852006Y811770D01*
G37*
G36*
X1110980Y67472D02*
X1110980Y67472D01*
X1111046Y67474D01*
X1111090Y67492D01*
X1111136Y67500D01*
X1111193Y67534D01*
X1111254Y67559D01*
X1111289Y67590D01*
X1111329Y67615D01*
X1111371Y67666D01*
X1111419Y67710D01*
X1111441Y67752D01*
X1111471Y67789D01*
X1111492Y67851D01*
X1111522Y67910D01*
X1111530Y67964D01*
X1111543Y68001D01*
X1111542Y68041D01*
X1111550Y68095D01*
X1111550Y71905D01*
X1111538Y71970D01*
X1111536Y72036D01*
X1111518Y72079D01*
X1111510Y72126D01*
X1111476Y72183D01*
X1111452Y72243D01*
X1111420Y72278D01*
X1111396Y72319D01*
X1111345Y72361D01*
X1111300Y72409D01*
X1111258Y72431D01*
X1111222Y72460D01*
X1111159Y72481D01*
X1111101Y72512D01*
X1111046Y72520D01*
X1111009Y72532D01*
X1110970Y72531D01*
X1110915Y72539D01*
X1108375Y72539D01*
X1108311Y72528D01*
X1108245Y72526D01*
X1108201Y72508D01*
X1108155Y72500D01*
X1108098Y72466D01*
X1108037Y72441D01*
X1108002Y72410D01*
X1107961Y72385D01*
X1107920Y72334D01*
X1107871Y72290D01*
X1107850Y72248D01*
X1107820Y72211D01*
X1107799Y72149D01*
X1107769Y72090D01*
X1107761Y72036D01*
X1107748Y71999D01*
X1107748Y71995D01*
X1107748Y71994D01*
X1107749Y71959D01*
X1107741Y71905D01*
X1107741Y68095D01*
X1107753Y68030D01*
X1107755Y67964D01*
X1107772Y67921D01*
X1107781Y67874D01*
X1107814Y67817D01*
X1107839Y67757D01*
X1107871Y67722D01*
X1107895Y67681D01*
X1107946Y67640D01*
X1107990Y67591D01*
X1108033Y67569D01*
X1108069Y67540D01*
X1108131Y67519D01*
X1108190Y67488D01*
X1108244Y67480D01*
X1108282Y67468D01*
X1108321Y67469D01*
X1108375Y67461D01*
X1110915Y67461D01*
X1110980Y67472D01*
G37*
G36*
X81852Y811770D02*
X81852Y811770D01*
X81918Y811772D01*
X81962Y811789D01*
X82008Y811798D01*
X82065Y811831D01*
X82126Y811856D01*
X82161Y811888D01*
X82201Y811912D01*
X82243Y811963D01*
X82291Y812007D01*
X82313Y812050D01*
X82343Y812086D01*
X82364Y812148D01*
X82394Y812207D01*
X82402Y812261D01*
X82415Y812299D01*
X82414Y812338D01*
X82422Y812392D01*
X82422Y816202D01*
X82410Y816267D01*
X82408Y816333D01*
X82390Y816377D01*
X82382Y816423D01*
X82348Y816480D01*
X82324Y816541D01*
X82292Y816576D01*
X82268Y816616D01*
X82217Y816658D01*
X82172Y816706D01*
X82130Y816728D01*
X82094Y816758D01*
X82031Y816779D01*
X81973Y816809D01*
X81918Y816817D01*
X81881Y816830D01*
X81842Y816829D01*
X81787Y816837D01*
X79247Y816837D01*
X79183Y816825D01*
X79117Y816823D01*
X79073Y816805D01*
X79027Y816797D01*
X78970Y816763D01*
X78909Y816739D01*
X78874Y816707D01*
X78833Y816683D01*
X78792Y816632D01*
X78743Y816587D01*
X78722Y816545D01*
X78692Y816509D01*
X78671Y816446D01*
X78641Y816388D01*
X78633Y816333D01*
X78620Y816296D01*
X78620Y816292D01*
X78621Y816256D01*
X78613Y816202D01*
X78613Y812392D01*
X78625Y812328D01*
X78627Y812262D01*
X78644Y812218D01*
X78653Y812172D01*
X78686Y812115D01*
X78711Y812054D01*
X78743Y812019D01*
X78767Y811978D01*
X78818Y811937D01*
X78862Y811888D01*
X78905Y811867D01*
X78941Y811837D01*
X79003Y811816D01*
X79062Y811786D01*
X79116Y811778D01*
X79154Y811765D01*
X79193Y811766D01*
X79247Y811758D01*
X81787Y811758D01*
X81852Y811770D01*
G37*
G36*
X725916Y67472D02*
X725916Y67472D01*
X725982Y67474D01*
X726026Y67492D01*
X726072Y67500D01*
X726129Y67534D01*
X726190Y67559D01*
X726225Y67590D01*
X726265Y67615D01*
X726307Y67666D01*
X726355Y67710D01*
X726377Y67752D01*
X726407Y67789D01*
X726428Y67851D01*
X726458Y67910D01*
X726466Y67964D01*
X726479Y68001D01*
X726478Y68041D01*
X726486Y68095D01*
X726486Y71905D01*
X726474Y71970D01*
X726472Y72036D01*
X726454Y72079D01*
X726446Y72126D01*
X726412Y72183D01*
X726388Y72243D01*
X726356Y72278D01*
X726332Y72319D01*
X726281Y72361D01*
X726236Y72409D01*
X726194Y72431D01*
X726158Y72460D01*
X726095Y72481D01*
X726037Y72512D01*
X725982Y72520D01*
X725945Y72532D01*
X725906Y72531D01*
X725851Y72539D01*
X723311Y72539D01*
X723247Y72528D01*
X723181Y72526D01*
X723137Y72508D01*
X723091Y72500D01*
X723034Y72466D01*
X722973Y72441D01*
X722938Y72410D01*
X722897Y72385D01*
X722856Y72334D01*
X722807Y72290D01*
X722786Y72248D01*
X722756Y72211D01*
X722735Y72149D01*
X722705Y72090D01*
X722697Y72036D01*
X722684Y71999D01*
X722684Y71995D01*
X722684Y71994D01*
X722685Y71959D01*
X722677Y71905D01*
X722677Y68095D01*
X722689Y68030D01*
X722691Y67964D01*
X722708Y67921D01*
X722717Y67874D01*
X722750Y67817D01*
X722775Y67757D01*
X722807Y67722D01*
X722831Y67681D01*
X722882Y67640D01*
X722926Y67591D01*
X722969Y67569D01*
X723005Y67540D01*
X723067Y67519D01*
X723126Y67488D01*
X723180Y67480D01*
X723218Y67468D01*
X723257Y67469D01*
X723311Y67461D01*
X725851Y67461D01*
X725916Y67472D01*
G37*
G36*
X340827Y67472D02*
X340827Y67472D01*
X340893Y67474D01*
X340936Y67492D01*
X340983Y67500D01*
X341040Y67534D01*
X341100Y67559D01*
X341135Y67590D01*
X341176Y67615D01*
X341218Y67666D01*
X341266Y67710D01*
X341288Y67752D01*
X341317Y67789D01*
X341338Y67851D01*
X341369Y67910D01*
X341377Y67964D01*
X341389Y68001D01*
X341388Y68041D01*
X341396Y68095D01*
X341396Y71905D01*
X341385Y71970D01*
X341383Y72036D01*
X341365Y72079D01*
X341357Y72126D01*
X341323Y72183D01*
X341298Y72243D01*
X341267Y72278D01*
X341242Y72319D01*
X341191Y72361D01*
X341147Y72409D01*
X341105Y72431D01*
X341068Y72460D01*
X341006Y72481D01*
X340947Y72512D01*
X340893Y72520D01*
X340856Y72532D01*
X340816Y72531D01*
X340762Y72539D01*
X338222Y72539D01*
X338157Y72528D01*
X338091Y72526D01*
X338048Y72508D01*
X338001Y72500D01*
X337944Y72466D01*
X337884Y72441D01*
X337849Y72410D01*
X337808Y72385D01*
X337767Y72334D01*
X337718Y72290D01*
X337696Y72248D01*
X337667Y72211D01*
X337646Y72149D01*
X337615Y72090D01*
X337607Y72036D01*
X337595Y71999D01*
X337595Y71995D01*
X337595Y71994D01*
X337596Y71959D01*
X337588Y71905D01*
X337588Y68095D01*
X337599Y68030D01*
X337601Y67964D01*
X337619Y67921D01*
X337627Y67874D01*
X337661Y67817D01*
X337686Y67757D01*
X337717Y67722D01*
X337742Y67681D01*
X337793Y67640D01*
X337837Y67591D01*
X337879Y67569D01*
X337916Y67540D01*
X337978Y67519D01*
X338037Y67488D01*
X338091Y67480D01*
X338128Y67468D01*
X338168Y67469D01*
X338222Y67461D01*
X340762Y67461D01*
X340827Y67472D01*
G37*
G36*
X436916Y811770D02*
X436916Y811770D01*
X436982Y811772D01*
X437026Y811789D01*
X437072Y811798D01*
X437129Y811831D01*
X437190Y811856D01*
X437225Y811888D01*
X437265Y811912D01*
X437307Y811963D01*
X437355Y812007D01*
X437377Y812050D01*
X437407Y812086D01*
X437428Y812148D01*
X437458Y812207D01*
X437466Y812261D01*
X437479Y812299D01*
X437478Y812338D01*
X437486Y812392D01*
X437486Y816202D01*
X437474Y816267D01*
X437472Y816333D01*
X437454Y816377D01*
X437446Y816423D01*
X437412Y816480D01*
X437388Y816541D01*
X437356Y816576D01*
X437332Y816616D01*
X437281Y816658D01*
X437236Y816706D01*
X437194Y816728D01*
X437158Y816758D01*
X437095Y816779D01*
X437037Y816809D01*
X436982Y816817D01*
X436945Y816830D01*
X436906Y816829D01*
X436851Y816837D01*
X434311Y816837D01*
X434247Y816825D01*
X434181Y816823D01*
X434137Y816805D01*
X434091Y816797D01*
X434034Y816763D01*
X433973Y816739D01*
X433938Y816707D01*
X433897Y816683D01*
X433856Y816632D01*
X433807Y816587D01*
X433786Y816545D01*
X433756Y816509D01*
X433735Y816446D01*
X433705Y816388D01*
X433697Y816333D01*
X433684Y816296D01*
X433684Y816292D01*
X433685Y816256D01*
X433677Y816202D01*
X433677Y812392D01*
X433689Y812328D01*
X433691Y812262D01*
X433708Y812218D01*
X433717Y812172D01*
X433750Y812115D01*
X433775Y812054D01*
X433807Y812019D01*
X433831Y811978D01*
X433882Y811937D01*
X433926Y811888D01*
X433969Y811867D01*
X434005Y811837D01*
X434067Y811816D01*
X434126Y811786D01*
X434180Y811778D01*
X434218Y811765D01*
X434257Y811766D01*
X434311Y811758D01*
X436851Y811758D01*
X436916Y811770D01*
G37*
G36*
X932641Y1252405D02*
X932641Y1252405D01*
X932706Y1252407D01*
X932750Y1252424D01*
X932797Y1252433D01*
X932853Y1252466D01*
X932914Y1252491D01*
X932949Y1252523D01*
X932990Y1252547D01*
X933031Y1252598D01*
X933080Y1252642D01*
X933101Y1252685D01*
X933131Y1252721D01*
X933152Y1252783D01*
X933182Y1252842D01*
X933191Y1252896D01*
X933203Y1252934D01*
X933202Y1252973D01*
X933210Y1253027D01*
X933210Y1255567D01*
X933198Y1255632D01*
X933196Y1255698D01*
X933179Y1255742D01*
X933170Y1255788D01*
X933137Y1255845D01*
X933112Y1255906D01*
X933080Y1255941D01*
X933056Y1255981D01*
X933005Y1256023D01*
X932961Y1256071D01*
X932919Y1256093D01*
X932882Y1256123D01*
X932820Y1256144D01*
X932761Y1256174D01*
X932707Y1256182D01*
X932670Y1256195D01*
X932630Y1256194D01*
X932576Y1256202D01*
X928766Y1256202D01*
X928701Y1256190D01*
X928635Y1256188D01*
X928592Y1256170D01*
X928545Y1256162D01*
X928488Y1256128D01*
X928427Y1256104D01*
X928393Y1256072D01*
X928352Y1256048D01*
X928310Y1255997D01*
X928262Y1255952D01*
X928240Y1255910D01*
X928210Y1255874D01*
X928189Y1255811D01*
X928159Y1255753D01*
X928151Y1255698D01*
X928139Y1255661D01*
X928139Y1255658D01*
X928140Y1255621D01*
X928132Y1255567D01*
X928132Y1253027D01*
X928143Y1252963D01*
X928145Y1252897D01*
X928163Y1252853D01*
X928171Y1252807D01*
X928205Y1252750D01*
X928229Y1252689D01*
X928261Y1252654D01*
X928285Y1252613D01*
X928336Y1252572D01*
X928381Y1252523D01*
X928423Y1252502D01*
X928460Y1252472D01*
X928522Y1252451D01*
X928580Y1252421D01*
X928635Y1252413D01*
X928672Y1252400D01*
X928711Y1252401D01*
X928766Y1252393D01*
X932576Y1252393D01*
X932641Y1252405D01*
G37*
G36*
X547551Y1252405D02*
X547551Y1252405D01*
X547617Y1252407D01*
X547661Y1252424D01*
X547707Y1252433D01*
X547764Y1252466D01*
X547825Y1252491D01*
X547860Y1252523D01*
X547900Y1252547D01*
X547942Y1252598D01*
X547990Y1252642D01*
X548012Y1252685D01*
X548042Y1252721D01*
X548063Y1252783D01*
X548093Y1252842D01*
X548101Y1252896D01*
X548114Y1252934D01*
X548113Y1252973D01*
X548121Y1253027D01*
X548121Y1255567D01*
X548109Y1255632D01*
X548107Y1255698D01*
X548089Y1255742D01*
X548081Y1255788D01*
X548047Y1255845D01*
X548023Y1255906D01*
X547991Y1255941D01*
X547967Y1255981D01*
X547916Y1256023D01*
X547871Y1256071D01*
X547829Y1256093D01*
X547793Y1256123D01*
X547730Y1256144D01*
X547672Y1256174D01*
X547617Y1256182D01*
X547580Y1256195D01*
X547541Y1256194D01*
X547486Y1256202D01*
X543676Y1256202D01*
X543612Y1256190D01*
X543546Y1256188D01*
X543502Y1256170D01*
X543456Y1256162D01*
X543399Y1256128D01*
X543338Y1256104D01*
X543303Y1256072D01*
X543262Y1256048D01*
X543221Y1255997D01*
X543172Y1255952D01*
X543151Y1255910D01*
X543121Y1255874D01*
X543100Y1255811D01*
X543070Y1255753D01*
X543062Y1255698D01*
X543049Y1255661D01*
X543049Y1255658D01*
X543050Y1255621D01*
X543042Y1255567D01*
X543042Y1253027D01*
X543054Y1252963D01*
X543056Y1252897D01*
X543073Y1252853D01*
X543082Y1252807D01*
X543115Y1252750D01*
X543140Y1252689D01*
X543172Y1252654D01*
X543196Y1252613D01*
X543247Y1252572D01*
X543291Y1252523D01*
X543334Y1252502D01*
X543370Y1252472D01*
X543432Y1252451D01*
X543491Y1252421D01*
X543545Y1252413D01*
X543583Y1252400D01*
X543622Y1252401D01*
X543676Y1252393D01*
X547486Y1252393D01*
X547551Y1252405D01*
G37*
G36*
X202487Y1192405D02*
X202487Y1192405D01*
X202553Y1192407D01*
X202597Y1192424D01*
X202643Y1192433D01*
X202700Y1192466D01*
X202761Y1192491D01*
X202796Y1192523D01*
X202836Y1192547D01*
X202878Y1192598D01*
X202926Y1192642D01*
X202948Y1192685D01*
X202978Y1192721D01*
X202999Y1192783D01*
X203029Y1192842D01*
X203037Y1192896D01*
X203050Y1192934D01*
X203049Y1192973D01*
X203057Y1193027D01*
X203057Y1195567D01*
X203045Y1195632D01*
X203043Y1195698D01*
X203025Y1195742D01*
X203017Y1195788D01*
X202983Y1195845D01*
X202959Y1195906D01*
X202927Y1195941D01*
X202903Y1195981D01*
X202852Y1196023D01*
X202807Y1196071D01*
X202765Y1196093D01*
X202729Y1196123D01*
X202666Y1196144D01*
X202608Y1196174D01*
X202553Y1196182D01*
X202516Y1196195D01*
X202477Y1196194D01*
X202422Y1196202D01*
X198612Y1196202D01*
X198548Y1196190D01*
X198482Y1196188D01*
X198438Y1196170D01*
X198392Y1196162D01*
X198335Y1196128D01*
X198274Y1196104D01*
X198239Y1196072D01*
X198198Y1196048D01*
X198157Y1195997D01*
X198108Y1195952D01*
X198087Y1195910D01*
X198057Y1195874D01*
X198036Y1195811D01*
X198006Y1195753D01*
X197998Y1195698D01*
X197985Y1195661D01*
X197985Y1195658D01*
X197986Y1195621D01*
X197978Y1195567D01*
X197978Y1193027D01*
X197990Y1192963D01*
X197992Y1192897D01*
X198009Y1192853D01*
X198018Y1192807D01*
X198051Y1192750D01*
X198076Y1192689D01*
X198108Y1192654D01*
X198132Y1192613D01*
X198183Y1192572D01*
X198227Y1192523D01*
X198270Y1192502D01*
X198306Y1192472D01*
X198368Y1192451D01*
X198427Y1192421D01*
X198481Y1192413D01*
X198519Y1192400D01*
X198558Y1192401D01*
X198612Y1192393D01*
X202422Y1192393D01*
X202487Y1192405D01*
G37*
G36*
X587551Y1192405D02*
X587551Y1192405D01*
X587617Y1192407D01*
X587661Y1192424D01*
X587707Y1192433D01*
X587764Y1192466D01*
X587825Y1192491D01*
X587860Y1192523D01*
X587900Y1192547D01*
X587942Y1192598D01*
X587990Y1192642D01*
X588012Y1192685D01*
X588042Y1192721D01*
X588063Y1192783D01*
X588093Y1192842D01*
X588101Y1192896D01*
X588114Y1192934D01*
X588113Y1192973D01*
X588121Y1193027D01*
X588121Y1195567D01*
X588109Y1195632D01*
X588107Y1195698D01*
X588089Y1195742D01*
X588081Y1195788D01*
X588047Y1195845D01*
X588023Y1195906D01*
X587991Y1195941D01*
X587967Y1195981D01*
X587916Y1196023D01*
X587871Y1196071D01*
X587829Y1196093D01*
X587793Y1196123D01*
X587730Y1196144D01*
X587672Y1196174D01*
X587617Y1196182D01*
X587580Y1196195D01*
X587541Y1196194D01*
X587486Y1196202D01*
X583676Y1196202D01*
X583612Y1196190D01*
X583546Y1196188D01*
X583502Y1196170D01*
X583456Y1196162D01*
X583399Y1196128D01*
X583338Y1196104D01*
X583303Y1196072D01*
X583262Y1196048D01*
X583221Y1195997D01*
X583172Y1195952D01*
X583151Y1195910D01*
X583121Y1195874D01*
X583100Y1195811D01*
X583070Y1195753D01*
X583062Y1195698D01*
X583049Y1195661D01*
X583049Y1195658D01*
X583050Y1195621D01*
X583042Y1195567D01*
X583042Y1193027D01*
X583054Y1192963D01*
X583056Y1192897D01*
X583073Y1192853D01*
X583082Y1192807D01*
X583115Y1192750D01*
X583140Y1192689D01*
X583172Y1192654D01*
X583196Y1192613D01*
X583247Y1192572D01*
X583291Y1192523D01*
X583334Y1192502D01*
X583370Y1192472D01*
X583432Y1192451D01*
X583491Y1192421D01*
X583545Y1192413D01*
X583583Y1192400D01*
X583622Y1192401D01*
X583676Y1192393D01*
X587486Y1192393D01*
X587551Y1192405D01*
G37*
G36*
X972641Y1192405D02*
X972641Y1192405D01*
X972706Y1192407D01*
X972750Y1192424D01*
X972797Y1192433D01*
X972853Y1192466D01*
X972914Y1192491D01*
X972949Y1192523D01*
X972990Y1192547D01*
X973031Y1192598D01*
X973080Y1192642D01*
X973101Y1192685D01*
X973131Y1192721D01*
X973152Y1192783D01*
X973182Y1192842D01*
X973191Y1192896D01*
X973203Y1192934D01*
X973202Y1192973D01*
X973210Y1193027D01*
X973210Y1195567D01*
X973198Y1195632D01*
X973196Y1195698D01*
X973179Y1195742D01*
X973170Y1195788D01*
X973137Y1195845D01*
X973112Y1195906D01*
X973080Y1195941D01*
X973056Y1195981D01*
X973005Y1196023D01*
X972961Y1196071D01*
X972919Y1196093D01*
X972882Y1196123D01*
X972820Y1196144D01*
X972761Y1196174D01*
X972707Y1196182D01*
X972670Y1196195D01*
X972630Y1196194D01*
X972576Y1196202D01*
X968766Y1196202D01*
X968701Y1196190D01*
X968635Y1196188D01*
X968592Y1196170D01*
X968545Y1196162D01*
X968488Y1196128D01*
X968427Y1196104D01*
X968393Y1196072D01*
X968352Y1196048D01*
X968310Y1195997D01*
X968262Y1195952D01*
X968240Y1195910D01*
X968210Y1195874D01*
X968189Y1195811D01*
X968159Y1195753D01*
X968151Y1195698D01*
X968139Y1195661D01*
X968139Y1195658D01*
X968140Y1195621D01*
X968132Y1195567D01*
X968132Y1193027D01*
X968143Y1192963D01*
X968145Y1192897D01*
X968163Y1192853D01*
X968171Y1192807D01*
X968205Y1192750D01*
X968229Y1192689D01*
X968261Y1192654D01*
X968285Y1192613D01*
X968336Y1192572D01*
X968381Y1192523D01*
X968423Y1192502D01*
X968460Y1192472D01*
X968522Y1192451D01*
X968580Y1192421D01*
X968635Y1192413D01*
X968672Y1192400D01*
X968711Y1192401D01*
X968766Y1192393D01*
X972576Y1192393D01*
X972641Y1192405D01*
G37*
G36*
X162487Y1252405D02*
X162487Y1252405D01*
X162553Y1252407D01*
X162597Y1252424D01*
X162643Y1252433D01*
X162700Y1252466D01*
X162761Y1252491D01*
X162796Y1252523D01*
X162836Y1252547D01*
X162878Y1252598D01*
X162926Y1252642D01*
X162948Y1252685D01*
X162978Y1252721D01*
X162999Y1252783D01*
X163029Y1252842D01*
X163037Y1252896D01*
X163050Y1252934D01*
X163049Y1252973D01*
X163057Y1253027D01*
X163057Y1255567D01*
X163045Y1255632D01*
X163043Y1255698D01*
X163025Y1255742D01*
X163017Y1255788D01*
X162983Y1255845D01*
X162959Y1255906D01*
X162927Y1255941D01*
X162903Y1255981D01*
X162852Y1256023D01*
X162807Y1256071D01*
X162765Y1256093D01*
X162729Y1256123D01*
X162666Y1256144D01*
X162608Y1256174D01*
X162553Y1256182D01*
X162516Y1256195D01*
X162477Y1256194D01*
X162422Y1256202D01*
X158612Y1256202D01*
X158548Y1256190D01*
X158482Y1256188D01*
X158438Y1256170D01*
X158392Y1256162D01*
X158335Y1256128D01*
X158274Y1256104D01*
X158239Y1256072D01*
X158198Y1256048D01*
X158157Y1255997D01*
X158108Y1255952D01*
X158087Y1255910D01*
X158057Y1255874D01*
X158036Y1255811D01*
X158006Y1255753D01*
X157998Y1255698D01*
X157985Y1255661D01*
X157985Y1255658D01*
X157986Y1255621D01*
X157978Y1255567D01*
X157978Y1253027D01*
X157990Y1252963D01*
X157992Y1252897D01*
X158009Y1252853D01*
X158018Y1252807D01*
X158051Y1252750D01*
X158076Y1252689D01*
X158108Y1252654D01*
X158132Y1252613D01*
X158183Y1252572D01*
X158227Y1252523D01*
X158270Y1252502D01*
X158306Y1252472D01*
X158368Y1252451D01*
X158427Y1252421D01*
X158481Y1252413D01*
X158519Y1252400D01*
X158558Y1252401D01*
X158612Y1252393D01*
X162422Y1252393D01*
X162487Y1252405D01*
G37*
G36*
X181462Y218107D02*
X181462Y218107D01*
X181528Y218109D01*
X181571Y218127D01*
X181618Y218135D01*
X181675Y218169D01*
X181735Y218194D01*
X181770Y218225D01*
X181811Y218250D01*
X181853Y218301D01*
X181901Y218345D01*
X181923Y218387D01*
X181952Y218424D01*
X181973Y218486D01*
X182004Y218545D01*
X182012Y218599D01*
X182024Y218636D01*
X182023Y218676D01*
X182031Y218730D01*
X182031Y221270D01*
X182020Y221335D01*
X182018Y221401D01*
X182000Y221444D01*
X181992Y221491D01*
X181958Y221548D01*
X181933Y221608D01*
X181902Y221643D01*
X181877Y221684D01*
X181826Y221726D01*
X181782Y221774D01*
X181740Y221796D01*
X181703Y221825D01*
X181641Y221846D01*
X181582Y221877D01*
X181528Y221885D01*
X181491Y221897D01*
X181451Y221896D01*
X181397Y221904D01*
X177587Y221904D01*
X177522Y221893D01*
X177456Y221891D01*
X177413Y221873D01*
X177366Y221865D01*
X177309Y221831D01*
X177249Y221806D01*
X177214Y221775D01*
X177173Y221750D01*
X177132Y221699D01*
X177083Y221655D01*
X177061Y221613D01*
X177032Y221576D01*
X177011Y221514D01*
X176980Y221455D01*
X176972Y221401D01*
X176960Y221364D01*
X176960Y221361D01*
X176961Y221324D01*
X176953Y221270D01*
X176953Y218730D01*
X176964Y218665D01*
X176966Y218599D01*
X176984Y218556D01*
X176992Y218509D01*
X177026Y218452D01*
X177051Y218392D01*
X177082Y218357D01*
X177107Y218316D01*
X177158Y218275D01*
X177202Y218226D01*
X177244Y218204D01*
X177281Y218175D01*
X177343Y218154D01*
X177402Y218123D01*
X177456Y218115D01*
X177493Y218103D01*
X177533Y218104D01*
X177587Y218096D01*
X181397Y218096D01*
X181462Y218107D01*
G37*
G36*
X566551Y218107D02*
X566551Y218107D01*
X566617Y218109D01*
X566661Y218127D01*
X566707Y218135D01*
X566764Y218169D01*
X566825Y218194D01*
X566860Y218225D01*
X566900Y218250D01*
X566942Y218301D01*
X566990Y218345D01*
X567012Y218387D01*
X567042Y218424D01*
X567063Y218486D01*
X567093Y218545D01*
X567101Y218599D01*
X567114Y218636D01*
X567113Y218676D01*
X567121Y218730D01*
X567121Y221270D01*
X567109Y221335D01*
X567107Y221401D01*
X567089Y221444D01*
X567081Y221491D01*
X567047Y221548D01*
X567023Y221608D01*
X566991Y221643D01*
X566967Y221684D01*
X566916Y221726D01*
X566871Y221774D01*
X566829Y221796D01*
X566793Y221825D01*
X566730Y221846D01*
X566672Y221877D01*
X566617Y221885D01*
X566580Y221897D01*
X566541Y221896D01*
X566486Y221904D01*
X562676Y221904D01*
X562612Y221893D01*
X562546Y221891D01*
X562502Y221873D01*
X562456Y221865D01*
X562399Y221831D01*
X562338Y221806D01*
X562303Y221775D01*
X562262Y221750D01*
X562221Y221699D01*
X562172Y221655D01*
X562151Y221613D01*
X562121Y221576D01*
X562100Y221514D01*
X562070Y221455D01*
X562062Y221401D01*
X562049Y221364D01*
X562049Y221361D01*
X562050Y221324D01*
X562042Y221270D01*
X562042Y218730D01*
X562054Y218665D01*
X562056Y218599D01*
X562073Y218556D01*
X562082Y218509D01*
X562115Y218452D01*
X562140Y218392D01*
X562172Y218357D01*
X562196Y218316D01*
X562247Y218275D01*
X562291Y218226D01*
X562334Y218204D01*
X562370Y218175D01*
X562432Y218154D01*
X562491Y218123D01*
X562545Y218115D01*
X562583Y218103D01*
X562622Y218104D01*
X562676Y218096D01*
X566486Y218096D01*
X566551Y218107D01*
G37*
G36*
X951615Y218107D02*
X951615Y218107D01*
X951681Y218109D01*
X951725Y218127D01*
X951771Y218135D01*
X951828Y218169D01*
X951889Y218194D01*
X951924Y218225D01*
X951964Y218250D01*
X952006Y218301D01*
X952054Y218345D01*
X952076Y218387D01*
X952106Y218424D01*
X952127Y218486D01*
X952157Y218545D01*
X952165Y218599D01*
X952178Y218636D01*
X952177Y218676D01*
X952185Y218730D01*
X952185Y221270D01*
X952173Y221335D01*
X952171Y221401D01*
X952153Y221444D01*
X952145Y221491D01*
X952111Y221548D01*
X952087Y221608D01*
X952055Y221643D01*
X952031Y221684D01*
X951980Y221726D01*
X951935Y221774D01*
X951893Y221796D01*
X951857Y221825D01*
X951794Y221846D01*
X951736Y221877D01*
X951681Y221885D01*
X951644Y221897D01*
X951605Y221896D01*
X951550Y221904D01*
X947740Y221904D01*
X947676Y221893D01*
X947610Y221891D01*
X947566Y221873D01*
X947520Y221865D01*
X947463Y221831D01*
X947402Y221806D01*
X947367Y221775D01*
X947326Y221750D01*
X947285Y221699D01*
X947236Y221655D01*
X947215Y221613D01*
X947185Y221576D01*
X947164Y221514D01*
X947134Y221455D01*
X947126Y221401D01*
X947113Y221364D01*
X947113Y221361D01*
X947114Y221324D01*
X947106Y221270D01*
X947106Y218730D01*
X947118Y218665D01*
X947120Y218599D01*
X947137Y218556D01*
X947146Y218509D01*
X947179Y218452D01*
X947204Y218392D01*
X947236Y218357D01*
X947260Y218316D01*
X947311Y218275D01*
X947355Y218226D01*
X947398Y218204D01*
X947434Y218175D01*
X947496Y218154D01*
X947555Y218123D01*
X947609Y218115D01*
X947647Y218103D01*
X947686Y218104D01*
X947740Y218096D01*
X951550Y218096D01*
X951615Y218107D01*
G37*
G36*
X221462Y158107D02*
X221462Y158107D01*
X221528Y158109D01*
X221571Y158127D01*
X221618Y158135D01*
X221675Y158169D01*
X221735Y158194D01*
X221770Y158225D01*
X221811Y158250D01*
X221853Y158301D01*
X221901Y158345D01*
X221923Y158387D01*
X221952Y158424D01*
X221973Y158486D01*
X222004Y158545D01*
X222012Y158599D01*
X222024Y158636D01*
X222023Y158676D01*
X222031Y158730D01*
X222031Y161270D01*
X222020Y161335D01*
X222018Y161401D01*
X222000Y161444D01*
X221992Y161491D01*
X221958Y161548D01*
X221933Y161608D01*
X221902Y161643D01*
X221877Y161684D01*
X221826Y161726D01*
X221782Y161774D01*
X221740Y161796D01*
X221703Y161825D01*
X221641Y161846D01*
X221582Y161877D01*
X221528Y161885D01*
X221491Y161897D01*
X221451Y161896D01*
X221397Y161904D01*
X217587Y161904D01*
X217522Y161893D01*
X217456Y161891D01*
X217413Y161873D01*
X217366Y161865D01*
X217309Y161831D01*
X217249Y161806D01*
X217214Y161775D01*
X217173Y161750D01*
X217132Y161699D01*
X217083Y161655D01*
X217061Y161613D01*
X217032Y161576D01*
X217011Y161514D01*
X216980Y161455D01*
X216972Y161401D01*
X216960Y161364D01*
X216960Y161361D01*
X216961Y161324D01*
X216953Y161270D01*
X216953Y158730D01*
X216964Y158665D01*
X216966Y158599D01*
X216984Y158556D01*
X216992Y158509D01*
X217026Y158452D01*
X217051Y158392D01*
X217082Y158357D01*
X217107Y158316D01*
X217158Y158275D01*
X217202Y158226D01*
X217244Y158204D01*
X217281Y158175D01*
X217343Y158154D01*
X217402Y158123D01*
X217456Y158115D01*
X217493Y158103D01*
X217533Y158104D01*
X217587Y158096D01*
X221397Y158096D01*
X221462Y158107D01*
G37*
G36*
X606551Y158107D02*
X606551Y158107D01*
X606617Y158109D01*
X606661Y158127D01*
X606707Y158135D01*
X606764Y158169D01*
X606825Y158194D01*
X606860Y158225D01*
X606900Y158250D01*
X606942Y158301D01*
X606990Y158345D01*
X607012Y158387D01*
X607042Y158424D01*
X607063Y158486D01*
X607093Y158545D01*
X607101Y158599D01*
X607114Y158636D01*
X607113Y158676D01*
X607121Y158730D01*
X607121Y161270D01*
X607109Y161335D01*
X607107Y161401D01*
X607089Y161444D01*
X607081Y161491D01*
X607047Y161548D01*
X607023Y161608D01*
X606991Y161643D01*
X606967Y161684D01*
X606916Y161726D01*
X606871Y161774D01*
X606829Y161796D01*
X606793Y161825D01*
X606730Y161846D01*
X606672Y161877D01*
X606617Y161885D01*
X606580Y161897D01*
X606541Y161896D01*
X606486Y161904D01*
X602676Y161904D01*
X602612Y161893D01*
X602546Y161891D01*
X602502Y161873D01*
X602456Y161865D01*
X602399Y161831D01*
X602338Y161806D01*
X602303Y161775D01*
X602262Y161750D01*
X602221Y161699D01*
X602172Y161655D01*
X602151Y161613D01*
X602121Y161576D01*
X602100Y161514D01*
X602070Y161455D01*
X602062Y161401D01*
X602049Y161364D01*
X602049Y161361D01*
X602050Y161324D01*
X602042Y161270D01*
X602042Y158730D01*
X602054Y158665D01*
X602056Y158599D01*
X602073Y158556D01*
X602082Y158509D01*
X602115Y158452D01*
X602140Y158392D01*
X602172Y158357D01*
X602196Y158316D01*
X602247Y158275D01*
X602291Y158226D01*
X602334Y158204D01*
X602370Y158175D01*
X602432Y158154D01*
X602491Y158123D01*
X602545Y158115D01*
X602583Y158103D01*
X602622Y158104D01*
X602676Y158096D01*
X606486Y158096D01*
X606551Y158107D01*
G37*
G36*
X991615Y158107D02*
X991615Y158107D01*
X991681Y158109D01*
X991725Y158127D01*
X991771Y158135D01*
X991828Y158169D01*
X991889Y158194D01*
X991924Y158225D01*
X991964Y158250D01*
X992006Y158301D01*
X992054Y158345D01*
X992076Y158387D01*
X992106Y158424D01*
X992127Y158486D01*
X992157Y158545D01*
X992165Y158599D01*
X992178Y158636D01*
X992177Y158676D01*
X992185Y158730D01*
X992185Y161270D01*
X992173Y161335D01*
X992171Y161401D01*
X992153Y161444D01*
X992145Y161491D01*
X992111Y161548D01*
X992087Y161608D01*
X992055Y161643D01*
X992031Y161684D01*
X991980Y161726D01*
X991935Y161774D01*
X991893Y161796D01*
X991857Y161825D01*
X991794Y161846D01*
X991736Y161877D01*
X991681Y161885D01*
X991644Y161897D01*
X991605Y161896D01*
X991550Y161904D01*
X987740Y161904D01*
X987676Y161893D01*
X987610Y161891D01*
X987566Y161873D01*
X987520Y161865D01*
X987463Y161831D01*
X987402Y161806D01*
X987367Y161775D01*
X987326Y161750D01*
X987285Y161699D01*
X987236Y161655D01*
X987215Y161613D01*
X987185Y161576D01*
X987164Y161514D01*
X987134Y161455D01*
X987126Y161401D01*
X987113Y161364D01*
X987113Y161361D01*
X987114Y161324D01*
X987106Y161270D01*
X987106Y158730D01*
X987118Y158665D01*
X987120Y158599D01*
X987137Y158556D01*
X987146Y158509D01*
X987179Y158452D01*
X987204Y158392D01*
X987236Y158357D01*
X987260Y158316D01*
X987311Y158275D01*
X987355Y158226D01*
X987398Y158204D01*
X987434Y158175D01*
X987496Y158154D01*
X987555Y158123D01*
X987609Y158115D01*
X987647Y158103D01*
X987686Y158104D01*
X987740Y158096D01*
X991550Y158096D01*
X991615Y158107D01*
G37*
D10*
X369992Y50000D03*
X9992Y640000D03*
D11*
X309492Y64920D03*
X309492Y75080D03*
D12*
X309492Y57300D03*
X309492Y82700D03*
D13*
X339492Y64793D03*
X339492Y75207D03*
D14*
X279992Y15250D03*
X274992Y15250D03*
X269992Y15250D03*
X264992Y15250D03*
X259992Y15250D03*
X254992Y15250D03*
X249992Y15250D03*
X244992Y15250D03*
X239992Y15250D03*
X234992Y15250D03*
X229992Y15250D03*
X204992Y15250D03*
X199992Y15250D03*
X194992Y15250D03*
X189992Y15250D03*
X184992Y15250D03*
X179992Y15250D03*
X174992Y15250D03*
X169992Y15250D03*
X164992Y15250D03*
X159992Y15250D03*
X154992Y15250D03*
X149992Y15250D03*
X144992Y15250D03*
X139992Y15250D03*
X134992Y15250D03*
X129992Y15250D03*
X124992Y15250D03*
X119992Y15250D03*
X114992Y15250D03*
X109992Y15250D03*
X104992Y15250D03*
X99992Y15250D03*
D15*
X369992Y461000D03*
X369992Y419000D03*
X356992Y440000D03*
X9992Y419000D03*
X9992Y461000D03*
X22992Y440000D03*
D16*
X246642Y590000D03*
X132342Y590000D03*
D17*
X268242Y559500D03*
X110742Y559500D03*
D18*
X233942Y526500D03*
X221242Y501100D03*
X208542Y526500D03*
X195842Y501100D03*
X183142Y526500D03*
X170442Y501100D03*
X157742Y526500D03*
X145042Y501100D03*
X246642Y501100D03*
X132342Y526500D03*
X230392Y630600D03*
X148592Y630600D03*
X255792Y630600D03*
X123192Y630600D03*
D19*
X335428Y340000D03*
X343556Y340000D03*
X335428Y320000D03*
X343556Y320000D03*
X335428Y300000D03*
X343556Y300000D03*
D20*
X184699Y220000D03*
X174285Y220000D03*
D19*
X74572Y500000D03*
X64412Y500000D03*
D12*
X82192Y500000D03*
X56792Y500000D03*
D20*
X214285Y160000D03*
X224699Y160000D03*
D19*
X74572Y530000D03*
X64412Y530000D03*
D12*
X82192Y530000D03*
X56792Y530000D03*
D19*
X223556Y130000D03*
X215428Y130000D03*
D13*
X299492Y605207D03*
X299492Y594793D03*
X329492Y605207D03*
X329492Y594793D03*
D10*
X755081Y50000D03*
X395081Y640000D03*
D11*
X694581Y64920D03*
X694581Y75080D03*
D12*
X694581Y57300D03*
X694581Y82700D03*
D13*
X724581Y64793D03*
X724581Y75207D03*
D14*
X665081Y15250D03*
X660081Y15250D03*
X655081Y15250D03*
X650081Y15250D03*
X645081Y15250D03*
X640081Y15250D03*
X635081Y15250D03*
X630081Y15250D03*
X625081Y15250D03*
X620081Y15250D03*
X615081Y15250D03*
X590081Y15250D03*
X585081Y15250D03*
X580081Y15250D03*
X575081Y15250D03*
X570081Y15250D03*
X565081Y15250D03*
X560081Y15250D03*
X555081Y15250D03*
X550081Y15250D03*
X545081Y15250D03*
X540081Y15250D03*
X535081Y15250D03*
X530081Y15250D03*
X525081Y15250D03*
X520081Y15250D03*
X515081Y15250D03*
X510081Y15250D03*
X505081Y15250D03*
X500081Y15250D03*
X495081Y15250D03*
X490081Y15250D03*
X485081Y15250D03*
D15*
X755081Y461000D03*
X755081Y419000D03*
X742081Y440000D03*
X395081Y419000D03*
X395081Y461000D03*
X408081Y440000D03*
D16*
X631731Y590000D03*
X517431Y590000D03*
D17*
X653331Y559500D03*
X495831Y559500D03*
D18*
X619031Y526500D03*
X606331Y501100D03*
X593631Y526500D03*
X580931Y501100D03*
X568231Y526500D03*
X555531Y501100D03*
X542831Y526500D03*
X530131Y501100D03*
X631731Y501100D03*
X517431Y526500D03*
X615481Y630600D03*
X533681Y630600D03*
X640881Y630600D03*
X508281Y630600D03*
D19*
X720517Y340000D03*
X728645Y340000D03*
X720517Y320000D03*
X728645Y320000D03*
X720517Y300000D03*
X728645Y300000D03*
D20*
X569788Y220000D03*
X559374Y220000D03*
D19*
X459661Y500000D03*
X449501Y500000D03*
D12*
X467281Y500000D03*
X441881Y500000D03*
D20*
X599374Y160000D03*
X609788Y160000D03*
D19*
X459661Y530000D03*
X449501Y530000D03*
D12*
X467281Y530000D03*
X441881Y530000D03*
D19*
X608645Y130000D03*
X600517Y130000D03*
D13*
X684581Y605207D03*
X684581Y594793D03*
X714581Y605207D03*
X714581Y594793D03*
D10*
X1140145Y50000D03*
X780145Y640000D03*
D11*
X1079645Y64920D03*
X1079645Y75080D03*
D12*
X1079645Y57300D03*
X1079645Y82700D03*
D13*
X1109645Y64793D03*
X1109645Y75207D03*
D14*
X1050145Y15250D03*
X1045145Y15250D03*
X1040145Y15250D03*
X1035145Y15250D03*
X1030145Y15250D03*
X1025145Y15250D03*
X1020145Y15250D03*
X1015145Y15250D03*
X1010145Y15250D03*
X1005145Y15250D03*
X1000145Y15250D03*
X975145Y15250D03*
X970145Y15250D03*
X965145Y15250D03*
X960145Y15250D03*
X955145Y15250D03*
X950145Y15250D03*
X945145Y15250D03*
X940145Y15250D03*
X935145Y15250D03*
X930145Y15250D03*
X925145Y15250D03*
X920145Y15250D03*
X915145Y15250D03*
X910145Y15250D03*
X905145Y15250D03*
X900145Y15250D03*
X895145Y15250D03*
X890145Y15250D03*
X885145Y15250D03*
X880145Y15250D03*
X875145Y15250D03*
X870145Y15250D03*
D15*
X1140145Y461000D03*
X1140145Y419000D03*
X1127145Y440000D03*
X780145Y419000D03*
X780145Y461000D03*
X793145Y440000D03*
D16*
X1016795Y590000D03*
X902495Y590000D03*
D17*
X1038395Y559500D03*
X880895Y559500D03*
D18*
X1004095Y526500D03*
X991395Y501100D03*
X978695Y526500D03*
X965995Y501100D03*
X953295Y526500D03*
X940595Y501100D03*
X927895Y526500D03*
X915195Y501100D03*
X1016795Y501100D03*
X902495Y526500D03*
X1000545Y630600D03*
X918745Y630600D03*
X1025945Y630600D03*
X893345Y630600D03*
D19*
X1105581Y340000D03*
X1113709Y340000D03*
X1105581Y320000D03*
X1113709Y320000D03*
X1105581Y300000D03*
X1113709Y300000D03*
D20*
X954852Y220000D03*
X944438Y220000D03*
D19*
X844725Y500000D03*
X834565Y500000D03*
D12*
X852345Y500000D03*
X826945Y500000D03*
D20*
X984438Y160000D03*
X994852Y160000D03*
D19*
X844725Y530000D03*
X834565Y530000D03*
D12*
X852345Y530000D03*
X826945Y530000D03*
D19*
X993709Y130000D03*
X985581Y130000D03*
D13*
X1069645Y605207D03*
X1069645Y594793D03*
X1099645Y605207D03*
X1099645Y594793D03*
D10*
X10017Y1364297D03*
X370017Y774297D03*
D11*
X70517Y1349377D03*
X70517Y1339217D03*
D12*
X70517Y1356997D03*
X70517Y1331597D03*
D13*
X40517Y1349504D03*
X40517Y1339090D03*
D14*
X100017Y1399047D03*
X105017Y1399047D03*
X110017Y1399047D03*
X115017Y1399047D03*
X120017Y1399047D03*
X125017Y1399047D03*
X130017Y1399047D03*
X135017Y1399047D03*
X140017Y1399047D03*
X145017Y1399047D03*
X150017Y1399047D03*
X175017Y1399047D03*
X180017Y1399047D03*
X185017Y1399047D03*
X190017Y1399047D03*
X195017Y1399047D03*
X200017Y1399047D03*
X205017Y1399047D03*
X210017Y1399047D03*
X215017Y1399047D03*
X220017Y1399047D03*
X225017Y1399047D03*
X230017Y1399047D03*
X235017Y1399047D03*
X240017Y1399047D03*
X245017Y1399047D03*
X250017Y1399047D03*
X255017Y1399047D03*
X260017Y1399047D03*
X265017Y1399047D03*
X270017Y1399047D03*
X275017Y1399047D03*
X280017Y1399047D03*
D15*
X10017Y953297D03*
X10017Y995297D03*
X23017Y974297D03*
X370017Y995297D03*
X370017Y953297D03*
X357017Y974297D03*
D16*
X133367Y824297D03*
X247667Y824297D03*
D17*
X111767Y854797D03*
X269267Y854797D03*
D18*
X146067Y887797D03*
X158767Y913197D03*
X171467Y887797D03*
X184167Y913197D03*
X196867Y887797D03*
X209567Y913197D03*
X222267Y887797D03*
X234967Y913197D03*
X133367Y913197D03*
X247667Y887797D03*
X149617Y783697D03*
X231417Y783697D03*
X124217Y783697D03*
X256817Y783697D03*
D19*
X44581Y1074297D03*
X36453Y1074297D03*
X44581Y1094297D03*
X36453Y1094297D03*
X44581Y1114297D03*
X36453Y1114297D03*
D20*
X195310Y1194297D03*
X205724Y1194297D03*
D19*
X305437Y914297D03*
X315597Y914297D03*
D12*
X297817Y914297D03*
X323217Y914297D03*
D20*
X165724Y1254297D03*
X155310Y1254297D03*
D19*
X305437Y884297D03*
X315597Y884297D03*
D12*
X297817Y884297D03*
X323217Y884297D03*
D19*
X156453Y1284297D03*
X164581Y1284297D03*
D13*
X80517Y809090D03*
X80517Y819504D03*
X50517Y809090D03*
X50517Y819504D03*
D10*
X395081Y1364297D03*
X755081Y774297D03*
D11*
X455581Y1349377D03*
X455581Y1339217D03*
D12*
X455581Y1356997D03*
X455581Y1331597D03*
D13*
X425581Y1349504D03*
X425581Y1339090D03*
D14*
X485081Y1399047D03*
X490081Y1399047D03*
X495081Y1399047D03*
X500081Y1399047D03*
X505081Y1399047D03*
X510081Y1399047D03*
X515081Y1399047D03*
X520081Y1399047D03*
X525081Y1399047D03*
X530081Y1399047D03*
X535081Y1399047D03*
X560081Y1399047D03*
X565081Y1399047D03*
X570081Y1399047D03*
X575081Y1399047D03*
X580081Y1399047D03*
X585081Y1399047D03*
X590081Y1399047D03*
X595081Y1399047D03*
X600081Y1399047D03*
X605081Y1399047D03*
X610081Y1399047D03*
X615081Y1399047D03*
X620081Y1399047D03*
X625081Y1399047D03*
X630081Y1399047D03*
X635081Y1399047D03*
X640081Y1399047D03*
X645081Y1399047D03*
X650081Y1399047D03*
X655081Y1399047D03*
X660081Y1399047D03*
X665081Y1399047D03*
D15*
X395081Y953297D03*
X395081Y995297D03*
X408081Y974297D03*
X755081Y995297D03*
X755081Y953297D03*
X742081Y974297D03*
D16*
X518431Y824297D03*
X632731Y824297D03*
D17*
X496831Y854797D03*
X654331Y854797D03*
D18*
X531131Y887797D03*
X543831Y913197D03*
X556531Y887797D03*
X569231Y913197D03*
X581931Y887797D03*
X594631Y913197D03*
X607331Y887797D03*
X620031Y913197D03*
X518431Y913197D03*
X632731Y887797D03*
X534681Y783697D03*
X616481Y783697D03*
X509281Y783697D03*
X641881Y783697D03*
D19*
X429645Y1074297D03*
X421517Y1074297D03*
X429645Y1094297D03*
X421517Y1094297D03*
X429645Y1114297D03*
X421517Y1114297D03*
D20*
X580374Y1194297D03*
X590788Y1194297D03*
D19*
X690501Y914297D03*
X700661Y914297D03*
D12*
X682881Y914297D03*
X708281Y914297D03*
D20*
X550788Y1254297D03*
X540374Y1254297D03*
D19*
X690501Y884297D03*
X700661Y884297D03*
D12*
X682881Y884297D03*
X708281Y884297D03*
D19*
X541517Y1284297D03*
X549645Y1284297D03*
D13*
X465581Y809090D03*
X465581Y819504D03*
X435581Y809090D03*
X435581Y819504D03*
D10*
X780171Y1364297D03*
X1140171Y774297D03*
D11*
X840671Y1349377D03*
X840671Y1339217D03*
D12*
X840671Y1356997D03*
X840671Y1331597D03*
D13*
X810671Y1349504D03*
X810671Y1339090D03*
D14*
X870171Y1399047D03*
X875171Y1399047D03*
X880171Y1399047D03*
X885171Y1399047D03*
X890171Y1399047D03*
X895171Y1399047D03*
X900171Y1399047D03*
X905171Y1399047D03*
X910171Y1399047D03*
X915171Y1399047D03*
X920171Y1399047D03*
X945171Y1399047D03*
X950171Y1399047D03*
X955171Y1399047D03*
X960171Y1399047D03*
X965171Y1399047D03*
X970171Y1399047D03*
X975171Y1399047D03*
X980171Y1399047D03*
X985171Y1399047D03*
X990171Y1399047D03*
X995171Y1399047D03*
X1000171Y1399047D03*
X1005171Y1399047D03*
X1010171Y1399047D03*
X1015171Y1399047D03*
X1020171Y1399047D03*
X1025171Y1399047D03*
X1030171Y1399047D03*
X1035171Y1399047D03*
X1040171Y1399047D03*
X1045171Y1399047D03*
X1050171Y1399047D03*
D15*
X780171Y953297D03*
X780171Y995297D03*
X793171Y974297D03*
X1140171Y995297D03*
X1140171Y953297D03*
X1127171Y974297D03*
D16*
X903521Y824297D03*
X1017821Y824297D03*
D17*
X881921Y854797D03*
X1039421Y854797D03*
D18*
X916221Y887797D03*
X928921Y913197D03*
X941621Y887797D03*
X954321Y913197D03*
X967021Y887797D03*
X979721Y913197D03*
X992421Y887797D03*
X1005121Y913197D03*
X903521Y913197D03*
X1017821Y887797D03*
X919771Y783697D03*
X1001571Y783697D03*
X894371Y783697D03*
X1026971Y783697D03*
D19*
X814735Y1074297D03*
X806607Y1074297D03*
X814735Y1094297D03*
X806607Y1094297D03*
X814735Y1114297D03*
X806607Y1114297D03*
D20*
X965464Y1194297D03*
X975878Y1194297D03*
D19*
X1075591Y914297D03*
X1085751Y914297D03*
D12*
X1067971Y914297D03*
X1093371Y914297D03*
D20*
X935878Y1254297D03*
X925464Y1254297D03*
D19*
X1075591Y884297D03*
X1085751Y884297D03*
D12*
X1067971Y884297D03*
X1093371Y884297D03*
D19*
X926607Y1284297D03*
X934735Y1284297D03*
D13*
X850671Y809090D03*
X850671Y819504D03*
X820671Y809090D03*
X820671Y819504D03*
D21*
X-26238Y1350797D03*
X1176401Y1350797D03*
D22*
X-35293Y63500D02*
X-35290Y63722D01*
X-35282Y63944D01*
X-35268Y64166D01*
X-35249Y64388D01*
X-35225Y64608D01*
X-35195Y64829D01*
X-35160Y65048D01*
X-35119Y65267D01*
X-35073Y65484D01*
X-35022Y65700D01*
X-34965Y65915D01*
X-34903Y66129D01*
X-34836Y66340D01*
X-34764Y66551D01*
X-34686Y66759D01*
X-34604Y66965D01*
X-34516Y67169D01*
X-34424Y67372D01*
X-34326Y67571D01*
X-34224Y67768D01*
X-34117Y67963D01*
X-34005Y68155D01*
X-33888Y68344D01*
X-33767Y68531D01*
X-33641Y68714D01*
X-33511Y68894D01*
X-33376Y69071D01*
X-33238Y69244D01*
X-33095Y69414D01*
X-32947Y69581D01*
X-32796Y69744D01*
X-32641Y69903D01*
X-32482Y70058D01*
X-32319Y70209D01*
X-32152Y70357D01*
X-31982Y70500D01*
X-31809Y70638D01*
X-31632Y70773D01*
X-31452Y70903D01*
X-31269Y71029D01*
X-31082Y71150D01*
X-30893Y71267D01*
X-30701Y71379D01*
X-30506Y71486D01*
X-30309Y71588D01*
X-30110Y71686D01*
X-29907Y71778D01*
X-29703Y71866D01*
X-29497Y71948D01*
X-29289Y72026D01*
X-29078Y72098D01*
X-28867Y72165D01*
X-28653Y72227D01*
X-28438Y72284D01*
X-28222Y72335D01*
X-28005Y72381D01*
X-27786Y72422D01*
X-27567Y72457D01*
X-27346Y72487D01*
X-27126Y72511D01*
X-26904Y72530D01*
X-26682Y72544D01*
X-26460Y72552D01*
X-26238Y72555D01*
X-26016Y72552D01*
X-25794Y72544D01*
X-25572Y72530D01*
X-25350Y72511D01*
X-25130Y72487D01*
X-24909Y72457D01*
X-24690Y72422D01*
X-24471Y72381D01*
X-24254Y72335D01*
X-24038Y72284D01*
X-23823Y72227D01*
X-23609Y72165D01*
X-23398Y72098D01*
X-23187Y72026D01*
X-22979Y71948D01*
X-22773Y71866D01*
X-22569Y71778D01*
X-22366Y71686D01*
X-22167Y71588D01*
X-21970Y71486D01*
X-21775Y71379D01*
X-21583Y71267D01*
X-21394Y71150D01*
X-21207Y71029D01*
X-21024Y70903D01*
X-20844Y70773D01*
X-20667Y70638D01*
X-20494Y70500D01*
X-20324Y70357D01*
X-20157Y70209D01*
X-19994Y70058D01*
X-19835Y69903D01*
X-19680Y69744D01*
X-19529Y69581D01*
X-19381Y69414D01*
X-19238Y69244D01*
X-19100Y69071D01*
X-18965Y68894D01*
X-18835Y68714D01*
X-18709Y68531D01*
X-18588Y68344D01*
X-18471Y68155D01*
X-18359Y67963D01*
X-18252Y67768D01*
X-18150Y67571D01*
X-18052Y67372D01*
X-17960Y67169D01*
X-17872Y66965D01*
X-17790Y66759D01*
X-17712Y66551D01*
X-17640Y66340D01*
X-17573Y66129D01*
X-17511Y65915D01*
X-17454Y65700D01*
X-17403Y65484D01*
X-17357Y65267D01*
X-17316Y65048D01*
X-17281Y64829D01*
X-17251Y64608D01*
X-17227Y64388D01*
X-17208Y64166D01*
X-17194Y63944D01*
X-17186Y63722D01*
X-17183Y63500D01*
X-17186Y63278D01*
X-17194Y63056D01*
X-17208Y62834D01*
X-17227Y62612D01*
X-17251Y62392D01*
X-17281Y62171D01*
X-17316Y61952D01*
X-17357Y61733D01*
X-17403Y61516D01*
X-17454Y61300D01*
X-17511Y61085D01*
X-17573Y60871D01*
X-17640Y60660D01*
X-17712Y60449D01*
X-17790Y60241D01*
X-17872Y60035D01*
X-17960Y59831D01*
X-18052Y59628D01*
X-18150Y59429D01*
X-18252Y59232D01*
X-18359Y59037D01*
X-18471Y58845D01*
X-18588Y58656D01*
X-18709Y58469D01*
X-18835Y58286D01*
X-18965Y58106D01*
X-19100Y57929D01*
X-19238Y57756D01*
X-19381Y57586D01*
X-19529Y57419D01*
X-19680Y57256D01*
X-19835Y57097D01*
X-19994Y56942D01*
X-20157Y56791D01*
X-20324Y56643D01*
X-20494Y56500D01*
X-20667Y56362D01*
X-20844Y56227D01*
X-21024Y56097D01*
X-21207Y55971D01*
X-21394Y55850D01*
X-21583Y55733D01*
X-21775Y55621D01*
X-21970Y55514D01*
X-22167Y55412D01*
X-22366Y55314D01*
X-22569Y55222D01*
X-22773Y55134D01*
X-22979Y55052D01*
X-23187Y54974D01*
X-23398Y54902D01*
X-23609Y54835D01*
X-23823Y54773D01*
X-24038Y54716D01*
X-24254Y54665D01*
X-24471Y54619D01*
X-24690Y54578D01*
X-24909Y54543D01*
X-25130Y54513D01*
X-25350Y54489D01*
X-25572Y54470D01*
X-25794Y54456D01*
X-26016Y54448D01*
X-26238Y54445D01*
X-26460Y54448D01*
X-26682Y54456D01*
X-26904Y54470D01*
X-27126Y54489D01*
X-27346Y54513D01*
X-27567Y54543D01*
X-27786Y54578D01*
X-28005Y54619D01*
X-28222Y54665D01*
X-28438Y54716D01*
X-28653Y54773D01*
X-28867Y54835D01*
X-29078Y54902D01*
X-29289Y54974D01*
X-29497Y55052D01*
X-29703Y55134D01*
X-29907Y55222D01*
X-30110Y55314D01*
X-30309Y55412D01*
X-30506Y55514D01*
X-30701Y55621D01*
X-30893Y55733D01*
X-31082Y55850D01*
X-31269Y55971D01*
X-31452Y56097D01*
X-31632Y56227D01*
X-31809Y56362D01*
X-31982Y56500D01*
X-32152Y56643D01*
X-32319Y56791D01*
X-32482Y56942D01*
X-32641Y57097D01*
X-32796Y57256D01*
X-32947Y57419D01*
X-33095Y57586D01*
X-33238Y57756D01*
X-33376Y57929D01*
X-33511Y58106D01*
X-33641Y58286D01*
X-33767Y58469D01*
X-33888Y58656D01*
X-34005Y58845D01*
X-34117Y59037D01*
X-34224Y59232D01*
X-34326Y59429D01*
X-34424Y59628D01*
X-34516Y59831D01*
X-34604Y60035D01*
X-34686Y60241D01*
X-34764Y60449D01*
X-34836Y60660D01*
X-34903Y60871D01*
X-34965Y61085D01*
X-35022Y61300D01*
X-35073Y61516D01*
X-35119Y61733D01*
X-35160Y61952D01*
X-35195Y62171D01*
X-35225Y62392D01*
X-35249Y62612D01*
X-35268Y62834D01*
X-35282Y63056D01*
X-35290Y63278D01*
X-35293Y63500D01*
D18*
X-26238Y63500D03*
M02*
