M48
;GenerationSoftware,Autodesk,EAGLE,9.6.2*%
;CreationDate,2021-07-21T18:35:19Z*%
FMAT,2
ICI,OFF
METRIC,TZ,000.000
T3C0.305
T2C1.016
T1C3.302
%
G90
M71
T1
X34239Y57150
X72748Y57150
X3762Y80470
X42268Y80470
T2
X31699Y6350
X31699Y8890
X70208Y6350
X70208Y8890
X6302Y131270
X6302Y128730
X44808Y131270
X44808Y128730
T3
X16205Y54118
X14554Y51832
X21793Y57150
X21793Y53991
X23444Y51959
X28016Y53864
X33223Y38243
X31191Y39894
X29032Y38243
X28778Y17923
X30810Y16399
X37125Y12970
X37052Y18469
X36960Y25995
X36144Y10414
X21793Y59055
X21793Y60325
X21793Y61595
X21793Y62865
X21793Y64135
X30175Y64135
X30175Y62865
X30175Y61595
X30175Y60325
X30175Y59055
X28524Y4588
X23190Y5731
X18618Y3699
X17602Y3699
X11125Y6366
X27381Y55896
X27381Y57166
X24714Y57166
X24714Y56023
X30175Y57166
X25984Y51959
X35890Y29337
X6426Y12446
X19634Y11049
X32991Y28160
X27051Y12827
X32994Y25560
X26213Y12827
X32969Y7366
X14652Y12065
X6045Y14859
X32999Y33200
X15888Y13102
X32999Y35740
X15189Y13589
X32999Y30660
X16346Y12213
X16629Y10922
X3800Y13503
X14152Y10287
X2489Y12700
X13634Y9620
X1219Y12192
X2616Y8128
X3759Y7341
X7569Y7366
X12649Y9271
X6426Y9252
X11125Y9017
X11379Y11049
X7442Y11049
X19507Y5080
X21184Y5074
X20345Y5080
X71600Y23060
X66398Y12446
X45316Y16272
X47602Y18050
X43411Y17923
X43284Y38243
X45316Y39894
X47475Y38243
X50396Y51832
X48872Y53991
X50523Y56150
X53063Y56277
X54714Y54118
X53063Y51832
X60302Y57150
X60302Y53991
X61953Y51959
X66525Y53864
X71732Y38243
X69700Y39894
X67541Y38243
X67287Y17923
X69319Y16399
X75634Y12970
X75561Y18469
X75469Y25995
X74653Y10414
X60302Y59055
X60302Y60325
X60302Y61595
X60302Y62865
X60302Y64135
X68684Y64135
X68684Y62865
X68684Y61595
X68684Y60325
X68684Y59055
X67033Y4588
X61699Y5731
X57127Y3699
X56111Y3699
X49634Y6366
X65890Y55896
X65890Y57166
X63223Y57166
X63223Y56023
X68684Y57166
X64493Y51959
X74399Y29337
X44935Y12446
X58143Y11049
X71500Y28160
X65560Y12827
X71503Y25560
X64722Y12827
X71478Y7366
X53161Y12065
X44554Y14859
X71508Y33200
X54397Y13102
X71508Y35740
X53698Y13589
X71508Y30660
X54855Y12213
X55138Y10922
X42309Y13503
X52661Y10287
X40998Y12700
X52142Y9620
X39728Y12192
X41125Y8128
X42268Y7341
X46078Y7366
X51158Y9271
X44935Y9252
X49634Y9017
X49888Y11049
X45951Y11049
X58016Y5080
X59693Y5074
X58854Y5080
X4910Y114560
X10112Y125174
X31194Y121348
X28908Y119570
X33099Y119697
X33226Y99377
X31194Y97726
X29035Y99377
X26114Y85788
X27638Y83629
X25987Y81470
X23447Y81343
X21796Y83502
X23447Y85788
X16208Y80470
X16208Y83629
X14557Y85661
X9985Y83756
X4778Y99377
X6810Y97726
X8969Y99377
X9223Y119697
X7191Y121221
X876Y124650
X949Y119151
X1041Y111625
X1857Y127206
X16208Y78565
X16208Y77295
X16208Y76025
X16208Y74755
X16208Y73485
X7826Y73485
X7826Y74755
X7826Y76025
X7826Y77295
X7826Y78565
X9477Y133032
X14811Y131889
X19383Y133921
X20399Y133921
X26876Y131254
X10620Y81724
X10620Y80454
X13287Y80454
X13287Y81597
X7826Y80454
X12017Y85661
X2111Y108283
X31575Y125174
X18367Y126571
X5010Y109460
X10950Y124793
X5007Y112060
X11788Y124793
X5032Y130254
X23349Y125555
X31956Y122761
X5002Y104420
X22113Y124518
X5002Y101880
X22812Y124031
X5002Y106960
X21655Y125407
X21372Y126698
X34201Y124117
X23849Y127333
X35512Y124920
X24367Y127999
X36782Y125428
X35385Y129492
X34242Y130279
X30432Y130254
X25352Y128349
X31575Y128368
X26876Y128603
X26622Y126571
X30559Y126571
X18494Y132540
X16817Y132546
X17656Y132540
X43416Y114560
X48618Y125174
X69700Y121348
X67414Y119570
X71605Y119697
X71732Y99377
X69700Y97726
X67541Y99377
X64620Y85788
X66144Y83629
X64493Y81470
X61953Y81343
X60302Y83502
X61953Y85788
X54714Y80470
X54714Y83629
X53063Y85661
X48491Y83756
X43284Y99377
X45316Y97726
X47475Y99377
X47729Y119697
X45697Y121221
X39382Y124650
X39455Y119151
X39547Y111625
X40363Y127206
X54714Y78565
X54714Y77295
X54714Y76025
X54714Y74755
X54714Y73485
X46332Y73485
X46332Y74755
X46332Y76025
X46332Y77295
X46332Y78565
X47983Y133032
X53317Y131889
X57889Y133921
X58905Y133921
X65382Y131254
X49126Y81724
X49126Y80454
X51793Y80454
X51793Y81597
X46332Y80454
X50523Y85661
X40617Y108283
X70081Y125174
X56873Y126571
X43516Y109460
X49456Y124793
X43513Y112060
X50295Y124793
X43538Y130254
X61855Y125555
X70462Y122761
X43508Y104420
X60620Y124518
X43508Y101880
X61318Y124031
X43508Y106960
X60161Y125407
X59878Y126698
X72707Y124117
X62355Y127333
X74018Y124920
X62874Y127999
X75288Y125428
X73891Y129492
X72748Y130279
X68938Y130254
X63858Y128349
X70081Y128368
X65382Y128603
X65128Y126571
X69065Y126571
X57000Y132540
X55324Y132546
X56162Y132540
X33091Y23060
X27889Y12446
X6807Y16272
X9093Y18050
X4902Y17923
X4775Y38243
X36999Y46100
X36999Y41900
X35699Y44000
X999Y41900
X999Y46100
X2299Y44000
X6807Y39894
X8966Y38243
X75508Y46100
X75508Y41900
X74208Y44000
X39508Y41900
X39508Y46100
X40808Y44000
X11887Y51832
X10363Y53991
X1002Y91520
X1002Y95720
X2302Y93620
X37002Y95720
X37002Y91520
X35702Y93620
X12014Y56150
X14554Y56277
X39508Y91520
X39508Y95720
X40808Y93620
X75508Y95720
X75508Y91520
X74208Y93620
M30