M48
;GenerationSoftware,Autodesk,EAGLE,9.6.2*%
;CreationDate,2021-09-17T03:21:58Z*%
FMAT,2
ICI,OFF
METRIC,TZ,000.000
T5C0.305
T4C0.900
T3C1.016
T2C1.700
T1C3.250
%
G90
M71
T1
X90250Y59000
X24664Y59000
X13234Y59000
X63173Y59000
X51743Y59000
X101680Y59000
X13337Y82430
X24767Y82430
X51843Y82430
X63273Y82430
X90352Y82430
X101782Y82430
T2
X49583Y55950
X88090Y55950
X103840Y55950
X65333Y55950
X26824Y55950
X11074Y55950
X11177Y85480
X26927Y85480
X49683Y85480
X65433Y85480
X88192Y85480
X103942Y85480
T3
X44188Y50000
X69458Y8270
X46728Y53000
X44188Y53000
X107965Y5730
X107965Y8270
X69458Y5730
X46728Y50000
X8219Y50000
X5679Y50000
X85235Y50000
X82695Y50000
X85235Y53000
X82695Y53000
X7052Y135700
X7052Y133160
X109337Y88430
X30949Y5730
X29782Y91430
X32322Y91430
X29782Y88430
X32322Y88430
X45558Y135700
X45558Y133160
X30949Y8270
X106797Y88430
X8219Y53000
X68288Y91430
X70828Y91430
X68288Y88430
X70828Y88430
X84067Y135700
X84067Y133160
X5679Y53000
X106797Y91430
X109337Y91430
T4
X64088Y63060
X50828Y63060
X100410Y52650
X99140Y50110
X97870Y52650
X96600Y50110
X95330Y52650
X94060Y50110
X91520Y50110
X101680Y50110
X90250Y52650
X100055Y63060
X92790Y52650
X102595Y63060
X89335Y63060
X22124Y50110
X20854Y52650
X19584Y50110
X18314Y52650
X17044Y50110
X15774Y52650
X14504Y50110
X24664Y50110
X14607Y88780
X15877Y91320
X17147Y88780
X18417Y91320
X19687Y88780
X20957Y91320
X22227Y88780
X23497Y91320
X13337Y91320
X24767Y88780
X14962Y78370
X23142Y78370
X12422Y78370
X25682Y78370
X13234Y52650
X23039Y63060
X14859Y63060
X25579Y63060
X12319Y63060
X23394Y52650
X61903Y52650
X60633Y50110
X53113Y88780
X54383Y91320
X59363Y52650
X56923Y91320
X58193Y88780
X59463Y91320
X60733Y88780
X62003Y91320
X51843Y91320
X63273Y88780
X53468Y78370
X61648Y78370
X50928Y78370
X64188Y78370
X58093Y50110
X56823Y52650
X55553Y50110
X54283Y52650
X53013Y50110
X63173Y50110
X91875Y63060
X51743Y52650
X91622Y88780
X92892Y91320
X94162Y88780
X95432Y91320
X96702Y88780
X97972Y91320
X99242Y88780
X100512Y91320
X90352Y91320
X101782Y88780
X91977Y78370
X100157Y78370
X89437Y78370
X102697Y78370
X61548Y63060
X53368Y63060
X55653Y88780
T5
X73458Y41000
X71458Y41000
X63334Y14748
X72458Y58500
X57508Y11000
X52458Y9000
X65758Y3200
X73890Y25800
X64858Y3200
X73052Y25788
X74018Y8382
X55996Y4900
X71858Y26100
X53458Y7000
X66355Y5700
X74358Y26600
X52458Y5000
X56231Y3758
X44558Y7000
X58058Y8800
X57805Y6800
X58605Y7800
X61436Y4478
X61450Y6400
X67720Y29600
X68558Y29600
X67555Y5100
X74658Y28100
X64458Y37100
X64458Y44000
X71358Y33000
X71739Y37363
X73858Y36900
X71358Y31000
X75458Y36800
X71358Y29000
X49458Y47600
X57458Y44000
X51466Y47600
X57558Y48300
X58718Y21971
X62431Y15173
X63458Y20000
X72113Y17399
X57658Y17200
X45458Y37000
X44458Y21000
X61445Y7620
X61699Y9144
X61496Y10922
X102465Y4600
X110961Y25200
X80965Y10000
X95265Y3100
X97665Y3800
X105265Y4700
X113965Y8600
X112965Y15000
X112965Y23000
X104065Y22900
X108965Y29600
X106365Y31700
X106365Y33200
X106411Y34527
X104165Y36000
X113465Y35600
X109665Y33900
X107965Y41000
X103965Y41000
X101965Y41000
X99965Y36200
X99965Y32000
X99965Y30000
X98965Y28000
X98965Y26000
X88965Y42000
X98965Y44000
X91933Y10565
X100965Y7700
X92565Y4000
X86665Y3400
X86965Y10000
X90965Y13000
X92965Y17000
X90965Y22000
X94965Y13000
X96965Y25000
X91065Y35200
X97965Y32000
X97165Y35200
X99965Y40000
X100965Y44000
X104965Y27000
X106565Y12500
X88965Y4000
X108007Y29591
X99925Y22003
X111965Y41000
X109965Y41000
X101841Y14748
X110965Y58500
X96015Y11000
X90965Y9000
X104265Y3200
X112397Y25800
X103365Y3200
X111558Y25788
X112525Y8382
X94503Y4900
X110365Y26100
X91965Y7000
X104861Y5700
X112865Y26600
X90965Y5000
X94737Y3758
X83065Y7000
X96565Y8800
X96311Y6800
X97111Y7800
X99942Y4478
X99957Y6400
X106226Y29600
X107065Y29600
X106061Y5100
X113165Y28100
X102965Y37100
X102965Y44000
X109865Y33000
X110245Y37363
X112365Y36900
X109865Y31000
X113965Y36800
X109865Y29000
X87965Y47600
X95965Y44000
X89973Y47600
X96065Y48300
X97225Y21971
X100938Y15173
X101965Y20000
X110620Y17399
X96165Y17200
X83965Y37000
X82965Y21000
X99952Y7620
X100206Y9144
X100002Y10922
X12552Y136830
X4055Y116230
X34052Y131430
X19752Y138330
X17352Y137630
X9752Y136730
X1052Y132830
X2052Y126430
X2052Y118430
X10952Y118530
X6052Y111830
X8652Y109730
X8652Y108230
X8606Y106903
X10852Y105430
X1552Y105830
X5352Y107530
X7052Y100430
X11052Y100430
X13052Y100430
X15052Y105230
X15052Y109430
X15052Y111430
X16052Y113430
X16052Y115430
X26052Y99430
X16052Y97430
X23084Y130865
X14052Y133730
X22452Y137430
X28352Y138030
X28052Y131430
X24052Y128430
X22052Y124430
X24052Y119430
X20052Y128430
X18052Y116430
X23952Y106230
X17052Y109430
X17852Y106230
X15052Y101430
X14052Y97430
X10052Y114430
X8452Y128930
X26052Y137430
X7010Y111839
X15092Y119427
X3052Y100430
X5052Y100430
X13176Y126682
X4052Y82930
X19002Y130430
X24052Y132430
X10752Y138230
X2620Y115630
X11652Y138230
X3458Y115641
X2492Y133048
X20514Y136530
X4652Y115330
X23052Y134430
X10155Y135730
X2152Y114830
X24052Y136430
X20279Y137672
X31952Y134430
X18452Y132630
X18705Y134630
X17905Y133630
X15074Y136952
X15060Y135030
X8790Y111830
X7952Y111830
X8955Y136330
X1852Y113330
X12052Y104330
X12052Y97430
X5152Y108430
X4771Y104066
X2652Y104530
X5152Y110430
X1052Y104630
X5152Y112430
X27052Y93830
X19052Y97430
X25044Y93830
X18952Y93130
X17792Y119459
X14079Y126257
X13052Y121430
X23190Y9144
X18852Y124230
X31052Y104430
X32052Y120430
X15065Y133810
X14811Y132286
X15014Y130508
X51058Y136830
X42561Y116230
X72558Y131430
X58258Y138330
X55858Y137630
X48258Y136730
X39558Y132830
X40558Y126430
X40558Y118430
X49458Y118530
X44558Y111830
X47158Y109730
X47158Y108230
X47112Y106903
X49358Y105430
X40058Y105830
X43858Y107530
X45558Y100430
X49558Y100430
X51558Y100430
X53558Y105230
X53558Y109430
X53558Y111430
X54558Y113430
X54558Y115430
X64558Y99430
X54558Y97430
X61590Y130865
X52558Y133730
X60958Y137430
X66858Y138030
X66558Y131430
X62558Y128430
X60558Y124430
X62558Y119430
X58558Y128430
X56558Y116430
X62458Y106230
X55558Y109430
X56358Y106230
X53558Y101430
X52558Y97430
X48558Y114430
X46958Y128930
X64558Y137430
X45516Y111839
X53598Y119427
X41558Y100430
X43558Y100430
X51682Y126682
X42558Y82930
X57508Y130430
X62558Y132430
X49258Y138230
X41126Y115630
X50158Y138230
X41964Y115641
X40998Y133048
X59020Y136530
X43158Y115330
X61558Y134430
X48661Y135730
X40658Y114830
X62558Y136430
X58785Y137672
X70458Y134430
X56958Y132630
X57211Y134630
X56411Y133630
X53580Y136952
X53566Y135030
X47296Y111830
X46458Y111830
X47461Y136330
X40358Y113330
X50558Y104330
X50558Y97430
X43658Y108430
X43277Y104066
X41158Y104530
X43658Y110430
X39558Y104630
X43658Y112430
X65558Y93830
X57558Y97430
X63550Y93830
X57458Y93130
X56298Y119459
X52585Y126257
X51558Y121430
X42903Y124031
X57358Y124230
X69558Y104430
X70558Y120430
X53571Y133810
X53317Y132286
X53520Y130508
X89567Y136830
X81070Y116230
X111067Y131430
X96767Y138330
X94367Y137630
X86767Y136730
X78067Y132830
X79067Y126430
X79067Y118430
X87967Y118530
X83067Y111830
X85667Y109730
X85667Y108230
X85621Y106903
X87867Y105430
X78567Y105830
X82367Y107530
X84067Y100430
X88067Y100430
X90067Y100430
X92067Y105230
X92067Y109430
X92067Y111430
X93067Y113430
X93067Y115430
X103067Y99430
X93067Y97430
X100099Y130865
X91067Y133730
X99467Y137430
X105367Y138030
X105067Y131430
X101067Y128430
X99067Y124430
X101067Y119430
X97067Y128430
X95067Y116430
X100967Y106230
X94067Y109430
X94867Y106230
X92067Y101430
X91067Y97430
X87067Y114430
X85467Y128930
X103067Y137430
X84025Y111839
X92107Y119427
X80067Y100430
X82067Y100430
X90191Y126682
X81067Y82930
X96017Y130430
X101067Y132430
X87767Y138230
X79635Y115630
X88667Y138230
X80473Y115641
X79507Y133048
X97529Y136530
X81667Y115330
X100067Y134430
X87170Y135730
X79167Y114830
X101067Y136430
X97294Y137672
X108967Y134430
X95467Y132630
X95720Y134630
X94920Y133630
X92089Y136952
X92075Y135030
X85805Y111830
X84967Y111830
X85970Y136330
X78867Y113330
X89067Y104330
X89067Y97430
X82167Y108430
X81786Y104066
X79667Y104530
X82167Y110430
X78067Y104630
X82167Y112430
X104067Y93830
X96067Y97430
X102059Y93830
X25449Y4600
X94807Y119459
X91094Y126257
X90067Y121430
X81412Y124031
X95867Y124230
X108067Y104430
X109067Y120430
X92080Y133810
X91826Y132286
X92029Y130508
X33946Y25200
X3949Y10000
X18249Y3100
X20649Y3800
X28249Y4700
X36949Y8600
X35949Y15000
X35949Y23000
X27049Y22900
X31949Y29600
X29349Y31700
X29349Y33200
X29395Y34527
X27149Y36000
X36999Y46100
X36999Y41900
X35699Y44000
X999Y41900
X999Y46100
X2299Y44000
X36449Y35600
X32649Y33900
X30949Y41000
X26949Y41000
X24949Y41000
X22949Y36200
X22949Y32000
X22949Y30000
X21949Y28000
X21949Y26000
X11949Y42000
X21949Y44000
X14917Y10565
X23949Y7700
X15549Y4000
X9649Y3400
X9949Y10000
X13949Y13000
X15949Y17000
X13949Y22000
X17949Y13000
X19949Y25000
X75508Y46100
X75508Y41900
X74208Y44000
X39508Y41900
X39508Y46100
X40808Y44000
X14049Y35200
X20949Y32000
X20149Y35200
X22949Y40000
X23949Y44000
X27949Y27000
X29549Y12500
X11949Y4000
X30991Y29591
X22909Y22003
X34949Y41000
X32949Y41000
X24825Y14748
X33949Y58500
X18999Y11000
X13949Y9000
X27249Y3200
X35381Y25800
X26349Y3200
X34543Y25788
X35509Y8382
X17487Y4900
X114015Y46100
X114015Y41900
X112715Y44000
X78015Y41900
X78015Y46100
X79315Y44000
X33349Y26100
X14949Y7000
X27846Y5700
X35849Y26600
X13949Y5000
X17722Y3758
X6049Y7000
X19549Y8800
X4397Y124031
X19296Y6800
X20096Y7800
X22927Y4478
X22941Y6400
X29211Y29600
X30049Y29600
X29046Y5100
X36149Y28100
X25949Y37100
X25949Y44000
X32849Y33000
X33230Y37363
X35349Y36900
X1002Y95330
X1002Y99530
X2302Y97430
X37002Y99530
X37002Y95330
X35702Y97430
X32849Y31000
X36949Y36800
X32849Y29000
X10949Y47600
X18949Y44000
X12957Y47600
X19049Y48300
X20209Y21971
X23922Y15173
X24949Y20000
X33604Y17399
X19149Y17200
X6949Y37000
X5949Y21000
X22936Y7620
X22987Y10922
X63958Y4600
X72455Y25200
X42458Y10000
X56758Y3100
X59158Y3800
X66758Y4700
X39508Y95330
X39508Y99530
X40808Y97430
X75508Y99530
X75508Y95330
X74208Y97430
X75458Y8600
X74458Y15000
X74458Y23000
X65558Y22900
X70458Y29600
X67858Y31700
X67858Y33200
X67904Y34527
X65658Y36000
X74958Y35600
X71158Y33900
X69458Y41000
X65458Y41000
X63458Y41000
X61458Y36200
X61458Y32000
X61458Y30000
X60458Y28000
X60458Y26000
X50458Y42000
X60458Y44000
X53426Y10565
X78017Y95330
X78017Y99530
X79317Y97430
X114017Y99530
X114017Y95330
X112717Y97430
X62458Y7700
X54058Y4000
X48158Y3400
X48458Y10000
X52458Y13000
X54458Y17000
X52458Y22000
X56458Y13000
X58458Y25000
X52558Y35200
X59458Y32000
X58658Y35200
X61458Y40000
X62458Y44000
X66458Y27000
X68058Y12500
X50458Y4000
X69500Y29591
X61418Y22003
X95967Y93130
M30