G04 EAGLE Gerber RS-274X export*
G75*
%MOMM*%
%FSLAX34Y34*%
%LPD*%
%INSoldermask Bottom*%
%IPPOS*%
%AMOC8*
5,1,8,0,0,1.08239X$1,22.5*%
G01*
%ADD10C,0.838200*%
%ADD11R,0.838200X1.473200*%
%ADD12C,2.082800*%
%ADD13R,1.473200X0.863600*%
%ADD14R,0.553200X2.153200*%
%ADD15C,0.863600*%
%ADD16C,3.453200*%
%ADD17C,2.753200*%
%ADD18C,1.703200*%
%ADD19R,0.863600X1.473200*%
%ADD20C,1.219200*%
%ADD21C,1.203200*%
%ADD22C,1.270000*%

G36*
X389013Y934129D02*
X389013Y934129D01*
X389022Y934132D01*
X389048Y934134D01*
X392882Y934968D01*
X392891Y934972D01*
X392916Y934978D01*
X396592Y936349D01*
X396600Y936355D01*
X396625Y936364D01*
X400068Y938244D01*
X400075Y938251D01*
X400098Y938263D01*
X403239Y940615D01*
X403245Y940623D01*
X403266Y940638D01*
X406041Y943413D01*
X406045Y943421D01*
X406064Y943439D01*
X408415Y946580D01*
X408419Y946590D01*
X408435Y946610D01*
X410315Y950054D01*
X410317Y950063D01*
X410330Y950086D01*
X411701Y953763D01*
X411702Y953772D01*
X411711Y953797D01*
X412545Y957631D01*
X412544Y957640D01*
X412550Y957666D01*
X412830Y961580D01*
X412828Y961589D01*
X412830Y961615D01*
X412550Y965529D01*
X412549Y965533D01*
X412549Y965536D01*
X412546Y965542D01*
X412545Y965564D01*
X411711Y969398D01*
X411706Y969407D01*
X411701Y969432D01*
X410330Y973108D01*
X410324Y973116D01*
X410315Y973141D01*
X408435Y976584D01*
X408428Y976591D01*
X408415Y976614D01*
X406064Y979755D01*
X406056Y979761D01*
X406041Y979782D01*
X403266Y982557D01*
X403258Y982561D01*
X403239Y982580D01*
X400098Y984931D01*
X400089Y984935D01*
X400068Y984951D01*
X396625Y986831D01*
X396615Y986833D01*
X396592Y986846D01*
X392916Y988217D01*
X392907Y988218D01*
X392882Y988227D01*
X389048Y989061D01*
X389038Y989060D01*
X389013Y989066D01*
X385099Y989346D01*
X385074Y989341D01*
X385048Y989344D01*
X385007Y989326D01*
X384963Y989317D01*
X384944Y989298D01*
X384920Y989288D01*
X384895Y989250D01*
X384863Y989218D01*
X384858Y989193D01*
X384843Y989171D01*
X384832Y989097D01*
X384832Y979097D01*
X384834Y979090D01*
X384833Y979083D01*
X384854Y979024D01*
X384871Y978963D01*
X384877Y978958D01*
X384879Y978952D01*
X384929Y978913D01*
X384977Y978871D01*
X384984Y978870D01*
X384989Y978866D01*
X385062Y978849D01*
X387780Y978635D01*
X390412Y978003D01*
X392913Y976967D01*
X395221Y975553D01*
X397279Y973795D01*
X399037Y971737D01*
X400451Y969429D01*
X401487Y966928D01*
X402119Y964296D01*
X402331Y961597D01*
X402119Y958899D01*
X401487Y956267D01*
X400451Y953766D01*
X399037Y951458D01*
X397279Y949400D01*
X395221Y947642D01*
X392913Y946228D01*
X390412Y945192D01*
X387780Y944560D01*
X385062Y944346D01*
X385055Y944343D01*
X385048Y944344D01*
X384990Y944319D01*
X384931Y944296D01*
X384927Y944291D01*
X384920Y944288D01*
X384885Y944235D01*
X384848Y944184D01*
X384847Y944177D01*
X384843Y944171D01*
X384832Y944097D01*
X384832Y934097D01*
X384839Y934072D01*
X384837Y934046D01*
X384859Y934007D01*
X384871Y933963D01*
X384891Y933946D01*
X384903Y933923D01*
X384943Y933901D01*
X384977Y933871D01*
X385002Y933867D01*
X385025Y933855D01*
X385099Y933849D01*
X389013Y934129D01*
G37*
G36*
X3949Y934129D02*
X3949Y934129D01*
X3958Y934132D01*
X3984Y934134D01*
X7818Y934968D01*
X7827Y934972D01*
X7852Y934978D01*
X11528Y936349D01*
X11536Y936355D01*
X11561Y936364D01*
X15004Y938244D01*
X15011Y938251D01*
X15034Y938263D01*
X18175Y940615D01*
X18181Y940623D01*
X18202Y940638D01*
X20977Y943413D01*
X20981Y943421D01*
X21000Y943439D01*
X23351Y946580D01*
X23355Y946590D01*
X23371Y946610D01*
X25251Y950054D01*
X25253Y950063D01*
X25266Y950086D01*
X26637Y953763D01*
X26638Y953772D01*
X26647Y953797D01*
X27481Y957631D01*
X27480Y957640D01*
X27486Y957666D01*
X27766Y961580D01*
X27764Y961589D01*
X27766Y961615D01*
X27486Y965529D01*
X27485Y965533D01*
X27485Y965536D01*
X27482Y965542D01*
X27481Y965564D01*
X26647Y969398D01*
X26642Y969407D01*
X26637Y969432D01*
X25266Y973108D01*
X25260Y973116D01*
X25251Y973141D01*
X23371Y976584D01*
X23364Y976591D01*
X23351Y976614D01*
X21000Y979755D01*
X20992Y979761D01*
X20977Y979782D01*
X18202Y982557D01*
X18194Y982561D01*
X18175Y982580D01*
X15034Y984931D01*
X15025Y984935D01*
X15004Y984951D01*
X11561Y986831D01*
X11551Y986833D01*
X11528Y986846D01*
X7852Y988217D01*
X7843Y988218D01*
X7818Y988227D01*
X3984Y989061D01*
X3974Y989060D01*
X3949Y989066D01*
X35Y989346D01*
X10Y989341D01*
X-16Y989344D01*
X-57Y989326D01*
X-101Y989317D01*
X-120Y989298D01*
X-144Y989288D01*
X-169Y989250D01*
X-201Y989218D01*
X-206Y989193D01*
X-221Y989171D01*
X-232Y989097D01*
X-232Y979097D01*
X-230Y979090D01*
X-231Y979083D01*
X-210Y979024D01*
X-193Y978963D01*
X-187Y978958D01*
X-185Y978952D01*
X-135Y978913D01*
X-87Y978871D01*
X-80Y978870D01*
X-75Y978866D01*
X-2Y978849D01*
X2716Y978635D01*
X5348Y978003D01*
X7849Y976967D01*
X10157Y975553D01*
X12215Y973795D01*
X13973Y971737D01*
X15387Y969429D01*
X16423Y966928D01*
X17055Y964296D01*
X17267Y961597D01*
X17055Y958899D01*
X16423Y956267D01*
X15387Y953766D01*
X13973Y951458D01*
X12215Y949400D01*
X10157Y947642D01*
X7849Y946228D01*
X5348Y945192D01*
X2716Y944560D01*
X-2Y944346D01*
X-9Y944343D01*
X-16Y944344D01*
X-74Y944319D01*
X-133Y944296D01*
X-137Y944291D01*
X-144Y944288D01*
X-179Y944235D01*
X-216Y944184D01*
X-217Y944177D01*
X-221Y944171D01*
X-232Y944097D01*
X-232Y934097D01*
X-225Y934072D01*
X-227Y934046D01*
X-205Y934007D01*
X-193Y933963D01*
X-173Y933946D01*
X-161Y933923D01*
X-121Y933901D01*
X-87Y933871D01*
X-62Y933867D01*
X-39Y933855D01*
X35Y933849D01*
X3949Y934129D01*
G37*
G36*
X774102Y934129D02*
X774102Y934129D01*
X774111Y934132D01*
X774137Y934134D01*
X777971Y934968D01*
X777980Y934972D01*
X778006Y934978D01*
X781682Y936349D01*
X781690Y936355D01*
X781714Y936364D01*
X785158Y938244D01*
X785165Y938251D01*
X785188Y938263D01*
X788329Y940615D01*
X788335Y940623D01*
X788356Y940638D01*
X791130Y943413D01*
X791135Y943421D01*
X791153Y943439D01*
X793505Y946580D01*
X793508Y946590D01*
X793524Y946610D01*
X795404Y950054D01*
X795407Y950063D01*
X795419Y950086D01*
X796790Y953763D01*
X796791Y953772D01*
X796800Y953797D01*
X797634Y957631D01*
X797634Y957640D01*
X797640Y957666D01*
X797919Y961580D01*
X797917Y961589D01*
X797919Y961615D01*
X797640Y965529D01*
X797638Y965533D01*
X797638Y965536D01*
X797636Y965542D01*
X797634Y965564D01*
X796800Y969398D01*
X796796Y969407D01*
X796790Y969432D01*
X795419Y973108D01*
X795413Y973116D01*
X795404Y973141D01*
X793524Y976584D01*
X793517Y976591D01*
X793505Y976614D01*
X791153Y979755D01*
X791146Y979761D01*
X791130Y979782D01*
X788356Y982557D01*
X788347Y982561D01*
X788329Y982580D01*
X785188Y984931D01*
X785179Y984935D01*
X785158Y984951D01*
X781714Y986831D01*
X781705Y986833D01*
X781682Y986846D01*
X778006Y988217D01*
X777996Y988218D01*
X777971Y988227D01*
X774137Y989061D01*
X774128Y989060D01*
X774102Y989066D01*
X770189Y989346D01*
X770163Y989341D01*
X770137Y989344D01*
X770096Y989326D01*
X770052Y989317D01*
X770034Y989298D01*
X770010Y989288D01*
X769985Y989250D01*
X769953Y989218D01*
X769947Y989193D01*
X769933Y989171D01*
X769922Y989097D01*
X769922Y979097D01*
X769924Y979090D01*
X769922Y979083D01*
X769943Y979024D01*
X769961Y978963D01*
X769966Y978958D01*
X769969Y978952D01*
X770018Y978913D01*
X770066Y978871D01*
X770073Y978870D01*
X770079Y978866D01*
X770151Y978849D01*
X772869Y978635D01*
X775501Y978003D01*
X778002Y976967D01*
X780310Y975553D01*
X782368Y973795D01*
X784126Y971737D01*
X785541Y969429D01*
X786577Y966928D01*
X787208Y964296D01*
X787421Y961597D01*
X787208Y958899D01*
X786577Y956267D01*
X785541Y953766D01*
X784126Y951458D01*
X782368Y949400D01*
X780310Y947642D01*
X778002Y946228D01*
X775501Y945192D01*
X772869Y944560D01*
X770151Y944346D01*
X770145Y944343D01*
X770137Y944344D01*
X770080Y944319D01*
X770021Y944296D01*
X770016Y944291D01*
X770010Y944288D01*
X769975Y944235D01*
X769937Y944184D01*
X769937Y944177D01*
X769933Y944171D01*
X769922Y944097D01*
X769922Y934097D01*
X769929Y934072D01*
X769927Y934046D01*
X769948Y934007D01*
X769961Y933963D01*
X769980Y933946D01*
X769993Y933923D01*
X770032Y933901D01*
X770066Y933871D01*
X770092Y933867D01*
X770115Y933855D01*
X770189Y933849D01*
X774102Y934129D01*
G37*
G36*
X3923Y412531D02*
X3923Y412531D01*
X3933Y412535D01*
X3959Y412536D01*
X7793Y413370D01*
X7801Y413375D01*
X7827Y413380D01*
X11503Y414752D01*
X11511Y414757D01*
X11535Y414766D01*
X14979Y416647D01*
X14986Y416654D01*
X15009Y416666D01*
X18150Y419017D01*
X18156Y419025D01*
X18177Y419041D01*
X20951Y421815D01*
X20956Y421824D01*
X20975Y421842D01*
X23326Y424983D01*
X23329Y424992D01*
X23345Y425013D01*
X25226Y428457D01*
X25228Y428466D01*
X25240Y428489D01*
X26612Y432165D01*
X26612Y432175D01*
X26622Y432199D01*
X27456Y436033D01*
X27455Y436043D01*
X27461Y436069D01*
X27741Y439982D01*
X27739Y439992D01*
X27741Y440018D01*
X27461Y443931D01*
X27459Y443936D01*
X27460Y443939D01*
X27457Y443945D01*
X27456Y443967D01*
X26622Y447801D01*
X26617Y447809D01*
X26612Y447835D01*
X25240Y451511D01*
X25235Y451519D01*
X25226Y451543D01*
X23345Y454987D01*
X23338Y454994D01*
X23326Y455017D01*
X20975Y458158D01*
X20967Y458164D01*
X20951Y458185D01*
X18177Y460959D01*
X18168Y460964D01*
X18150Y460983D01*
X15009Y463334D01*
X15000Y463337D01*
X14979Y463353D01*
X11535Y465234D01*
X11526Y465236D01*
X11503Y465248D01*
X7827Y466620D01*
X7817Y466620D01*
X7793Y466630D01*
X3959Y467464D01*
X3949Y467463D01*
X3923Y467469D01*
X10Y467749D01*
X-16Y467743D01*
X-41Y467747D01*
X-83Y467729D01*
X-127Y467719D01*
X-145Y467701D01*
X-169Y467690D01*
X-194Y467652D01*
X-226Y467621D01*
X-232Y467595D01*
X-246Y467574D01*
X-257Y467500D01*
X-257Y457500D01*
X-255Y457493D01*
X-257Y457486D01*
X-236Y457427D01*
X-218Y457366D01*
X-213Y457361D01*
X-210Y457354D01*
X-160Y457316D01*
X-113Y457274D01*
X-106Y457273D01*
X-100Y457268D01*
X-28Y457252D01*
X2690Y457038D01*
X5323Y456406D01*
X7823Y455370D01*
X10131Y453956D01*
X12190Y452198D01*
X13948Y450139D01*
X15362Y447831D01*
X16398Y445331D01*
X17030Y442698D01*
X17242Y440000D01*
X17030Y437302D01*
X16398Y434669D01*
X15362Y432169D01*
X13948Y429861D01*
X12190Y427802D01*
X10131Y426044D01*
X7823Y424630D01*
X5323Y423594D01*
X2690Y422962D01*
X-28Y422748D01*
X-34Y422746D01*
X-41Y422747D01*
X-99Y422721D01*
X-158Y422699D01*
X-163Y422693D01*
X-169Y422690D01*
X-204Y422637D01*
X-242Y422587D01*
X-242Y422580D01*
X-246Y422574D01*
X-257Y422500D01*
X-257Y412500D01*
X-250Y412475D01*
X-252Y412449D01*
X-231Y412409D01*
X-218Y412366D01*
X-198Y412349D01*
X-186Y412326D01*
X-147Y412304D01*
X-113Y412274D01*
X-87Y412270D01*
X-64Y412257D01*
X10Y412251D01*
X3923Y412531D01*
G37*
G36*
X389013Y412531D02*
X389013Y412531D01*
X389022Y412535D01*
X389048Y412536D01*
X392882Y413370D01*
X392891Y413375D01*
X392916Y413380D01*
X396592Y414752D01*
X396600Y414757D01*
X396625Y414766D01*
X400068Y416647D01*
X400075Y416654D01*
X400098Y416666D01*
X403239Y419017D01*
X403245Y419025D01*
X403266Y419041D01*
X406041Y421815D01*
X406045Y421824D01*
X406064Y421842D01*
X408415Y424983D01*
X408419Y424992D01*
X408435Y425013D01*
X410315Y428457D01*
X410317Y428466D01*
X410330Y428489D01*
X411701Y432165D01*
X411702Y432175D01*
X411711Y432199D01*
X412545Y436033D01*
X412544Y436043D01*
X412550Y436069D01*
X412830Y439982D01*
X412828Y439992D01*
X412830Y440018D01*
X412550Y443931D01*
X412549Y443936D01*
X412549Y443939D01*
X412546Y443945D01*
X412545Y443967D01*
X411711Y447801D01*
X411706Y447809D01*
X411701Y447835D01*
X410330Y451511D01*
X410324Y451519D01*
X410315Y451543D01*
X408435Y454987D01*
X408428Y454994D01*
X408415Y455017D01*
X406064Y458158D01*
X406056Y458164D01*
X406041Y458185D01*
X403266Y460959D01*
X403258Y460964D01*
X403239Y460983D01*
X400098Y463334D01*
X400089Y463337D01*
X400068Y463353D01*
X396625Y465234D01*
X396615Y465236D01*
X396592Y465248D01*
X392916Y466620D01*
X392907Y466620D01*
X392882Y466630D01*
X389048Y467464D01*
X389038Y467463D01*
X389013Y467469D01*
X385099Y467749D01*
X385074Y467743D01*
X385048Y467747D01*
X385007Y467729D01*
X384963Y467719D01*
X384944Y467701D01*
X384920Y467690D01*
X384895Y467652D01*
X384863Y467621D01*
X384858Y467595D01*
X384843Y467574D01*
X384832Y467500D01*
X384832Y457500D01*
X384834Y457493D01*
X384833Y457486D01*
X384854Y457427D01*
X384871Y457366D01*
X384877Y457361D01*
X384879Y457354D01*
X384929Y457316D01*
X384977Y457274D01*
X384984Y457273D01*
X384989Y457268D01*
X385062Y457252D01*
X387780Y457038D01*
X390412Y456406D01*
X392913Y455370D01*
X395221Y453956D01*
X397279Y452198D01*
X399037Y450139D01*
X400451Y447831D01*
X401487Y445331D01*
X402119Y442698D01*
X402331Y440000D01*
X402119Y437302D01*
X401487Y434669D01*
X400451Y432169D01*
X399037Y429861D01*
X397279Y427802D01*
X395221Y426044D01*
X392913Y424630D01*
X390412Y423594D01*
X387780Y422962D01*
X385062Y422748D01*
X385055Y422746D01*
X385048Y422747D01*
X384990Y422721D01*
X384931Y422699D01*
X384927Y422693D01*
X384920Y422690D01*
X384885Y422637D01*
X384848Y422587D01*
X384847Y422580D01*
X384843Y422574D01*
X384832Y422500D01*
X384832Y412500D01*
X384839Y412475D01*
X384837Y412449D01*
X384859Y412409D01*
X384871Y412366D01*
X384891Y412349D01*
X384903Y412326D01*
X384943Y412304D01*
X384977Y412274D01*
X385002Y412270D01*
X385025Y412257D01*
X385099Y412251D01*
X389013Y412531D01*
G37*
G36*
X774077Y412531D02*
X774077Y412531D01*
X774086Y412535D01*
X774112Y412536D01*
X777946Y413370D01*
X777955Y413375D01*
X777980Y413380D01*
X781656Y414752D01*
X781664Y414757D01*
X781689Y414766D01*
X785132Y416647D01*
X785139Y416654D01*
X785162Y416666D01*
X788303Y419017D01*
X788309Y419025D01*
X788330Y419041D01*
X791105Y421815D01*
X791109Y421824D01*
X791128Y421842D01*
X793479Y424983D01*
X793483Y424992D01*
X793499Y425013D01*
X795379Y428457D01*
X795381Y428466D01*
X795394Y428489D01*
X796765Y432165D01*
X796766Y432175D01*
X796775Y432199D01*
X797609Y436033D01*
X797608Y436043D01*
X797614Y436069D01*
X797894Y439982D01*
X797892Y439992D01*
X797894Y440018D01*
X797614Y443931D01*
X797613Y443936D01*
X797613Y443939D01*
X797610Y443945D01*
X797609Y443967D01*
X796775Y447801D01*
X796770Y447809D01*
X796765Y447835D01*
X795394Y451511D01*
X795388Y451519D01*
X795379Y451543D01*
X793499Y454987D01*
X793492Y454994D01*
X793479Y455017D01*
X791128Y458158D01*
X791120Y458164D01*
X791105Y458185D01*
X788330Y460959D01*
X788322Y460964D01*
X788303Y460983D01*
X785162Y463334D01*
X785153Y463337D01*
X785132Y463353D01*
X781689Y465234D01*
X781679Y465236D01*
X781656Y465248D01*
X777980Y466620D01*
X777971Y466620D01*
X777946Y466630D01*
X774112Y467464D01*
X774102Y467463D01*
X774077Y467469D01*
X770163Y467749D01*
X770138Y467743D01*
X770112Y467747D01*
X770071Y467729D01*
X770027Y467719D01*
X770008Y467701D01*
X769984Y467690D01*
X769959Y467652D01*
X769927Y467621D01*
X769922Y467595D01*
X769907Y467574D01*
X769896Y467500D01*
X769896Y457500D01*
X769898Y457493D01*
X769897Y457486D01*
X769918Y457427D01*
X769935Y457366D01*
X769941Y457361D01*
X769943Y457354D01*
X769993Y457316D01*
X770041Y457274D01*
X770048Y457273D01*
X770053Y457268D01*
X770126Y457252D01*
X772844Y457038D01*
X775476Y456406D01*
X777977Y455370D01*
X780285Y453956D01*
X782343Y452198D01*
X784101Y450139D01*
X785515Y447831D01*
X786551Y445331D01*
X787183Y442698D01*
X787395Y440000D01*
X787183Y437302D01*
X786551Y434669D01*
X785515Y432169D01*
X784101Y429861D01*
X782343Y427802D01*
X780285Y426044D01*
X777977Y424630D01*
X775476Y423594D01*
X772844Y422962D01*
X770126Y422748D01*
X770119Y422746D01*
X770112Y422747D01*
X770054Y422721D01*
X769995Y422699D01*
X769991Y422693D01*
X769984Y422690D01*
X769949Y422637D01*
X769912Y422587D01*
X769911Y422580D01*
X769907Y422574D01*
X769896Y422500D01*
X769896Y412500D01*
X769903Y412475D01*
X769901Y412449D01*
X769923Y412409D01*
X769935Y412366D01*
X769955Y412349D01*
X769967Y412326D01*
X770007Y412304D01*
X770041Y412274D01*
X770066Y412270D01*
X770089Y412257D01*
X770163Y412251D01*
X774077Y412531D01*
G37*
G36*
X1150153Y412257D02*
X1150153Y412257D01*
X1150179Y412253D01*
X1150220Y412271D01*
X1150264Y412281D01*
X1150283Y412299D01*
X1150307Y412310D01*
X1150331Y412348D01*
X1150364Y412379D01*
X1150369Y412405D01*
X1150384Y412427D01*
X1150395Y412500D01*
X1150395Y422500D01*
X1150393Y422507D01*
X1150394Y422514D01*
X1150373Y422573D01*
X1150355Y422634D01*
X1150350Y422639D01*
X1150348Y422646D01*
X1150298Y422685D01*
X1150250Y422726D01*
X1150243Y422727D01*
X1150237Y422732D01*
X1150165Y422748D01*
X1147447Y422962D01*
X1144815Y423594D01*
X1142314Y424630D01*
X1140006Y426044D01*
X1137948Y427802D01*
X1136190Y429861D01*
X1134776Y432169D01*
X1133740Y434669D01*
X1133108Y437302D01*
X1132895Y440000D01*
X1133108Y442698D01*
X1133740Y445331D01*
X1134776Y447831D01*
X1136190Y450139D01*
X1137948Y452198D01*
X1140006Y453956D01*
X1142314Y455370D01*
X1144815Y456406D01*
X1147447Y457038D01*
X1150165Y457252D01*
X1150172Y457254D01*
X1150179Y457253D01*
X1150237Y457279D01*
X1150296Y457301D01*
X1150300Y457307D01*
X1150307Y457310D01*
X1150341Y457363D01*
X1150379Y457413D01*
X1150380Y457421D01*
X1150384Y457427D01*
X1150395Y457500D01*
X1150395Y467500D01*
X1150387Y467525D01*
X1150389Y467551D01*
X1150368Y467591D01*
X1150355Y467634D01*
X1150336Y467651D01*
X1150324Y467674D01*
X1150284Y467696D01*
X1150250Y467726D01*
X1150224Y467730D01*
X1150202Y467743D01*
X1150128Y467749D01*
X1146214Y467469D01*
X1146205Y467465D01*
X1146179Y467464D01*
X1142345Y466630D01*
X1142336Y466625D01*
X1142311Y466620D01*
X1138634Y465248D01*
X1138627Y465243D01*
X1138602Y465234D01*
X1135158Y463353D01*
X1135152Y463346D01*
X1135128Y463334D01*
X1131987Y460983D01*
X1131982Y460975D01*
X1131961Y460959D01*
X1129186Y458185D01*
X1129181Y458176D01*
X1129163Y458158D01*
X1126811Y455017D01*
X1126808Y455008D01*
X1126792Y454987D01*
X1124912Y451543D01*
X1124910Y451534D01*
X1124897Y451511D01*
X1123526Y447835D01*
X1123525Y447825D01*
X1123516Y447801D01*
X1122682Y443967D01*
X1122682Y443957D01*
X1122677Y443931D01*
X1122397Y440018D01*
X1122399Y440008D01*
X1122397Y439982D01*
X1122677Y436069D01*
X1122680Y436059D01*
X1122682Y436033D01*
X1123516Y432199D01*
X1123520Y432191D01*
X1123526Y432165D01*
X1124897Y428489D01*
X1124903Y428481D01*
X1124912Y428457D01*
X1126792Y425013D01*
X1126799Y425006D01*
X1126811Y424983D01*
X1129163Y421842D01*
X1129171Y421836D01*
X1129186Y421815D01*
X1131961Y419041D01*
X1131969Y419036D01*
X1131987Y419017D01*
X1135128Y416666D01*
X1135138Y416663D01*
X1135158Y416647D01*
X1138602Y414766D01*
X1138611Y414764D01*
X1138634Y414752D01*
X1142311Y413380D01*
X1142320Y413380D01*
X1142345Y413370D01*
X1146179Y412536D01*
X1146188Y412537D01*
X1146214Y412531D01*
X1150128Y412251D01*
X1150153Y412257D01*
G37*
G36*
X765089Y933854D02*
X765089Y933854D01*
X765115Y933850D01*
X765156Y933869D01*
X765200Y933878D01*
X765219Y933897D01*
X765243Y933907D01*
X765267Y933945D01*
X765300Y933977D01*
X765305Y934002D01*
X765320Y934024D01*
X765331Y934097D01*
X765331Y944097D01*
X765329Y944104D01*
X765330Y944111D01*
X765309Y944171D01*
X765291Y944232D01*
X765286Y944236D01*
X765284Y944243D01*
X765234Y944282D01*
X765186Y944324D01*
X765179Y944325D01*
X765173Y944329D01*
X765101Y944346D01*
X762383Y944560D01*
X759751Y945192D01*
X757250Y946228D01*
X754942Y947642D01*
X752884Y949400D01*
X751126Y951458D01*
X749712Y953766D01*
X748676Y956267D01*
X748044Y958899D01*
X747831Y961597D01*
X748044Y964296D01*
X748676Y966928D01*
X749712Y969429D01*
X751126Y971737D01*
X752884Y973795D01*
X754942Y975553D01*
X757250Y976967D01*
X759751Y978003D01*
X762383Y978635D01*
X765101Y978849D01*
X765108Y978852D01*
X765115Y978850D01*
X765173Y978876D01*
X765232Y978899D01*
X765236Y978904D01*
X765243Y978907D01*
X765277Y978960D01*
X765315Y979011D01*
X765316Y979018D01*
X765320Y979024D01*
X765331Y979097D01*
X765331Y989097D01*
X765323Y989122D01*
X765325Y989148D01*
X765304Y989188D01*
X765291Y989232D01*
X765272Y989249D01*
X765260Y989272D01*
X765220Y989294D01*
X765186Y989324D01*
X765160Y989327D01*
X765138Y989340D01*
X765064Y989346D01*
X761150Y989066D01*
X761141Y989063D01*
X761115Y989061D01*
X757281Y988227D01*
X757272Y988222D01*
X757247Y988217D01*
X753570Y986846D01*
X753563Y986840D01*
X753538Y986831D01*
X750094Y984951D01*
X750088Y984944D01*
X750064Y984931D01*
X746923Y982580D01*
X746918Y982572D01*
X746897Y982557D01*
X744122Y979782D01*
X744117Y979774D01*
X744099Y979755D01*
X741747Y976614D01*
X741744Y976605D01*
X741728Y976584D01*
X739848Y973141D01*
X739846Y973131D01*
X739833Y973108D01*
X738462Y969432D01*
X738461Y969423D01*
X738452Y969398D01*
X737618Y965564D01*
X737618Y965554D01*
X737613Y965529D01*
X737333Y961615D01*
X737335Y961606D01*
X737333Y961580D01*
X737613Y957666D01*
X737616Y957657D01*
X737618Y957631D01*
X738452Y953797D01*
X738456Y953788D01*
X738462Y953763D01*
X739833Y950086D01*
X739839Y950079D01*
X739848Y950054D01*
X741728Y946610D01*
X741735Y946604D01*
X741747Y946580D01*
X744099Y943439D01*
X744107Y943434D01*
X744122Y943413D01*
X746897Y940638D01*
X746905Y940633D01*
X746923Y940615D01*
X750064Y938263D01*
X750074Y938260D01*
X750094Y938244D01*
X753538Y936364D01*
X753547Y936362D01*
X753570Y936349D01*
X757247Y934978D01*
X757256Y934977D01*
X757281Y934968D01*
X761115Y934134D01*
X761124Y934134D01*
X761150Y934129D01*
X765064Y933849D01*
X765089Y933854D01*
G37*
G36*
X380025Y933854D02*
X380025Y933854D01*
X380051Y933850D01*
X380092Y933869D01*
X380136Y933878D01*
X380155Y933897D01*
X380179Y933907D01*
X380203Y933945D01*
X380236Y933977D01*
X380241Y934002D01*
X380256Y934024D01*
X380267Y934097D01*
X380267Y944097D01*
X380265Y944104D01*
X380266Y944111D01*
X380245Y944171D01*
X380227Y944232D01*
X380222Y944236D01*
X380220Y944243D01*
X380170Y944282D01*
X380122Y944324D01*
X380115Y944325D01*
X380109Y944329D01*
X380037Y944346D01*
X377319Y944560D01*
X374687Y945192D01*
X372186Y946228D01*
X369878Y947642D01*
X367820Y949400D01*
X366062Y951458D01*
X364648Y953766D01*
X363612Y956267D01*
X362980Y958899D01*
X362767Y961597D01*
X362980Y964296D01*
X363612Y966928D01*
X364648Y969429D01*
X366062Y971737D01*
X367820Y973795D01*
X369878Y975553D01*
X372186Y976967D01*
X374687Y978003D01*
X377319Y978635D01*
X380037Y978849D01*
X380044Y978852D01*
X380051Y978850D01*
X380109Y978876D01*
X380168Y978899D01*
X380172Y978904D01*
X380179Y978907D01*
X380213Y978960D01*
X380251Y979011D01*
X380252Y979018D01*
X380256Y979024D01*
X380267Y979097D01*
X380267Y989097D01*
X380259Y989122D01*
X380261Y989148D01*
X380240Y989188D01*
X380227Y989232D01*
X380208Y989249D01*
X380196Y989272D01*
X380156Y989294D01*
X380122Y989324D01*
X380096Y989327D01*
X380074Y989340D01*
X380000Y989346D01*
X376086Y989066D01*
X376077Y989063D01*
X376051Y989061D01*
X372217Y988227D01*
X372208Y988222D01*
X372183Y988217D01*
X368506Y986846D01*
X368499Y986840D01*
X368474Y986831D01*
X365030Y984951D01*
X365024Y984944D01*
X365000Y984931D01*
X361859Y982580D01*
X361854Y982572D01*
X361833Y982557D01*
X359058Y979782D01*
X359053Y979774D01*
X359035Y979755D01*
X356683Y976614D01*
X356680Y976605D01*
X356664Y976584D01*
X354784Y973141D01*
X354782Y973131D01*
X354769Y973108D01*
X353398Y969432D01*
X353397Y969423D01*
X353388Y969398D01*
X352554Y965564D01*
X352554Y965554D01*
X352549Y965529D01*
X352269Y961615D01*
X352271Y961606D01*
X352269Y961580D01*
X352549Y957666D01*
X352552Y957657D01*
X352554Y957631D01*
X353388Y953797D01*
X353392Y953788D01*
X353398Y953763D01*
X354769Y950086D01*
X354775Y950079D01*
X354784Y950054D01*
X356664Y946610D01*
X356671Y946604D01*
X356683Y946580D01*
X359035Y943439D01*
X359043Y943434D01*
X359058Y943413D01*
X361833Y940638D01*
X361841Y940633D01*
X361859Y940615D01*
X365000Y938263D01*
X365010Y938260D01*
X365030Y938244D01*
X368474Y936364D01*
X368483Y936362D01*
X368506Y936349D01*
X372183Y934978D01*
X372192Y934977D01*
X372217Y934968D01*
X376051Y934134D01*
X376060Y934134D01*
X376086Y934129D01*
X380000Y933849D01*
X380025Y933854D01*
G37*
G36*
X765089Y412257D02*
X765089Y412257D01*
X765115Y412253D01*
X765156Y412271D01*
X765200Y412281D01*
X765219Y412299D01*
X765243Y412310D01*
X765267Y412348D01*
X765300Y412379D01*
X765305Y412405D01*
X765320Y412427D01*
X765331Y412500D01*
X765331Y422500D01*
X765329Y422507D01*
X765330Y422514D01*
X765309Y422573D01*
X765291Y422634D01*
X765286Y422639D01*
X765284Y422646D01*
X765234Y422685D01*
X765186Y422726D01*
X765179Y422727D01*
X765173Y422732D01*
X765101Y422748D01*
X762383Y422962D01*
X759751Y423594D01*
X757250Y424630D01*
X754942Y426044D01*
X752884Y427802D01*
X751126Y429861D01*
X749712Y432169D01*
X748676Y434669D01*
X748044Y437302D01*
X747831Y440000D01*
X748044Y442698D01*
X748676Y445331D01*
X749712Y447831D01*
X751126Y450139D01*
X752884Y452198D01*
X754942Y453956D01*
X757250Y455370D01*
X759751Y456406D01*
X762383Y457038D01*
X765101Y457252D01*
X765108Y457254D01*
X765115Y457253D01*
X765173Y457279D01*
X765232Y457301D01*
X765236Y457307D01*
X765243Y457310D01*
X765277Y457363D01*
X765315Y457413D01*
X765316Y457421D01*
X765320Y457427D01*
X765331Y457500D01*
X765331Y467500D01*
X765323Y467525D01*
X765325Y467551D01*
X765304Y467591D01*
X765291Y467634D01*
X765272Y467651D01*
X765260Y467674D01*
X765220Y467696D01*
X765186Y467726D01*
X765160Y467730D01*
X765138Y467743D01*
X765064Y467749D01*
X761150Y467469D01*
X761141Y467465D01*
X761115Y467464D01*
X757281Y466630D01*
X757272Y466625D01*
X757247Y466620D01*
X753570Y465248D01*
X753563Y465243D01*
X753538Y465234D01*
X750094Y463353D01*
X750088Y463346D01*
X750064Y463334D01*
X746923Y460983D01*
X746918Y460975D01*
X746897Y460959D01*
X744122Y458185D01*
X744117Y458176D01*
X744099Y458158D01*
X741747Y455017D01*
X741744Y455008D01*
X741728Y454987D01*
X739848Y451543D01*
X739846Y451534D01*
X739833Y451511D01*
X738462Y447835D01*
X738461Y447825D01*
X738452Y447801D01*
X737618Y443967D01*
X737618Y443957D01*
X737613Y443931D01*
X737333Y440018D01*
X737335Y440008D01*
X737333Y439982D01*
X737613Y436069D01*
X737616Y436059D01*
X737618Y436033D01*
X738452Y432199D01*
X738456Y432191D01*
X738462Y432165D01*
X739833Y428489D01*
X739839Y428481D01*
X739848Y428457D01*
X741728Y425013D01*
X741735Y425006D01*
X741747Y424983D01*
X744099Y421842D01*
X744107Y421836D01*
X744122Y421815D01*
X746897Y419041D01*
X746905Y419036D01*
X746923Y419017D01*
X750064Y416666D01*
X750074Y416663D01*
X750094Y416647D01*
X753538Y414766D01*
X753547Y414764D01*
X753570Y414752D01*
X757247Y413380D01*
X757256Y413380D01*
X757281Y413370D01*
X761115Y412536D01*
X761124Y412537D01*
X761150Y412531D01*
X765064Y412251D01*
X765089Y412257D01*
G37*
G36*
X1150179Y933854D02*
X1150179Y933854D01*
X1150204Y933850D01*
X1150246Y933869D01*
X1150290Y933878D01*
X1150308Y933897D01*
X1150332Y933907D01*
X1150357Y933945D01*
X1150389Y933977D01*
X1150395Y934002D01*
X1150409Y934024D01*
X1150420Y934097D01*
X1150420Y944097D01*
X1150418Y944104D01*
X1150420Y944111D01*
X1150399Y944171D01*
X1150381Y944232D01*
X1150375Y944236D01*
X1150373Y944243D01*
X1150323Y944282D01*
X1150276Y944324D01*
X1150268Y944325D01*
X1150263Y944329D01*
X1150190Y944346D01*
X1147472Y944560D01*
X1144840Y945192D01*
X1142339Y946228D01*
X1140032Y947642D01*
X1137973Y949400D01*
X1136215Y951458D01*
X1134801Y953766D01*
X1133765Y956267D01*
X1133133Y958899D01*
X1132921Y961597D01*
X1133133Y964296D01*
X1133765Y966928D01*
X1134801Y969429D01*
X1136215Y971737D01*
X1137973Y973795D01*
X1140032Y975553D01*
X1142339Y976967D01*
X1144840Y978003D01*
X1147472Y978635D01*
X1150190Y978849D01*
X1150197Y978852D01*
X1150204Y978850D01*
X1150262Y978876D01*
X1150321Y978899D01*
X1150325Y978904D01*
X1150332Y978907D01*
X1150367Y978960D01*
X1150405Y979011D01*
X1150405Y979018D01*
X1150409Y979024D01*
X1150420Y979097D01*
X1150420Y989097D01*
X1150413Y989122D01*
X1150415Y989148D01*
X1150394Y989188D01*
X1150381Y989232D01*
X1150361Y989249D01*
X1150349Y989272D01*
X1150310Y989294D01*
X1150276Y989324D01*
X1150250Y989327D01*
X1150227Y989340D01*
X1150153Y989346D01*
X1146239Y989066D01*
X1146230Y989063D01*
X1146204Y989061D01*
X1142370Y988227D01*
X1142362Y988222D01*
X1142336Y988217D01*
X1138660Y986846D01*
X1138652Y986840D01*
X1138627Y986831D01*
X1135184Y984951D01*
X1135177Y984944D01*
X1135154Y984931D01*
X1132013Y982580D01*
X1132007Y982572D01*
X1131986Y982557D01*
X1129211Y979782D01*
X1129207Y979774D01*
X1129188Y979755D01*
X1126837Y976614D01*
X1126833Y976605D01*
X1126818Y976584D01*
X1124937Y973141D01*
X1124935Y973131D01*
X1124922Y973108D01*
X1123551Y969432D01*
X1123551Y969423D01*
X1123541Y969398D01*
X1122707Y965564D01*
X1122708Y965554D01*
X1122702Y965529D01*
X1122422Y961615D01*
X1122424Y961606D01*
X1122422Y961580D01*
X1122702Y957666D01*
X1122705Y957657D01*
X1122707Y957631D01*
X1123541Y953797D01*
X1123546Y953788D01*
X1123551Y953763D01*
X1124922Y950086D01*
X1124928Y950079D01*
X1124937Y950054D01*
X1126818Y946610D01*
X1126824Y946604D01*
X1126837Y946580D01*
X1129188Y943439D01*
X1129196Y943434D01*
X1129211Y943413D01*
X1131986Y940638D01*
X1131994Y940633D01*
X1132013Y940615D01*
X1135154Y938263D01*
X1135163Y938260D01*
X1135184Y938244D01*
X1138627Y936364D01*
X1138637Y936362D01*
X1138660Y936349D01*
X1142336Y934978D01*
X1142346Y934977D01*
X1142370Y934968D01*
X1146204Y934134D01*
X1146214Y934134D01*
X1146239Y934129D01*
X1150153Y933849D01*
X1150179Y933854D01*
G37*
G36*
X380000Y412257D02*
X380000Y412257D01*
X380025Y412253D01*
X380067Y412271D01*
X380111Y412281D01*
X380129Y412299D01*
X380153Y412310D01*
X380178Y412348D01*
X380210Y412379D01*
X380216Y412405D01*
X380230Y412427D01*
X380241Y412500D01*
X380241Y422500D01*
X380239Y422507D01*
X380241Y422514D01*
X380220Y422573D01*
X380202Y422634D01*
X380197Y422639D01*
X380194Y422646D01*
X380144Y422685D01*
X380097Y422726D01*
X380090Y422727D01*
X380084Y422732D01*
X380012Y422748D01*
X377294Y422962D01*
X374661Y423594D01*
X372161Y424630D01*
X369853Y426044D01*
X367794Y427802D01*
X366036Y429861D01*
X364622Y432169D01*
X363586Y434669D01*
X362954Y437302D01*
X362742Y440000D01*
X362954Y442698D01*
X363586Y445331D01*
X364622Y447831D01*
X366036Y450139D01*
X367794Y452198D01*
X369853Y453956D01*
X372161Y455370D01*
X374661Y456406D01*
X377294Y457038D01*
X380012Y457252D01*
X380018Y457254D01*
X380025Y457253D01*
X380083Y457279D01*
X380142Y457301D01*
X380147Y457307D01*
X380153Y457310D01*
X380188Y457363D01*
X380226Y457413D01*
X380226Y457421D01*
X380230Y457427D01*
X380241Y457500D01*
X380241Y467500D01*
X380234Y467525D01*
X380236Y467551D01*
X380215Y467591D01*
X380202Y467634D01*
X380182Y467651D01*
X380170Y467674D01*
X380131Y467696D01*
X380097Y467726D01*
X380071Y467730D01*
X380048Y467743D01*
X379974Y467749D01*
X376061Y467469D01*
X376051Y467465D01*
X376025Y467464D01*
X372191Y466630D01*
X372183Y466625D01*
X372157Y466620D01*
X368481Y465248D01*
X368473Y465243D01*
X368449Y465234D01*
X365005Y463353D01*
X364998Y463346D01*
X364975Y463334D01*
X361834Y460983D01*
X361828Y460975D01*
X361807Y460959D01*
X359033Y458185D01*
X359028Y458176D01*
X359009Y458158D01*
X356658Y455017D01*
X356655Y455008D01*
X356639Y454987D01*
X354758Y451543D01*
X354756Y451534D01*
X354744Y451511D01*
X353372Y447835D01*
X353372Y447825D01*
X353362Y447801D01*
X352528Y443967D01*
X352529Y443957D01*
X352523Y443931D01*
X352243Y440018D01*
X352245Y440008D01*
X352243Y439982D01*
X352523Y436069D01*
X352527Y436059D01*
X352528Y436033D01*
X353362Y432199D01*
X353367Y432191D01*
X353372Y432165D01*
X354744Y428489D01*
X354749Y428481D01*
X354758Y428457D01*
X356639Y425013D01*
X356646Y425006D01*
X356658Y424983D01*
X359009Y421842D01*
X359017Y421836D01*
X359033Y421815D01*
X361807Y419041D01*
X361816Y419036D01*
X361834Y419017D01*
X364975Y416666D01*
X364984Y416663D01*
X365005Y416647D01*
X368449Y414766D01*
X368458Y414764D01*
X368481Y414752D01*
X372157Y413380D01*
X372167Y413380D01*
X372191Y413370D01*
X376025Y412536D01*
X376035Y412537D01*
X376061Y412531D01*
X379974Y412251D01*
X380000Y412257D01*
G37*
G36*
X706551Y102773D02*
X706551Y102773D01*
X706617Y102775D01*
X706661Y102793D01*
X706707Y102801D01*
X706764Y102835D01*
X706825Y102860D01*
X706860Y102891D01*
X706900Y102916D01*
X706942Y102967D01*
X706990Y103011D01*
X707012Y103053D01*
X707042Y103090D01*
X707063Y103152D01*
X707093Y103211D01*
X707101Y103265D01*
X707114Y103302D01*
X707113Y103342D01*
X707121Y103396D01*
X707121Y116604D01*
X707109Y116669D01*
X707107Y116735D01*
X707089Y116778D01*
X707081Y116825D01*
X707047Y116882D01*
X707023Y116942D01*
X706991Y116977D01*
X706967Y117018D01*
X706916Y117060D01*
X706871Y117108D01*
X706829Y117130D01*
X706793Y117159D01*
X706730Y117180D01*
X706672Y117211D01*
X706617Y117219D01*
X706580Y117231D01*
X706541Y117230D01*
X706486Y117238D01*
X702676Y117238D01*
X702612Y117227D01*
X702546Y117225D01*
X702502Y117207D01*
X702456Y117199D01*
X702399Y117165D01*
X702338Y117140D01*
X702303Y117109D01*
X702262Y117084D01*
X702221Y117033D01*
X702172Y116989D01*
X702151Y116947D01*
X702121Y116910D01*
X702100Y116848D01*
X702070Y116789D01*
X702062Y116735D01*
X702049Y116698D01*
X702050Y116658D01*
X702042Y116604D01*
X702042Y103396D01*
X702054Y103331D01*
X702056Y103265D01*
X702073Y103222D01*
X702082Y103175D01*
X702115Y103118D01*
X702140Y103058D01*
X702172Y103023D01*
X702196Y102982D01*
X702247Y102941D01*
X702291Y102892D01*
X702334Y102870D01*
X702370Y102841D01*
X702432Y102820D01*
X702491Y102789D01*
X702545Y102781D01*
X702583Y102769D01*
X702622Y102770D01*
X702676Y102762D01*
X706486Y102762D01*
X706551Y102773D01*
G37*
G36*
X321462Y102773D02*
X321462Y102773D01*
X321528Y102775D01*
X321571Y102793D01*
X321618Y102801D01*
X321675Y102835D01*
X321735Y102860D01*
X321770Y102891D01*
X321811Y102916D01*
X321853Y102967D01*
X321901Y103011D01*
X321923Y103053D01*
X321952Y103090D01*
X321973Y103152D01*
X322004Y103211D01*
X322012Y103265D01*
X322024Y103302D01*
X322023Y103342D01*
X322031Y103396D01*
X322031Y116604D01*
X322020Y116669D01*
X322018Y116735D01*
X322000Y116778D01*
X321992Y116825D01*
X321958Y116882D01*
X321933Y116942D01*
X321902Y116977D01*
X321877Y117018D01*
X321826Y117060D01*
X321782Y117108D01*
X321740Y117130D01*
X321703Y117159D01*
X321641Y117180D01*
X321582Y117211D01*
X321528Y117219D01*
X321491Y117231D01*
X321451Y117230D01*
X321397Y117238D01*
X317587Y117238D01*
X317522Y117227D01*
X317456Y117225D01*
X317413Y117207D01*
X317366Y117199D01*
X317309Y117165D01*
X317249Y117140D01*
X317214Y117109D01*
X317173Y117084D01*
X317132Y117033D01*
X317083Y116989D01*
X317061Y116947D01*
X317032Y116910D01*
X317011Y116848D01*
X316980Y116789D01*
X316972Y116735D01*
X316960Y116698D01*
X316961Y116658D01*
X316953Y116604D01*
X316953Y103396D01*
X316964Y103331D01*
X316966Y103265D01*
X316984Y103222D01*
X316992Y103175D01*
X317026Y103118D01*
X317051Y103058D01*
X317082Y103023D01*
X317107Y102982D01*
X317158Y102941D01*
X317202Y102892D01*
X317244Y102870D01*
X317281Y102841D01*
X317343Y102820D01*
X317402Y102789D01*
X317456Y102781D01*
X317493Y102769D01*
X317533Y102770D01*
X317587Y102762D01*
X321397Y102762D01*
X321462Y102773D01*
G37*
G36*
X832641Y1284371D02*
X832641Y1284371D01*
X832706Y1284373D01*
X832750Y1284390D01*
X832797Y1284399D01*
X832853Y1284432D01*
X832914Y1284457D01*
X832949Y1284489D01*
X832990Y1284513D01*
X833031Y1284564D01*
X833080Y1284608D01*
X833101Y1284651D01*
X833131Y1284687D01*
X833152Y1284749D01*
X833182Y1284808D01*
X833191Y1284862D01*
X833203Y1284900D01*
X833202Y1284939D01*
X833210Y1284993D01*
X833210Y1298201D01*
X833198Y1298266D01*
X833196Y1298332D01*
X833179Y1298376D01*
X833170Y1298422D01*
X833137Y1298479D01*
X833112Y1298540D01*
X833080Y1298575D01*
X833056Y1298615D01*
X833005Y1298657D01*
X832961Y1298705D01*
X832919Y1298727D01*
X832882Y1298757D01*
X832820Y1298778D01*
X832761Y1298808D01*
X832707Y1298816D01*
X832670Y1298829D01*
X832630Y1298828D01*
X832576Y1298836D01*
X828766Y1298836D01*
X828701Y1298824D01*
X828635Y1298822D01*
X828592Y1298804D01*
X828545Y1298796D01*
X828488Y1298762D01*
X828427Y1298738D01*
X828393Y1298706D01*
X828352Y1298682D01*
X828310Y1298631D01*
X828262Y1298586D01*
X828240Y1298544D01*
X828210Y1298508D01*
X828189Y1298445D01*
X828159Y1298387D01*
X828151Y1298332D01*
X828139Y1298295D01*
X828140Y1298256D01*
X828132Y1298201D01*
X828132Y1284993D01*
X828143Y1284929D01*
X828145Y1284863D01*
X828163Y1284819D01*
X828171Y1284773D01*
X828205Y1284716D01*
X828229Y1284655D01*
X828261Y1284620D01*
X828285Y1284579D01*
X828336Y1284538D01*
X828381Y1284489D01*
X828423Y1284468D01*
X828460Y1284438D01*
X828522Y1284417D01*
X828580Y1284387D01*
X828635Y1284379D01*
X828672Y1284366D01*
X828711Y1284367D01*
X828766Y1284359D01*
X832576Y1284359D01*
X832641Y1284371D01*
G37*
G36*
X447551Y1284371D02*
X447551Y1284371D01*
X447617Y1284373D01*
X447661Y1284390D01*
X447707Y1284399D01*
X447764Y1284432D01*
X447825Y1284457D01*
X447860Y1284489D01*
X447900Y1284513D01*
X447942Y1284564D01*
X447990Y1284608D01*
X448012Y1284651D01*
X448042Y1284687D01*
X448063Y1284749D01*
X448093Y1284808D01*
X448101Y1284862D01*
X448114Y1284900D01*
X448113Y1284939D01*
X448121Y1284993D01*
X448121Y1298201D01*
X448109Y1298266D01*
X448107Y1298332D01*
X448089Y1298376D01*
X448081Y1298422D01*
X448047Y1298479D01*
X448023Y1298540D01*
X447991Y1298575D01*
X447967Y1298615D01*
X447916Y1298657D01*
X447871Y1298705D01*
X447829Y1298727D01*
X447793Y1298757D01*
X447730Y1298778D01*
X447672Y1298808D01*
X447617Y1298816D01*
X447580Y1298829D01*
X447541Y1298828D01*
X447486Y1298836D01*
X443676Y1298836D01*
X443612Y1298824D01*
X443546Y1298822D01*
X443502Y1298804D01*
X443456Y1298796D01*
X443399Y1298762D01*
X443338Y1298738D01*
X443303Y1298706D01*
X443262Y1298682D01*
X443221Y1298631D01*
X443172Y1298586D01*
X443151Y1298544D01*
X443121Y1298508D01*
X443100Y1298445D01*
X443070Y1298387D01*
X443062Y1298332D01*
X443049Y1298295D01*
X443050Y1298256D01*
X443042Y1298201D01*
X443042Y1284993D01*
X443054Y1284929D01*
X443056Y1284863D01*
X443073Y1284819D01*
X443082Y1284773D01*
X443115Y1284716D01*
X443140Y1284655D01*
X443172Y1284620D01*
X443196Y1284579D01*
X443247Y1284538D01*
X443291Y1284489D01*
X443334Y1284468D01*
X443370Y1284438D01*
X443432Y1284417D01*
X443491Y1284387D01*
X443545Y1284379D01*
X443583Y1284366D01*
X443622Y1284367D01*
X443676Y1284359D01*
X447486Y1284359D01*
X447551Y1284371D01*
G37*
G36*
X62487Y1284371D02*
X62487Y1284371D01*
X62553Y1284373D01*
X62597Y1284390D01*
X62643Y1284399D01*
X62700Y1284432D01*
X62761Y1284457D01*
X62796Y1284489D01*
X62836Y1284513D01*
X62878Y1284564D01*
X62926Y1284608D01*
X62948Y1284651D01*
X62978Y1284687D01*
X62999Y1284749D01*
X63029Y1284808D01*
X63037Y1284862D01*
X63050Y1284900D01*
X63049Y1284939D01*
X63057Y1284993D01*
X63057Y1298201D01*
X63045Y1298266D01*
X63043Y1298332D01*
X63025Y1298376D01*
X63017Y1298422D01*
X62983Y1298479D01*
X62959Y1298540D01*
X62927Y1298575D01*
X62903Y1298615D01*
X62852Y1298657D01*
X62807Y1298705D01*
X62765Y1298727D01*
X62729Y1298757D01*
X62666Y1298778D01*
X62608Y1298808D01*
X62553Y1298816D01*
X62516Y1298829D01*
X62477Y1298828D01*
X62422Y1298836D01*
X58612Y1298836D01*
X58548Y1298824D01*
X58482Y1298822D01*
X58438Y1298804D01*
X58392Y1298796D01*
X58335Y1298762D01*
X58274Y1298738D01*
X58239Y1298706D01*
X58198Y1298682D01*
X58157Y1298631D01*
X58108Y1298586D01*
X58087Y1298544D01*
X58057Y1298508D01*
X58036Y1298445D01*
X58006Y1298387D01*
X57998Y1298332D01*
X57985Y1298295D01*
X57986Y1298256D01*
X57978Y1298201D01*
X57978Y1284993D01*
X57990Y1284929D01*
X57992Y1284863D01*
X58009Y1284819D01*
X58018Y1284773D01*
X58051Y1284716D01*
X58076Y1284655D01*
X58108Y1284620D01*
X58132Y1284579D01*
X58183Y1284538D01*
X58227Y1284489D01*
X58270Y1284468D01*
X58306Y1284438D01*
X58368Y1284417D01*
X58427Y1284387D01*
X58481Y1284379D01*
X58519Y1284366D01*
X58558Y1284367D01*
X58612Y1284359D01*
X62422Y1284359D01*
X62487Y1284371D01*
G37*
G36*
X1091615Y102773D02*
X1091615Y102773D01*
X1091681Y102775D01*
X1091725Y102793D01*
X1091771Y102801D01*
X1091828Y102835D01*
X1091889Y102860D01*
X1091924Y102891D01*
X1091964Y102916D01*
X1092006Y102967D01*
X1092054Y103011D01*
X1092076Y103053D01*
X1092106Y103090D01*
X1092127Y103152D01*
X1092157Y103211D01*
X1092165Y103265D01*
X1092178Y103302D01*
X1092177Y103342D01*
X1092185Y103396D01*
X1092185Y116604D01*
X1092173Y116669D01*
X1092171Y116735D01*
X1092153Y116778D01*
X1092145Y116825D01*
X1092111Y116882D01*
X1092087Y116942D01*
X1092055Y116977D01*
X1092031Y117018D01*
X1091980Y117060D01*
X1091935Y117108D01*
X1091893Y117130D01*
X1091857Y117159D01*
X1091794Y117180D01*
X1091736Y117211D01*
X1091681Y117219D01*
X1091644Y117231D01*
X1091605Y117230D01*
X1091550Y117238D01*
X1087740Y117238D01*
X1087676Y117227D01*
X1087610Y117225D01*
X1087566Y117207D01*
X1087520Y117199D01*
X1087463Y117165D01*
X1087402Y117140D01*
X1087367Y117109D01*
X1087326Y117084D01*
X1087285Y117033D01*
X1087236Y116989D01*
X1087215Y116947D01*
X1087185Y116910D01*
X1087164Y116848D01*
X1087134Y116789D01*
X1087126Y116735D01*
X1087113Y116698D01*
X1087114Y116658D01*
X1087106Y116604D01*
X1087106Y103396D01*
X1087118Y103331D01*
X1087120Y103265D01*
X1087137Y103222D01*
X1087146Y103175D01*
X1087179Y103118D01*
X1087204Y103058D01*
X1087236Y103023D01*
X1087260Y102982D01*
X1087311Y102941D01*
X1087355Y102892D01*
X1087398Y102870D01*
X1087434Y102841D01*
X1087496Y102820D01*
X1087555Y102789D01*
X1087609Y102781D01*
X1087647Y102769D01*
X1087686Y102770D01*
X1087740Y102762D01*
X1091550Y102762D01*
X1091615Y102773D01*
G37*
G36*
X697551Y894371D02*
X697551Y894371D01*
X697617Y894373D01*
X697661Y894390D01*
X697707Y894399D01*
X697764Y894432D01*
X697825Y894457D01*
X697860Y894489D01*
X697900Y894513D01*
X697942Y894564D01*
X697990Y894608D01*
X698012Y894651D01*
X698042Y894687D01*
X698063Y894749D01*
X698093Y894808D01*
X698101Y894862D01*
X698114Y894900D01*
X698113Y894939D01*
X698121Y894993D01*
X698121Y908201D01*
X698109Y908266D01*
X698107Y908332D01*
X698089Y908376D01*
X698081Y908422D01*
X698047Y908479D01*
X698023Y908540D01*
X697991Y908575D01*
X697967Y908615D01*
X697916Y908657D01*
X697871Y908705D01*
X697829Y908727D01*
X697793Y908757D01*
X697730Y908778D01*
X697672Y908808D01*
X697617Y908816D01*
X697580Y908829D01*
X697541Y908828D01*
X697486Y908836D01*
X693676Y908836D01*
X693612Y908824D01*
X693546Y908822D01*
X693502Y908804D01*
X693456Y908796D01*
X693399Y908762D01*
X693338Y908738D01*
X693303Y908706D01*
X693262Y908682D01*
X693221Y908631D01*
X693172Y908586D01*
X693151Y908544D01*
X693121Y908508D01*
X693100Y908445D01*
X693070Y908387D01*
X693062Y908332D01*
X693049Y908295D01*
X693050Y908256D01*
X693042Y908201D01*
X693042Y894993D01*
X693054Y894929D01*
X693056Y894863D01*
X693073Y894819D01*
X693082Y894773D01*
X693115Y894716D01*
X693140Y894655D01*
X693172Y894620D01*
X693196Y894579D01*
X693247Y894538D01*
X693291Y894489D01*
X693334Y894468D01*
X693370Y894438D01*
X693432Y894417D01*
X693491Y894387D01*
X693545Y894379D01*
X693583Y894366D01*
X693622Y894367D01*
X693676Y894359D01*
X697486Y894359D01*
X697551Y894371D01*
G37*
G36*
X1082641Y894371D02*
X1082641Y894371D01*
X1082706Y894373D01*
X1082750Y894390D01*
X1082797Y894399D01*
X1082853Y894432D01*
X1082914Y894457D01*
X1082949Y894489D01*
X1082990Y894513D01*
X1083031Y894564D01*
X1083080Y894608D01*
X1083101Y894651D01*
X1083131Y894687D01*
X1083152Y894749D01*
X1083182Y894808D01*
X1083191Y894862D01*
X1083203Y894900D01*
X1083202Y894939D01*
X1083210Y894993D01*
X1083210Y908201D01*
X1083198Y908266D01*
X1083196Y908332D01*
X1083179Y908376D01*
X1083170Y908422D01*
X1083137Y908479D01*
X1083112Y908540D01*
X1083080Y908575D01*
X1083056Y908615D01*
X1083005Y908657D01*
X1082961Y908705D01*
X1082919Y908727D01*
X1082882Y908757D01*
X1082820Y908778D01*
X1082761Y908808D01*
X1082707Y908816D01*
X1082670Y908829D01*
X1082630Y908828D01*
X1082576Y908836D01*
X1078766Y908836D01*
X1078701Y908824D01*
X1078635Y908822D01*
X1078592Y908804D01*
X1078545Y908796D01*
X1078488Y908762D01*
X1078427Y908738D01*
X1078393Y908706D01*
X1078352Y908682D01*
X1078310Y908631D01*
X1078262Y908586D01*
X1078240Y908544D01*
X1078210Y908508D01*
X1078189Y908445D01*
X1078159Y908387D01*
X1078151Y908332D01*
X1078139Y908295D01*
X1078140Y908256D01*
X1078132Y908201D01*
X1078132Y894993D01*
X1078143Y894929D01*
X1078145Y894863D01*
X1078163Y894819D01*
X1078171Y894773D01*
X1078205Y894716D01*
X1078229Y894655D01*
X1078261Y894620D01*
X1078285Y894579D01*
X1078336Y894538D01*
X1078381Y894489D01*
X1078423Y894468D01*
X1078460Y894438D01*
X1078522Y894417D01*
X1078580Y894387D01*
X1078635Y894379D01*
X1078672Y894366D01*
X1078711Y894367D01*
X1078766Y894359D01*
X1082576Y894359D01*
X1082641Y894371D01*
G37*
G36*
X312487Y894371D02*
X312487Y894371D01*
X312553Y894373D01*
X312597Y894390D01*
X312643Y894399D01*
X312700Y894432D01*
X312761Y894457D01*
X312796Y894489D01*
X312836Y894513D01*
X312878Y894564D01*
X312926Y894608D01*
X312948Y894651D01*
X312978Y894687D01*
X312999Y894749D01*
X313029Y894808D01*
X313037Y894862D01*
X313050Y894900D01*
X313049Y894939D01*
X313057Y894993D01*
X313057Y908201D01*
X313045Y908266D01*
X313043Y908332D01*
X313025Y908376D01*
X313017Y908422D01*
X312983Y908479D01*
X312959Y908540D01*
X312927Y908575D01*
X312903Y908615D01*
X312852Y908657D01*
X312807Y908705D01*
X312765Y908727D01*
X312729Y908757D01*
X312666Y908778D01*
X312608Y908808D01*
X312553Y908816D01*
X312516Y908829D01*
X312477Y908828D01*
X312422Y908836D01*
X308612Y908836D01*
X308548Y908824D01*
X308482Y908822D01*
X308438Y908804D01*
X308392Y908796D01*
X308335Y908762D01*
X308274Y908738D01*
X308239Y908706D01*
X308198Y908682D01*
X308157Y908631D01*
X308108Y908586D01*
X308087Y908544D01*
X308057Y908508D01*
X308036Y908445D01*
X308006Y908387D01*
X307998Y908332D01*
X307985Y908295D01*
X307986Y908256D01*
X307978Y908201D01*
X307978Y894993D01*
X307990Y894929D01*
X307992Y894863D01*
X308009Y894819D01*
X308018Y894773D01*
X308051Y894716D01*
X308076Y894655D01*
X308108Y894620D01*
X308132Y894579D01*
X308183Y894538D01*
X308227Y894489D01*
X308270Y894468D01*
X308306Y894438D01*
X308368Y894417D01*
X308427Y894387D01*
X308481Y894379D01*
X308519Y894366D01*
X308558Y894367D01*
X308612Y894359D01*
X312422Y894359D01*
X312487Y894371D01*
G37*
G36*
X1082641Y864371D02*
X1082641Y864371D01*
X1082706Y864373D01*
X1082750Y864390D01*
X1082797Y864399D01*
X1082853Y864432D01*
X1082914Y864457D01*
X1082949Y864489D01*
X1082990Y864513D01*
X1083031Y864564D01*
X1083080Y864608D01*
X1083101Y864651D01*
X1083131Y864687D01*
X1083152Y864749D01*
X1083182Y864808D01*
X1083191Y864862D01*
X1083203Y864900D01*
X1083202Y864939D01*
X1083210Y864993D01*
X1083210Y878201D01*
X1083198Y878266D01*
X1083196Y878332D01*
X1083179Y878376D01*
X1083170Y878422D01*
X1083137Y878479D01*
X1083112Y878540D01*
X1083080Y878575D01*
X1083056Y878615D01*
X1083005Y878657D01*
X1082961Y878705D01*
X1082919Y878727D01*
X1082882Y878757D01*
X1082820Y878778D01*
X1082761Y878808D01*
X1082707Y878816D01*
X1082670Y878829D01*
X1082630Y878828D01*
X1082576Y878836D01*
X1078766Y878836D01*
X1078701Y878824D01*
X1078635Y878822D01*
X1078592Y878804D01*
X1078545Y878796D01*
X1078488Y878762D01*
X1078427Y878738D01*
X1078393Y878706D01*
X1078352Y878682D01*
X1078310Y878631D01*
X1078262Y878586D01*
X1078240Y878544D01*
X1078210Y878508D01*
X1078189Y878445D01*
X1078159Y878387D01*
X1078151Y878332D01*
X1078139Y878295D01*
X1078140Y878256D01*
X1078132Y878201D01*
X1078132Y864993D01*
X1078143Y864929D01*
X1078145Y864863D01*
X1078163Y864819D01*
X1078171Y864773D01*
X1078205Y864716D01*
X1078229Y864655D01*
X1078261Y864620D01*
X1078285Y864579D01*
X1078336Y864538D01*
X1078381Y864489D01*
X1078423Y864468D01*
X1078460Y864438D01*
X1078522Y864417D01*
X1078580Y864387D01*
X1078635Y864379D01*
X1078672Y864366D01*
X1078711Y864367D01*
X1078766Y864359D01*
X1082576Y864359D01*
X1082641Y864371D01*
G37*
G36*
X312487Y864371D02*
X312487Y864371D01*
X312553Y864373D01*
X312597Y864390D01*
X312643Y864399D01*
X312700Y864432D01*
X312761Y864457D01*
X312796Y864489D01*
X312836Y864513D01*
X312878Y864564D01*
X312926Y864608D01*
X312948Y864651D01*
X312978Y864687D01*
X312999Y864749D01*
X313029Y864808D01*
X313037Y864862D01*
X313050Y864900D01*
X313049Y864939D01*
X313057Y864993D01*
X313057Y878201D01*
X313045Y878266D01*
X313043Y878332D01*
X313025Y878376D01*
X313017Y878422D01*
X312983Y878479D01*
X312959Y878540D01*
X312927Y878575D01*
X312903Y878615D01*
X312852Y878657D01*
X312807Y878705D01*
X312765Y878727D01*
X312729Y878757D01*
X312666Y878778D01*
X312608Y878808D01*
X312553Y878816D01*
X312516Y878829D01*
X312477Y878828D01*
X312422Y878836D01*
X308612Y878836D01*
X308548Y878824D01*
X308482Y878822D01*
X308438Y878804D01*
X308392Y878796D01*
X308335Y878762D01*
X308274Y878738D01*
X308239Y878706D01*
X308198Y878682D01*
X308157Y878631D01*
X308108Y878586D01*
X308087Y878544D01*
X308057Y878508D01*
X308036Y878445D01*
X308006Y878387D01*
X307998Y878332D01*
X307985Y878295D01*
X307986Y878256D01*
X307978Y878201D01*
X307978Y864993D01*
X307990Y864929D01*
X307992Y864863D01*
X308009Y864819D01*
X308018Y864773D01*
X308051Y864716D01*
X308076Y864655D01*
X308108Y864620D01*
X308132Y864579D01*
X308183Y864538D01*
X308227Y864489D01*
X308270Y864468D01*
X308306Y864438D01*
X308368Y864417D01*
X308427Y864387D01*
X308481Y864379D01*
X308519Y864366D01*
X308558Y864367D01*
X308612Y864359D01*
X312422Y864359D01*
X312487Y864371D01*
G37*
G36*
X697551Y864371D02*
X697551Y864371D01*
X697617Y864373D01*
X697661Y864390D01*
X697707Y864399D01*
X697764Y864432D01*
X697825Y864457D01*
X697860Y864489D01*
X697900Y864513D01*
X697942Y864564D01*
X697990Y864608D01*
X698012Y864651D01*
X698042Y864687D01*
X698063Y864749D01*
X698093Y864808D01*
X698101Y864862D01*
X698114Y864900D01*
X698113Y864939D01*
X698121Y864993D01*
X698121Y878201D01*
X698109Y878266D01*
X698107Y878332D01*
X698089Y878376D01*
X698081Y878422D01*
X698047Y878479D01*
X698023Y878540D01*
X697991Y878575D01*
X697967Y878615D01*
X697916Y878657D01*
X697871Y878705D01*
X697829Y878727D01*
X697793Y878757D01*
X697730Y878778D01*
X697672Y878808D01*
X697617Y878816D01*
X697580Y878829D01*
X697541Y878828D01*
X697486Y878836D01*
X693676Y878836D01*
X693612Y878824D01*
X693546Y878822D01*
X693502Y878804D01*
X693456Y878796D01*
X693399Y878762D01*
X693338Y878738D01*
X693303Y878706D01*
X693262Y878682D01*
X693221Y878631D01*
X693172Y878586D01*
X693151Y878544D01*
X693121Y878508D01*
X693100Y878445D01*
X693070Y878387D01*
X693062Y878332D01*
X693049Y878295D01*
X693050Y878256D01*
X693042Y878201D01*
X693042Y864993D01*
X693054Y864929D01*
X693056Y864863D01*
X693073Y864819D01*
X693082Y864773D01*
X693115Y864716D01*
X693140Y864655D01*
X693172Y864620D01*
X693196Y864579D01*
X693247Y864538D01*
X693291Y864489D01*
X693334Y864468D01*
X693370Y864438D01*
X693432Y864417D01*
X693491Y864387D01*
X693545Y864379D01*
X693583Y864366D01*
X693622Y864367D01*
X693676Y864359D01*
X697486Y864359D01*
X697551Y864371D01*
G37*
G36*
X841615Y522773D02*
X841615Y522773D01*
X841681Y522775D01*
X841725Y522793D01*
X841771Y522801D01*
X841828Y522835D01*
X841889Y522860D01*
X841924Y522891D01*
X841964Y522916D01*
X842006Y522967D01*
X842054Y523011D01*
X842076Y523053D01*
X842106Y523090D01*
X842127Y523152D01*
X842157Y523211D01*
X842165Y523265D01*
X842178Y523302D01*
X842177Y523342D01*
X842185Y523396D01*
X842185Y536604D01*
X842173Y536669D01*
X842171Y536735D01*
X842153Y536778D01*
X842145Y536825D01*
X842111Y536882D01*
X842087Y536942D01*
X842055Y536977D01*
X842031Y537018D01*
X841980Y537060D01*
X841935Y537108D01*
X841893Y537130D01*
X841857Y537159D01*
X841794Y537180D01*
X841736Y537211D01*
X841681Y537219D01*
X841644Y537231D01*
X841605Y537230D01*
X841550Y537238D01*
X837740Y537238D01*
X837676Y537227D01*
X837610Y537225D01*
X837566Y537207D01*
X837520Y537199D01*
X837463Y537165D01*
X837402Y537140D01*
X837367Y537109D01*
X837326Y537084D01*
X837285Y537033D01*
X837236Y536989D01*
X837215Y536947D01*
X837185Y536910D01*
X837164Y536848D01*
X837134Y536789D01*
X837126Y536735D01*
X837113Y536698D01*
X837114Y536658D01*
X837106Y536604D01*
X837106Y523396D01*
X837118Y523331D01*
X837120Y523265D01*
X837137Y523222D01*
X837146Y523175D01*
X837179Y523118D01*
X837204Y523058D01*
X837236Y523023D01*
X837260Y522982D01*
X837311Y522941D01*
X837355Y522892D01*
X837398Y522870D01*
X837434Y522841D01*
X837496Y522820D01*
X837555Y522789D01*
X837609Y522781D01*
X837647Y522769D01*
X837686Y522770D01*
X837740Y522762D01*
X841550Y522762D01*
X841615Y522773D01*
G37*
G36*
X456551Y522773D02*
X456551Y522773D01*
X456617Y522775D01*
X456661Y522793D01*
X456707Y522801D01*
X456764Y522835D01*
X456825Y522860D01*
X456860Y522891D01*
X456900Y522916D01*
X456942Y522967D01*
X456990Y523011D01*
X457012Y523053D01*
X457042Y523090D01*
X457063Y523152D01*
X457093Y523211D01*
X457101Y523265D01*
X457114Y523302D01*
X457113Y523342D01*
X457121Y523396D01*
X457121Y536604D01*
X457109Y536669D01*
X457107Y536735D01*
X457089Y536778D01*
X457081Y536825D01*
X457047Y536882D01*
X457023Y536942D01*
X456991Y536977D01*
X456967Y537018D01*
X456916Y537060D01*
X456871Y537108D01*
X456829Y537130D01*
X456793Y537159D01*
X456730Y537180D01*
X456672Y537211D01*
X456617Y537219D01*
X456580Y537231D01*
X456541Y537230D01*
X456486Y537238D01*
X452676Y537238D01*
X452612Y537227D01*
X452546Y537225D01*
X452502Y537207D01*
X452456Y537199D01*
X452399Y537165D01*
X452338Y537140D01*
X452303Y537109D01*
X452262Y537084D01*
X452221Y537033D01*
X452172Y536989D01*
X452151Y536947D01*
X452121Y536910D01*
X452100Y536848D01*
X452070Y536789D01*
X452062Y536735D01*
X452049Y536698D01*
X452050Y536658D01*
X452042Y536604D01*
X452042Y523396D01*
X452054Y523331D01*
X452056Y523265D01*
X452073Y523222D01*
X452082Y523175D01*
X452115Y523118D01*
X452140Y523058D01*
X452172Y523023D01*
X452196Y522982D01*
X452247Y522941D01*
X452291Y522892D01*
X452334Y522870D01*
X452370Y522841D01*
X452432Y522820D01*
X452491Y522789D01*
X452545Y522781D01*
X452583Y522769D01*
X452622Y522770D01*
X452676Y522762D01*
X456486Y522762D01*
X456551Y522773D01*
G37*
G36*
X71462Y522773D02*
X71462Y522773D01*
X71528Y522775D01*
X71571Y522793D01*
X71618Y522801D01*
X71675Y522835D01*
X71735Y522860D01*
X71770Y522891D01*
X71811Y522916D01*
X71853Y522967D01*
X71901Y523011D01*
X71923Y523053D01*
X71952Y523090D01*
X71973Y523152D01*
X72004Y523211D01*
X72012Y523265D01*
X72024Y523302D01*
X72023Y523342D01*
X72031Y523396D01*
X72031Y536604D01*
X72020Y536669D01*
X72018Y536735D01*
X72000Y536778D01*
X71992Y536825D01*
X71958Y536882D01*
X71933Y536942D01*
X71902Y536977D01*
X71877Y537018D01*
X71826Y537060D01*
X71782Y537108D01*
X71740Y537130D01*
X71703Y537159D01*
X71641Y537180D01*
X71582Y537211D01*
X71528Y537219D01*
X71491Y537231D01*
X71451Y537230D01*
X71397Y537238D01*
X67587Y537238D01*
X67522Y537227D01*
X67456Y537225D01*
X67413Y537207D01*
X67366Y537199D01*
X67309Y537165D01*
X67249Y537140D01*
X67214Y537109D01*
X67173Y537084D01*
X67132Y537033D01*
X67083Y536989D01*
X67061Y536947D01*
X67032Y536910D01*
X67011Y536848D01*
X66980Y536789D01*
X66972Y536735D01*
X66960Y536698D01*
X66961Y536658D01*
X66953Y536604D01*
X66953Y523396D01*
X66964Y523331D01*
X66966Y523265D01*
X66984Y523222D01*
X66992Y523175D01*
X67026Y523118D01*
X67051Y523058D01*
X67082Y523023D01*
X67107Y522982D01*
X67158Y522941D01*
X67202Y522892D01*
X67244Y522870D01*
X67281Y522841D01*
X67343Y522820D01*
X67402Y522789D01*
X67456Y522781D01*
X67493Y522769D01*
X67533Y522770D01*
X67587Y522762D01*
X71397Y522762D01*
X71462Y522773D01*
G37*
G36*
X841615Y492773D02*
X841615Y492773D01*
X841681Y492775D01*
X841725Y492793D01*
X841771Y492801D01*
X841828Y492835D01*
X841889Y492860D01*
X841924Y492891D01*
X841964Y492916D01*
X842006Y492967D01*
X842054Y493011D01*
X842076Y493053D01*
X842106Y493090D01*
X842127Y493152D01*
X842157Y493211D01*
X842165Y493265D01*
X842178Y493302D01*
X842177Y493342D01*
X842185Y493396D01*
X842185Y506604D01*
X842173Y506669D01*
X842171Y506735D01*
X842153Y506778D01*
X842145Y506825D01*
X842111Y506882D01*
X842087Y506942D01*
X842055Y506977D01*
X842031Y507018D01*
X841980Y507060D01*
X841935Y507108D01*
X841893Y507130D01*
X841857Y507159D01*
X841794Y507180D01*
X841736Y507211D01*
X841681Y507219D01*
X841644Y507231D01*
X841605Y507230D01*
X841550Y507238D01*
X837740Y507238D01*
X837676Y507227D01*
X837610Y507225D01*
X837566Y507207D01*
X837520Y507199D01*
X837463Y507165D01*
X837402Y507140D01*
X837367Y507109D01*
X837326Y507084D01*
X837285Y507033D01*
X837236Y506989D01*
X837215Y506947D01*
X837185Y506910D01*
X837164Y506848D01*
X837134Y506789D01*
X837126Y506735D01*
X837113Y506698D01*
X837114Y506658D01*
X837106Y506604D01*
X837106Y493396D01*
X837118Y493331D01*
X837120Y493265D01*
X837137Y493222D01*
X837146Y493175D01*
X837179Y493118D01*
X837204Y493058D01*
X837236Y493023D01*
X837260Y492982D01*
X837311Y492941D01*
X837355Y492892D01*
X837398Y492870D01*
X837434Y492841D01*
X837496Y492820D01*
X837555Y492789D01*
X837609Y492781D01*
X837647Y492769D01*
X837686Y492770D01*
X837740Y492762D01*
X841550Y492762D01*
X841615Y492773D01*
G37*
G36*
X71462Y492773D02*
X71462Y492773D01*
X71528Y492775D01*
X71571Y492793D01*
X71618Y492801D01*
X71675Y492835D01*
X71735Y492860D01*
X71770Y492891D01*
X71811Y492916D01*
X71853Y492967D01*
X71901Y493011D01*
X71923Y493053D01*
X71952Y493090D01*
X71973Y493152D01*
X72004Y493211D01*
X72012Y493265D01*
X72024Y493302D01*
X72023Y493342D01*
X72031Y493396D01*
X72031Y506604D01*
X72020Y506669D01*
X72018Y506735D01*
X72000Y506778D01*
X71992Y506825D01*
X71958Y506882D01*
X71933Y506942D01*
X71902Y506977D01*
X71877Y507018D01*
X71826Y507060D01*
X71782Y507108D01*
X71740Y507130D01*
X71703Y507159D01*
X71641Y507180D01*
X71582Y507211D01*
X71528Y507219D01*
X71491Y507231D01*
X71451Y507230D01*
X71397Y507238D01*
X67587Y507238D01*
X67522Y507227D01*
X67456Y507225D01*
X67413Y507207D01*
X67366Y507199D01*
X67309Y507165D01*
X67249Y507140D01*
X67214Y507109D01*
X67173Y507084D01*
X67132Y507033D01*
X67083Y506989D01*
X67061Y506947D01*
X67032Y506910D01*
X67011Y506848D01*
X66980Y506789D01*
X66972Y506735D01*
X66960Y506698D01*
X66961Y506658D01*
X66953Y506604D01*
X66953Y493396D01*
X66964Y493331D01*
X66966Y493265D01*
X66984Y493222D01*
X66992Y493175D01*
X67026Y493118D01*
X67051Y493058D01*
X67082Y493023D01*
X67107Y492982D01*
X67158Y492941D01*
X67202Y492892D01*
X67244Y492870D01*
X67281Y492841D01*
X67343Y492820D01*
X67402Y492789D01*
X67456Y492781D01*
X67493Y492769D01*
X67533Y492770D01*
X67587Y492762D01*
X71397Y492762D01*
X71462Y492773D01*
G37*
G36*
X456551Y492773D02*
X456551Y492773D01*
X456617Y492775D01*
X456661Y492793D01*
X456707Y492801D01*
X456764Y492835D01*
X456825Y492860D01*
X456860Y492891D01*
X456900Y492916D01*
X456942Y492967D01*
X456990Y493011D01*
X457012Y493053D01*
X457042Y493090D01*
X457063Y493152D01*
X457093Y493211D01*
X457101Y493265D01*
X457114Y493302D01*
X457113Y493342D01*
X457121Y493396D01*
X457121Y506604D01*
X457109Y506669D01*
X457107Y506735D01*
X457089Y506778D01*
X457081Y506825D01*
X457047Y506882D01*
X457023Y506942D01*
X456991Y506977D01*
X456967Y507018D01*
X456916Y507060D01*
X456871Y507108D01*
X456829Y507130D01*
X456793Y507159D01*
X456730Y507180D01*
X456672Y507211D01*
X456617Y507219D01*
X456580Y507231D01*
X456541Y507230D01*
X456486Y507238D01*
X452676Y507238D01*
X452612Y507227D01*
X452546Y507225D01*
X452502Y507207D01*
X452456Y507199D01*
X452399Y507165D01*
X452338Y507140D01*
X452303Y507109D01*
X452262Y507084D01*
X452221Y507033D01*
X452172Y506989D01*
X452151Y506947D01*
X452121Y506910D01*
X452100Y506848D01*
X452070Y506789D01*
X452062Y506735D01*
X452049Y506698D01*
X452050Y506658D01*
X452042Y506604D01*
X452042Y493396D01*
X452054Y493331D01*
X452056Y493265D01*
X452073Y493222D01*
X452082Y493175D01*
X452115Y493118D01*
X452140Y493058D01*
X452172Y493023D01*
X452196Y492982D01*
X452247Y492941D01*
X452291Y492892D01*
X452334Y492870D01*
X452370Y492841D01*
X452432Y492820D01*
X452491Y492789D01*
X452545Y492781D01*
X452583Y492769D01*
X452622Y492770D01*
X452676Y492762D01*
X456486Y492762D01*
X456551Y492773D01*
G37*
G36*
X852006Y799070D02*
X852006Y799070D01*
X852071Y799072D01*
X852115Y799089D01*
X852162Y799098D01*
X852218Y799131D01*
X852279Y799156D01*
X852314Y799188D01*
X852355Y799212D01*
X852396Y799263D01*
X852445Y799307D01*
X852466Y799350D01*
X852496Y799386D01*
X852517Y799448D01*
X852547Y799507D01*
X852556Y799561D01*
X852568Y799599D01*
X852567Y799638D01*
X852575Y799692D01*
X852575Y803502D01*
X852563Y803567D01*
X852561Y803633D01*
X852544Y803677D01*
X852535Y803723D01*
X852502Y803780D01*
X852477Y803841D01*
X852445Y803876D01*
X852421Y803916D01*
X852370Y803958D01*
X852326Y804006D01*
X852284Y804028D01*
X852247Y804058D01*
X852185Y804079D01*
X852126Y804109D01*
X852072Y804117D01*
X852035Y804130D01*
X851995Y804129D01*
X851941Y804137D01*
X849401Y804137D01*
X849336Y804125D01*
X849270Y804123D01*
X849227Y804105D01*
X849180Y804097D01*
X849123Y804063D01*
X849062Y804039D01*
X849028Y804007D01*
X848987Y803983D01*
X848945Y803932D01*
X848897Y803887D01*
X848875Y803845D01*
X848845Y803809D01*
X848824Y803746D01*
X848794Y803688D01*
X848786Y803633D01*
X848774Y803596D01*
X848774Y803592D01*
X848775Y803556D01*
X848767Y803502D01*
X848767Y799692D01*
X848778Y799628D01*
X848780Y799562D01*
X848798Y799518D01*
X848806Y799472D01*
X848840Y799415D01*
X848864Y799354D01*
X848896Y799319D01*
X848920Y799278D01*
X848971Y799237D01*
X849016Y799188D01*
X849058Y799167D01*
X849095Y799137D01*
X849157Y799116D01*
X849215Y799086D01*
X849270Y799078D01*
X849307Y799065D01*
X849346Y799066D01*
X849401Y799058D01*
X851941Y799058D01*
X852006Y799070D01*
G37*
G36*
X822006Y799070D02*
X822006Y799070D01*
X822071Y799072D01*
X822115Y799089D01*
X822162Y799098D01*
X822218Y799131D01*
X822279Y799156D01*
X822314Y799188D01*
X822355Y799212D01*
X822396Y799263D01*
X822445Y799307D01*
X822466Y799350D01*
X822496Y799386D01*
X822517Y799448D01*
X822547Y799507D01*
X822556Y799561D01*
X822568Y799599D01*
X822567Y799638D01*
X822575Y799692D01*
X822575Y803502D01*
X822563Y803567D01*
X822561Y803633D01*
X822544Y803677D01*
X822535Y803723D01*
X822502Y803780D01*
X822477Y803841D01*
X822445Y803876D01*
X822421Y803916D01*
X822370Y803958D01*
X822326Y804006D01*
X822284Y804028D01*
X822247Y804058D01*
X822185Y804079D01*
X822126Y804109D01*
X822072Y804117D01*
X822035Y804130D01*
X821995Y804129D01*
X821941Y804137D01*
X819401Y804137D01*
X819336Y804125D01*
X819270Y804123D01*
X819227Y804105D01*
X819180Y804097D01*
X819123Y804063D01*
X819062Y804039D01*
X819028Y804007D01*
X818987Y803983D01*
X818945Y803932D01*
X818897Y803887D01*
X818875Y803845D01*
X818845Y803809D01*
X818824Y803746D01*
X818794Y803688D01*
X818786Y803633D01*
X818774Y803596D01*
X818774Y803592D01*
X818775Y803556D01*
X818767Y803502D01*
X818767Y799692D01*
X818778Y799628D01*
X818780Y799562D01*
X818798Y799518D01*
X818806Y799472D01*
X818840Y799415D01*
X818864Y799354D01*
X818896Y799319D01*
X818920Y799278D01*
X818971Y799237D01*
X819016Y799188D01*
X819058Y799167D01*
X819095Y799137D01*
X819157Y799116D01*
X819215Y799086D01*
X819270Y799078D01*
X819307Y799065D01*
X819346Y799066D01*
X819401Y799058D01*
X821941Y799058D01*
X822006Y799070D01*
G37*
G36*
X792006Y799070D02*
X792006Y799070D01*
X792071Y799072D01*
X792115Y799089D01*
X792162Y799098D01*
X792218Y799131D01*
X792279Y799156D01*
X792314Y799188D01*
X792355Y799212D01*
X792396Y799263D01*
X792445Y799307D01*
X792466Y799350D01*
X792496Y799386D01*
X792517Y799448D01*
X792547Y799507D01*
X792556Y799561D01*
X792568Y799599D01*
X792567Y799638D01*
X792575Y799692D01*
X792575Y803502D01*
X792563Y803567D01*
X792561Y803633D01*
X792544Y803677D01*
X792535Y803723D01*
X792502Y803780D01*
X792477Y803841D01*
X792445Y803876D01*
X792421Y803916D01*
X792370Y803958D01*
X792326Y804006D01*
X792284Y804028D01*
X792247Y804058D01*
X792185Y804079D01*
X792126Y804109D01*
X792072Y804117D01*
X792035Y804130D01*
X791995Y804129D01*
X791941Y804137D01*
X789401Y804137D01*
X789336Y804125D01*
X789270Y804123D01*
X789227Y804105D01*
X789180Y804097D01*
X789123Y804063D01*
X789062Y804039D01*
X789028Y804007D01*
X788987Y803983D01*
X788945Y803932D01*
X788897Y803887D01*
X788875Y803845D01*
X788845Y803809D01*
X788824Y803746D01*
X788794Y803688D01*
X788786Y803633D01*
X788774Y803596D01*
X788774Y803592D01*
X788775Y803556D01*
X788767Y803502D01*
X788767Y799692D01*
X788778Y799628D01*
X788780Y799562D01*
X788798Y799518D01*
X788806Y799472D01*
X788840Y799415D01*
X788864Y799354D01*
X788896Y799319D01*
X788920Y799278D01*
X788971Y799237D01*
X789016Y799188D01*
X789058Y799167D01*
X789095Y799137D01*
X789157Y799116D01*
X789215Y799086D01*
X789270Y799078D01*
X789307Y799065D01*
X789346Y799066D01*
X789401Y799058D01*
X791941Y799058D01*
X792006Y799070D01*
G37*
G36*
X406916Y799070D02*
X406916Y799070D01*
X406982Y799072D01*
X407026Y799089D01*
X407072Y799098D01*
X407129Y799131D01*
X407190Y799156D01*
X407225Y799188D01*
X407265Y799212D01*
X407307Y799263D01*
X407355Y799307D01*
X407377Y799350D01*
X407407Y799386D01*
X407428Y799448D01*
X407458Y799507D01*
X407466Y799561D01*
X407479Y799599D01*
X407478Y799638D01*
X407486Y799692D01*
X407486Y803502D01*
X407474Y803567D01*
X407472Y803633D01*
X407454Y803677D01*
X407446Y803723D01*
X407412Y803780D01*
X407388Y803841D01*
X407356Y803876D01*
X407332Y803916D01*
X407281Y803958D01*
X407236Y804006D01*
X407194Y804028D01*
X407158Y804058D01*
X407095Y804079D01*
X407037Y804109D01*
X406982Y804117D01*
X406945Y804130D01*
X406906Y804129D01*
X406851Y804137D01*
X404311Y804137D01*
X404247Y804125D01*
X404181Y804123D01*
X404137Y804105D01*
X404091Y804097D01*
X404034Y804063D01*
X403973Y804039D01*
X403938Y804007D01*
X403897Y803983D01*
X403856Y803932D01*
X403807Y803887D01*
X403786Y803845D01*
X403756Y803809D01*
X403735Y803746D01*
X403705Y803688D01*
X403697Y803633D01*
X403684Y803596D01*
X403684Y803592D01*
X403685Y803556D01*
X403677Y803502D01*
X403677Y799692D01*
X403689Y799628D01*
X403691Y799562D01*
X403708Y799518D01*
X403717Y799472D01*
X403750Y799415D01*
X403775Y799354D01*
X403807Y799319D01*
X403831Y799278D01*
X403882Y799237D01*
X403926Y799188D01*
X403969Y799167D01*
X404005Y799137D01*
X404067Y799116D01*
X404126Y799086D01*
X404180Y799078D01*
X404218Y799065D01*
X404257Y799066D01*
X404311Y799058D01*
X406851Y799058D01*
X406916Y799070D01*
G37*
G36*
X51852Y799070D02*
X51852Y799070D01*
X51918Y799072D01*
X51962Y799089D01*
X52008Y799098D01*
X52065Y799131D01*
X52126Y799156D01*
X52161Y799188D01*
X52201Y799212D01*
X52243Y799263D01*
X52291Y799307D01*
X52313Y799350D01*
X52343Y799386D01*
X52364Y799448D01*
X52394Y799507D01*
X52402Y799561D01*
X52415Y799599D01*
X52414Y799638D01*
X52422Y799692D01*
X52422Y803502D01*
X52410Y803567D01*
X52408Y803633D01*
X52390Y803677D01*
X52382Y803723D01*
X52348Y803780D01*
X52324Y803841D01*
X52292Y803876D01*
X52268Y803916D01*
X52217Y803958D01*
X52172Y804006D01*
X52130Y804028D01*
X52094Y804058D01*
X52031Y804079D01*
X51973Y804109D01*
X51918Y804117D01*
X51881Y804130D01*
X51842Y804129D01*
X51787Y804137D01*
X49247Y804137D01*
X49183Y804125D01*
X49117Y804123D01*
X49073Y804105D01*
X49027Y804097D01*
X48970Y804063D01*
X48909Y804039D01*
X48874Y804007D01*
X48833Y803983D01*
X48792Y803932D01*
X48743Y803887D01*
X48722Y803845D01*
X48692Y803809D01*
X48671Y803746D01*
X48641Y803688D01*
X48633Y803633D01*
X48620Y803596D01*
X48620Y803592D01*
X48621Y803556D01*
X48613Y803502D01*
X48613Y799692D01*
X48625Y799628D01*
X48627Y799562D01*
X48644Y799518D01*
X48653Y799472D01*
X48686Y799415D01*
X48711Y799354D01*
X48743Y799319D01*
X48767Y799278D01*
X48818Y799237D01*
X48862Y799188D01*
X48905Y799167D01*
X48941Y799137D01*
X49003Y799116D01*
X49062Y799086D01*
X49116Y799078D01*
X49154Y799065D01*
X49193Y799066D01*
X49247Y799058D01*
X51787Y799058D01*
X51852Y799070D01*
G37*
G36*
X81852Y799070D02*
X81852Y799070D01*
X81918Y799072D01*
X81962Y799089D01*
X82008Y799098D01*
X82065Y799131D01*
X82126Y799156D01*
X82161Y799188D01*
X82201Y799212D01*
X82243Y799263D01*
X82291Y799307D01*
X82313Y799350D01*
X82343Y799386D01*
X82364Y799448D01*
X82394Y799507D01*
X82402Y799561D01*
X82415Y799599D01*
X82414Y799638D01*
X82422Y799692D01*
X82422Y803502D01*
X82410Y803567D01*
X82408Y803633D01*
X82390Y803677D01*
X82382Y803723D01*
X82348Y803780D01*
X82324Y803841D01*
X82292Y803876D01*
X82268Y803916D01*
X82217Y803958D01*
X82172Y804006D01*
X82130Y804028D01*
X82094Y804058D01*
X82031Y804079D01*
X81973Y804109D01*
X81918Y804117D01*
X81881Y804130D01*
X81842Y804129D01*
X81787Y804137D01*
X79247Y804137D01*
X79183Y804125D01*
X79117Y804123D01*
X79073Y804105D01*
X79027Y804097D01*
X78970Y804063D01*
X78909Y804039D01*
X78874Y804007D01*
X78833Y803983D01*
X78792Y803932D01*
X78743Y803887D01*
X78722Y803845D01*
X78692Y803809D01*
X78671Y803746D01*
X78641Y803688D01*
X78633Y803633D01*
X78620Y803596D01*
X78620Y803592D01*
X78621Y803556D01*
X78613Y803502D01*
X78613Y799692D01*
X78625Y799628D01*
X78627Y799562D01*
X78644Y799518D01*
X78653Y799472D01*
X78686Y799415D01*
X78711Y799354D01*
X78743Y799319D01*
X78767Y799278D01*
X78818Y799237D01*
X78862Y799188D01*
X78905Y799167D01*
X78941Y799137D01*
X79003Y799116D01*
X79062Y799086D01*
X79116Y799078D01*
X79154Y799065D01*
X79193Y799066D01*
X79247Y799058D01*
X81787Y799058D01*
X81852Y799070D01*
G37*
G36*
X436916Y799070D02*
X436916Y799070D01*
X436982Y799072D01*
X437026Y799089D01*
X437072Y799098D01*
X437129Y799131D01*
X437190Y799156D01*
X437225Y799188D01*
X437265Y799212D01*
X437307Y799263D01*
X437355Y799307D01*
X437377Y799350D01*
X437407Y799386D01*
X437428Y799448D01*
X437458Y799507D01*
X437466Y799561D01*
X437479Y799599D01*
X437478Y799638D01*
X437486Y799692D01*
X437486Y803502D01*
X437474Y803567D01*
X437472Y803633D01*
X437454Y803677D01*
X437446Y803723D01*
X437412Y803780D01*
X437388Y803841D01*
X437356Y803876D01*
X437332Y803916D01*
X437281Y803958D01*
X437236Y804006D01*
X437194Y804028D01*
X437158Y804058D01*
X437095Y804079D01*
X437037Y804109D01*
X436982Y804117D01*
X436945Y804130D01*
X436906Y804129D01*
X436851Y804137D01*
X434311Y804137D01*
X434247Y804125D01*
X434181Y804123D01*
X434137Y804105D01*
X434091Y804097D01*
X434034Y804063D01*
X433973Y804039D01*
X433938Y804007D01*
X433897Y803983D01*
X433856Y803932D01*
X433807Y803887D01*
X433786Y803845D01*
X433756Y803809D01*
X433735Y803746D01*
X433705Y803688D01*
X433697Y803633D01*
X433684Y803596D01*
X433684Y803592D01*
X433685Y803556D01*
X433677Y803502D01*
X433677Y799692D01*
X433689Y799628D01*
X433691Y799562D01*
X433708Y799518D01*
X433717Y799472D01*
X433750Y799415D01*
X433775Y799354D01*
X433807Y799319D01*
X433831Y799278D01*
X433882Y799237D01*
X433926Y799188D01*
X433969Y799167D01*
X434005Y799137D01*
X434067Y799116D01*
X434126Y799086D01*
X434180Y799078D01*
X434218Y799065D01*
X434257Y799066D01*
X434311Y799058D01*
X436851Y799058D01*
X436916Y799070D01*
G37*
G36*
X466916Y799070D02*
X466916Y799070D01*
X466982Y799072D01*
X467026Y799089D01*
X467072Y799098D01*
X467129Y799131D01*
X467190Y799156D01*
X467225Y799188D01*
X467265Y799212D01*
X467307Y799263D01*
X467355Y799307D01*
X467377Y799350D01*
X467407Y799386D01*
X467428Y799448D01*
X467458Y799507D01*
X467466Y799561D01*
X467479Y799599D01*
X467478Y799638D01*
X467486Y799692D01*
X467486Y803502D01*
X467474Y803567D01*
X467472Y803633D01*
X467454Y803677D01*
X467446Y803723D01*
X467412Y803780D01*
X467388Y803841D01*
X467356Y803876D01*
X467332Y803916D01*
X467281Y803958D01*
X467236Y804006D01*
X467194Y804028D01*
X467158Y804058D01*
X467095Y804079D01*
X467037Y804109D01*
X466982Y804117D01*
X466945Y804130D01*
X466906Y804129D01*
X466851Y804137D01*
X464311Y804137D01*
X464247Y804125D01*
X464181Y804123D01*
X464137Y804105D01*
X464091Y804097D01*
X464034Y804063D01*
X463973Y804039D01*
X463938Y804007D01*
X463897Y803983D01*
X463856Y803932D01*
X463807Y803887D01*
X463786Y803845D01*
X463756Y803809D01*
X463735Y803746D01*
X463705Y803688D01*
X463697Y803633D01*
X463684Y803596D01*
X463684Y803592D01*
X463685Y803556D01*
X463677Y803502D01*
X463677Y799692D01*
X463689Y799628D01*
X463691Y799562D01*
X463708Y799518D01*
X463717Y799472D01*
X463750Y799415D01*
X463775Y799354D01*
X463807Y799319D01*
X463831Y799278D01*
X463882Y799237D01*
X463926Y799188D01*
X463969Y799167D01*
X464005Y799137D01*
X464067Y799116D01*
X464126Y799086D01*
X464180Y799078D01*
X464218Y799065D01*
X464257Y799066D01*
X464311Y799058D01*
X466851Y799058D01*
X466916Y799070D01*
G37*
G36*
X21852Y799070D02*
X21852Y799070D01*
X21918Y799072D01*
X21962Y799089D01*
X22008Y799098D01*
X22065Y799131D01*
X22126Y799156D01*
X22161Y799188D01*
X22201Y799212D01*
X22243Y799263D01*
X22291Y799307D01*
X22313Y799350D01*
X22343Y799386D01*
X22364Y799448D01*
X22394Y799507D01*
X22402Y799561D01*
X22415Y799599D01*
X22414Y799638D01*
X22422Y799692D01*
X22422Y803502D01*
X22410Y803567D01*
X22408Y803633D01*
X22390Y803677D01*
X22382Y803723D01*
X22348Y803780D01*
X22324Y803841D01*
X22292Y803876D01*
X22268Y803916D01*
X22217Y803958D01*
X22172Y804006D01*
X22130Y804028D01*
X22094Y804058D01*
X22031Y804079D01*
X21973Y804109D01*
X21918Y804117D01*
X21881Y804130D01*
X21842Y804129D01*
X21787Y804137D01*
X19247Y804137D01*
X19183Y804125D01*
X19117Y804123D01*
X19073Y804105D01*
X19027Y804097D01*
X18970Y804063D01*
X18909Y804039D01*
X18874Y804007D01*
X18833Y803983D01*
X18792Y803932D01*
X18743Y803887D01*
X18722Y803845D01*
X18692Y803809D01*
X18671Y803746D01*
X18641Y803688D01*
X18633Y803633D01*
X18620Y803596D01*
X18620Y803592D01*
X18621Y803556D01*
X18613Y803502D01*
X18613Y799692D01*
X18625Y799628D01*
X18627Y799562D01*
X18644Y799518D01*
X18653Y799472D01*
X18686Y799415D01*
X18711Y799354D01*
X18743Y799319D01*
X18767Y799278D01*
X18818Y799237D01*
X18862Y799188D01*
X18905Y799167D01*
X18941Y799137D01*
X19003Y799116D01*
X19062Y799086D01*
X19116Y799078D01*
X19154Y799065D01*
X19193Y799066D01*
X19247Y799058D01*
X21787Y799058D01*
X21852Y799070D01*
G37*
G36*
X715916Y597472D02*
X715916Y597472D01*
X715982Y597474D01*
X716026Y597492D01*
X716072Y597500D01*
X716129Y597534D01*
X716190Y597559D01*
X716225Y597590D01*
X716265Y597615D01*
X716307Y597666D01*
X716355Y597710D01*
X716377Y597752D01*
X716407Y597789D01*
X716428Y597851D01*
X716458Y597910D01*
X716466Y597964D01*
X716479Y598001D01*
X716478Y598041D01*
X716486Y598095D01*
X716486Y601905D01*
X716474Y601970D01*
X716472Y602036D01*
X716454Y602079D01*
X716446Y602126D01*
X716412Y602183D01*
X716388Y602243D01*
X716356Y602278D01*
X716332Y602319D01*
X716281Y602361D01*
X716236Y602409D01*
X716194Y602431D01*
X716158Y602460D01*
X716095Y602481D01*
X716037Y602512D01*
X715982Y602520D01*
X715945Y602532D01*
X715906Y602531D01*
X715851Y602539D01*
X713311Y602539D01*
X713247Y602528D01*
X713181Y602526D01*
X713137Y602508D01*
X713091Y602500D01*
X713034Y602466D01*
X712973Y602441D01*
X712938Y602410D01*
X712897Y602385D01*
X712856Y602334D01*
X712807Y602290D01*
X712786Y602248D01*
X712756Y602211D01*
X712735Y602149D01*
X712705Y602090D01*
X712697Y602036D01*
X712684Y601999D01*
X712684Y601995D01*
X712684Y601994D01*
X712685Y601959D01*
X712677Y601905D01*
X712677Y598095D01*
X712689Y598030D01*
X712691Y597964D01*
X712708Y597921D01*
X712717Y597874D01*
X712750Y597817D01*
X712775Y597757D01*
X712807Y597722D01*
X712831Y597681D01*
X712882Y597640D01*
X712926Y597591D01*
X712969Y597569D01*
X713005Y597540D01*
X713067Y597519D01*
X713126Y597488D01*
X713180Y597480D01*
X713218Y597468D01*
X713257Y597469D01*
X713311Y597461D01*
X715851Y597461D01*
X715916Y597472D01*
G37*
G36*
X330827Y597472D02*
X330827Y597472D01*
X330893Y597474D01*
X330936Y597492D01*
X330983Y597500D01*
X331040Y597534D01*
X331100Y597559D01*
X331135Y597590D01*
X331176Y597615D01*
X331218Y597666D01*
X331266Y597710D01*
X331288Y597752D01*
X331317Y597789D01*
X331338Y597851D01*
X331369Y597910D01*
X331377Y597964D01*
X331389Y598001D01*
X331388Y598041D01*
X331396Y598095D01*
X331396Y601905D01*
X331385Y601970D01*
X331383Y602036D01*
X331365Y602079D01*
X331357Y602126D01*
X331323Y602183D01*
X331298Y602243D01*
X331267Y602278D01*
X331242Y602319D01*
X331191Y602361D01*
X331147Y602409D01*
X331105Y602431D01*
X331068Y602460D01*
X331006Y602481D01*
X330947Y602512D01*
X330893Y602520D01*
X330856Y602532D01*
X330816Y602531D01*
X330762Y602539D01*
X328222Y602539D01*
X328157Y602528D01*
X328091Y602526D01*
X328048Y602508D01*
X328001Y602500D01*
X327944Y602466D01*
X327884Y602441D01*
X327849Y602410D01*
X327808Y602385D01*
X327767Y602334D01*
X327718Y602290D01*
X327696Y602248D01*
X327667Y602211D01*
X327646Y602149D01*
X327615Y602090D01*
X327607Y602036D01*
X327595Y601999D01*
X327595Y601995D01*
X327595Y601994D01*
X327596Y601959D01*
X327588Y601905D01*
X327588Y598095D01*
X327599Y598030D01*
X327601Y597964D01*
X327619Y597921D01*
X327627Y597874D01*
X327661Y597817D01*
X327686Y597757D01*
X327717Y597722D01*
X327742Y597681D01*
X327793Y597640D01*
X327837Y597591D01*
X327879Y597569D01*
X327916Y597540D01*
X327978Y597519D01*
X328037Y597488D01*
X328091Y597480D01*
X328128Y597468D01*
X328168Y597469D01*
X328222Y597461D01*
X330762Y597461D01*
X330827Y597472D01*
G37*
G36*
X300827Y597472D02*
X300827Y597472D01*
X300893Y597474D01*
X300936Y597492D01*
X300983Y597500D01*
X301040Y597534D01*
X301100Y597559D01*
X301135Y597590D01*
X301176Y597615D01*
X301218Y597666D01*
X301266Y597710D01*
X301288Y597752D01*
X301317Y597789D01*
X301338Y597851D01*
X301369Y597910D01*
X301377Y597964D01*
X301389Y598001D01*
X301388Y598041D01*
X301396Y598095D01*
X301396Y601905D01*
X301385Y601970D01*
X301383Y602036D01*
X301365Y602079D01*
X301357Y602126D01*
X301323Y602183D01*
X301298Y602243D01*
X301267Y602278D01*
X301242Y602319D01*
X301191Y602361D01*
X301147Y602409D01*
X301105Y602431D01*
X301068Y602460D01*
X301006Y602481D01*
X300947Y602512D01*
X300893Y602520D01*
X300856Y602532D01*
X300816Y602531D01*
X300762Y602539D01*
X298222Y602539D01*
X298157Y602528D01*
X298091Y602526D01*
X298048Y602508D01*
X298001Y602500D01*
X297944Y602466D01*
X297884Y602441D01*
X297849Y602410D01*
X297808Y602385D01*
X297767Y602334D01*
X297718Y602290D01*
X297696Y602248D01*
X297667Y602211D01*
X297646Y602149D01*
X297615Y602090D01*
X297607Y602036D01*
X297595Y601999D01*
X297595Y601995D01*
X297595Y601994D01*
X297596Y601959D01*
X297588Y601905D01*
X297588Y598095D01*
X297599Y598030D01*
X297601Y597964D01*
X297619Y597921D01*
X297627Y597874D01*
X297661Y597817D01*
X297686Y597757D01*
X297717Y597722D01*
X297742Y597681D01*
X297793Y597640D01*
X297837Y597591D01*
X297879Y597569D01*
X297916Y597540D01*
X297978Y597519D01*
X298037Y597488D01*
X298091Y597480D01*
X298128Y597468D01*
X298168Y597469D01*
X298222Y597461D01*
X300762Y597461D01*
X300827Y597472D01*
G37*
G36*
X745916Y597472D02*
X745916Y597472D01*
X745982Y597474D01*
X746026Y597492D01*
X746072Y597500D01*
X746129Y597534D01*
X746190Y597559D01*
X746225Y597590D01*
X746265Y597615D01*
X746307Y597666D01*
X746355Y597710D01*
X746377Y597752D01*
X746407Y597789D01*
X746428Y597851D01*
X746458Y597910D01*
X746466Y597964D01*
X746479Y598001D01*
X746478Y598041D01*
X746486Y598095D01*
X746486Y601905D01*
X746474Y601970D01*
X746472Y602036D01*
X746454Y602079D01*
X746446Y602126D01*
X746412Y602183D01*
X746388Y602243D01*
X746356Y602278D01*
X746332Y602319D01*
X746281Y602361D01*
X746236Y602409D01*
X746194Y602431D01*
X746158Y602460D01*
X746095Y602481D01*
X746037Y602512D01*
X745982Y602520D01*
X745945Y602532D01*
X745906Y602531D01*
X745851Y602539D01*
X743311Y602539D01*
X743247Y602528D01*
X743181Y602526D01*
X743137Y602508D01*
X743091Y602500D01*
X743034Y602466D01*
X742973Y602441D01*
X742938Y602410D01*
X742897Y602385D01*
X742856Y602334D01*
X742807Y602290D01*
X742786Y602248D01*
X742756Y602211D01*
X742735Y602149D01*
X742705Y602090D01*
X742697Y602036D01*
X742684Y601999D01*
X742684Y601995D01*
X742684Y601994D01*
X742685Y601959D01*
X742677Y601905D01*
X742677Y598095D01*
X742689Y598030D01*
X742691Y597964D01*
X742708Y597921D01*
X742717Y597874D01*
X742750Y597817D01*
X742775Y597757D01*
X742807Y597722D01*
X742831Y597681D01*
X742882Y597640D01*
X742926Y597591D01*
X742969Y597569D01*
X743005Y597540D01*
X743067Y597519D01*
X743126Y597488D01*
X743180Y597480D01*
X743218Y597468D01*
X743257Y597469D01*
X743311Y597461D01*
X745851Y597461D01*
X745916Y597472D01*
G37*
G36*
X360827Y597472D02*
X360827Y597472D01*
X360893Y597474D01*
X360936Y597492D01*
X360983Y597500D01*
X361040Y597534D01*
X361100Y597559D01*
X361135Y597590D01*
X361176Y597615D01*
X361218Y597666D01*
X361266Y597710D01*
X361288Y597752D01*
X361317Y597789D01*
X361338Y597851D01*
X361369Y597910D01*
X361377Y597964D01*
X361389Y598001D01*
X361388Y598041D01*
X361396Y598095D01*
X361396Y601905D01*
X361385Y601970D01*
X361383Y602036D01*
X361365Y602079D01*
X361357Y602126D01*
X361323Y602183D01*
X361298Y602243D01*
X361267Y602278D01*
X361242Y602319D01*
X361191Y602361D01*
X361147Y602409D01*
X361105Y602431D01*
X361068Y602460D01*
X361006Y602481D01*
X360947Y602512D01*
X360893Y602520D01*
X360856Y602532D01*
X360816Y602531D01*
X360762Y602539D01*
X358222Y602539D01*
X358157Y602528D01*
X358091Y602526D01*
X358048Y602508D01*
X358001Y602500D01*
X357944Y602466D01*
X357884Y602441D01*
X357849Y602410D01*
X357808Y602385D01*
X357767Y602334D01*
X357718Y602290D01*
X357696Y602248D01*
X357667Y602211D01*
X357646Y602149D01*
X357615Y602090D01*
X357607Y602036D01*
X357595Y601999D01*
X357595Y601995D01*
X357595Y601994D01*
X357596Y601959D01*
X357588Y601905D01*
X357588Y598095D01*
X357599Y598030D01*
X357601Y597964D01*
X357619Y597921D01*
X357627Y597874D01*
X357661Y597817D01*
X357686Y597757D01*
X357717Y597722D01*
X357742Y597681D01*
X357793Y597640D01*
X357837Y597591D01*
X357879Y597569D01*
X357916Y597540D01*
X357978Y597519D01*
X358037Y597488D01*
X358091Y597480D01*
X358128Y597468D01*
X358168Y597469D01*
X358222Y597461D01*
X360762Y597461D01*
X360827Y597472D01*
G37*
G36*
X1100980Y597472D02*
X1100980Y597472D01*
X1101046Y597474D01*
X1101090Y597492D01*
X1101136Y597500D01*
X1101193Y597534D01*
X1101254Y597559D01*
X1101289Y597590D01*
X1101329Y597615D01*
X1101371Y597666D01*
X1101419Y597710D01*
X1101441Y597752D01*
X1101471Y597789D01*
X1101492Y597851D01*
X1101522Y597910D01*
X1101530Y597964D01*
X1101543Y598001D01*
X1101542Y598041D01*
X1101550Y598095D01*
X1101550Y601905D01*
X1101538Y601970D01*
X1101536Y602036D01*
X1101518Y602079D01*
X1101510Y602126D01*
X1101476Y602183D01*
X1101452Y602243D01*
X1101420Y602278D01*
X1101396Y602319D01*
X1101345Y602361D01*
X1101300Y602409D01*
X1101258Y602431D01*
X1101222Y602460D01*
X1101159Y602481D01*
X1101101Y602512D01*
X1101046Y602520D01*
X1101009Y602532D01*
X1100970Y602531D01*
X1100915Y602539D01*
X1098375Y602539D01*
X1098311Y602528D01*
X1098245Y602526D01*
X1098201Y602508D01*
X1098155Y602500D01*
X1098098Y602466D01*
X1098037Y602441D01*
X1098002Y602410D01*
X1097961Y602385D01*
X1097920Y602334D01*
X1097871Y602290D01*
X1097850Y602248D01*
X1097820Y602211D01*
X1097799Y602149D01*
X1097769Y602090D01*
X1097761Y602036D01*
X1097748Y601999D01*
X1097748Y601995D01*
X1097748Y601994D01*
X1097749Y601959D01*
X1097741Y601905D01*
X1097741Y598095D01*
X1097753Y598030D01*
X1097755Y597964D01*
X1097772Y597921D01*
X1097781Y597874D01*
X1097814Y597817D01*
X1097839Y597757D01*
X1097871Y597722D01*
X1097895Y597681D01*
X1097946Y597640D01*
X1097990Y597591D01*
X1098033Y597569D01*
X1098069Y597540D01*
X1098131Y597519D01*
X1098190Y597488D01*
X1098244Y597480D01*
X1098282Y597468D01*
X1098321Y597469D01*
X1098375Y597461D01*
X1100915Y597461D01*
X1100980Y597472D01*
G37*
G36*
X1070980Y597472D02*
X1070980Y597472D01*
X1071046Y597474D01*
X1071090Y597492D01*
X1071136Y597500D01*
X1071193Y597534D01*
X1071254Y597559D01*
X1071289Y597590D01*
X1071329Y597615D01*
X1071371Y597666D01*
X1071419Y597710D01*
X1071441Y597752D01*
X1071471Y597789D01*
X1071492Y597851D01*
X1071522Y597910D01*
X1071530Y597964D01*
X1071543Y598001D01*
X1071542Y598041D01*
X1071550Y598095D01*
X1071550Y601905D01*
X1071538Y601970D01*
X1071536Y602036D01*
X1071518Y602079D01*
X1071510Y602126D01*
X1071476Y602183D01*
X1071452Y602243D01*
X1071420Y602278D01*
X1071396Y602319D01*
X1071345Y602361D01*
X1071300Y602409D01*
X1071258Y602431D01*
X1071222Y602460D01*
X1071159Y602481D01*
X1071101Y602512D01*
X1071046Y602520D01*
X1071009Y602532D01*
X1070970Y602531D01*
X1070915Y602539D01*
X1068375Y602539D01*
X1068311Y602528D01*
X1068245Y602526D01*
X1068201Y602508D01*
X1068155Y602500D01*
X1068098Y602466D01*
X1068037Y602441D01*
X1068002Y602410D01*
X1067961Y602385D01*
X1067920Y602334D01*
X1067871Y602290D01*
X1067850Y602248D01*
X1067820Y602211D01*
X1067799Y602149D01*
X1067769Y602090D01*
X1067761Y602036D01*
X1067748Y601999D01*
X1067748Y601995D01*
X1067748Y601994D01*
X1067749Y601959D01*
X1067741Y601905D01*
X1067741Y598095D01*
X1067753Y598030D01*
X1067755Y597964D01*
X1067772Y597921D01*
X1067781Y597874D01*
X1067814Y597817D01*
X1067839Y597757D01*
X1067871Y597722D01*
X1067895Y597681D01*
X1067946Y597640D01*
X1067990Y597591D01*
X1068033Y597569D01*
X1068069Y597540D01*
X1068131Y597519D01*
X1068190Y597488D01*
X1068244Y597480D01*
X1068282Y597468D01*
X1068321Y597469D01*
X1068375Y597461D01*
X1070915Y597461D01*
X1070980Y597472D01*
G37*
G36*
X685916Y597472D02*
X685916Y597472D01*
X685982Y597474D01*
X686026Y597492D01*
X686072Y597500D01*
X686129Y597534D01*
X686190Y597559D01*
X686225Y597590D01*
X686265Y597615D01*
X686307Y597666D01*
X686355Y597710D01*
X686377Y597752D01*
X686407Y597789D01*
X686428Y597851D01*
X686458Y597910D01*
X686466Y597964D01*
X686479Y598001D01*
X686478Y598041D01*
X686486Y598095D01*
X686486Y601905D01*
X686474Y601970D01*
X686472Y602036D01*
X686454Y602079D01*
X686446Y602126D01*
X686412Y602183D01*
X686388Y602243D01*
X686356Y602278D01*
X686332Y602319D01*
X686281Y602361D01*
X686236Y602409D01*
X686194Y602431D01*
X686158Y602460D01*
X686095Y602481D01*
X686037Y602512D01*
X685982Y602520D01*
X685945Y602532D01*
X685906Y602531D01*
X685851Y602539D01*
X683311Y602539D01*
X683247Y602528D01*
X683181Y602526D01*
X683137Y602508D01*
X683091Y602500D01*
X683034Y602466D01*
X682973Y602441D01*
X682938Y602410D01*
X682897Y602385D01*
X682856Y602334D01*
X682807Y602290D01*
X682786Y602248D01*
X682756Y602211D01*
X682735Y602149D01*
X682705Y602090D01*
X682697Y602036D01*
X682684Y601999D01*
X682684Y601995D01*
X682684Y601994D01*
X682685Y601959D01*
X682677Y601905D01*
X682677Y598095D01*
X682689Y598030D01*
X682691Y597964D01*
X682708Y597921D01*
X682717Y597874D01*
X682750Y597817D01*
X682775Y597757D01*
X682807Y597722D01*
X682831Y597681D01*
X682882Y597640D01*
X682926Y597591D01*
X682969Y597569D01*
X683005Y597540D01*
X683067Y597519D01*
X683126Y597488D01*
X683180Y597480D01*
X683218Y597468D01*
X683257Y597469D01*
X683311Y597461D01*
X685851Y597461D01*
X685916Y597472D01*
G37*
G36*
X1130980Y597472D02*
X1130980Y597472D01*
X1131046Y597474D01*
X1131090Y597492D01*
X1131136Y597500D01*
X1131193Y597534D01*
X1131254Y597559D01*
X1131289Y597590D01*
X1131329Y597615D01*
X1131371Y597666D01*
X1131419Y597710D01*
X1131441Y597752D01*
X1131471Y597789D01*
X1131492Y597851D01*
X1131522Y597910D01*
X1131530Y597964D01*
X1131543Y598001D01*
X1131542Y598041D01*
X1131550Y598095D01*
X1131550Y601905D01*
X1131538Y601970D01*
X1131536Y602036D01*
X1131518Y602079D01*
X1131510Y602126D01*
X1131476Y602183D01*
X1131452Y602243D01*
X1131420Y602278D01*
X1131396Y602319D01*
X1131345Y602361D01*
X1131300Y602409D01*
X1131258Y602431D01*
X1131222Y602460D01*
X1131159Y602481D01*
X1131101Y602512D01*
X1131046Y602520D01*
X1131009Y602532D01*
X1130970Y602531D01*
X1130915Y602539D01*
X1128375Y602539D01*
X1128311Y602528D01*
X1128245Y602526D01*
X1128201Y602508D01*
X1128155Y602500D01*
X1128098Y602466D01*
X1128037Y602441D01*
X1128002Y602410D01*
X1127961Y602385D01*
X1127920Y602334D01*
X1127871Y602290D01*
X1127850Y602248D01*
X1127820Y602211D01*
X1127799Y602149D01*
X1127769Y602090D01*
X1127761Y602036D01*
X1127748Y601999D01*
X1127748Y601995D01*
X1127748Y601994D01*
X1127749Y601959D01*
X1127741Y601905D01*
X1127741Y598095D01*
X1127753Y598030D01*
X1127755Y597964D01*
X1127772Y597921D01*
X1127781Y597874D01*
X1127814Y597817D01*
X1127839Y597757D01*
X1127871Y597722D01*
X1127895Y597681D01*
X1127946Y597640D01*
X1127990Y597591D01*
X1128033Y597569D01*
X1128069Y597540D01*
X1128131Y597519D01*
X1128190Y597488D01*
X1128244Y597480D01*
X1128282Y597468D01*
X1128321Y597469D01*
X1128375Y597461D01*
X1130915Y597461D01*
X1130980Y597472D01*
G37*
G36*
X587551Y1179705D02*
X587551Y1179705D01*
X587617Y1179707D01*
X587661Y1179724D01*
X587707Y1179733D01*
X587764Y1179766D01*
X587825Y1179791D01*
X587860Y1179823D01*
X587900Y1179847D01*
X587942Y1179898D01*
X587990Y1179942D01*
X588012Y1179985D01*
X588042Y1180021D01*
X588063Y1180083D01*
X588093Y1180142D01*
X588101Y1180196D01*
X588114Y1180234D01*
X588113Y1180273D01*
X588121Y1180327D01*
X588121Y1182867D01*
X588109Y1182932D01*
X588107Y1182998D01*
X588089Y1183042D01*
X588081Y1183088D01*
X588047Y1183145D01*
X588023Y1183206D01*
X587991Y1183241D01*
X587967Y1183281D01*
X587916Y1183323D01*
X587871Y1183371D01*
X587829Y1183393D01*
X587793Y1183423D01*
X587730Y1183444D01*
X587672Y1183474D01*
X587617Y1183482D01*
X587580Y1183495D01*
X587541Y1183494D01*
X587486Y1183502D01*
X583676Y1183502D01*
X583612Y1183490D01*
X583546Y1183488D01*
X583502Y1183470D01*
X583456Y1183462D01*
X583399Y1183428D01*
X583338Y1183404D01*
X583303Y1183372D01*
X583262Y1183348D01*
X583221Y1183297D01*
X583172Y1183252D01*
X583151Y1183210D01*
X583121Y1183174D01*
X583100Y1183111D01*
X583070Y1183053D01*
X583062Y1182998D01*
X583049Y1182961D01*
X583049Y1182958D01*
X583050Y1182921D01*
X583042Y1182867D01*
X583042Y1180327D01*
X583054Y1180263D01*
X583056Y1180197D01*
X583073Y1180153D01*
X583082Y1180107D01*
X583115Y1180050D01*
X583140Y1179989D01*
X583172Y1179954D01*
X583196Y1179913D01*
X583247Y1179872D01*
X583291Y1179823D01*
X583334Y1179802D01*
X583370Y1179772D01*
X583432Y1179751D01*
X583491Y1179721D01*
X583545Y1179713D01*
X583583Y1179700D01*
X583622Y1179701D01*
X583676Y1179693D01*
X587486Y1179693D01*
X587551Y1179705D01*
G37*
G36*
X202487Y1179705D02*
X202487Y1179705D01*
X202553Y1179707D01*
X202597Y1179724D01*
X202643Y1179733D01*
X202700Y1179766D01*
X202761Y1179791D01*
X202796Y1179823D01*
X202836Y1179847D01*
X202878Y1179898D01*
X202926Y1179942D01*
X202948Y1179985D01*
X202978Y1180021D01*
X202999Y1180083D01*
X203029Y1180142D01*
X203037Y1180196D01*
X203050Y1180234D01*
X203049Y1180273D01*
X203057Y1180327D01*
X203057Y1182867D01*
X203045Y1182932D01*
X203043Y1182998D01*
X203025Y1183042D01*
X203017Y1183088D01*
X202983Y1183145D01*
X202959Y1183206D01*
X202927Y1183241D01*
X202903Y1183281D01*
X202852Y1183323D01*
X202807Y1183371D01*
X202765Y1183393D01*
X202729Y1183423D01*
X202666Y1183444D01*
X202608Y1183474D01*
X202553Y1183482D01*
X202516Y1183495D01*
X202477Y1183494D01*
X202422Y1183502D01*
X198612Y1183502D01*
X198548Y1183490D01*
X198482Y1183488D01*
X198438Y1183470D01*
X198392Y1183462D01*
X198335Y1183428D01*
X198274Y1183404D01*
X198239Y1183372D01*
X198198Y1183348D01*
X198157Y1183297D01*
X198108Y1183252D01*
X198087Y1183210D01*
X198057Y1183174D01*
X198036Y1183111D01*
X198006Y1183053D01*
X197998Y1182998D01*
X197985Y1182961D01*
X197985Y1182958D01*
X197986Y1182921D01*
X197978Y1182867D01*
X197978Y1180327D01*
X197990Y1180263D01*
X197992Y1180197D01*
X198009Y1180153D01*
X198018Y1180107D01*
X198051Y1180050D01*
X198076Y1179989D01*
X198108Y1179954D01*
X198132Y1179913D01*
X198183Y1179872D01*
X198227Y1179823D01*
X198270Y1179802D01*
X198306Y1179772D01*
X198368Y1179751D01*
X198427Y1179721D01*
X198481Y1179713D01*
X198519Y1179700D01*
X198558Y1179701D01*
X198612Y1179693D01*
X202422Y1179693D01*
X202487Y1179705D01*
G37*
G36*
X932641Y1239705D02*
X932641Y1239705D01*
X932706Y1239707D01*
X932750Y1239724D01*
X932797Y1239733D01*
X932853Y1239766D01*
X932914Y1239791D01*
X932949Y1239823D01*
X932990Y1239847D01*
X933031Y1239898D01*
X933080Y1239942D01*
X933101Y1239985D01*
X933131Y1240021D01*
X933152Y1240083D01*
X933182Y1240142D01*
X933191Y1240196D01*
X933203Y1240234D01*
X933202Y1240273D01*
X933210Y1240327D01*
X933210Y1242867D01*
X933198Y1242932D01*
X933196Y1242998D01*
X933179Y1243042D01*
X933170Y1243088D01*
X933137Y1243145D01*
X933112Y1243206D01*
X933080Y1243241D01*
X933056Y1243281D01*
X933005Y1243323D01*
X932961Y1243371D01*
X932919Y1243393D01*
X932882Y1243423D01*
X932820Y1243444D01*
X932761Y1243474D01*
X932707Y1243482D01*
X932670Y1243495D01*
X932630Y1243494D01*
X932576Y1243502D01*
X928766Y1243502D01*
X928701Y1243490D01*
X928635Y1243488D01*
X928592Y1243470D01*
X928545Y1243462D01*
X928488Y1243428D01*
X928427Y1243404D01*
X928393Y1243372D01*
X928352Y1243348D01*
X928310Y1243297D01*
X928262Y1243252D01*
X928240Y1243210D01*
X928210Y1243174D01*
X928189Y1243111D01*
X928159Y1243053D01*
X928151Y1242998D01*
X928139Y1242961D01*
X928139Y1242958D01*
X928140Y1242921D01*
X928132Y1242867D01*
X928132Y1240327D01*
X928143Y1240263D01*
X928145Y1240197D01*
X928163Y1240153D01*
X928171Y1240107D01*
X928205Y1240050D01*
X928229Y1239989D01*
X928261Y1239954D01*
X928285Y1239913D01*
X928336Y1239872D01*
X928381Y1239823D01*
X928423Y1239802D01*
X928460Y1239772D01*
X928522Y1239751D01*
X928580Y1239721D01*
X928635Y1239713D01*
X928672Y1239700D01*
X928711Y1239701D01*
X928766Y1239693D01*
X932576Y1239693D01*
X932641Y1239705D01*
G37*
G36*
X457551Y1329705D02*
X457551Y1329705D01*
X457617Y1329707D01*
X457661Y1329724D01*
X457707Y1329733D01*
X457764Y1329766D01*
X457825Y1329791D01*
X457860Y1329823D01*
X457900Y1329847D01*
X457942Y1329898D01*
X457990Y1329942D01*
X458012Y1329985D01*
X458042Y1330021D01*
X458063Y1330083D01*
X458093Y1330142D01*
X458101Y1330196D01*
X458114Y1330234D01*
X458113Y1330273D01*
X458121Y1330327D01*
X458121Y1332867D01*
X458109Y1332932D01*
X458107Y1332998D01*
X458089Y1333042D01*
X458081Y1333088D01*
X458047Y1333145D01*
X458023Y1333206D01*
X457991Y1333241D01*
X457967Y1333281D01*
X457916Y1333323D01*
X457871Y1333371D01*
X457829Y1333393D01*
X457793Y1333423D01*
X457730Y1333444D01*
X457672Y1333474D01*
X457617Y1333482D01*
X457580Y1333495D01*
X457541Y1333494D01*
X457486Y1333502D01*
X453676Y1333502D01*
X453612Y1333490D01*
X453546Y1333488D01*
X453502Y1333470D01*
X453456Y1333462D01*
X453399Y1333428D01*
X453338Y1333404D01*
X453303Y1333372D01*
X453262Y1333348D01*
X453221Y1333297D01*
X453172Y1333252D01*
X453151Y1333210D01*
X453121Y1333174D01*
X453100Y1333111D01*
X453070Y1333053D01*
X453062Y1332998D01*
X453049Y1332961D01*
X453049Y1332958D01*
X453050Y1332921D01*
X453042Y1332867D01*
X453042Y1330327D01*
X453054Y1330263D01*
X453056Y1330197D01*
X453073Y1330153D01*
X453082Y1330107D01*
X453115Y1330050D01*
X453140Y1329989D01*
X453172Y1329954D01*
X453196Y1329913D01*
X453247Y1329872D01*
X453291Y1329823D01*
X453334Y1329802D01*
X453370Y1329772D01*
X453432Y1329751D01*
X453491Y1329721D01*
X453545Y1329713D01*
X453583Y1329700D01*
X453622Y1329701D01*
X453676Y1329693D01*
X457486Y1329693D01*
X457551Y1329705D01*
G37*
G36*
X72487Y1329705D02*
X72487Y1329705D01*
X72553Y1329707D01*
X72597Y1329724D01*
X72643Y1329733D01*
X72700Y1329766D01*
X72761Y1329791D01*
X72796Y1329823D01*
X72836Y1329847D01*
X72878Y1329898D01*
X72926Y1329942D01*
X72948Y1329985D01*
X72978Y1330021D01*
X72999Y1330083D01*
X73029Y1330142D01*
X73037Y1330196D01*
X73050Y1330234D01*
X73049Y1330273D01*
X73057Y1330327D01*
X73057Y1332867D01*
X73045Y1332932D01*
X73043Y1332998D01*
X73025Y1333042D01*
X73017Y1333088D01*
X72983Y1333145D01*
X72959Y1333206D01*
X72927Y1333241D01*
X72903Y1333281D01*
X72852Y1333323D01*
X72807Y1333371D01*
X72765Y1333393D01*
X72729Y1333423D01*
X72666Y1333444D01*
X72608Y1333474D01*
X72553Y1333482D01*
X72516Y1333495D01*
X72477Y1333494D01*
X72422Y1333502D01*
X68612Y1333502D01*
X68548Y1333490D01*
X68482Y1333488D01*
X68438Y1333470D01*
X68392Y1333462D01*
X68335Y1333428D01*
X68274Y1333404D01*
X68239Y1333372D01*
X68198Y1333348D01*
X68157Y1333297D01*
X68108Y1333252D01*
X68087Y1333210D01*
X68057Y1333174D01*
X68036Y1333111D01*
X68006Y1333053D01*
X67998Y1332998D01*
X67985Y1332961D01*
X67985Y1332958D01*
X67986Y1332921D01*
X67978Y1332867D01*
X67978Y1330327D01*
X67990Y1330263D01*
X67992Y1330197D01*
X68009Y1330153D01*
X68018Y1330107D01*
X68051Y1330050D01*
X68076Y1329989D01*
X68108Y1329954D01*
X68132Y1329913D01*
X68183Y1329872D01*
X68227Y1329823D01*
X68270Y1329802D01*
X68306Y1329772D01*
X68368Y1329751D01*
X68427Y1329721D01*
X68481Y1329713D01*
X68519Y1329700D01*
X68558Y1329701D01*
X68612Y1329693D01*
X72422Y1329693D01*
X72487Y1329705D01*
G37*
G36*
X842641Y1329705D02*
X842641Y1329705D01*
X842706Y1329707D01*
X842750Y1329724D01*
X842797Y1329733D01*
X842853Y1329766D01*
X842914Y1329791D01*
X842949Y1329823D01*
X842990Y1329847D01*
X843031Y1329898D01*
X843080Y1329942D01*
X843101Y1329985D01*
X843131Y1330021D01*
X843152Y1330083D01*
X843182Y1330142D01*
X843191Y1330196D01*
X843203Y1330234D01*
X843202Y1330273D01*
X843210Y1330327D01*
X843210Y1332867D01*
X843198Y1332932D01*
X843196Y1332998D01*
X843179Y1333042D01*
X843170Y1333088D01*
X843137Y1333145D01*
X843112Y1333206D01*
X843080Y1333241D01*
X843056Y1333281D01*
X843005Y1333323D01*
X842961Y1333371D01*
X842919Y1333393D01*
X842882Y1333423D01*
X842820Y1333444D01*
X842761Y1333474D01*
X842707Y1333482D01*
X842670Y1333495D01*
X842630Y1333494D01*
X842576Y1333502D01*
X838766Y1333502D01*
X838701Y1333490D01*
X838635Y1333488D01*
X838592Y1333470D01*
X838545Y1333462D01*
X838488Y1333428D01*
X838427Y1333404D01*
X838393Y1333372D01*
X838352Y1333348D01*
X838310Y1333297D01*
X838262Y1333252D01*
X838240Y1333210D01*
X838210Y1333174D01*
X838189Y1333111D01*
X838159Y1333053D01*
X838151Y1332998D01*
X838139Y1332961D01*
X838139Y1332958D01*
X838140Y1332921D01*
X838132Y1332867D01*
X838132Y1330327D01*
X838143Y1330263D01*
X838145Y1330197D01*
X838163Y1330153D01*
X838171Y1330107D01*
X838205Y1330050D01*
X838229Y1329989D01*
X838261Y1329954D01*
X838285Y1329913D01*
X838336Y1329872D01*
X838381Y1329823D01*
X838423Y1329802D01*
X838460Y1329772D01*
X838522Y1329751D01*
X838580Y1329721D01*
X838635Y1329713D01*
X838672Y1329700D01*
X838711Y1329701D01*
X838766Y1329693D01*
X842576Y1329693D01*
X842641Y1329705D01*
G37*
G36*
X566551Y218107D02*
X566551Y218107D01*
X566617Y218109D01*
X566661Y218127D01*
X566707Y218135D01*
X566764Y218169D01*
X566825Y218194D01*
X566860Y218225D01*
X566900Y218250D01*
X566942Y218301D01*
X566990Y218345D01*
X567012Y218387D01*
X567042Y218424D01*
X567063Y218486D01*
X567093Y218545D01*
X567101Y218599D01*
X567114Y218636D01*
X567113Y218676D01*
X567121Y218730D01*
X567121Y221270D01*
X567109Y221335D01*
X567107Y221401D01*
X567089Y221444D01*
X567081Y221491D01*
X567047Y221548D01*
X567023Y221608D01*
X566991Y221643D01*
X566967Y221684D01*
X566916Y221726D01*
X566871Y221774D01*
X566829Y221796D01*
X566793Y221825D01*
X566730Y221846D01*
X566672Y221877D01*
X566617Y221885D01*
X566580Y221897D01*
X566541Y221896D01*
X566486Y221904D01*
X562676Y221904D01*
X562612Y221893D01*
X562546Y221891D01*
X562502Y221873D01*
X562456Y221865D01*
X562399Y221831D01*
X562338Y221806D01*
X562303Y221775D01*
X562262Y221750D01*
X562221Y221699D01*
X562172Y221655D01*
X562151Y221613D01*
X562121Y221576D01*
X562100Y221514D01*
X562070Y221455D01*
X562062Y221401D01*
X562049Y221364D01*
X562049Y221361D01*
X562050Y221324D01*
X562042Y221270D01*
X562042Y218730D01*
X562054Y218665D01*
X562056Y218599D01*
X562073Y218556D01*
X562082Y218509D01*
X562115Y218452D01*
X562140Y218392D01*
X562172Y218357D01*
X562196Y218316D01*
X562247Y218275D01*
X562291Y218226D01*
X562334Y218204D01*
X562370Y218175D01*
X562432Y218154D01*
X562491Y218123D01*
X562545Y218115D01*
X562583Y218103D01*
X562622Y218104D01*
X562676Y218096D01*
X566486Y218096D01*
X566551Y218107D01*
G37*
G36*
X181462Y218107D02*
X181462Y218107D01*
X181528Y218109D01*
X181571Y218127D01*
X181618Y218135D01*
X181675Y218169D01*
X181735Y218194D01*
X181770Y218225D01*
X181811Y218250D01*
X181853Y218301D01*
X181901Y218345D01*
X181923Y218387D01*
X181952Y218424D01*
X181973Y218486D01*
X182004Y218545D01*
X182012Y218599D01*
X182024Y218636D01*
X182023Y218676D01*
X182031Y218730D01*
X182031Y221270D01*
X182020Y221335D01*
X182018Y221401D01*
X182000Y221444D01*
X181992Y221491D01*
X181958Y221548D01*
X181933Y221608D01*
X181902Y221643D01*
X181877Y221684D01*
X181826Y221726D01*
X181782Y221774D01*
X181740Y221796D01*
X181703Y221825D01*
X181641Y221846D01*
X181582Y221877D01*
X181528Y221885D01*
X181491Y221897D01*
X181451Y221896D01*
X181397Y221904D01*
X177587Y221904D01*
X177522Y221893D01*
X177456Y221891D01*
X177413Y221873D01*
X177366Y221865D01*
X177309Y221831D01*
X177249Y221806D01*
X177214Y221775D01*
X177173Y221750D01*
X177132Y221699D01*
X177083Y221655D01*
X177061Y221613D01*
X177032Y221576D01*
X177011Y221514D01*
X176980Y221455D01*
X176972Y221401D01*
X176960Y221364D01*
X176960Y221361D01*
X176961Y221324D01*
X176953Y221270D01*
X176953Y218730D01*
X176964Y218665D01*
X176966Y218599D01*
X176984Y218556D01*
X176992Y218509D01*
X177026Y218452D01*
X177051Y218392D01*
X177082Y218357D01*
X177107Y218316D01*
X177158Y218275D01*
X177202Y218226D01*
X177244Y218204D01*
X177281Y218175D01*
X177343Y218154D01*
X177402Y218123D01*
X177456Y218115D01*
X177493Y218103D01*
X177533Y218104D01*
X177587Y218096D01*
X181397Y218096D01*
X181462Y218107D01*
G37*
G36*
X951615Y218107D02*
X951615Y218107D01*
X951681Y218109D01*
X951725Y218127D01*
X951771Y218135D01*
X951828Y218169D01*
X951889Y218194D01*
X951924Y218225D01*
X951964Y218250D01*
X952006Y218301D01*
X952054Y218345D01*
X952076Y218387D01*
X952106Y218424D01*
X952127Y218486D01*
X952157Y218545D01*
X952165Y218599D01*
X952178Y218636D01*
X952177Y218676D01*
X952185Y218730D01*
X952185Y221270D01*
X952173Y221335D01*
X952171Y221401D01*
X952153Y221444D01*
X952145Y221491D01*
X952111Y221548D01*
X952087Y221608D01*
X952055Y221643D01*
X952031Y221684D01*
X951980Y221726D01*
X951935Y221774D01*
X951893Y221796D01*
X951857Y221825D01*
X951794Y221846D01*
X951736Y221877D01*
X951681Y221885D01*
X951644Y221897D01*
X951605Y221896D01*
X951550Y221904D01*
X947740Y221904D01*
X947676Y221893D01*
X947610Y221891D01*
X947566Y221873D01*
X947520Y221865D01*
X947463Y221831D01*
X947402Y221806D01*
X947367Y221775D01*
X947326Y221750D01*
X947285Y221699D01*
X947236Y221655D01*
X947215Y221613D01*
X947185Y221576D01*
X947164Y221514D01*
X947134Y221455D01*
X947126Y221401D01*
X947113Y221364D01*
X947113Y221361D01*
X947114Y221324D01*
X947106Y221270D01*
X947106Y218730D01*
X947118Y218665D01*
X947120Y218599D01*
X947137Y218556D01*
X947146Y218509D01*
X947179Y218452D01*
X947204Y218392D01*
X947236Y218357D01*
X947260Y218316D01*
X947311Y218275D01*
X947355Y218226D01*
X947398Y218204D01*
X947434Y218175D01*
X947496Y218154D01*
X947555Y218123D01*
X947609Y218115D01*
X947647Y218103D01*
X947686Y218104D01*
X947740Y218096D01*
X951550Y218096D01*
X951615Y218107D01*
G37*
G36*
X991615Y158107D02*
X991615Y158107D01*
X991681Y158109D01*
X991725Y158127D01*
X991771Y158135D01*
X991828Y158169D01*
X991889Y158194D01*
X991924Y158225D01*
X991964Y158250D01*
X992006Y158301D01*
X992054Y158345D01*
X992076Y158387D01*
X992106Y158424D01*
X992127Y158486D01*
X992157Y158545D01*
X992165Y158599D01*
X992178Y158636D01*
X992177Y158676D01*
X992185Y158730D01*
X992185Y161270D01*
X992173Y161335D01*
X992171Y161401D01*
X992153Y161444D01*
X992145Y161491D01*
X992111Y161548D01*
X992087Y161608D01*
X992055Y161643D01*
X992031Y161684D01*
X991980Y161726D01*
X991935Y161774D01*
X991893Y161796D01*
X991857Y161825D01*
X991794Y161846D01*
X991736Y161877D01*
X991681Y161885D01*
X991644Y161897D01*
X991605Y161896D01*
X991550Y161904D01*
X987740Y161904D01*
X987676Y161893D01*
X987610Y161891D01*
X987566Y161873D01*
X987520Y161865D01*
X987463Y161831D01*
X987402Y161806D01*
X987367Y161775D01*
X987326Y161750D01*
X987285Y161699D01*
X987236Y161655D01*
X987215Y161613D01*
X987185Y161576D01*
X987164Y161514D01*
X987134Y161455D01*
X987126Y161401D01*
X987113Y161364D01*
X987113Y161361D01*
X987114Y161324D01*
X987106Y161270D01*
X987106Y158730D01*
X987118Y158665D01*
X987120Y158599D01*
X987137Y158556D01*
X987146Y158509D01*
X987179Y158452D01*
X987204Y158392D01*
X987236Y158357D01*
X987260Y158316D01*
X987311Y158275D01*
X987355Y158226D01*
X987398Y158204D01*
X987434Y158175D01*
X987496Y158154D01*
X987555Y158123D01*
X987609Y158115D01*
X987647Y158103D01*
X987686Y158104D01*
X987740Y158096D01*
X991550Y158096D01*
X991615Y158107D01*
G37*
G36*
X221462Y158107D02*
X221462Y158107D01*
X221528Y158109D01*
X221571Y158127D01*
X221618Y158135D01*
X221675Y158169D01*
X221735Y158194D01*
X221770Y158225D01*
X221811Y158250D01*
X221853Y158301D01*
X221901Y158345D01*
X221923Y158387D01*
X221952Y158424D01*
X221973Y158486D01*
X222004Y158545D01*
X222012Y158599D01*
X222024Y158636D01*
X222023Y158676D01*
X222031Y158730D01*
X222031Y161270D01*
X222020Y161335D01*
X222018Y161401D01*
X222000Y161444D01*
X221992Y161491D01*
X221958Y161548D01*
X221933Y161608D01*
X221902Y161643D01*
X221877Y161684D01*
X221826Y161726D01*
X221782Y161774D01*
X221740Y161796D01*
X221703Y161825D01*
X221641Y161846D01*
X221582Y161877D01*
X221528Y161885D01*
X221491Y161897D01*
X221451Y161896D01*
X221397Y161904D01*
X217587Y161904D01*
X217522Y161893D01*
X217456Y161891D01*
X217413Y161873D01*
X217366Y161865D01*
X217309Y161831D01*
X217249Y161806D01*
X217214Y161775D01*
X217173Y161750D01*
X217132Y161699D01*
X217083Y161655D01*
X217061Y161613D01*
X217032Y161576D01*
X217011Y161514D01*
X216980Y161455D01*
X216972Y161401D01*
X216960Y161364D01*
X216960Y161361D01*
X216961Y161324D01*
X216953Y161270D01*
X216953Y158730D01*
X216964Y158665D01*
X216966Y158599D01*
X216984Y158556D01*
X216992Y158509D01*
X217026Y158452D01*
X217051Y158392D01*
X217082Y158357D01*
X217107Y158316D01*
X217158Y158275D01*
X217202Y158226D01*
X217244Y158204D01*
X217281Y158175D01*
X217343Y158154D01*
X217402Y158123D01*
X217456Y158115D01*
X217493Y158103D01*
X217533Y158104D01*
X217587Y158096D01*
X221397Y158096D01*
X221462Y158107D01*
G37*
G36*
X606551Y158107D02*
X606551Y158107D01*
X606617Y158109D01*
X606661Y158127D01*
X606707Y158135D01*
X606764Y158169D01*
X606825Y158194D01*
X606860Y158225D01*
X606900Y158250D01*
X606942Y158301D01*
X606990Y158345D01*
X607012Y158387D01*
X607042Y158424D01*
X607063Y158486D01*
X607093Y158545D01*
X607101Y158599D01*
X607114Y158636D01*
X607113Y158676D01*
X607121Y158730D01*
X607121Y161270D01*
X607109Y161335D01*
X607107Y161401D01*
X607089Y161444D01*
X607081Y161491D01*
X607047Y161548D01*
X607023Y161608D01*
X606991Y161643D01*
X606967Y161684D01*
X606916Y161726D01*
X606871Y161774D01*
X606829Y161796D01*
X606793Y161825D01*
X606730Y161846D01*
X606672Y161877D01*
X606617Y161885D01*
X606580Y161897D01*
X606541Y161896D01*
X606486Y161904D01*
X602676Y161904D01*
X602612Y161893D01*
X602546Y161891D01*
X602502Y161873D01*
X602456Y161865D01*
X602399Y161831D01*
X602338Y161806D01*
X602303Y161775D01*
X602262Y161750D01*
X602221Y161699D01*
X602172Y161655D01*
X602151Y161613D01*
X602121Y161576D01*
X602100Y161514D01*
X602070Y161455D01*
X602062Y161401D01*
X602049Y161364D01*
X602049Y161361D01*
X602050Y161324D01*
X602042Y161270D01*
X602042Y158730D01*
X602054Y158665D01*
X602056Y158599D01*
X602073Y158556D01*
X602082Y158509D01*
X602115Y158452D01*
X602140Y158392D01*
X602172Y158357D01*
X602196Y158316D01*
X602247Y158275D01*
X602291Y158226D01*
X602334Y158204D01*
X602370Y158175D01*
X602432Y158154D01*
X602491Y158123D01*
X602545Y158115D01*
X602583Y158103D01*
X602622Y158104D01*
X602676Y158096D01*
X606486Y158096D01*
X606551Y158107D01*
G37*
G36*
X547551Y1239705D02*
X547551Y1239705D01*
X547617Y1239707D01*
X547661Y1239724D01*
X547707Y1239733D01*
X547764Y1239766D01*
X547825Y1239791D01*
X547860Y1239823D01*
X547900Y1239847D01*
X547942Y1239898D01*
X547990Y1239942D01*
X548012Y1239985D01*
X548042Y1240021D01*
X548063Y1240083D01*
X548093Y1240142D01*
X548101Y1240196D01*
X548114Y1240234D01*
X548113Y1240273D01*
X548121Y1240327D01*
X548121Y1242867D01*
X548109Y1242932D01*
X548107Y1242998D01*
X548089Y1243042D01*
X548081Y1243088D01*
X548047Y1243145D01*
X548023Y1243206D01*
X547991Y1243241D01*
X547967Y1243281D01*
X547916Y1243323D01*
X547871Y1243371D01*
X547829Y1243393D01*
X547793Y1243423D01*
X547730Y1243444D01*
X547672Y1243474D01*
X547617Y1243482D01*
X547580Y1243495D01*
X547541Y1243494D01*
X547486Y1243502D01*
X543676Y1243502D01*
X543612Y1243490D01*
X543546Y1243488D01*
X543502Y1243470D01*
X543456Y1243462D01*
X543399Y1243428D01*
X543338Y1243404D01*
X543303Y1243372D01*
X543262Y1243348D01*
X543221Y1243297D01*
X543172Y1243252D01*
X543151Y1243210D01*
X543121Y1243174D01*
X543100Y1243111D01*
X543070Y1243053D01*
X543062Y1242998D01*
X543049Y1242961D01*
X543049Y1242958D01*
X543050Y1242921D01*
X543042Y1242867D01*
X543042Y1240327D01*
X543054Y1240263D01*
X543056Y1240197D01*
X543073Y1240153D01*
X543082Y1240107D01*
X543115Y1240050D01*
X543140Y1239989D01*
X543172Y1239954D01*
X543196Y1239913D01*
X543247Y1239872D01*
X543291Y1239823D01*
X543334Y1239802D01*
X543370Y1239772D01*
X543432Y1239751D01*
X543491Y1239721D01*
X543545Y1239713D01*
X543583Y1239700D01*
X543622Y1239701D01*
X543676Y1239693D01*
X547486Y1239693D01*
X547551Y1239705D01*
G37*
G36*
X162487Y1239705D02*
X162487Y1239705D01*
X162553Y1239707D01*
X162597Y1239724D01*
X162643Y1239733D01*
X162700Y1239766D01*
X162761Y1239791D01*
X162796Y1239823D01*
X162836Y1239847D01*
X162878Y1239898D01*
X162926Y1239942D01*
X162948Y1239985D01*
X162978Y1240021D01*
X162999Y1240083D01*
X163029Y1240142D01*
X163037Y1240196D01*
X163050Y1240234D01*
X163049Y1240273D01*
X163057Y1240327D01*
X163057Y1242867D01*
X163045Y1242932D01*
X163043Y1242998D01*
X163025Y1243042D01*
X163017Y1243088D01*
X162983Y1243145D01*
X162959Y1243206D01*
X162927Y1243241D01*
X162903Y1243281D01*
X162852Y1243323D01*
X162807Y1243371D01*
X162765Y1243393D01*
X162729Y1243423D01*
X162666Y1243444D01*
X162608Y1243474D01*
X162553Y1243482D01*
X162516Y1243495D01*
X162477Y1243494D01*
X162422Y1243502D01*
X158612Y1243502D01*
X158548Y1243490D01*
X158482Y1243488D01*
X158438Y1243470D01*
X158392Y1243462D01*
X158335Y1243428D01*
X158274Y1243404D01*
X158239Y1243372D01*
X158198Y1243348D01*
X158157Y1243297D01*
X158108Y1243252D01*
X158087Y1243210D01*
X158057Y1243174D01*
X158036Y1243111D01*
X158006Y1243053D01*
X157998Y1242998D01*
X157985Y1242961D01*
X157985Y1242958D01*
X157986Y1242921D01*
X157978Y1242867D01*
X157978Y1240327D01*
X157990Y1240263D01*
X157992Y1240197D01*
X158009Y1240153D01*
X158018Y1240107D01*
X158051Y1240050D01*
X158076Y1239989D01*
X158108Y1239954D01*
X158132Y1239913D01*
X158183Y1239872D01*
X158227Y1239823D01*
X158270Y1239802D01*
X158306Y1239772D01*
X158368Y1239751D01*
X158427Y1239721D01*
X158481Y1239713D01*
X158519Y1239700D01*
X158558Y1239701D01*
X158612Y1239693D01*
X162422Y1239693D01*
X162487Y1239705D01*
G37*
G36*
X972641Y1179705D02*
X972641Y1179705D01*
X972706Y1179707D01*
X972750Y1179724D01*
X972797Y1179733D01*
X972853Y1179766D01*
X972914Y1179791D01*
X972949Y1179823D01*
X972990Y1179847D01*
X973031Y1179898D01*
X973080Y1179942D01*
X973101Y1179985D01*
X973131Y1180021D01*
X973152Y1180083D01*
X973182Y1180142D01*
X973191Y1180196D01*
X973203Y1180234D01*
X973202Y1180273D01*
X973210Y1180327D01*
X973210Y1182867D01*
X973198Y1182932D01*
X973196Y1182998D01*
X973179Y1183042D01*
X973170Y1183088D01*
X973137Y1183145D01*
X973112Y1183206D01*
X973080Y1183241D01*
X973056Y1183281D01*
X973005Y1183323D01*
X972961Y1183371D01*
X972919Y1183393D01*
X972882Y1183423D01*
X972820Y1183444D01*
X972761Y1183474D01*
X972707Y1183482D01*
X972670Y1183495D01*
X972630Y1183494D01*
X972576Y1183502D01*
X968766Y1183502D01*
X968701Y1183490D01*
X968635Y1183488D01*
X968592Y1183470D01*
X968545Y1183462D01*
X968488Y1183428D01*
X968427Y1183404D01*
X968393Y1183372D01*
X968352Y1183348D01*
X968310Y1183297D01*
X968262Y1183252D01*
X968240Y1183210D01*
X968210Y1183174D01*
X968189Y1183111D01*
X968159Y1183053D01*
X968151Y1182998D01*
X968139Y1182961D01*
X968139Y1182958D01*
X968140Y1182921D01*
X968132Y1182867D01*
X968132Y1180327D01*
X968143Y1180263D01*
X968145Y1180197D01*
X968163Y1180153D01*
X968171Y1180107D01*
X968205Y1180050D01*
X968229Y1179989D01*
X968261Y1179954D01*
X968285Y1179913D01*
X968336Y1179872D01*
X968381Y1179823D01*
X968423Y1179802D01*
X968460Y1179772D01*
X968522Y1179751D01*
X968580Y1179721D01*
X968635Y1179713D01*
X968672Y1179700D01*
X968711Y1179701D01*
X968766Y1179693D01*
X972576Y1179693D01*
X972641Y1179705D01*
G37*
G36*
X696551Y68107D02*
X696551Y68107D01*
X696617Y68109D01*
X696661Y68127D01*
X696707Y68135D01*
X696764Y68169D01*
X696825Y68194D01*
X696860Y68225D01*
X696900Y68250D01*
X696942Y68301D01*
X696990Y68345D01*
X697012Y68387D01*
X697042Y68424D01*
X697063Y68486D01*
X697093Y68545D01*
X697101Y68599D01*
X697114Y68636D01*
X697113Y68676D01*
X697121Y68730D01*
X697121Y71270D01*
X697109Y71335D01*
X697107Y71401D01*
X697089Y71444D01*
X697081Y71491D01*
X697047Y71548D01*
X697023Y71608D01*
X696991Y71643D01*
X696967Y71684D01*
X696916Y71726D01*
X696871Y71774D01*
X696829Y71796D01*
X696793Y71825D01*
X696730Y71846D01*
X696672Y71877D01*
X696617Y71885D01*
X696580Y71897D01*
X696541Y71896D01*
X696486Y71904D01*
X692676Y71904D01*
X692612Y71893D01*
X692546Y71891D01*
X692502Y71873D01*
X692456Y71865D01*
X692399Y71831D01*
X692338Y71806D01*
X692303Y71775D01*
X692262Y71750D01*
X692221Y71699D01*
X692172Y71655D01*
X692151Y71613D01*
X692121Y71576D01*
X692100Y71514D01*
X692070Y71455D01*
X692062Y71401D01*
X692049Y71364D01*
X692049Y71361D01*
X692050Y71324D01*
X692042Y71270D01*
X692042Y68730D01*
X692054Y68665D01*
X692056Y68599D01*
X692073Y68556D01*
X692082Y68509D01*
X692115Y68452D01*
X692140Y68392D01*
X692172Y68357D01*
X692196Y68316D01*
X692247Y68275D01*
X692291Y68226D01*
X692334Y68204D01*
X692370Y68175D01*
X692432Y68154D01*
X692491Y68123D01*
X692545Y68115D01*
X692583Y68103D01*
X692622Y68104D01*
X692676Y68096D01*
X696486Y68096D01*
X696551Y68107D01*
G37*
G36*
X1081615Y68107D02*
X1081615Y68107D01*
X1081681Y68109D01*
X1081725Y68127D01*
X1081771Y68135D01*
X1081828Y68169D01*
X1081889Y68194D01*
X1081924Y68225D01*
X1081964Y68250D01*
X1082006Y68301D01*
X1082054Y68345D01*
X1082076Y68387D01*
X1082106Y68424D01*
X1082127Y68486D01*
X1082157Y68545D01*
X1082165Y68599D01*
X1082178Y68636D01*
X1082177Y68676D01*
X1082185Y68730D01*
X1082185Y71270D01*
X1082173Y71335D01*
X1082171Y71401D01*
X1082153Y71444D01*
X1082145Y71491D01*
X1082111Y71548D01*
X1082087Y71608D01*
X1082055Y71643D01*
X1082031Y71684D01*
X1081980Y71726D01*
X1081935Y71774D01*
X1081893Y71796D01*
X1081857Y71825D01*
X1081794Y71846D01*
X1081736Y71877D01*
X1081681Y71885D01*
X1081644Y71897D01*
X1081605Y71896D01*
X1081550Y71904D01*
X1077740Y71904D01*
X1077676Y71893D01*
X1077610Y71891D01*
X1077566Y71873D01*
X1077520Y71865D01*
X1077463Y71831D01*
X1077402Y71806D01*
X1077367Y71775D01*
X1077326Y71750D01*
X1077285Y71699D01*
X1077236Y71655D01*
X1077215Y71613D01*
X1077185Y71576D01*
X1077164Y71514D01*
X1077134Y71455D01*
X1077126Y71401D01*
X1077113Y71364D01*
X1077113Y71361D01*
X1077114Y71324D01*
X1077106Y71270D01*
X1077106Y68730D01*
X1077118Y68665D01*
X1077120Y68599D01*
X1077137Y68556D01*
X1077146Y68509D01*
X1077179Y68452D01*
X1077204Y68392D01*
X1077236Y68357D01*
X1077260Y68316D01*
X1077311Y68275D01*
X1077355Y68226D01*
X1077398Y68204D01*
X1077434Y68175D01*
X1077496Y68154D01*
X1077555Y68123D01*
X1077609Y68115D01*
X1077647Y68103D01*
X1077686Y68104D01*
X1077740Y68096D01*
X1081550Y68096D01*
X1081615Y68107D01*
G37*
G36*
X311462Y68107D02*
X311462Y68107D01*
X311528Y68109D01*
X311571Y68127D01*
X311618Y68135D01*
X311675Y68169D01*
X311735Y68194D01*
X311770Y68225D01*
X311811Y68250D01*
X311853Y68301D01*
X311901Y68345D01*
X311923Y68387D01*
X311952Y68424D01*
X311973Y68486D01*
X312004Y68545D01*
X312012Y68599D01*
X312024Y68636D01*
X312023Y68676D01*
X312031Y68730D01*
X312031Y71270D01*
X312020Y71335D01*
X312018Y71401D01*
X312000Y71444D01*
X311992Y71491D01*
X311958Y71548D01*
X311933Y71608D01*
X311902Y71643D01*
X311877Y71684D01*
X311826Y71726D01*
X311782Y71774D01*
X311740Y71796D01*
X311703Y71825D01*
X311641Y71846D01*
X311582Y71877D01*
X311528Y71885D01*
X311491Y71897D01*
X311451Y71896D01*
X311397Y71904D01*
X307587Y71904D01*
X307522Y71893D01*
X307456Y71891D01*
X307413Y71873D01*
X307366Y71865D01*
X307309Y71831D01*
X307249Y71806D01*
X307214Y71775D01*
X307173Y71750D01*
X307132Y71699D01*
X307083Y71655D01*
X307061Y71613D01*
X307032Y71576D01*
X307011Y71514D01*
X306980Y71455D01*
X306972Y71401D01*
X306960Y71364D01*
X306960Y71361D01*
X306961Y71324D01*
X306953Y71270D01*
X306953Y68730D01*
X306964Y68665D01*
X306966Y68599D01*
X306984Y68556D01*
X306992Y68509D01*
X307026Y68452D01*
X307051Y68392D01*
X307082Y68357D01*
X307107Y68316D01*
X307158Y68275D01*
X307202Y68226D01*
X307244Y68204D01*
X307281Y68175D01*
X307343Y68154D01*
X307402Y68123D01*
X307456Y68115D01*
X307493Y68103D01*
X307533Y68104D01*
X307587Y68096D01*
X311397Y68096D01*
X311462Y68107D01*
G37*
D10*
X369992Y50000D03*
X9992Y640000D03*
D11*
X314412Y110000D03*
X324572Y110000D03*
D12*
X306792Y110000D03*
X332192Y110000D03*
D13*
X359492Y605207D03*
X359492Y594793D03*
D14*
X279992Y15250D03*
X274992Y15250D03*
X269992Y15250D03*
X264992Y15250D03*
X259992Y15250D03*
X254992Y15250D03*
X249992Y15250D03*
X244992Y15250D03*
X239992Y15250D03*
X234992Y15250D03*
X229992Y15250D03*
X204992Y15250D03*
X199992Y15250D03*
X194992Y15250D03*
X189992Y15250D03*
X184992Y15250D03*
X179992Y15250D03*
X174992Y15250D03*
X169992Y15250D03*
X164992Y15250D03*
X159992Y15250D03*
X154992Y15250D03*
X149992Y15250D03*
X144992Y15250D03*
X139992Y15250D03*
X134992Y15250D03*
X129992Y15250D03*
X124992Y15250D03*
X119992Y15250D03*
X114992Y15250D03*
X109992Y15250D03*
X104992Y15250D03*
X99992Y15250D03*
D15*
X369992Y461000D03*
X369992Y419000D03*
X356992Y440000D03*
X9992Y419000D03*
X9992Y461000D03*
X22992Y440000D03*
D16*
X246642Y590000D03*
X132342Y590000D03*
D17*
X268242Y559500D03*
X110742Y559500D03*
D18*
X233942Y526500D03*
X221242Y501100D03*
X208542Y526500D03*
X195842Y501100D03*
X183142Y526500D03*
X170442Y501100D03*
X157742Y526500D03*
X145042Y501100D03*
X246642Y501100D03*
X132342Y526500D03*
X230392Y630600D03*
X148592Y630600D03*
X255792Y630600D03*
X123192Y630600D03*
D11*
X335428Y340000D03*
X343556Y340000D03*
X335428Y320000D03*
X343556Y320000D03*
X335428Y300000D03*
X343556Y300000D03*
D19*
X184699Y220000D03*
X174285Y220000D03*
D11*
X74572Y500000D03*
X64412Y500000D03*
D12*
X82192Y500000D03*
X56792Y500000D03*
D19*
X214285Y160000D03*
X224699Y160000D03*
D11*
X74572Y530000D03*
X64412Y530000D03*
D12*
X82192Y530000D03*
X56792Y530000D03*
D11*
X223556Y130000D03*
X215428Y130000D03*
D13*
X299492Y605207D03*
X299492Y594793D03*
X329492Y605207D03*
X329492Y594793D03*
D19*
X314699Y70000D03*
X304285Y70000D03*
D20*
X329492Y150000D03*
D10*
X755081Y50000D03*
X395081Y640000D03*
D11*
X699501Y110000D03*
X709661Y110000D03*
D12*
X691881Y110000D03*
X717281Y110000D03*
D13*
X744581Y605207D03*
X744581Y594793D03*
D14*
X665081Y15250D03*
X660081Y15250D03*
X655081Y15250D03*
X650081Y15250D03*
X645081Y15250D03*
X640081Y15250D03*
X635081Y15250D03*
X630081Y15250D03*
X625081Y15250D03*
X620081Y15250D03*
X615081Y15250D03*
X590081Y15250D03*
X585081Y15250D03*
X580081Y15250D03*
X575081Y15250D03*
X570081Y15250D03*
X565081Y15250D03*
X560081Y15250D03*
X555081Y15250D03*
X550081Y15250D03*
X545081Y15250D03*
X540081Y15250D03*
X535081Y15250D03*
X530081Y15250D03*
X525081Y15250D03*
X520081Y15250D03*
X515081Y15250D03*
X510081Y15250D03*
X505081Y15250D03*
X500081Y15250D03*
X495081Y15250D03*
X490081Y15250D03*
X485081Y15250D03*
D15*
X755081Y461000D03*
X755081Y419000D03*
X742081Y440000D03*
X395081Y419000D03*
X395081Y461000D03*
X408081Y440000D03*
D16*
X631731Y590000D03*
X517431Y590000D03*
D17*
X653331Y559500D03*
X495831Y559500D03*
D18*
X619031Y526500D03*
X606331Y501100D03*
X593631Y526500D03*
X580931Y501100D03*
X568231Y526500D03*
X555531Y501100D03*
X542831Y526500D03*
X530131Y501100D03*
X631731Y501100D03*
X517431Y526500D03*
X615481Y630600D03*
X533681Y630600D03*
X640881Y630600D03*
X508281Y630600D03*
D11*
X720517Y340000D03*
X728645Y340000D03*
X720517Y320000D03*
X728645Y320000D03*
X720517Y300000D03*
X728645Y300000D03*
D19*
X569788Y220000D03*
X559374Y220000D03*
D11*
X459661Y500000D03*
X449501Y500000D03*
D12*
X467281Y500000D03*
X441881Y500000D03*
D19*
X599374Y160000D03*
X609788Y160000D03*
D11*
X459661Y530000D03*
X449501Y530000D03*
D12*
X467281Y530000D03*
X441881Y530000D03*
D11*
X608645Y130000D03*
X600517Y130000D03*
D13*
X684581Y605207D03*
X684581Y594793D03*
X714581Y605207D03*
X714581Y594793D03*
D19*
X699788Y70000D03*
X689374Y70000D03*
D20*
X714581Y150000D03*
D10*
X1140145Y50000D03*
X780145Y640000D03*
D11*
X1084565Y110000D03*
X1094725Y110000D03*
D12*
X1076945Y110000D03*
X1102345Y110000D03*
D13*
X1129645Y605207D03*
X1129645Y594793D03*
D14*
X1050145Y15250D03*
X1045145Y15250D03*
X1040145Y15250D03*
X1035145Y15250D03*
X1030145Y15250D03*
X1025145Y15250D03*
X1020145Y15250D03*
X1015145Y15250D03*
X1010145Y15250D03*
X1005145Y15250D03*
X1000145Y15250D03*
X975145Y15250D03*
X970145Y15250D03*
X965145Y15250D03*
X960145Y15250D03*
X955145Y15250D03*
X950145Y15250D03*
X945145Y15250D03*
X940145Y15250D03*
X935145Y15250D03*
X930145Y15250D03*
X925145Y15250D03*
X920145Y15250D03*
X915145Y15250D03*
X910145Y15250D03*
X905145Y15250D03*
X900145Y15250D03*
X895145Y15250D03*
X890145Y15250D03*
X885145Y15250D03*
X880145Y15250D03*
X875145Y15250D03*
X870145Y15250D03*
D15*
X1140145Y461000D03*
X1140145Y419000D03*
X1127145Y440000D03*
X780145Y419000D03*
X780145Y461000D03*
X793145Y440000D03*
D16*
X1016795Y590000D03*
X902495Y590000D03*
D17*
X1038395Y559500D03*
X880895Y559500D03*
D18*
X1004095Y526500D03*
X991395Y501100D03*
X978695Y526500D03*
X965995Y501100D03*
X953295Y526500D03*
X940595Y501100D03*
X927895Y526500D03*
X915195Y501100D03*
X1016795Y501100D03*
X902495Y526500D03*
X1000545Y630600D03*
X918745Y630600D03*
X1025945Y630600D03*
X893345Y630600D03*
D11*
X1105581Y340000D03*
X1113709Y340000D03*
X1105581Y320000D03*
X1113709Y320000D03*
X1105581Y300000D03*
X1113709Y300000D03*
D19*
X954852Y220000D03*
X944438Y220000D03*
D11*
X844725Y500000D03*
X834565Y500000D03*
D12*
X852345Y500000D03*
X826945Y500000D03*
D19*
X984438Y160000D03*
X994852Y160000D03*
D11*
X844725Y530000D03*
X834565Y530000D03*
D12*
X852345Y530000D03*
X826945Y530000D03*
D11*
X993709Y130000D03*
X985581Y130000D03*
D13*
X1069645Y605207D03*
X1069645Y594793D03*
X1099645Y605207D03*
X1099645Y594793D03*
D19*
X1084852Y70000D03*
X1074438Y70000D03*
D20*
X1099645Y150000D03*
D10*
X10017Y1351597D03*
X370017Y761597D03*
D11*
X65597Y1291597D03*
X55437Y1291597D03*
D12*
X73217Y1291597D03*
X47817Y1291597D03*
D13*
X20517Y796390D03*
X20517Y806804D03*
D14*
X100017Y1386347D03*
X105017Y1386347D03*
X110017Y1386347D03*
X115017Y1386347D03*
X120017Y1386347D03*
X125017Y1386347D03*
X130017Y1386347D03*
X135017Y1386347D03*
X140017Y1386347D03*
X145017Y1386347D03*
X150017Y1386347D03*
X175017Y1386347D03*
X180017Y1386347D03*
X185017Y1386347D03*
X190017Y1386347D03*
X195017Y1386347D03*
X200017Y1386347D03*
X205017Y1386347D03*
X210017Y1386347D03*
X215017Y1386347D03*
X220017Y1386347D03*
X225017Y1386347D03*
X230017Y1386347D03*
X235017Y1386347D03*
X240017Y1386347D03*
X245017Y1386347D03*
X250017Y1386347D03*
X255017Y1386347D03*
X260017Y1386347D03*
X265017Y1386347D03*
X270017Y1386347D03*
X275017Y1386347D03*
X280017Y1386347D03*
D15*
X10017Y940597D03*
X10017Y982597D03*
X23017Y961597D03*
X370017Y982597D03*
X370017Y940597D03*
X357017Y961597D03*
D16*
X133367Y811597D03*
X247667Y811597D03*
D17*
X111767Y842097D03*
X269267Y842097D03*
D18*
X146067Y875097D03*
X158767Y900497D03*
X171467Y875097D03*
X184167Y900497D03*
X196867Y875097D03*
X209567Y900497D03*
X222267Y875097D03*
X234967Y900497D03*
X133367Y900497D03*
X247667Y875097D03*
X149617Y770997D03*
X231417Y770997D03*
X124217Y770997D03*
X256817Y770997D03*
D11*
X44581Y1061597D03*
X36453Y1061597D03*
X44581Y1081597D03*
X36453Y1081597D03*
X44581Y1101597D03*
X36453Y1101597D03*
D19*
X195310Y1181597D03*
X205724Y1181597D03*
D11*
X305437Y901597D03*
X315597Y901597D03*
D12*
X297817Y901597D03*
X323217Y901597D03*
D19*
X165724Y1241597D03*
X155310Y1241597D03*
D11*
X305437Y871597D03*
X315597Y871597D03*
D12*
X297817Y871597D03*
X323217Y871597D03*
D11*
X156453Y1271597D03*
X164581Y1271597D03*
D13*
X80517Y796390D03*
X80517Y806804D03*
X50517Y796390D03*
X50517Y806804D03*
D19*
X65310Y1331597D03*
X75724Y1331597D03*
D20*
X50517Y1251597D03*
D10*
X395081Y1351597D03*
X755081Y761597D03*
D11*
X450661Y1291597D03*
X440501Y1291597D03*
D12*
X458281Y1291597D03*
X432881Y1291597D03*
D13*
X405581Y796390D03*
X405581Y806804D03*
D14*
X485081Y1386347D03*
X490081Y1386347D03*
X495081Y1386347D03*
X500081Y1386347D03*
X505081Y1386347D03*
X510081Y1386347D03*
X515081Y1386347D03*
X520081Y1386347D03*
X525081Y1386347D03*
X530081Y1386347D03*
X535081Y1386347D03*
X560081Y1386347D03*
X565081Y1386347D03*
X570081Y1386347D03*
X575081Y1386347D03*
X580081Y1386347D03*
X585081Y1386347D03*
X590081Y1386347D03*
X595081Y1386347D03*
X600081Y1386347D03*
X605081Y1386347D03*
X610081Y1386347D03*
X615081Y1386347D03*
X620081Y1386347D03*
X625081Y1386347D03*
X630081Y1386347D03*
X635081Y1386347D03*
X640081Y1386347D03*
X645081Y1386347D03*
X650081Y1386347D03*
X655081Y1386347D03*
X660081Y1386347D03*
X665081Y1386347D03*
D15*
X395081Y940597D03*
X395081Y982597D03*
X408081Y961597D03*
X755081Y982597D03*
X755081Y940597D03*
X742081Y961597D03*
D16*
X518431Y811597D03*
X632731Y811597D03*
D17*
X496831Y842097D03*
X654331Y842097D03*
D18*
X531131Y875097D03*
X543831Y900497D03*
X556531Y875097D03*
X569231Y900497D03*
X581931Y875097D03*
X594631Y900497D03*
X607331Y875097D03*
X620031Y900497D03*
X518431Y900497D03*
X632731Y875097D03*
X534681Y770997D03*
X616481Y770997D03*
X509281Y770997D03*
X641881Y770997D03*
D11*
X429645Y1061597D03*
X421517Y1061597D03*
X429645Y1081597D03*
X421517Y1081597D03*
X429645Y1101597D03*
X421517Y1101597D03*
D19*
X580374Y1181597D03*
X590788Y1181597D03*
D11*
X690501Y901597D03*
X700661Y901597D03*
D12*
X682881Y901597D03*
X708281Y901597D03*
D19*
X550788Y1241597D03*
X540374Y1241597D03*
D11*
X690501Y871597D03*
X700661Y871597D03*
D12*
X682881Y871597D03*
X708281Y871597D03*
D11*
X541517Y1271597D03*
X549645Y1271597D03*
D13*
X465581Y796390D03*
X465581Y806804D03*
X435581Y796390D03*
X435581Y806804D03*
D19*
X450374Y1331597D03*
X460788Y1331597D03*
D20*
X435581Y1251597D03*
D10*
X780171Y1351597D03*
X1140171Y761597D03*
D11*
X835751Y1291597D03*
X825591Y1291597D03*
D12*
X843371Y1291597D03*
X817971Y1291597D03*
D13*
X790671Y796390D03*
X790671Y806804D03*
D14*
X870171Y1386347D03*
X875171Y1386347D03*
X880171Y1386347D03*
X885171Y1386347D03*
X890171Y1386347D03*
X895171Y1386347D03*
X900171Y1386347D03*
X905171Y1386347D03*
X910171Y1386347D03*
X915171Y1386347D03*
X920171Y1386347D03*
X945171Y1386347D03*
X950171Y1386347D03*
X955171Y1386347D03*
X960171Y1386347D03*
X965171Y1386347D03*
X970171Y1386347D03*
X975171Y1386347D03*
X980171Y1386347D03*
X985171Y1386347D03*
X990171Y1386347D03*
X995171Y1386347D03*
X1000171Y1386347D03*
X1005171Y1386347D03*
X1010171Y1386347D03*
X1015171Y1386347D03*
X1020171Y1386347D03*
X1025171Y1386347D03*
X1030171Y1386347D03*
X1035171Y1386347D03*
X1040171Y1386347D03*
X1045171Y1386347D03*
X1050171Y1386347D03*
D15*
X780171Y940597D03*
X780171Y982597D03*
X793171Y961597D03*
X1140171Y982597D03*
X1140171Y940597D03*
X1127171Y961597D03*
D16*
X903521Y811597D03*
X1017821Y811597D03*
D17*
X881921Y842097D03*
X1039421Y842097D03*
D18*
X916221Y875097D03*
X928921Y900497D03*
X941621Y875097D03*
X954321Y900497D03*
X967021Y875097D03*
X979721Y900497D03*
X992421Y875097D03*
X1005121Y900497D03*
X903521Y900497D03*
X1017821Y875097D03*
X919771Y770997D03*
X1001571Y770997D03*
X894371Y770997D03*
X1026971Y770997D03*
D11*
X814735Y1061597D03*
X806607Y1061597D03*
X814735Y1081597D03*
X806607Y1081597D03*
X814735Y1101597D03*
X806607Y1101597D03*
D19*
X965464Y1181597D03*
X975878Y1181597D03*
D11*
X1075591Y901597D03*
X1085751Y901597D03*
D12*
X1067971Y901597D03*
X1093371Y901597D03*
D19*
X935878Y1241597D03*
X925464Y1241597D03*
D11*
X1075591Y871597D03*
X1085751Y871597D03*
D12*
X1067971Y871597D03*
X1093371Y871597D03*
D11*
X926607Y1271597D03*
X934735Y1271597D03*
D13*
X850671Y796390D03*
X850671Y806804D03*
X820671Y796390D03*
X820671Y806804D03*
D19*
X835464Y1331597D03*
X845878Y1331597D03*
D20*
X820671Y1251597D03*
D21*
X-26238Y1338097D03*
X1176401Y1338097D03*
D22*
X-35293Y63500D02*
X-35290Y63722D01*
X-35282Y63944D01*
X-35268Y64166D01*
X-35249Y64388D01*
X-35225Y64608D01*
X-35195Y64829D01*
X-35160Y65048D01*
X-35119Y65267D01*
X-35073Y65484D01*
X-35022Y65700D01*
X-34965Y65915D01*
X-34903Y66129D01*
X-34836Y66340D01*
X-34764Y66551D01*
X-34686Y66759D01*
X-34604Y66965D01*
X-34516Y67169D01*
X-34424Y67372D01*
X-34326Y67571D01*
X-34224Y67768D01*
X-34117Y67963D01*
X-34005Y68155D01*
X-33888Y68344D01*
X-33767Y68531D01*
X-33641Y68714D01*
X-33511Y68894D01*
X-33376Y69071D01*
X-33238Y69244D01*
X-33095Y69414D01*
X-32947Y69581D01*
X-32796Y69744D01*
X-32641Y69903D01*
X-32482Y70058D01*
X-32319Y70209D01*
X-32152Y70357D01*
X-31982Y70500D01*
X-31809Y70638D01*
X-31632Y70773D01*
X-31452Y70903D01*
X-31269Y71029D01*
X-31082Y71150D01*
X-30893Y71267D01*
X-30701Y71379D01*
X-30506Y71486D01*
X-30309Y71588D01*
X-30110Y71686D01*
X-29907Y71778D01*
X-29703Y71866D01*
X-29497Y71948D01*
X-29289Y72026D01*
X-29078Y72098D01*
X-28867Y72165D01*
X-28653Y72227D01*
X-28438Y72284D01*
X-28222Y72335D01*
X-28005Y72381D01*
X-27786Y72422D01*
X-27567Y72457D01*
X-27346Y72487D01*
X-27126Y72511D01*
X-26904Y72530D01*
X-26682Y72544D01*
X-26460Y72552D01*
X-26238Y72555D01*
X-26016Y72552D01*
X-25794Y72544D01*
X-25572Y72530D01*
X-25350Y72511D01*
X-25130Y72487D01*
X-24909Y72457D01*
X-24690Y72422D01*
X-24471Y72381D01*
X-24254Y72335D01*
X-24038Y72284D01*
X-23823Y72227D01*
X-23609Y72165D01*
X-23398Y72098D01*
X-23187Y72026D01*
X-22979Y71948D01*
X-22773Y71866D01*
X-22569Y71778D01*
X-22366Y71686D01*
X-22167Y71588D01*
X-21970Y71486D01*
X-21775Y71379D01*
X-21583Y71267D01*
X-21394Y71150D01*
X-21207Y71029D01*
X-21024Y70903D01*
X-20844Y70773D01*
X-20667Y70638D01*
X-20494Y70500D01*
X-20324Y70357D01*
X-20157Y70209D01*
X-19994Y70058D01*
X-19835Y69903D01*
X-19680Y69744D01*
X-19529Y69581D01*
X-19381Y69414D01*
X-19238Y69244D01*
X-19100Y69071D01*
X-18965Y68894D01*
X-18835Y68714D01*
X-18709Y68531D01*
X-18588Y68344D01*
X-18471Y68155D01*
X-18359Y67963D01*
X-18252Y67768D01*
X-18150Y67571D01*
X-18052Y67372D01*
X-17960Y67169D01*
X-17872Y66965D01*
X-17790Y66759D01*
X-17712Y66551D01*
X-17640Y66340D01*
X-17573Y66129D01*
X-17511Y65915D01*
X-17454Y65700D01*
X-17403Y65484D01*
X-17357Y65267D01*
X-17316Y65048D01*
X-17281Y64829D01*
X-17251Y64608D01*
X-17227Y64388D01*
X-17208Y64166D01*
X-17194Y63944D01*
X-17186Y63722D01*
X-17183Y63500D01*
X-17186Y63278D01*
X-17194Y63056D01*
X-17208Y62834D01*
X-17227Y62612D01*
X-17251Y62392D01*
X-17281Y62171D01*
X-17316Y61952D01*
X-17357Y61733D01*
X-17403Y61516D01*
X-17454Y61300D01*
X-17511Y61085D01*
X-17573Y60871D01*
X-17640Y60660D01*
X-17712Y60449D01*
X-17790Y60241D01*
X-17872Y60035D01*
X-17960Y59831D01*
X-18052Y59628D01*
X-18150Y59429D01*
X-18252Y59232D01*
X-18359Y59037D01*
X-18471Y58845D01*
X-18588Y58656D01*
X-18709Y58469D01*
X-18835Y58286D01*
X-18965Y58106D01*
X-19100Y57929D01*
X-19238Y57756D01*
X-19381Y57586D01*
X-19529Y57419D01*
X-19680Y57256D01*
X-19835Y57097D01*
X-19994Y56942D01*
X-20157Y56791D01*
X-20324Y56643D01*
X-20494Y56500D01*
X-20667Y56362D01*
X-20844Y56227D01*
X-21024Y56097D01*
X-21207Y55971D01*
X-21394Y55850D01*
X-21583Y55733D01*
X-21775Y55621D01*
X-21970Y55514D01*
X-22167Y55412D01*
X-22366Y55314D01*
X-22569Y55222D01*
X-22773Y55134D01*
X-22979Y55052D01*
X-23187Y54974D01*
X-23398Y54902D01*
X-23609Y54835D01*
X-23823Y54773D01*
X-24038Y54716D01*
X-24254Y54665D01*
X-24471Y54619D01*
X-24690Y54578D01*
X-24909Y54543D01*
X-25130Y54513D01*
X-25350Y54489D01*
X-25572Y54470D01*
X-25794Y54456D01*
X-26016Y54448D01*
X-26238Y54445D01*
X-26460Y54448D01*
X-26682Y54456D01*
X-26904Y54470D01*
X-27126Y54489D01*
X-27346Y54513D01*
X-27567Y54543D01*
X-27786Y54578D01*
X-28005Y54619D01*
X-28222Y54665D01*
X-28438Y54716D01*
X-28653Y54773D01*
X-28867Y54835D01*
X-29078Y54902D01*
X-29289Y54974D01*
X-29497Y55052D01*
X-29703Y55134D01*
X-29907Y55222D01*
X-30110Y55314D01*
X-30309Y55412D01*
X-30506Y55514D01*
X-30701Y55621D01*
X-30893Y55733D01*
X-31082Y55850D01*
X-31269Y55971D01*
X-31452Y56097D01*
X-31632Y56227D01*
X-31809Y56362D01*
X-31982Y56500D01*
X-32152Y56643D01*
X-32319Y56791D01*
X-32482Y56942D01*
X-32641Y57097D01*
X-32796Y57256D01*
X-32947Y57419D01*
X-33095Y57586D01*
X-33238Y57756D01*
X-33376Y57929D01*
X-33511Y58106D01*
X-33641Y58286D01*
X-33767Y58469D01*
X-33888Y58656D01*
X-34005Y58845D01*
X-34117Y59037D01*
X-34224Y59232D01*
X-34326Y59429D01*
X-34424Y59628D01*
X-34516Y59831D01*
X-34604Y60035D01*
X-34686Y60241D01*
X-34764Y60449D01*
X-34836Y60660D01*
X-34903Y60871D01*
X-34965Y61085D01*
X-35022Y61300D01*
X-35073Y61516D01*
X-35119Y61733D01*
X-35160Y61952D01*
X-35195Y62171D01*
X-35225Y62392D01*
X-35249Y62612D01*
X-35268Y62834D01*
X-35282Y63056D01*
X-35290Y63278D01*
X-35293Y63500D01*
D18*
X-26238Y63500D03*
M02*
